<?xml version="1.0" standalone="no"?><!DOCTYPE svg PUBLIC "-//W3C//DTD SVG 1.1//EN" "http://www.w3.org/Graphics/SVG/1.1/DTD/svg11.dtd"><svg t="1662133195728" class="icon" viewBox="0 0 1024 1024" version="1.1" xmlns="http://www.w3.org/2000/svg" p-id="3370" xmlns:xlink="http://www.w3.org/1999/xlink" width="200" height="200"><path d="M661.15 72L860 261.81V952H164V72h497.15M666 0H152a60 60 0 0 0-60 60v904a60 60 0 0 0 60 60h720a60 60 0 0 0 60-60V256.67a60 60 0 0 0-18.57-43.4L707.39 16.6A60 60 0 0 0 666 0z" fill="#959CA7" p-id="3371"></path><path d="M530 284H288a36 36 0 1 1 0-72h242a36 36 0 0 1 0 72zM896 295H684a36 36 0 0 1-36-36V47a36 36 0 0 1 72 0v176h176a36 36 0 1 1 0 72zM530 416H288a36 36 0 1 1 0-72h242a36 36 0 0 1 0 72z" fill="#959CA7" p-id="3372"></path><path d="M92 555m20 0l582 0q20 0 20 20l0 276q0 20-20 20l-582 0q-20 0-20-20l0-276q0-20 20-20Z" fill="#3C87F7" p-id="3373"></path><path d="M161.5 798.31V627.69h37l47.13 105.75h1.13l47.12-105.75h36.38v170.62H298v-110.5h-1.5l-39.25 87.75h-22.62l-39.37-87.75h-1.5v110.5zM366.13 798.31V627.69h69.57q27.28 0 42.85 16.22T494.13 685q0 25.27-15.6 41.29t-43.07 16h-33v56z m36.25-83.75h19.08q17.71 0 26.81-6.76t9.11-22.8q0-14.15-7.67-21.86t-21.39-7.71h-25.94zM507.75 767.81v-29.37q6.87-13.12 15.81-28.75t15.19-26.06q6.25-10.44 17.69-29.31t16.06-26.62h51.63v110.86h20.37v29.25h-20.37v30.5h-34v-30.5z m32.13-29.25h50.25v-84.12h-1.37q-31.5 50.38-48.87 83.75z" fill="#FFFFFF" p-id="3374"></path></svg>