<?xml version="1.0" standalone="no"?><!DOCTYPE svg PUBLIC "-//W3C//DTD SVG 1.1//EN" "http://www.w3.org/Graphics/SVG/1.1/DTD/svg11.dtd"><svg class="icon" width="200px" height="200.00px" viewBox="0 0 1024 1024" version="1.1" xmlns="http://www.w3.org/2000/svg"><path d="M292.887 806.826H586.15V408.445h-68.687v329.436H292.887z" fill="#DE5934" /><path d="M728.345 63.14H224.056v252.205h68.687v-183.26h378.844V320.27h186.917v571.008H292.743V679.252h-68.687v280.971h703.135V255.819z" fill="#819292" /><path d="M660.276 418.086h129.217v67.221H660.276zM660.276 578.414h129.217v67.221H660.276zM660.276 738.742h129.217v67.221H660.276z" fill="#819292" /><path d="M153.415 615.473c-0.071 0.868-0.191 2.319 3.378 4.31 1.85 1.032 3.838 1.533 6.079 1.533 15.83 0 40.741-23.869 63.986-60.169-44.866 19.745-72.561 43.601-73.443 54.326z" fill="#DE5934" /><path d="M460.55 679.252V315.345H98.004v363.908H460.55z m-297.678-40.7c-5.163 0-10.015-1.246-14.419-3.702-11.532-6.432-12.563-15.789-12.151-20.794 2.166-26.339 53.854-58.453 104.834-77.227 13.764-25.553 24.693-52.454 31.088-76.504-12.704-18.632-22.722-35.513-29.066-48.992-8.791-18.678-10.874-31.236-6.555-39.518 1.741-3.338 6.166-8.937 16.249-8.937 2.853 0 5.944 0.434 9.449 1.328 11.783 3.003 26.864 11.759 31.802 36.421 3.003 14.994 1.881 33.92-3.331 56.301 14.28 20.406 31.117 42.029 47.932 61.552 38.823 1.538 65.211 17.411 76.433 46.054l0.218 0.557 0.139 0.582c2.753 11.489 2.225 18.85-1.712 23.868-2.57 3.276-6.405 5.082-10.799 5.084h-0.013c-5.375 0-14.008-2.177-33.201-19.101-11.241-9.913-24.665-23.669-38.967-39.924-22.839 0.226-49.629 5.489-77.775 15.272-13.471 23.998-52.774 87.68-90.155 87.68z" fill="#DE5934" /><path d="M399.969 576.394c-0.118-1.42-0.407-3.402-1.031-6.105-6.997-17.321-21.427-28.222-43.023-32.557 23.996 25.761 37.925 35.748 44.054 38.662zM316.391 519.054l-0.843-0.968 0.322 0.004a829 829 0 0 1-30.537-39.219l-0.082 0.328-0.467-0.675c-5.15 16.154-11.97 33.114-20.043 49.84l0.824-0.295-0.493 0.897c15.32-4.419 33.101-8.361 51.319-9.912zM258.075 380.911c-2.076-0.529-3.834-0.797-5.224-0.797-0.526 0-0.897 0.04-1.143 0.082-0.307 1.494-0.686 7.583 7.124 24.088 4.357 9.208 10.593 20.192 18.342 32.345 3.422-23.549 2.201-50.289-19.099-55.718z" fill="#DE5934" /><path d="M330.803 535.599c14.302 16.256 27.726 30.012 38.967 39.924 19.193 16.924 27.826 19.101 33.201 19.101h0.013c4.394-0.003 8.228-1.809 10.799-5.084 3.937-5.019 4.465-12.379 1.712-23.868l-0.139-0.582-0.218-0.557c-11.222-28.643-37.61-44.516-76.433-46.054-16.815-19.524-33.652-41.146-47.932-61.552 5.212-22.381 6.334-41.307 3.331-56.301-4.938-24.661-20.02-33.418-31.802-36.421-3.505-0.893-6.596-1.328-9.449-1.328-10.083 0-14.508 5.599-16.249 8.937-4.318 8.282-2.236 20.84 6.555 39.518 6.344 13.479 16.362 30.361 29.066 48.992-6.395 24.049-17.324 50.95-31.088 76.504-50.98 18.774-102.668 50.888-104.834 77.227-0.412 5.005 0.62 14.362 12.151 20.794 4.405 2.457 9.256 3.702 14.419 3.702 37.381 0 76.684-63.682 90.157-87.681 28.145-9.782 54.934-15.045 77.773-15.271z m68.134 34.69c0.624 2.703 0.913 4.685 1.031 6.105-6.129-2.914-20.057-12.901-44.055-38.662 21.597 4.335 36.028 15.236 43.024 32.557z m-236.065 51.026c-2.241 0-4.23-0.501-6.079-1.533-3.569-1.99-3.449-3.442-3.378-4.31 0.882-10.725 28.577-34.581 73.443-54.326-23.245 36.3-48.156 60.169-63.986 60.169z m95.96-217.031c-7.81-16.505-7.431-22.594-7.124-24.088a6.741 6.741 0 0 1 1.143-0.082c1.39 0 3.147 0.268 5.224 0.797 21.301 5.429 22.521 32.169 19.099 55.718-7.749-12.153-13.985-23.137-18.342-32.345z m5.91 124.08c8.072-16.726 14.893-33.686 20.043-49.84l0.467 0.675 0.082-0.328a830.025 830.025 0 0 0 30.537 39.219l-0.322-0.004 0.843 0.968c-18.219 1.551-35.999 5.492-51.319 9.913l0.493-0.897-0.824 0.294z" fill="#FFFFFF" /></svg>