<?xml version="1.0" standalone="no"?><!DOCTYPE svg PUBLIC "-//W3C//DTD SVG 1.1//EN" "http://www.w3.org/Graphics/SVG/1.1/DTD/svg11.dtd"><svg t="1662109324965" class="icon" viewBox="0 0 1024 1024" version="1.1" xmlns="http://www.w3.org/2000/svg" p-id="4241" xmlns:xlink="http://www.w3.org/1999/xlink" width="200" height="200"><path d="M707.2 79.9H238.6c-11.6 0-21 9.4-21 21V923c0 11.6 9.4 21 21 21h704.9V316.3L707.2 79.9" fill="#FFFFFF" p-id="4242"></path><path d="M943.6 960h-705c-20.4 0-37-16.6-37-37V100.9c0-20.4 16.6-37 37-37h468.6c4.2 0 8.3 1.7 11.3 4.7L954.9 305c3 3 4.7 7.1 4.7 11.3V944c0 8.9-7.2 16-16 16z m-705-864.1c-2.7 0-5 2.2-5 5V923c0 2.7 2.2 5 5 5h689V323l-227-227h-462z" fill="#00365B" p-id="4243"></path><path d="M943.6 316.3H707.2V79.9z" fill="#FFFFFF" p-id="4244"></path><path d="M943.6 332.3H707.2c-8.8 0-16-7.2-16-16V79.9c0-6.5 3.9-12.3 9.9-14.8s12.9-1.1 17.4 3.5L954.9 305c4.6 4.6 5.9 11.5 3.5 17.4-2.5 6-8.3 9.9-14.8 9.9z m-220.4-32H905L723.2 118.6v181.7z" fill="#00365B" p-id="4245"></path><path d="M104.7 414.2h698.8c22.4 0 40.6 19.8 40.6 44.3v301.4c0 24.5-18.2 44.3-40.6 44.3H104.7c-22.4 0-40.6-19.8-40.6-44.3V458.5c-0.1-24.5 18.1-44.3 40.6-44.3z" fill="#A4A6A5" p-id="4246"></path><path d="M230.9 742.3c8.7 0 15-2.1 18.7-6.2 3.7-4.1 5.6-8.7 5.6-13.9V514.5h48c4.5 0 8.9-1.7 13.1-5 4.2-3.3 6.4-9.1 6.4-17.3 0-8-2-13.7-6-17.2s-8.5-5.2-13.5-5.2H158.5c-5 0-9.5 1.7-13.5 5.2s-6 9.2-6 17.2c0 8.2 2.1 14 6.4 17.3s8.6 5 13.1 5h48v207.8c0 4.6 1.9 9.1 5.6 13.5 3.8 4.4 10.1 6.5 18.8 6.5z m303.6-0.3c4.6 1.5 10.4 0 17.4-4.6 6.5-4.4 10.2-8.9 11.1-13.7 0.9-4.8 0.1-8.9-2.4-12.5l-79.9-115.7 66.7-96c3.5-5.1 4.9-10.3 4.1-15.6-0.8-5.3-4.4-10-10.9-14.1s-12.5-5.2-18-3.3c-5.5 1.9-10.6 6.4-15.4 13.3L454 556.9l-56.6-82.1c-4.2-5.9-8.7-9.1-13.3-9.4-4.6-0.4-10.2 1.7-16.7 6.4-4.5 3.3-7.5 7.9-9 13.7-1.5 5.8-0.9 10.9 1.9 15.2l66.4 95.2-76.1 110.3c-4.2 6.2-5.7 12-4.3 17.5 1.4 5.5 4.6 10 9.6 13.3 12.2 8.2 22.2 6.6 30-5l67.9-97.5 68.2 97.2c3.7 5.3 7.9 8.7 12.5 10.3z m146.4 0.3c8.7 0 15-2.1 18.7-6.2s5.6-8.7 5.6-13.9V514.5h48c4.5 0 8.9-1.7 13.1-5s6.4-9.1 6.4-17.3c0-8-2-13.7-6-17.2s-8.5-5.2-13.5-5.2H608.5c-5 0-9.5 1.7-13.5 5.2s-6 9.2-6 17.2c0 8.2 2.1 14 6.4 17.3 4.2 3.3 8.6 5 13.1 5h48v207.8c0 4.6 1.9 9.1 5.6 13.5 3.8 4.4 10.1 6.5 18.8 6.5z" fill="#FFFFFF" p-id="4247"></path></svg>