<?xml version="1.0" standalone="no"?><!DOCTYPE svg PUBLIC "-//W3C//DTD SVG 1.1//EN" "http://www.w3.org/Graphics/SVG/1.1/DTD/svg11.dtd"><svg class="icon" width="200px" height="200.00px" viewBox="0 0 1024 1024" version="1.1" xmlns="http://www.w3.org/2000/svg"><path d="M727.949 64.223H223.977v250.866h68.644V132.802h378.605v187.187h186.801v567.978H292.621V677.066h-68.644v279.48H926.67V255.879z" fill="#819292" /><path d="M659.923 417.285h129.136v66.865H659.923zM659.923 576.763h129.136v66.865H659.923zM659.923 736.24h129.136v66.865H659.923z" fill="#819292" /><path d="M292.765 803.962h293.078V407.696h-68.644v327.687H292.765z" fill="#287CB0" /><path d="M460.322 677.066V315.089H98.004v361.977h362.318z m-239.598-53.143l-0.335-0.335v0.741h-60.063V367.827h60.063v159.446l58.178-58.123 0.254 0.254 1.112-1.111 58.005 57.95V367.827h60.063v255.644h-60.063v-0.568l-0.162 0.162-58.097-58.042-58.955 58.9z" fill="#287CB0" /><path d="M337.775 623.065l0.163-0.162v0.568h60.063V367.827h-60.063v158.416l-58.005-57.951-1.112 1.112-0.255-0.254-58.177 58.122V367.827h-60.063v256.501h60.063v-0.74l0.335 0.335 58.955-58.899z" fill="#FFFFFF" /></svg>