<svg width="200" height="200" xmlns="http://www.w3.org/2000/svg" class="icon">
 <defs>
  <style type="text/css"/>
 </defs>
 <!-- <circle cx="400" cy="400" r="600" fill="#000" p-id="2471"></circle> -->
 <g>
  <title>background</title>
  <rect x="-1" y="-1" width="202" height="202" id="canvas_background" fill="none"/>
 </g>
 <g>
  <title>Layer 1</title>
  <ellipse stroke="null" fill="#fff" stroke-width="null" stroke-opacity="null" fill-opacity="null" cx="100" cy="100" id="svg_2" rx="100" ry="100"/>
  <path stroke="null" d="m82.30506,112.88573l-11.31898,0l0,-14.74286l-10.98607,-2.05714l0,47.31429l10.98607,-3.77143l0,-16.45714l17.6443,0l9.65442,-13.37143l-12.65062,-6.85715l-3.32912,9.94286zm57.26073,3.08572l25.63417,-16.80001l-79.8987,-54.17144l-9.32151,0l-12.65063,20.57144l0,6.85714l70.24427,43.88572l5.9924,0l0,-0.34285zm-9.65442,3.42857l-60.58985,-40.45715l-6.32531,6.85714l70.24427,43.88572l6.32531,0l3.32912,-3.42857l3.32911,-9.94286s-9.32152,6.85715 -9.65443,6.85715c-3.66202,-2.4 -6.65822,-3.77143 -6.65822,-3.77143z" fill="#00A9F4" id="svg_1"/>
 </g>
</svg>