<?xml version="1.0" encoding="UTF-8"?>
<svg width="22px" height="22px" viewBox="0 0 22 22" version="1.1" xmlns="http://www.w3.org/2000/svg" xmlns:xlink="http://www.w3.org/1999/xlink">
    <title>地图</title>
    <defs>
        <rect id="path-1" x="0" y="0" width="22" height="22"></rect>
        <linearGradient x1="50%" y1="100%" x2="50%" y2="0.572962194%" id="linearGradient-3">
            <stop stop-color="#C0D8FF" offset="0%"></stop>
            <stop stop-color="#EEF5FF" offset="100%"></stop>
        </linearGradient>
    </defs>
    <g id="页面-1" stroke="none" stroke-width="1" fill="none" fill-rule="evenodd">
        <g id="实时监控-SCADA系统" transform="translate(-59.000000, -893.000000)">
            <g id="地图" transform="translate(59.000000, 893.000000)">
                <mask id="mask-2" fill="white">
                    <use xlink:href="#path-1"></use>
                </mask>
                <g id="蒙版"></g>
                <g mask="url(#mask-2)" fill="url(#linearGradient-3)" fill-rule="nonzero" id="形状">
                    <g transform="translate(3.000000, 3.000000)">
                        <path d="M0.273858094,2.16438049 L3.70479859,0.0834446919 C3.97479953,-0.0804844491 4.32580075,0.00437298859 4.48972989,0.274373927 C4.54373007,0.365017099 4.57265875,0.46723174 4.57265875,0.573303537 L4.57265875,13.2170618 C4.57265875,13.4176339 4.46851553,13.604706 4.2949435,13.7088492 L0.86593158,15.7589277 C0.595930642,15.9209283 0.244929423,15.8341423 0.0810002815,15.5622128 C0.0270000938,15.4734982 0,15.3712835 0,15.2671403 L0,2.65423934 C0,2.45366721 0.104143219,2.26852371 0.273858094,2.16438049 Z M11.7083978,2.16438049 L15.1374097,0.0834446919 C15.4074107,-0.0804844491 15.7584119,0.00437298859 15.922341,0.274373927 C15.9763412,0.365017099 16.0052699,0.46723174 16.0052699,0.573303537 L16.0052699,13.2170618 C16.0052699,13.4176339 15.9011267,13.604706 15.7275547,13.7088492 L12.2985427,15.7589277 C12.0285418,15.9209283 11.6775406,15.8341423 11.5136114,15.5622128 C11.4596112,15.4734982 11.4326112,15.3712835 11.4326112,15.2671403 L11.4326112,2.65423934 C11.4345397,2.45366721 11.5367544,2.26852371 11.7083978,2.16438049 L11.7083978,2.16438049 Z M6.58416574,0.731446944 L10.0151062,2.78538265 C10.1867497,2.88952587 10.2928215,3.07466937 10.2928215,3.2752415 L10.2928215,15.4291409 C10.2928215,15.7454277 10.0363206,16 9.72003378,16 C9.61589056,16 9.51367592,15.9710713 9.42496132,15.9170711 L5.99402083,13.8457782 C5.82237737,13.7435636 5.71630558,13.5564915 5.71630558,13.3559194 L5.71630558,1.22130579 C5.71630558,0.905018975 5.97280647,0.650446662 6.2871647,0.650446662 C6.39130792,0.650446662 6.49352256,0.677446756 6.58416574,0.731446944 Z"></path>
                    </g>
                </g>
            </g>
        </g>
    </g>
</svg>