<?xml version="1.0" encoding="UTF-8"?>
<svg width="22px" height="22px" viewBox="0 0 22 22" version="1.1" xmlns="http://www.w3.org/2000/svg" xmlns:xlink="http://www.w3.org/1999/xlink">
    <title>数据库搜索_database-search</title>
    <defs>
        <rect id="path-1" x="0" y="0" width="22" height="22"></rect>
        <linearGradient x1="50%" y1="100%" x2="50%" y2="0.572962194%" id="linearGradient-3">
            <stop stop-color="#C0D8FF" offset="0%"></stop>
            <stop stop-color="#EEF5FF" offset="100%"></stop>
        </linearGradient>
    </defs>
    <g id="页面-1" stroke="none" stroke-width="1" fill="none" fill-rule="evenodd">
        <g id="实时监控-SCADA系统" transform="translate(-59.000000, -940.000000)">
            <g id="数据库搜索_database-search" transform="translate(59.000000, 940.000000)">
                <mask id="mask-2" fill="white">
                    <use xlink:href="#path-1"></use>
                </mask>
                <g id="蒙版"></g>
                <g mask="url(#mask-2)" fill="url(#linearGradient-3)" fill-rule="nonzero" id="形状结合">
                    <g transform="translate(2.500000, 2.500000)">
                        <path d="M7.25,0 C7.83577272,0 8.4053645,0.0231806712 8.9509664,0.0679836969 L8.9509664,0.0679836969 L9.48828246,0.119936459 L10.00787,0.185957831 C12.643618,0.562815771 14.5,1.48913818 14.5,2.75 L14.5,2.75 L14.5,6.8 C14.5,6.85450653 14.4912783,6.906976 14.4751543,6.95608893 C15.9240268,7.78131258 16.9198343,9.31306888 16.9953804,11.083112 L17,11.3 L17,11.3 C17,13.9887339 14.877673,16.181817 12.216888,16.2953804 L12,16.3 L12,16.3 C11.455614,16.3 10.923464,16.2127197 10.419593,16.0449786 C9.45199957,16.2107851 8.37092231,16.3 7.25,16.3 C6.6642287,16.3 6.09463793,16.2768192 5.54903671,16.232016 L5.01172123,16.180063 L4.49213411,16.1140413 C1.94141165,15.7493387 0.120577927,14.8700482 0.00575902169,13.6709669 L0,13.55 L0,2.75 L0.00614805053,2.62503691 C0.124624762,1.42799387 1.94424027,0.550253839 4.49213004,0.185957831 L4.49213004,0.185957831 L5.01171754,0.119936459 L5.5490336,0.0679836969 C6.0946355,0.0231806712 6.66422728,0 7.25,0 Z M0.999258141,11.4100065 L1,13.55 C1,14.1340608 2.42700594,14.7766062 4.50084474,15.0960965 L5.01058579,15.1663762 C5.18437291,15.187605 5.36190031,15.2065709 5.54276854,15.2230785 L6.09499628,15.2650313 C6.46929718,15.2878228 6.85536362,15.3 7.25,15.3 C7.81838995,15.3 8.37495434,15.2758983 8.90873455,15.2297184 C8.09199543,14.5868518 7.49082625,13.7029574 7.19860874,12.6992345 L7.25,12.7 C6.6642287,12.7 6.09463793,12.6768192 5.54903671,12.632016 L5.01172123,12.580063 L4.49213411,12.5140413 C3.02399299,12.3041263 1.79765719,11.9237332 0.999258141,11.4100065 Z M12,9 C10.7297626,9 9.7,10.0297626 9.7,11.3 C9.7,12.5702374 10.7297626,13.6 12,13.6 C12.4449658,13.6 12.8704207,13.4727179 13.2336217,13.2415398 L14.45323,14.4595979 C14.7170358,14.2544726 14.9544726,14.0170358 15.1595979,13.75323 L13.9410452,12.5344089 C14.1725296,12.1710499 14.3,11.7452948 14.3,11.3 C14.3,10.0297626 13.2702374,9 12,9 Z M12,10 C12.7179526,10 13.3,10.5820474 13.3,11.3 C13.3,11.6499373 13.1617907,11.976696 12.919251,12.2192022 C12.676696,12.4617907 12.3499373,12.6 12,12.6 C11.2820474,12.6 10.7,12.0179526 10.7,11.3 C10.7,10.5820474 11.2820474,10 12,10 Z M0.999258141,7.81000649 L1,9.95 C1,10.5340608 2.42700594,11.1766062 4.50084474,11.4960965 L5.01058579,11.5663762 C5.18437291,11.587605 5.36190031,11.6065709 5.54276854,11.6230785 L6.09499628,11.6650313 C6.39513722,11.6833072 6.70284337,11.694758 7.01646706,11.6985781 C7.00522288,11.5658515 7,11.4332301 7,11.3 C7,10.5221204 7.17857466,9.77152099 7.51075649,9.09591935 L7.25,9.1 L7.25,9.1 C6.6642287,9.1 6.09463793,9.0768192 5.54903671,9.03201596 L5.01172123,8.98006297 L4.49213411,8.91404133 C3.02399299,8.70412631 1.79765719,8.32373316 0.999258141,7.81000649 Z M13.5017302,4.20937036 C12.703355,4.72341914 11.4766129,5.10403968 10.0078659,5.31404133 L10.0078659,5.31404133 L9.48827877,5.38006297 L8.95096329,5.43201596 C8.40536207,5.4768192 7.8357713,5.5 7.25,5.5 C6.6642287,5.5 6.09463793,5.4768192 5.54903671,5.43201596 L5.54903671,5.43201596 L5.01172123,5.38006297 L4.49213411,5.31404133 C3.02399299,5.10412631 1.79765719,4.72373316 0.999258141,4.21000649 L1,6.35 C1,6.93406083 2.42700594,7.57660619 4.50084474,7.89609653 L5.01058579,7.96637621 C5.18437291,7.98760498 5.36190031,8.00657086 5.54276854,8.02307848 L6.09499628,8.06503127 C6.46929718,8.08782283 6.85536362,8.1 7.25,8.1 C7.56391627,8.1 7.87448581,8.09266975 8.17992861,8.07827802 C8.21101666,8.03704564 8.24487117,7.9981749 8.27936046,7.95978071 C9.22150981,6.91094673 10.5620982,6.3 12,6.3 C12.3397075,6.3 12.671503,6.33387872 12.9921919,6.39844174 C13.0820634,6.38267654 13.1680439,6.36841103 13.2495043,6.356127 L13.5,6.325 Z"></path>
                    </g>
                </g>
            </g>
        </g>
    </g>
</svg>