<?xml version="1.0" encoding="UTF-8"?>
<svg width="21px" height="21px" viewBox="0 0 21 21" version="1.1" xmlns="http://www.w3.org/2000/svg" xmlns:xlink="http://www.w3.org/1999/xlink">
    <title>底部菜单_安全生产 (1)</title>
    <defs>
        <rect id="path-1" x="0" y="0" width="21" height="21"></rect>
        <linearGradient x1="50%" y1="0%" x2="50%" y2="100%" id="linearGradient-3">
            <stop stop-color="#E0ECFF" offset="0%"></stop>
            <stop stop-color="#C0D8FF" offset="100%"></stop>
        </linearGradient>
    </defs>
    <g id="页面-1" stroke="none" stroke-width="1" fill="none" fill-rule="evenodd">
        <g id="实时监控-投屏空状态" transform="translate(-55.000000, -172.000000)">
            <g id="底部菜单_安全生产-(1)" transform="translate(55.000000, 172.000000)">
                <mask id="mask-2" fill="white">
                    <use xlink:href="#path-1"></use>
                </mask>
                <g id="蒙版"></g>
                <g mask="url(#mask-2)" fill="url(#linearGradient-3)" fill-rule="nonzero" id="形状">
                    <g transform="translate(2.000000, 2.000000)">
                        <path d="M15.9016071,17.6672893 C15.7981451,17.7885896 15.5903291,17.84701 15.2629967,17.84701 L10.076517,17.8479019 L8.00192506,17.84701 L5.92688722,17.8479019 L0.740407494,17.84701 C0.390331261,17.84701 0.182961264,17.7970628 0.0893102972,17.6886953 C-0.0021108845,17.5830035 -0.0221789488,17.3818769 0.0237546206,17.0545444 C0.149960447,16.1581709 0.31362666,15.234148 0.509401776,14.3092332 C0.563808528,14.0550378 0.718109645,13.7259215 1.14979601,13.5943642 C2.32894542,13.2393022 3.5045458,12.8725588 4.67642383,12.4941883 C4.87933426,12.4286326 4.94176824,12.4598496 5.03675708,12.5931908 C5.71728743,13.5323762 6.78044888,14.0782275 7.95732937,14.0898224 C9.13108815,14.0907143 10.1973713,13.5814314 10.8926182,12.6614222 C11.039784,12.466093 11.1481516,12.434876 11.3978875,12.5187159 C12.564511,12.9044687 13.7208774,13.2581126 14.7960797,13.5845531 C15.2063601,13.7080832 15.4195276,13.938643 15.487313,14.3297473 C15.5542066,14.7320005 15.6300193,15.1329158 15.70494,15.5329392 C15.798591,16.0355327 15.8935799,16.5381262 15.97519,17.0429496 C16.0242452,17.3462003 16.0010555,17.5513405 15.9011611,17.6672893 M2.94655669,6.92284771 C4.31698251,7.09008158 6.06959345,7.19220573 8.00014124,7.19220573 C9.9329188,7.19220573 11.6855298,7.08963563 13.0577394,6.9219558 C13.0746858,6.82518313 13.0934159,6.70789645 13.1059027,6.70700453 L13.1183895,6.52639195 C13.1504984,6.05233968 13.1808235,5.60593674 12.9177089,5.22598139 C12.7723269,5.01370586 12.7005278,4.84201243 12.6719866,4.63375051 C12.4958336,3.36857055 11.8960214,2.29336826 10.894848,1.43936064 C10.8480225,1.39922451 10.7989673,1.35775051 10.7566014,1.32385778 C10.7454524,1.37558879 10.7329656,1.43846872 10.7218167,1.50001079 C10.5536909,2.37408648 10.3061848,3.509047 9.8655793,4.61858798 L9.51505711,4.57354632 C9.49721883,4.43396179 9.51238137,4.30731 9.52888178,4.18021226 C9.57347748,3.83191986 9.62788423,3.4831815 9.68184502,3.13444313 C9.79779384,2.38478944 9.91820222,1.60927025 9.95075708,0.839994452 C9.96324388,0.518013509 9.86067377,0.37307749 9.54672006,0.263818029 C8.77833617,-0.00375616174 7.98141104,-0.0688658814 7.17958039,0.0733943965 C6.02365988,0.277196738 6.00403778,0.303954157 6.1043781,1.49109165 C6.11418915,1.59143197 6.12667595,1.69132633 6.14094657,1.79077474 L6.53026702,4.51735574 L6.18197461,4.61546628 C5.72665253,3.56657545 5.49520086,2.48379189 5.25349217,1.33723649 C4.16223543,2.2193394 3.53521991,3.30078509 3.33855288,4.63375051 C3.33498523,4.66050793 3.3332014,4.68904918 3.33052566,4.71848234 C3.32249843,4.83487711 3.31134951,4.97892122 3.21056323,5.0765858 C2.89482568,5.37894463 2.89482568,5.7473051 2.89304186,6.17497785 C2.89304186,6.30029176 2.89304186,6.42560568 2.88501463,6.54958172 C2.87787932,6.65884118 2.89839334,6.68292286 2.89839334,6.68336881 C2.90017717,6.6855986 2.91088013,6.81537208 2.94655669,6.92284771 M8.00058719,8.00875297 C6.44152158,8.00875297 4.99171542,7.94185942 3.76845541,7.8290323 C3.76622563,7.84330293 3.76979329,7.8540059 3.76622563,7.86738461 L3.78495582,7.99537426 C3.88039062,8.68303993 3.97002797,9.33324521 4.50294657,9.82023024 C4.59704349,9.90540802 4.63807153,10.0253705 4.67018044,10.123481 C5.02382432,11.1674663 5.71059808,11.9929327 6.768854,12.6480435 C7.5443732,13.129677 8.32301409,13.1702591 9.08604649,12.766668 C10.1987092,12.1780048 10.9662011,11.3132942 11.3662246,10.1975098 L11.3858467,10.1368597 C11.4152798,10.0432087 11.4527402,9.92592204 11.5441614,9.84342 C12.1265812,9.31139332 12.2077454,8.58938896 12.2902474,7.82457273 C12.0708535,7.84519509 11.8512858,7.86392598 11.631569,7.88076331 C11.5816218,7.88700671 11.5334584,7.89057437 11.485741,7.89057437 C10.4332825,7.96504918 9.25328036,8.00875297 8.00058719,8.00875297 M8.00058719,8.00875297 C6.44152158,8.00875297 4.99171542,7.94185942 3.76845541,7.8290323 C3.76622563,7.84330293 3.76979329,7.8540059 3.76622563,7.86738461 L3.78495582,7.99537426 C3.88039062,8.68303993 3.97002797,9.33324521 4.50294657,9.82023024 C4.59704349,9.90540802 4.63807153,10.0253705 4.67018044,10.123481 C5.02382432,11.1674663 5.71059808,11.9929327 6.768854,12.6480435 C7.5443732,13.129677 8.32301409,13.1702591 9.08604649,12.766668 C10.1987092,12.1780048 10.9662011,11.3132942 11.3662246,10.1975098 L11.3858467,10.1368597 C11.4152798,10.0432087 11.4527402,9.92592204 11.5441614,9.84342 C12.1265812,9.31139332 12.2077454,8.58938896 12.2902474,7.82457273 C12.0708535,7.84519509 11.8512858,7.86392598 11.631569,7.88076331 C11.5816218,7.88700671 11.5334584,7.89057437 11.485741,7.89057437 C10.4332825,7.96504918 9.25328036,8.00875297 8.00058719,8.00875297"></path>
                    </g>
                </g>
            </g>
        </g>
    </g>
</svg>