<?xml version="1.0" encoding="UTF-8"?>
<svg width="19px" height="19px" viewBox="0 0 19 19" version="1.1" xmlns="http://www.w3.org/2000/svg" xmlns:xlink="http://www.w3.org/1999/xlink">
    <title>密码</title>
    <defs>
        <rect id="path-1" x="0" y="0" width="18" height="18"></rect>
        <linearGradient x1="50%" y1="0%" x2="50%" y2="100%" id="linearGradient-3">
            <stop stop-color="#FFFFFF" offset="0%"></stop>
            <stop stop-color="#89CDFF" offset="99.9709763%"></stop>
        </linearGradient>
    </defs>
    <g id="页面-1" stroke="none" stroke-width="1" fill="none" fill-rule="evenodd">
        <g id="登录" transform="translate(-808.000000, -463.000000)">
            <g id="登录框" transform="translate(758.355438, 276.500122)">
                <g id="密码" transform="translate(50.000000, 187.000000)">
                    <mask id="mask-2" fill="white">
                        <use xlink:href="#path-1"></use>
                    </mask>
                    <g id="蒙版"></g>
                    <path d="M9.04456233,0.99987793 C11.3977756,0.99987793 13.3054319,2.7907389 13.3054319,4.99987793 L13.3045623,7.28487793 L14.2184754,7.28559217 C14.6422452,7.28559217 15.0508281,7.42387303 15.3757723,7.67381705 L15.5097138,7.78769484 C15.8521716,8.10918578 16.0445623,8.54522106 16.0445623,8.9998779 L16.0445623,8.9998779 L16.0445623,10.4284493 C16.0445623,12.1713006 15.3070645,13.8427691 13.9943098,15.0751511 C12.6815552,16.307533 10.9010778,16.9998779 9.04456233,16.9998779 C5.17856909,16.9998779 2.04456233,14.0577491 2.04456233,10.4284493 L2.04456233,10.4284493 L2.04456233,8.9998779 C2.04456233,8.05310404 2.86212931,7.28559217 3.87064929,7.28559217 L3.87064929,7.28559217 L4.78356233,7.28487793 L4.78369277,4.99987793 C4.78369277,2.7907389 6.69134908,0.99987793 9.04456233,0.99987793 Z M14.2184754,8.42844932 L3.87064929,8.42844932 C3.53447597,8.42844932 3.26195365,8.68428662 3.26195365,8.9998779 L3.26195365,8.9998779 L3.26195365,10.4284493 C3.26195365,13.4265665 5.85091574,15.8570208 9.04456233,15.8570208 C12.2382089,15.8570208 14.827171,13.4265665 14.827171,10.4284493 L14.827171,10.4284493 L14.827171,8.9998779 C14.827171,8.68428662 14.5546487,8.42844932 14.2184754,8.42844932 L14.2184754,8.42844932 Z M9.04456233,9.57130649 C9.38073565,9.57130649 9.65325799,9.82714376 9.65325799,10.142735 L9.65325799,12.4284493 C9.65325799,12.7440406 9.38073566,12.9998779 9.04456233,12.9998779 C8.708389,12.9998779 8.43586668,12.7440406 8.43586668,12.4284493 L8.43586668,10.142735 C8.43586668,9.82714376 8.70838901,9.57130649 9.04456233,9.57130649 Z M9.04456233,2.14273501 C7.3636957,2.14273501 6.00108407,3.42192145 6.00108407,4.99987793 L6.00056233,7.28487793 L12.0875623,7.28487793 L12.0880406,4.99987793 C12.0880406,3.42192145 10.725429,2.14273501 9.04456233,2.14273501 Z" fill="url(#linearGradient-3)" fill-rule="nonzero" mask="url(#mask-2)"></path>
                </g>
            </g>
        </g>
    </g>
</svg>