<?xml version="1.0" encoding="UTF-8"?>
<svg width="22px" height="22px" viewBox="0 0 22 22" version="1.1" xmlns="http://www.w3.org/2000/svg" xmlns:xlink="http://www.w3.org/1999/xlink">
    <title>形状备份</title>
    <defs>
        <rect id="path-1" x="0" y="0" width="22" height="22"></rect>
        <linearGradient x1="50%" y1="0%" x2="50%" y2="100%" id="linearGradient-3">
            <stop stop-color="#E6F0FF" offset="0%"></stop>
            <stop stop-color="#C0D8FF" offset="100%"></stop>
        </linearGradient>
    </defs>
    <g id="页面-1" stroke="none" stroke-width="1" fill="none" fill-rule="evenodd">
        <g id="实时监控-终端空状态" transform="translate(-59.000000, -700.000000)">
            <g id="形状备份" transform="translate(59.000000, 700.000000)">
                <mask id="mask-2" fill="white">
                    <use xlink:href="#path-1"></use>
                </mask>
                <g id="蒙版"></g>
                <path d="M15.6875,2.5 C16.9784375,2.5 18.025,3.54656249 18.025,4.83750001 L18.025,17.1625 C18.025,18.4534375 16.9784375,19.5 15.6875,19.5 L6.33749999,19.5 C5.04656249,19.5 4,18.4534375 4,17.1625 L4,4.83750001 C4,3.54656251 5.04656249,2.5 6.33749999,2.5 L15.6875,2.5 Z M12.7125,16.3125 L9.3125,16.3125 C8.96041847,16.3125 8.675,16.5979185 8.675,16.95 C8.675,17.3020815 8.96041847,17.5875 9.3125,17.5875 L12.7125,17.5875 C13.0645815,17.5875 13.35,17.3020815 13.35,16.95 C13.35,16.5979185 13.0645815,16.3125 12.7125,16.3125 Z M15.6875,3.775 L6.33749999,3.775 C6.05570747,3.775 5.78545644,3.88694164 5.58619903,4.08619905 C5.38694163,4.28545645 5.275,4.55570749 5.275,4.83750001 L5.275,14.4 L16.75,14.4 L16.75,4.83750001 C16.75,4.55570749 16.6380584,4.28545645 16.438801,4.08619905 C16.2395436,3.88694164 15.9692925,3.775 15.6875,3.775 L15.6875,3.775 Z" fill="url(#linearGradient-3)" fill-rule="nonzero" mask="url(#mask-2)"></path>
            </g>
        </g>
    </g>
</svg>