<?xml version="1.0" encoding="UTF-8"?>
<svg width="14px" height="14px" viewBox="0 0 14 14" version="1.1" xmlns="http://www.w3.org/2000/svg" xmlns:xlink="http://www.w3.org/1999/xlink">
    <title>形状</title>
    <g id="页面-1" stroke="none" stroke-width="1" fill="none" fill-rule="evenodd">
        <g id="实时指挥_云台控制" transform="translate(-220.000000, -272.000000)" fill="#C0D8FF" fill-rule="nonzero">
            <g id="24gf-playCircle" transform="translate(220.000000, 272.000000)">
                <path d="M7,0 C3.13399147,0 0,3.13399147 0,7 C0,10.8660085 3.13399148,14 7,14 C10.8660085,14 14,10.8660085 14,7 C14,3.13399148 10.8660085,0 7,0 Z M9.93144887,7.46474432 L5.95417614,10.0897443 C5.7831802,10.2024591 5.56411128,10.2122067 5.38378026,10.1151246 C5.20344923,10.0180424 5.09096775,9.82980288 5.09090909,9.625 L5.09090909,4.37549715 C5.09090909,4.17062803 5.20342873,3.98231229 5.38382741,3.88521608 C5.56422609,3.78811988 5.78337201,3.79792848 5.95437499,3.91075283 L9.93164773,6.53575284 C10.087809,6.63880565 10.1817752,6.81339765 10.1817752,7.00049715 C10.1817752,7.18759666 10.087809,7.36218865 9.93164773,7.46524147 L9.93144887,7.46474432 Z" id="形状"></path>
            </g>
        </g>
    </g>
</svg>