<?xml version="1.0" encoding="UTF-8"?>
<svg width="22px" height="22px" viewBox="0 0 22 22" version="1.1" xmlns="http://www.w3.org/2000/svg" xmlns:xlink="http://www.w3.org/1999/xlink">
    <title>无人机_drone (1)</title>
    <defs>
        <rect id="path-1" x="0" y="0" width="22" height="22"></rect>
        <linearGradient x1="50%" y1="100%" x2="50%" y2="0.572962194%" id="linearGradient-3">
            <stop stop-color="#C0D8FF" offset="0%"></stop>
            <stop stop-color="#EEF5FF" offset="100%"></stop>
        </linearGradient>
    </defs>
    <g id="页面-1" stroke="none" stroke-width="1" fill="none" fill-rule="evenodd">
        <g id="实时监控-SCADA系统" transform="translate(-59.000000, -796.000000)">
            <g id="无人机_drone-(1)" transform="translate(59.000000, 796.000000)">
                <mask id="mask-2" fill="white">
                    <use xlink:href="#path-1"></use>
                </mask>
                <g id="蒙版"></g>
                <g mask="url(#mask-2)" fill="url(#linearGradient-3)" fill-rule="nonzero" id="形状结合">
                    <g transform="translate(2.499999, 2.499999)">
                        <path d="M13.5526272,10.1052599 C14.2344706,10.1052599 14.9009491,10.3074295 15.4679002,10.6862506 C16.0347908,11.0650641 16.476632,11.6034381 16.7376001,12.2333764 C16.9985134,12.8633012 17.0667758,13.5564653 16.9337558,14.2251605 C16.8007343,14.8939122 16.4723889,15.5081883 15.990282,15.9902459 C15.5081883,16.4723889 14.8939122,16.8007343 14.2251674,16.9337544 C13.5564653,17.0667758 12.8633012,16.9985134 12.2333456,16.7375873 C11.6034381,16.476632 11.0650641,16.0347908 10.6862394,15.4678835 C10.3074295,14.9009491 10.1052599,14.2344706 10.1052599,13.5526272 C10.1052599,13.2764848 10.3291175,13.0526272 10.6052599,13.0526272 C10.8814022,13.0526272 11.1052599,13.2764848 11.1052599,13.5526272 C11.1052599,14.0366921 11.2487822,14.509832 11.5177003,14.9123002 C11.7866436,15.3147711 12.1688651,15.6284587 12.6160472,15.8137153 C13.0632457,15.9989438 13.5553436,16.0474053 14.0300723,15.9529701 C14.50483,15.858536 14.9409072,15.6254422 15.2831753,15.2831391 C15.6254422,14.9409072 15.858536,14.50483 15.9529714,14.0300654 C16.0474053,13.5553436 15.9989438,13.0632457 15.8137281,12.616078 C15.6284587,12.1688651 15.3147711,11.7866436 14.9123169,11.5177115 C14.509832,11.2487822 14.0366921,11.1052599 13.5526272,11.1052599 C13.2764848,11.1052599 13.0526272,10.8814022 13.0526272,10.6052599 C13.0526272,10.3291175 13.2764848,10.1052599 13.5526272,10.1052599 Z M3.44736783,10.1052599 C3.72351021,10.1052599 3.94736783,10.3291175 3.94736783,10.6052599 C3.94736783,10.8814022 3.72351021,11.1052599 3.44736783,11.1052599 C2.96329746,11.1052599 2.49014547,11.248785 2.08769229,11.5177048 C1.68520538,11.7866494 1.37152651,12.1688637 1.18629818,12.6160533 C1.0010618,13.063254 0.95259508,13.5553497 1.04702984,14.0300758 C1.14145994,14.504831 1.37454926,14.94091 1.71682818,15.2831644 C2.05909474,15.625445 2.49517063,15.8585371 2.96992957,15.9529714 C3.44465142,16.0474053 3.93674927,15.9989438 4.38391699,15.8137281 C4.83112988,15.6284587 5.21335139,15.3147711 5.48228352,14.9123169 C5.75121284,14.509832 5.89473514,14.0366921 5.89473514,13.5526272 C5.89473514,13.2764848 6.11859276,13.0526272 6.39473514,13.0526272 C6.67087751,13.0526272 6.89473514,13.2764848 6.89473514,13.5526272 C6.89473514,14.2344706 6.69256548,14.9009491 6.3137444,15.4679002 C5.93493092,16.0347908 5.39655691,16.476632 4.76661857,16.7376001 C4.13669375,16.9985134 3.44352969,17.0667758 2.77483449,16.9337558 C2.10609406,16.8007366 1.49182879,16.4723983 1.00972682,15.9902766 C0.527596263,15.5081805 0.199258394,14.8939043 0.0662448146,14.2251674 C-0.0667765248,13.5564655 0.00149374922,12.863299 0.262417221,12.2333733 C0.523331531,11.6034579 0.965180915,11.0650693 1.53210733,10.686245 C2.09901852,10.3074342 2.76551616,10.1052599 3.44736783,10.1052599 Z M3.73167333,3.03595899 L3.80092122,3.09381444 L6.601,5.894 L10.398,5.894 L13.1990738,3.09381444 C13.3943359,2.8985523 13.7109184,2.8985523 13.9061806,3.09381444 C14.0797469,3.26738079 14.0990321,3.53680519 13.964036,3.73167333 L13.9061806,3.80092122 L11.105,6.601 L11.105,10.398 L13.9061806,13.1990738 C14.1014427,13.3943359 14.1014427,13.7109184 13.9061806,13.9061806 C13.7326142,14.0797469 13.4631898,14.0990321 13.2683217,13.964036 L13.1990738,13.9061806 L10.398,11.105 L6.601,11.105 L3.80092122,13.9061806 C3.60565908,14.1014427 3.28907659,14.1014427 3.09381444,13.9061806 C2.92024809,13.7326142 2.90096294,13.4631898 3.03595899,13.2683217 L3.09381444,13.1990738 L5.894,10.398 L5.894,6.601 L3.09381444,3.80092122 C2.8985523,3.60565908 2.8985523,3.28907659 3.09381444,3.09381444 C3.26738079,2.92024809 3.53680519,2.90096294 3.73167333,3.03595899 Z M14.225157,0.066242749 C14.8939043,0.199258394 15.5081805,0.527596263 15.9902568,1.00970695 C16.4723983,1.49182879 16.8007366,2.10609406 16.9337544,2.77482758 C17.0667758,3.44352969 16.9985134,4.13669375 16.7375873,4.7666494 C16.476632,5.39655691 16.0347908,5.93493092 15.4678835,6.31375555 C14.9009491,6.69256548 14.2344706,6.89473514 13.5526272,6.89473514 C13.2764848,6.89473514 13.0526272,6.67087751 13.0526272,6.39473514 C13.0526272,6.11859276 13.2764848,5.89473514 13.5526272,5.89473514 C14.0366921,5.89473514 14.509832,5.75121284 14.9123002,5.48229467 C15.3147711,5.21335139 15.6284587,4.83112988 15.8137153,4.38394782 C15.9989438,3.93674927 16.0474053,3.44465142 15.9529701,2.96992266 C15.8585371,2.49517063 15.625445,2.05909474 15.2831446,1.71680832 C14.94091,1.37454926 14.504831,1.14145994 14.0300654,1.04702777 C13.5553497,0.95259508 13.063254,1.0010618 12.6160503,1.18629945 C12.1688637,1.37152651 11.7866494,1.68520538 11.5177048,2.08769229 C11.2487857,2.49014092 11.1052599,2.96329614 11.1052599,3.44736783 C11.1052599,3.72351021 10.8814022,3.94736783 10.6052599,3.94736783 C10.3291175,3.94736783 10.1052599,3.72351021 10.1052599,3.44736783 C10.1052599,2.76551436 10.3074352,2.09901206 10.6862461,1.53210566 C11.0650693,0.965180915 11.6034579,0.523331531 12.2333703,0.262418498 C12.863299,0.00149374922 13.5564655,-0.0667765248 14.225157,0.066242749 Z M4.76662165,0.262417221 C5.39653708,0.523331531 5.93492568,0.965180915 6.31374886,1.53210566 C6.69255978,2.09901206 6.89473514,2.76551436 6.89473514,3.44736783 C6.89473514,3.72351021 6.67087751,3.94736783 6.39473514,3.94736783 C6.11859276,3.94736783 5.89473514,3.72351021 5.89473514,3.44736783 C5.89473514,2.96329614 5.75120926,2.49014092 5.48229021,2.08769229 C5.21334557,1.68520538 4.83113132,1.37152651 4.38394165,1.18629818 C3.93674101,1.0010618 3.44464528,0.95259508 2.96991918,1.04702984 C2.49516963,1.14145882 2.05909191,1.37454651 1.71681915,1.71682276 C1.37454651,2.05909191 1.14145882,2.49516963 1.04702777,2.96992957 C0.95259508,3.44464528 1.0010618,3.93674101 1.18629945,4.38394474 C1.37152651,4.83113132 1.68520538,5.21334557 2.08769063,5.48228909 C2.49014547,5.75120997 2.96329746,5.89473514 3.44736783,5.89473514 C3.72351021,5.89473514 3.94736783,6.11859276 3.94736783,6.39473514 C3.94736783,6.67087751 3.72351021,6.89473514 3.44736783,6.89473514 C2.76551616,6.89473514 2.09901852,6.69256081 1.53210566,6.31374886 C0.965180915,5.93492568 0.523331531,5.39653708 0.262418498,4.76662474 C0.00149374922,4.13669599 -0.0667765248,3.44352945 0.066242749,2.77483797 C0.199256159,2.10610196 0.527586853,1.49183658 1.00971237,1.00971598 C1.49183658,0.527586853 2.10610196,0.199256159 2.77482758,0.0662448146 C3.44352945,-0.0667765248 4.13669599,0.00149374922 4.76662165,0.262417221 Z"></path>
                    </g>
                </g>
            </g>
        </g>
    </g>
</svg>