<?xml version="1.0" encoding="UTF-8"?>
<svg width="19px" height="19px" viewBox="0 0 19 19" version="1.1" xmlns="http://www.w3.org/2000/svg" xmlns:xlink="http://www.w3.org/1999/xlink">
    <title>用户名</title>
    <defs>
        <rect id="path-1" x="0" y="0" width="18" height="18"></rect>
        <linearGradient x1="50%" y1="0%" x2="50%" y2="100%" id="linearGradient-3">
            <stop stop-color="#FFFFFF" offset="0%"></stop>
            <stop stop-color="#89CDFF" offset="99.9709763%"></stop>
        </linearGradient>
    </defs>
    <g id="页面-1" stroke="none" stroke-width="1" fill="none" fill-rule="evenodd">
        <g id="登录" transform="translate(-808.000000, -399.000000)">
            <g id="登录框" transform="translate(758.355438, 276.500122)">
                <g id="用户名" transform="translate(50.000000, 123.000000)">
                    <mask id="mask-2" fill="white">
                        <use xlink:href="#path-1"></use>
                    </mask>
                    <g id="蒙版"></g>
                    <path d="M8.84456233,2.14273507 C10.4553929,2.14273507 11.761229,3.4219215 11.761229,4.99987793 C11.761229,6.57783436 10.4553929,7.85702079 8.84456233,7.85702079 C7.23373181,7.85702079 5.92789567,6.57783436 5.92789567,4.99987793 C5.92789567,3.4219215 7.23373181,2.14273507 8.84456233,2.14273507 M8.84456233,0.99987793 C6.58939961,0.99987793 4.761229,2.79073893 4.761229,4.99987793 C4.761229,7.20901693 6.58939961,8.99987793 8.84456233,8.99987793 C11.0997251,8.99987793 12.9278957,7.20901693 12.9278957,4.99987793 C12.9278957,2.79073893 11.0997251,0.99987793 8.84456233,0.99987793 Z M12.3445623,11.2855922 C13.6332268,11.2855922 14.6778957,12.3089414 14.6778957,13.5713065 C14.6778957,14.8336716 13.6332268,15.8570208 12.3445623,15.8570208 L5.34456233,15.8570208 C4.05589792,15.8570208 3.011229,14.8336716 3.011229,13.5713065 C3.011229,12.3089414 4.05589792,11.2855922 5.34456233,11.2855922 L12.3445623,11.2855922 M12.3445623,10.1427351 L5.34456233,10.1427351 C3.41156571,10.1427351 1.84456233,11.6777588 1.84456233,13.5713065 C1.84456233,15.4648542 3.41156571,16.9998779 5.34456233,16.9998779 L12.3445623,16.9998779 C14.277559,16.9998779 15.8445623,15.4648542 15.8445623,13.5713065 C15.8445623,11.6777588 14.277559,10.1427351 12.3445623,10.1427351 Z" fill="url(#linearGradient-3)" fill-rule="nonzero" mask="url(#mask-2)"></path>
                </g>
            </g>
        </g>
    </g>
</svg>