<?xml version="1.0" encoding="UTF-8"?>
<svg width="22px" height="22px" viewBox="0 0 22 22" version="1.1" xmlns="http://www.w3.org/2000/svg" xmlns:xlink="http://www.w3.org/1999/xlink">
    <title>区域</title>
    <defs>
        <rect id="path-1" x="0" y="0" width="22" height="22"></rect>
    </defs>
    <g id="页面-1" stroke="none" stroke-width="1" fill="none" fill-rule="evenodd">
        <g id="实时监控-群指" transform="translate(-62.000000, -171.000000)">
            <g id="区域" transform="translate(62.000000, 171.000000)">
                <mask id="mask-2" fill="white">
                    <use xlink:href="#path-1"></use>
                </mask>
                <g id="蒙版"></g>
                <g mask="url(#mask-2)" fill="#C0D8FF" fill-rule="nonzero" id="形状">
                    <g transform="translate(3.000000, 3.000000)">
                        <path d="M5.12234018,5.90500001 L2.11834018,5.90500001 C1.90701821,5.90552228 1.72627383,6.05701931 1.68884018,6.26500001 L1.01384018,9.96500001 L7.86884018,10.825 C6.72384019,9.35900001 5.50534018,7.51500001 5.12234018,5.90500001 L5.12234018,5.90500001 Z M13.4438402,11.5245 L15.0738402,11.729 L14.8808402,10.6715 L14.7323402,9.8565 C14.3233832,10.4280704 13.8935942,10.9844446 13.4438402,11.5245 L13.4438402,11.5245 Z M12.6628402,12.434 C12.4544336,12.6687769 12.2425773,12.9004688 12.0273402,13.129 L11.6638402,13.5125 L10.9378402,14.2795 L10.2113402,13.5125 L9.84784018,13.1285 C9.484733,12.7435883 9.13096344,12.3499739 8.78684018,11.948 L4.93084018,11.464 L6.19784018,16 L15.3293402,16 C15.4594596,15.9990932 15.5824881,15.940574 15.6652959,15.840201 C15.7481037,15.7398279 15.7821769,15.6079206 15.7583402,15.48 L15.2623402,12.76 L12.6628402,12.434 Z M3.87334019,11.331 L0.83384019,10.95 L0.0073401794,15.48 C-0.0163119183,15.6078931 0.0178301861,15.7396976 0.100599274,15.8400238 C0.183368361,15.9403499 0.306282926,15.9989171 0.436340178,16 L5.15934018,16 L3.87934019,11.4185 C3.87459971,11.3895861 3.87259085,11.3602903 3.87334019,11.331 L3.87334019,11.331 Z M10.9378402,6.85000001 C12.0424097,6.85000001 12.9378402,5.9545695 12.9378402,4.85000001 C12.9378402,3.74543051 12.0424097,2.85000001 10.9378402,2.85000001 C9.83327068,2.85000001 8.93784019,3.74543051 8.93784019,4.85000001 C8.9392176,5.95399846 9.83384173,6.84862259 10.9378402,6.85000001 L10.9378402,6.85000001 Z M10.9378402,3.85000001 C11.4901249,3.85000001 11.9378402,4.29771526 11.9378402,4.85000001 C11.9378402,5.40228476 11.4901249,5.85000001 10.9378402,5.85000001 C10.3855554,5.85000001 9.93784018,5.40228476 9.93784018,4.85000001 C9.93839142,4.29794375 10.3857839,3.85055124 10.9378402,3.85000001 L10.9378402,3.85000001 Z"></path>
                        <path d="M10.9378402,12.825 L11.3008402,12.441 C11.7698402,11.946 15.8828402,7.5245 15.8828402,4.945 C15.8828402,2.21395191 13.6688883,0 10.9378402,0 C8.20679209,0 5.99284018,2.21395191 5.99284018,4.945 C5.99284018,7.5245 10.1058402,11.9455 10.5743402,12.441 L10.9378402,12.825 Z M10.9378402,1.00000001 C13.1154614,1.00275475 14.8800854,2.76737874 14.8828402,4.945 C14.8828402,6.629 12.3033402,9.84199999 10.9378402,11.3595 C9.57184019,9.84199999 6.99284018,6.629 6.99284018,4.945 C6.99532005,2.76726468 8.76010487,1.00247987 10.9378402,1.00000001 L10.9378402,1.00000001 Z"></path>
                    </g>
                </g>
            </g>
        </g>
    </g>
</svg>