<?xml version="1.0" encoding="UTF-8"?>
<svg width="48px" height="48px" viewBox="0 0 48 48" version="1.1" xmlns="http://www.w3.org/2000/svg" xmlns:xlink="http://www.w3.org/1999/xlink">
    <title>编组 9</title>
    <defs>
        <linearGradient x1="50%" y1="0%" x2="50%" y2="100%" id="linearGradient-1">
            <stop stop-color="#669FF4" offset="0%"></stop>
            <stop stop-color="#D6E9FF" offset="100%"></stop>
        </linearGradient>
        <linearGradient x1="50%" y1="0%" x2="50%" y2="100%" id="linearGradient-2">
            <stop stop-color="#D0E6FF" offset="0%"></stop>
            <stop stop-color="#5989CC" offset="100%"></stop>
        </linearGradient>
        <circle id="path-3" cx="20" cy="20" r="20"></circle>
        <filter x="-17.5%" y="-12.5%" width="135.0%" height="135.0%" filterUnits="objectBoundingBox" id="filter-4">
            <feOffset dx="0" dy="2" in="SourceAlpha" result="shadowOffsetOuter1"></feOffset>
            <feGaussianBlur stdDeviation="2" in="shadowOffsetOuter1" result="shadowBlurOuter1"></feGaussianBlur>
            <feComposite in="shadowBlurOuter1" in2="SourceAlpha" operator="out" result="shadowBlurOuter1"></feComposite>
            <feColorMatrix values="0 0 0 0 0.0462095525   0 0 0 0 0.258616861   0 0 0 0 0.506425388  0 0 0 1 0" type="matrix" in="shadowBlurOuter1"></feColorMatrix>
        </filter>
        <linearGradient x1="50%" y1="0%" x2="50%" y2="100%" id="linearGradient-5">
            <stop stop-color="#2972D4" offset="0%"></stop>
            <stop stop-color="#114FA1" offset="100%"></stop>
        </linearGradient>
        <linearGradient x1="105.205256%" y1="94.6259774%" x2="1.13686838e-11%" y2="100%" id="linearGradient-6">
            <stop stop-color="#FBFDFF" offset="0%"></stop>
            <stop stop-color="#1352A5" offset="100%"></stop>
        </linearGradient>
    </defs>
    <g id="页面-1" stroke="none" stroke-width="1" fill="none" fill-rule="evenodd">
        <g id="实时指挥_虚拟摇杆" transform="translate(-129.000000, -774.000000)">
            <g id="编组-5" transform="translate(22.000000, 647.000000)">
                <g id="编组-9" transform="translate(111.000000, 129.000000)">
                    <g id="椭圆形">
                        <use fill="black" fill-opacity="1" filter="url(#filter-4)" xlink:href="#path-3"></use>
                        <circle stroke="url(#linearGradient-2)" stroke-width="1" stroke-linejoin="square" fill="url(#linearGradient-1)" fill-rule="evenodd" cx="20" cy="20" r="19.5"></circle>
                    </g>
                    <path d="M20,10.1414214 L23.5585786,13.7 L20.6,13.7 L20.6,20.1 L26.4,20.1 L26.4,16.8227972 L29.8595152,20.3758128 L26.3,23.935328 L26.3,21.2 L20.5,21.2 L20.5,26.4 L23.4585786,26.4 L20,29.8585786 L16.4414214,26.3 L19.5,26.3 L19.5,21.1 L13.7,21.1 L13.7,23.9398079 L10.1423705,20.4758002 L13.7,16.9181707 L13.7,20.1 L19.5,20.1 L19.5,13.7 L16.4414214,13.7 L20,10.1414214 Z" id="路径" stroke="url(#linearGradient-6)" stroke-width="0.2" fill="url(#linearGradient-5)"></path>
                </g>
            </g>
        </g>
    </g>
</svg>