<?xml version="1.0" encoding="UTF-8"?>
<svg width="20px" height="20px" viewBox="0 0 20 20" version="1.1" xmlns="http://www.w3.org/2000/svg" xmlns:xlink="http://www.w3.org/1999/xlink">
    <title>视频 (1)</title>
    <defs>
        <rect id="path-1" x="0" y="0" width="20" height="20"></rect>
    </defs>
    <g id="页面-1" stroke="none" stroke-width="1" fill="none" fill-rule="evenodd">
        <g id="实时监控-群指" transform="translate(-235.000000, -173.000000)">
            <g id="视频-(1)" transform="translate(235.000000, 173.000000)">
                <mask id="mask-2" fill="white">
                    <use xlink:href="#path-1"></use>
                </mask>
                <g id="蒙版"></g>
                <g mask="url(#mask-2)" fill="#C0D8FF" fill-rule="nonzero" id="形状">
                    <g transform="translate(2.000000, 4.000000)">
                        <path d="M16.9588204,1.22352095 C16.5574537,0.971048373 13.5472037,2.38662111 13.5472037,2.38662111 L13.5472037,2.23772703 C13.5472037,1.00125877 12.5114188,0 11.2317928,0 L2.3154109,0 C1.03578493,0.00215788527 0,1.00341665 0,2.23988491 L0,9.76227297 C0,10.9987412 1.03578493,12 2.3154109,12 L11.2339507,12 C12.5135767,12 13.5493616,10.9987412 13.5493616,9.76227297 L13.5493616,9.57885272 C13.5493616,9.57885272 16.5768747,10.983636 16.9609782,10.7419529 C17.3429239,10.5002697 17.3623449,1.47599353 16.9588204,1.22352095 Z M4.91350477,9.59611581 L4.91350477,2.38662111 L10.7851106,5.99028952 L4.91350477,9.59611581 Z"></path>
                    </g>
                </g>
            </g>
        </g>
    </g>
</svg>