<?xml version="1.0" encoding="UTF-8"?>
<svg width="20px" height="20px" viewBox="0 0 20 20" version="1.1" xmlns="http://www.w3.org/2000/svg" xmlns:xlink="http://www.w3.org/1999/xlink">
    <title>语音</title>
    <defs>
        <rect id="path-1" x="0" y="0" width="20" height="20"></rect>
    </defs>
    <g id="页面-1" stroke="none" stroke-width="1" fill="none" fill-rule="evenodd">
        <g id="实时监控-群指" transform="translate(-201.000000, -173.000000)">
            <g id="语音" transform="translate(201.000000, 173.000000)">
                <mask id="mask-2" fill="white">
                    <use xlink:href="#path-1"></use>
                </mask>
                <g id="蒙版"></g>
                <g mask="url(#mask-2)" fill="#C0D8FF" fill-rule="nonzero">
                    <g transform="translate(5.000000, 2.000000)">
                        <path d="M5.18181819,11.0454546 L5.25,11.0454546 C7.29545455,11.0454546 9,9.3409091 9,7.29545455 L9,3.75 C9,1.70454545 7.29545455,0 5.25,0 L5.18181819,0 C3.13636364,0 1.43181819,1.70454545 1.43181819,3.75 L1.43181819,7.36363636 C1.5,9.40909091 3.13636364,11.0454546 5.18181819,11.0454546 Z" id="形状"></path>
                        <path d="M9.61363636,8.86363636 L9.40909091,8.86363636 L9.40909091,8.93181819 C9.40909091,10.5 7.5,11.7954546 5.18181819,11.7954546 C2.86363638,11.7954546 0.954545464,10.5 0.954545449,8.93181819 L0,8.93181819 C0,10.9772727 2.11363636,12.6136364 4.77272728,12.8181818 L4.77272728,13.9090909 L2.93181819,13.9090909 L2.93181819,15 L7.63636364,15 L7.63636364,13.9090909 L5.79545455,13.9090909 L5.79545455,12.8181818 C8.45454546,12.6136364 10.5681818,10.9772727 10.5681818,8.93181819 L10.5681818,8.86363636 L9.61363636,8.86363636 Z" id="路径"></path>
                    </g>
                </g>
            </g>
        </g>
    </g>
</svg>