<?xml version="1.0" encoding="UTF-8"?>
<svg width="20px" height="20px" viewBox="0 0 20 20" version="1.1" xmlns="http://www.w3.org/2000/svg" xmlns:xlink="http://www.w3.org/1999/xlink">
    <title>ic/退出</title>
    <g id="页面-1" stroke="none" stroke-width="1" fill="none" fill-rule="evenodd">
        <g id="实时监控-SCADA系统-展开作业" transform="translate(-1869.000000, -47.000000)" fill="#9EBCFF" fill-rule="nonzero">
            <path d="M1885.24999,58.2499979 L1876.5,58.2499979 L1876.5,55.7499979 L1885.24999,55.7499979 L1884,53.2499979 L1886.5,53.2499979 L1889,56.9999967 L1886.5,60.7499979 L1884,60.7499979 L1885.24999,58.2499979 Z M1886.07266,49.929999 L1884.30399,51.6979984 C1882.89931,50.288146 1880.99018,49.496994 1879,49.5 C1874.858,49.5 1871.5,52.857998 1871.5,57 C1871.5,61.1419953 1874.858,64.5 1879,64.5 C1881.01533,64.5 1882.90133,63.7033278 1884.29999,62.3066616 L1886.06599,64.0759943 C1884.19289,65.9510437 1881.65034,67.0031856 1879,67 C1873.47733,67 1869,62.5226615 1869,57 C1869,51.4773318 1873.47733,47 1879,47 C1881.688,47 1884.20999,48.0666663 1886.07266,49.929999 Z" id="ic/退出"></path>
        </g>
    </g>
</svg>