<?xml version="1.0" encoding="UTF-8"?>
<svg width="19px" height="19px" viewBox="0 0 19 19" version="1.1" xmlns="http://www.w3.org/2000/svg" xmlns:xlink="http://www.w3.org/1999/xlink">
    <title>验证码</title>
    <defs>
        <rect id="path-1" x="0" y="0" width="18" height="18"></rect>
        <linearGradient x1="50%" y1="0%" x2="50%" y2="100%" id="linearGradient-3">
            <stop stop-color="#FFFFFF" offset="0%"></stop>
            <stop stop-color="#89CDFF" offset="99.9709763%"></stop>
        </linearGradient>
    </defs>
    <g id="页面-1" stroke="none" stroke-width="1" fill="none" fill-rule="evenodd">
        <g id="登录" transform="translate(-808.000000, -527.000000)">
            <g id="登录框" transform="translate(758.355438, 276.500122)">
                <g id="验证码" transform="translate(50.000000, 251.000000)">
                    <mask id="mask-2" fill="white">
                        <use xlink:href="#path-1"></use>
                    </mask>
                    <g id="蒙版"></g>
                    <path d="M8.64756233,0.99987793 L8.95956233,1.23387793 L9.23956233,1.44587793 C10.8875623,2.69187793 12.3505623,3.21987793 14.6755623,3.21987793 L15.6445623,3.21987793 L15.6445623,9.29287793 C15.6445623,12.4618779 11.9025623,16.9998779 8.64856233,16.9998779 C7.41356233,16.9998779 6.14456233,16.4138779 4.96856233,15.3898779 L5.64756233,14.5298779 C6.65256233,15.4048779 7.69756233,15.8868779 8.64856233,15.8868779 C11.2845623,15.8868779 14.5365623,11.8398779 14.5365623,9.18387793 L14.5365623,4.32487793 C12.0225623,4.31687793 10.4425623,3.71687793 8.64956233,2.36687793 C6.85756233,3.71687793 5.29256233,4.31687793 2.76956233,4.32587793 L2.76956233,9.18387793 C2.76956233,9.96987793 3.02456233,11.0338779 3.65456233,12.1018779 C3.74156233,12.2528779 3.83056233,12.4038779 3.91956233,12.5538779 L3.96656233,12.6288779 C4.06856233,12.7788779 4.17756233,12.9238779 4.29556233,13.0628779 L3.49956233,13.8008779 C3.35854288,13.6343038 3.22732172,13.4596762 3.10656233,13.2778779 L3.04656233,13.1828779 C2.99056233,13.0928779 2.75656233,12.6928779 2.76856233,12.7128779 C2.05756233,11.5028779 1.64456233,10.2778779 1.64456233,9.29187793 L1.64456233,3.21987793 L2.61356233,3.21987793 C4.94856233,3.21987793 6.41356233,2.69187793 8.05756233,1.44587793 L8.64756233,0.99987793 Z M12.0835623,5.72387793 L12.9735623,6.47387793 L8.17856233,12.4078779 L4.36656233,8.89987793 L5.13556233,8.01987793 L8.06656233,10.7158779 L12.0835623,5.72387793 Z" fill="url(#linearGradient-3)" fill-rule="nonzero" mask="url(#mask-2)"></path>
                </g>
            </g>
        </g>
    </g>
</svg>