<?xml version="1.0" standalone="no"?><!DOCTYPE svg PUBLIC "-//W3C//DTD SVG 1.1//EN" "http://www.w3.org/Graphics/SVG/1.1/DTD/svg11.dtd"><svg t="1695367567599" class="icon" viewBox="0 0 1024 1024" version="1.1" xmlns="http://www.w3.org/2000/svg" p-id="1912" xmlns:xlink="http://www.w3.org/1999/xlink" width="200" height="200"><path d="M372.58666667 58.98666667h-253.86666667C72.21333333 58.98666667 34.13333333 97.06666667 34.13333333 143.68v253.86666667c0 46.50666667 38.08 84.58666667 84.58666667 84.58666666h253.86666667c46.50666667 0 84.58666667-38.08 84.58666666-84.58666666v-253.86666667c0.10666667-46.61333333-37.97333333-84.69333333-84.58666666-84.69333333zM372.58666667 566.72h-253.86666667C72.21333333 566.72 34.13333333 604.8 34.13333333 651.41333333v253.86666667c0 46.50666667 38.08 84.58666667 84.58666667 84.58666667h253.86666667c46.50666667 0 84.58666667-38.08 84.58666666-84.58666667v-253.86666667c0.10666667-46.61333333-37.97333333-84.69333333-84.58666666-84.69333333zM880.32 566.72h-253.86666667c-46.50666667 0-84.58666667 38.08-84.58666666 84.58666667v253.86666666c0 46.50666667 38.08 84.58666667 84.58666666 84.58666667h253.86666667c46.50666667 0 84.58666667-38.08 84.58666667-84.58666667v-253.86666666c0.10666667-46.50666667-37.97333333-84.58666667-84.58666667-84.58666667zM965.12 210.77333333L813.22666667 58.88c-32.96-32.96-86.72-32.96-119.68 0L541.65333333 210.77333333c-32.96 32.96-32.96 86.72 0 119.68l151.89333334 151.89333334c32.96 32.96 86.72 32.96 119.68 0l151.89333333-151.89333334c32.96-32.96 32.96-86.82666667 0-119.68z" fill="#ffd400" p-id="1913"></path></svg>