<?xml version="1.0" standalone="no"?><!DOCTYPE svg PUBLIC "-//W3C//DTD SVG 1.1//EN" "http://www.w3.org/Graphics/SVG/1.1/DTD/svg11.dtd"><svg t="1695367552952" class="icon" viewBox="0 0 1024 1024" version="1.1" xmlns="http://www.w3.org/2000/svg" p-id="1775" xmlns:xlink="http://www.w3.org/1999/xlink" width="200" height="200"><path d="M511.00207906 433.16424125c265.44698531 0 479.00207906-89.81289 479.00207906-199.58419969 0-19.95841969-5.98752562-37.9209975-19.95841968-55.88357625-5.98752562-7.98336844-11.97505219-13.97089406-17.96257875-21.95426156-3.99168375-3.99168375-7.98336844-7.98336844-11.97505125-9.97921031-3.99168375-3.99168375-9.97921031-7.98336844-15.96673594-11.97505125-3.99168375-1.99584187-7.98336844-5.98752562-11.97505219-7.98336844-7.98336844-5.98752562-17.96257781-9.97921031-25.94594625-15.96673594-17.96257781-9.97921031-39.91684031-17.96257781-61.87110187-27.94178812-21.95426156-7.98336844-45.90436594-15.96673594-71.85031125-21.95426157-15.96673594-3.99168375-33.92931375-7.98336844-51.8918925-11.97505218-43.90852406-7.98336844-91.80873188-13.97089406-141.70478157-15.96673594-15.96673594 1.99584187-31.93347188 1.99584187-47.90020781 1.99584187s-31.93347188 0-49.89604969 1.99584188c-49.89604969 1.99584187-97.7962575 7.98336844-141.70478156 15.96673594-17.96257781 3.99168375-35.92515563 5.98752562-51.8918925 9.97921031-23.95010437 5.98752562-47.90020781 11.97505219-69.85446937 19.95841969s-39.91684031 15.96673594-57.87941813 23.95010437c-5.98752562 3.99168375-13.97089406 7.98336844-19.95841969 11.97505219-19.95841969 11.97505219-35.92515563 23.95010437-49.89605062 37.9209975-9.97921031 9.97921031-17.96257781 19.95841969-23.95010344 29.93763C35.99168375 201.64656969 32 217.61330563 32 233.58004156c0 109.77130969 213.55509375 199.58419969 479.00207906 199.58419969z" fill="#BCCCCD" p-id="1776"></path><path d="M511.00207906 512.99792094c-187.6091475 0-375.218295-43.90852406-479.00207906-127.7338875V512.99792094c0 109.77130969 213.55509375 199.58419969 479.00207906 199.58419969s479.00207906-89.81289 479.00207906-199.58419969v-127.7338875C886.22037406 469.08939687 698.61122656 512.99792094 511.00207906 512.99792094zM171.70893969 592.83160063c-21.95426156 0-39.91684031-17.96257781-39.91684032-39.91683938s17.96257781-39.91684031 39.91684032-39.91684031 39.91684031 17.96257781 39.91684031 39.91684031-17.96257781 39.91684031-39.91684031 39.91683938z" fill="#BCCCCD" p-id="1777"></path><path d="M511.00207906 792.41580031c-187.6091475 0-375.218295-43.90852406-479.00207906-127.7338875V812.37422h1.99584187c23.95010437 101.78794219 227.52598781 179.62578 477.00623719 179.62578s453.05613281-77.83783781 477.00623719-179.62578h1.99584188v-147.69230719C886.22037406 748.50727625 698.61122656 792.41580031 511.00207906 792.41580031zM171.70893969 872.24948c-21.95426156 0-39.91684031-17.96257781-39.91684032-39.91683938s17.96257781-39.91684031 39.91684032-39.91684031 39.91684031 17.96257781 39.91684031 39.91684031-17.96257781 39.91684031-39.91684031 39.91683938z" fill="#BCCCCD" p-id="1778"></path></svg>