<?xml version="1.0" standalone="no"?><!DOCTYPE svg PUBLIC "-//W3C//DTD SVG 1.1//EN" "http://www.w3.org/Graphics/SVG/1.1/DTD/svg11.dtd"><svg t="1695367521375" class="icon" viewBox="0 0 1024 1024" version="1.1" xmlns="http://www.w3.org/2000/svg" p-id="1502" xmlns:xlink="http://www.w3.org/1999/xlink" width="200" height="200"><path d="M830.45641482 426.56047408V232.37973333c0-23.30168889-15.53445925-38.83614815-38.83614815-38.83614815H597.43952592c0-93.20675555-77.6722963-170.87905185-170.87905184-170.87905185s-170.87905185 77.6722963-170.87905186 170.87905185H61.50068148c-23.30168889 0-38.83614815 15.53445925-38.83614815 38.83614815v264.08580742h69.90506667c54.37060741 0 100.97398518 46.60337778 100.97398518 100.97398517 0 54.37060741-46.60337778 100.97398518-100.97398518 100.97398519h-62.13783703v264.08580741c0 23.30168889 15.53445925 38.83614815 38.83614814 38.83614815h264.08580741v-69.90506667c0-54.37060741 46.60337778-100.97398518 100.97398518-100.97398518s100.97398518 46.60337778 100.97398519 100.97398518v69.90506667h264.08580741c23.30168889 0 38.83614815-15.53445925 38.83614815-38.83614815v-194.18074074c93.20675555 0 170.87905185-77.6722963 170.87905185-170.87905186-15.53445925-93.20675555-85.43952592-170.87905185-178.64628148-170.87905184z" fill="#006666" p-id="1503"></path></svg>