<?xml version="1.0" standalone="no"?><!DOCTYPE svg PUBLIC "-//W3C//DTD SVG 1.1//EN" "http://www.w3.org/Graphics/SVG/1.1/DTD/svg11.dtd"><svg t="1695367541639" class="icon" viewBox="0 0 1024 1024" version="1.1" xmlns="http://www.w3.org/2000/svg" p-id="1637" xmlns:xlink="http://www.w3.org/1999/xlink" width="200" height="200"><path d="M924.8 296H99.2c-24 0-48-19.2-48-48V80c0-24 19.2-48 48-48h825.6c24 0 48 19.2 48 48v172.8c0 24-24 43.2-48 43.2z m-57.6-110.4v-43.2c0-9.6-9.6-19.2-19.2-19.2h-129.6c-9.6 0-19.2 9.6-19.2 19.2v43.2c0 9.6 9.6 19.2 19.2 19.2H848c9.6 0 19.2-9.6 19.2-19.2zM267.2 992H80c-24 0-48-19.2-48-48v-225.6c0-24 19.2-48 48-48h187.2c24 0 48 19.2 48 48V944c-4.8 28.8-24 48-48 48zM603.2 992H420.8c-24 0-48-19.2-48-48v-225.6c0-24 19.2-48 48-48H608c24 0 48 19.2 48 48V944c-4.8 28.8-24 48-52.8 48zM944 992h-187.2c-24 0-48-19.2-48-48v-225.6c0-24 19.2-48 48-48H944c24 0 48 19.2 48 48V944c0 28.8-19.2 48-48 48z" fill="#ffd400" p-id="1638"></path><path d="M473.6 296h76.8v379.2H473.6zM147.2 464h67.2v206.4H147.2z" fill="#ff836b" p-id="1639"></path><path d="M200 464h672v62.4h-672z" fill="#ffd400" p-id="1640"></path><path d="M804.8 468.8h67.2v206.4h-67.2z" fill="#ffd400" p-id="1641"></path></svg>