<?xml version="1.0" standalone="no"?><!DOCTYPE svg PUBLIC "-//W3C//DTD SVG 1.1//EN" "http://www.w3.org/Graphics/SVG/1.1/DTD/svg11.dtd"><svg t="1697081167369" class="icon" viewBox="0 0 1024 1024" version="1.1" xmlns="http://www.w3.org/2000/svg" p-id="9917" xmlns:xlink="http://www.w3.org/1999/xlink" width="200" height="200"><path d="M1008 512H480c-17.7 0-32-14.3-32-32V192c0-17.7-14.3-32-32-32-8.8 0-16.8 3.6-22.6 9.4-5.8 5.8-9.4 13.8-9.4 22.6v288c0 17.7-14.3 32-32 32-8.8 0-16.8-3.6-22.6-9.4-5.8-5.8-9.4-13.8-9.4-22.6V192c0-17.7-14.3-32-32-32-8.8 0-16.8 3.6-22.6 9.4-5.8 5.8-9.4 13.8-9.4 22.6v288c0 17.7-14.3 32-32 32-8.8 0-16.8-3.6-22.6-9.4-5.8-5.8-9.4-13.8-9.4-22.6V192c0-17.7-14.3-32-32-32-8.8 0-16.8 3.6-22.6 9.4-5.8 5.8-9.4 13.8-9.4 22.6v288c0 17.7-14.3 32-32 32H16c-8.8 0-16 7.2-16 16v256c0 8.8 7.2 16 16 16h992c8.8 0 16-7.2 16-16V528c0-8.8-7.2-16-16-16zM128 688v-64h352v64H128z m432-32c0-17.7 14.3-32 32-32s32 14.3 32 32-14.3 32-32 32-32-14.3-32-32z m112 0c0-26.5 21.5-48 48-48s48 21.5 48 48-21.5 48-48 48-48-21.5-48-48z m176 48c-26.5 0-48-21.5-48-48s21.5-48 48-48 48 21.5 48 48-21.5 48-48 48z" p-id="9918" fill="#ff836b"></path></svg>