<?xml version="1.0" standalone="no"?><!DOCTYPE svg PUBLIC "-//W3C//DTD SVG 1.1//EN" "http://www.w3.org/Graphics/SVG/1.1/DTD/svg11.dtd"><svg t="1695367577955" class="icon" viewBox="0 0 1024 1024" version="1.1" xmlns="http://www.w3.org/2000/svg" p-id="2051" xmlns:xlink="http://www.w3.org/1999/xlink" width="200" height="200"><path d="M942 32H82a50 50 0 0 0-50 50v180a50 50 0 0 0 50 50h860a50 50 0 0 0 50-50V82a50 50 0 0 0-50-50zM188.56 239.82A67.82 67.82 0 1 1 256.34 172a67.82 67.82 0 0 1-67.82 67.82zM942 372H82a50 50 0 0 0-50 50v180a50 50 0 0 0 50 50h860a50 50 0 0 0 50-50v-180a50 50 0 0 0-50-50zM188.56 579.82A67.82 67.82 0 1 1 256.34 512a67.82 67.82 0 0 1-67.82 67.82zM942 712H82a50 50 0 0 0-50 50v180a50 50 0 0 0 50 50h860a50 50 0 0 0 50-50v-180a50 50 0 0 0-50-50zM188.58 919.82a67.82 67.82 0 1 1 67.8-67.82 67.82 67.82 0 0 1-67.86 67.82z" fill="#ffd400" p-id="2052"></path></svg>