<svg xmlns="http://www.w3.org/2000/svg" viewBox="0 0 16 16" class="design-iconfont">
  <path d="M6.50979655,3.02447776 L2.21637255,7.43166889 C1.97915923,7.67516789 1.97399588,8.06172664 2.20462078,8.31147466 L6.49804478,12.9609037 L6.53264025,12.9958252 C6.93304138,13.3721981 7.60700599,13.0924642 7.60700599,12.5271959 L7.60673962,10.244821 L7.74877177,10.2349938 C8.37980395,10.2000258 9.0378254,10.2548506 9.7241413,10.4004711 C10.561516,10.5781428 11.6148856,11.3997818 12.8346056,12.8886673 C13.2360115,13.3786547 14.0290687,13.0492273 13.9651678,12.4190439 C13.7692277,10.4867061 13.0241532,8.8555698 11.7356476,7.54984861 L11.6263635,7.44129096 C10.5266785,6.37066573 9.22191064,5.74867093 7.73266858,5.58380195 L7.60673962,5.57096571 L7.60700599,3.47057565 C7.60700599,2.89698931 6.91004578,2.61362273 6.50979655,3.02447776 Z M3.55523393,7.88935393 L6.32815794,5.04291147 L6.32842431,6.17877147 C6.32842431,6.52986956 6.61157308,6.81526615 6.96266019,6.81804232 C8.48461405,6.83007699 9.76037184,7.36846422 10.8255691,8.4479178 L10.9286451,8.55464958 C11.4029761,9.05658825 11.7836589,9.61257881 12.0712265,10.2248613 L12.1009542,10.2905303 L12.0906781,10.2816223 C11.3597926,9.67122483 10.6624318,9.29250969 9.98951924,9.14973306 C8.90245929,8.91908386 7.85965063,8.88397409 6.86441354,9.04693383 L6.81368536,9.05734386 C6.53081871,9.12736103 6.32842431,9.38202393 6.32842431,9.67782333 L6.32815794,10.892103 L3.55523393,7.88935393 Z" fill="#334266" fill-rule="nonzero"/>
</svg>
