<?xml version="1.0" standalone="no"?><!DOCTYPE svg PUBLIC "-//W3C//DTD SVG 1.1//EN" "http://www.w3.org/Graphics/SVG/1.1/DTD/svg11.dtd"><svg t="1648633582950" class="icon" viewBox="0 0 1024 1024" version="1.1" xmlns="http://www.w3.org/2000/svg" p-id="2765" xmlns:xlink="http://www.w3.org/1999/xlink" width="200" height="200"><defs><style type="text/css">@font-face { font-family: feedback-iconfont; src: url("//at.alicdn.com/t/font_1031158_u69w8yhxdu.woff2?t=1630033759944") format("woff2"), url("//at.alicdn.com/t/font_1031158_u69w8yhxdu.woff?t=1630033759944") format("woff"), url("//at.alicdn.com/t/font_1031158_u69w8yhxdu.ttf?t=1630033759944") format("truetype"); }
</style></defs><path d="M870.4 76.8H153.6a102.4 102.4 0 0 0-102.4 102.4v512a102.4 102.4 0 0 0 102.4 102.4h332.8v76.8H217.6a38.4 38.4 0 0 0 0 76.8h588.8a38.4 38.4 0 0 0 0-76.8H563.2v-76.8h307.2a102.4 102.4 0 0 0 102.4-102.4V179.2a102.4 102.4 0 0 0-102.4-102.4z m25.6 614.4a25.6 25.6 0 0 1-25.6 25.6H153.6a25.6 25.6 0 0 1-25.6-25.6V179.2a25.6 25.6 0 0 1 25.6-25.6h716.8a25.6 25.6 0 0 1 25.6 25.6z" p-id="2766"></path><path d="M703.744 470.528a38.4 38.4 0 0 0-51.2 20.736 153.6 153.6 0 0 1-140.544 94.72 153.6 153.6 0 0 1-153.6-153.6 153.6 153.6 0 0 1 94.72-141.824 38.4 38.4 0 0 0-29.44-71.168 233.216 233.216 0 0 0-74.496 51.2 230.4 230.4 0 0 0 325.376 324.864 234.24 234.24 0 0 0 51.2-74.752 38.4 38.4 0 0 0-22.016-50.176z" p-id="2767"></path><path d="M543.744 207.616a38.4 38.4 0 0 0-38.4 38.4v160.512a38.4 38.4 0 0 0 38.4 38.4h160.512a38.4 38.4 0 0 0 38.4-38.4 199.168 199.168 0 0 0-198.912-198.912z m38.4 160.512v-76.8a123.136 123.136 0 0 1 76.8 76.8z" p-id="2768"></path></svg>