<svg xmlns="http://www.w3.org/2000/svg" viewBox="0 0 20 20" class="design-iconfont">
  <path d="M7.49874014,9.37342516 L3.74937006,9.37342516 C2.71459768,9.37342516 1.87468502,8.5335125 1.87468502,7.49874012 L1.87468502,3.74937006 C1.87468502,2.71459768 2.7145977,1.87468502 3.74937008,1.87468502 L7.49874014,1.87468502 C8.53351252,1.87468502 9.37342518,2.71459768 9.37342518,3.74937006 L9.37342518,7.49874012 C9.37342518,8.53351252 8.53351252,9.37342516 7.49874014,9.37342516 Z M3.74937006,3.12447504 C3.4066857,3.12447504 3.12447504,3.4066857 3.12447504,3.74937008 L3.12447504,7.49874014 C3.12447504,7.84142449 3.40668568,8.12363516 3.74937006,8.12363516 L7.49874012,8.12363516 C7.84142447,8.12363516 8.12363514,7.84142451 8.12363514,7.49874014 L8.12363514,3.74937006 C8.12363514,3.4066857 7.84142449,3.12447504 7.49874012,3.12447504 L3.74937006,3.12447504 L3.74937006,3.12447504 Z M7.49874014,18.125315 L3.74937006,18.125315 C2.71459768,18.125315 1.87468502,17.2854023 1.87468502,16.2506299 L1.87468502,12.4979002 C1.87468502,11.4631278 2.7145977,10.6232152 3.74937008,10.6232152 L7.49874014,10.6232152 C8.53351252,10.6232152 9.37342518,11.4631278 9.37342518,12.4979002 L9.37342518,16.2472703 C9.37342518,17.2820427 8.53351252,18.125315 7.49874014,18.125315 Z M3.74937006,11.8730052 C3.4066857,11.8730052 3.12447504,12.1518562 3.12447504,12.4979002 L3.12447504,16.2472703 C3.12447504,16.5933143 3.40668568,16.8721653 3.74937006,16.8721653 L7.49874012,16.8721653 C7.84142447,16.8721653 8.12363514,16.5933143 8.12363514,16.2472703 L8.12363514,12.4979002 C8.12363514,12.1518562 7.84142449,11.8730052 7.49874012,11.8730052 L3.74937006,11.8730052 L3.74937006,11.8730052 Z M16.2506299,18.125315 L12.4979002,18.125315 C11.4631278,18.125315 10.6232152,17.2854023 10.6232152,16.2506299 L10.6232152,15.0008399 C10.6232152,13.9660675 11.4631278,13.1261549 12.4979002,13.1261549 L16.2472703,13.1261549 C17.2820427,13.1261549 18.1219653,13.9660675 18.1219653,15.0008399 L18.1219653,16.2506299 C18.125315,17.2820427 17.2820427,18.125315 16.2506299,18.125315 Z M12.4979002,14.3759449 C12.1518562,14.3759449 11.8730052,14.6547959 11.8730052,15.0008399 L11.8730052,16.2506299 C11.8730052,16.5966739 12.1518562,16.875525 12.4979002,16.875525 L16.2472703,16.875525 C16.5933143,16.875525 16.8721653,16.596674 16.8721653,16.2506299 L16.8721653,15.0008399 C16.8721653,14.6547959 16.5933143,14.3759449 16.2472703,14.3759449 L12.4979002,14.3759449 L12.4979002,14.3759449 Z M16.2506299,11.8730052 L12.4979002,11.8730052 C11.4631278,11.8730052 10.6232152,11.0330926 10.6232152,9.99832018 L10.6232152,3.74937006 C10.6232152,2.71459768 11.4631278,1.87468502 12.4979002,1.87468502 L16.2472703,1.87468502 C17.2820427,1.87468502 18.1219653,2.71459768 18.1219653,3.74937006 L18.1219653,9.99832018 C18.125315,11.0330926 17.2820427,11.8730052 16.2506299,11.8730052 Z M12.4979002,3.12447506 C12.1518562,3.12447506 11.8730052,3.4066857 11.8730052,3.74937008 L11.8730052,9.9983202 C11.8730052,10.3410046 12.1518562,10.6232152 12.4979002,10.6232152 L16.2472703,10.6232152 C16.5933143,10.6232152 16.8721653,10.3410046 16.8721653,9.9983202 L16.8721653,3.74937008 C16.8721653,3.40668572 16.5933143,3.12447506 16.2472703,3.12447506 L12.4979002,3.12447506 L12.4979002,3.12447506 Z" fill="#426ED7" fill-rule="nonzero"/>
</svg>
