<svg xmlns="http://www.w3.org/2000/svg" viewBox="0 0 16 16" class="design-iconfont">
  <path d="M13.3333333,2 L2.66666667,2 C1.93333334,2 1.33333333,2.6 1.33333333,3.33333333 L1.33333333,10 C1.33333333,10.7333333 1.93333333,11.3333333 2.66666667,11.3333333 L3.83333333,11.3333333 C3.93333333,11.3333333 4,11.4 4,11.5 L4,13.2666667 C4,13.6666667 4.33333333,13.9333333 4.66666667,13.9333333 C4.76666667,13.9333333 4.86666667,13.9 4.96666667,13.8666667 L9.16666667,11.4333333 C9.26666667,11.3666667 9.36666667,11.3333333 9.5,11.3333333 L13.3333333,11.3333333 C14.0666667,11.3333333 14.6666667,10.7333333 14.6666667,10 L14.6666667,3.33333333 C14.6666667,2.6 14.0666667,2 13.3333333,2 Z M13.3333333,9.66666667 C13.3333333,9.86666667 13.2,10 13,10 L9.33333333,10 C9.1,10 8.86666666,10.0666667 8.66666667,10.1666667 L5.33333333,12.1 L5.33333333,10.3333333 C5.33333333,10.1333333 5.2,10 5,10 L3,10 C2.8,10 2.66666667,9.86666667 2.66666667,9.66666667 L2.66666667,3.66666667 C2.66666667,3.46666667 2.8,3.33333333 3,3.33333333 L13,3.33333333 C13.2,3.33333333 13.3333333,3.46666666 13.3333333,3.66666667 L13.3333333,9.66666667 Z M4.16666667,6.83333333 C4.16666667,7.29357062 4.53976271,7.66666666 5,7.66666666 C5.46023729,7.66666666 5.83333333,7.29357062 5.83333333,6.83333333 C5.83333333,6.37309604 5.46023729,6 5,6 C4.53976271,6 4.16666667,6.37309604 4.16666667,6.83333333 Z M7.16666667,6.83333333 C7.16666667,7.29357062 7.53976271,7.66666666 8,7.66666666 C8.46023729,7.66666666 8.83333333,7.29357062 8.83333333,6.83333333 C8.83333333,6.37309604 8.46023729,6 8,6 C7.53976271,6 7.16666667,6.37309604 7.16666667,6.83333333 L7.16666667,6.83333333 Z M10.1666667,6.83333333 C10.1666667,7.13105466 10.3254991,7.40616052 10.5833333,7.55502119 C10.8411676,7.70388186 11.1588324,7.70388186 11.4166667,7.55502119 C11.6745009,7.40616052 11.8333333,7.13105466 11.8333333,6.83333333 C11.8333333,6.535612 11.6745009,6.26050614 11.4166667,6.11164547 C11.1588324,5.9627848 10.8411676,5.9627848 10.5833333,6.11164547 C10.3254991,6.26050614 10.1666667,6.535612 10.1666667,6.83333333 L10.1666667,6.83333333 Z" fill="#334266" fill-rule="nonzero"/>
</svg>
