<?xml version="1.0" standalone="no"?><!DOCTYPE svg PUBLIC "-//W3C//DTD SVG 1.1//EN" "http://www.w3.org/Graphics/SVG/1.1/DTD/svg11.dtd"><svg class="icon" width="200px" height="200.00px" viewBox="0 0 1024 1024" version="1.1" xmlns="http://www.w3.org/2000/svg"><path fill="#333333" d="M524.501333 225.834667a42.666667 42.666667 0 0 1 60.330667 0l256 256a42.666667 42.666667 0 0 1 0 60.330666l-256 256a42.666667 42.666667 0 0 1-60.330667-60.330666L750.336 512l-225.834667-225.834667a42.666667 42.666667 0 0 1 0-60.330666z m-256 0a42.666667 42.666667 0 0 1 60.330667 0l256 256a42.666667 42.666667 0 0 1 0 60.330666l-256 256a42.666667 42.666667 0 0 1-60.330667-60.330666L494.336 512 268.501333 286.165333a42.666667 42.666667 0 0 1 0-60.330666z"  /></svg>