<?xml version="1.0" encoding="UTF-8"?>
<svg width="20px" height="20px" viewBox="0 0 20 20" version="1.1" xmlns="http://www.w3.org/2000/svg" xmlns:xlink="http://www.w3.org/1999/xlink">
    <title>科长</title>
    <g id="控件" stroke="none" stroke-width="1" fill="none" fill-rule="evenodd">
        <g id="页面/页面-首页" transform="translate(-441.000000, -151.000000)">
            <g id="编组-55" transform="translate(210.000000, 100.000000)">
                <g id="编组-52" transform="translate(92.000000, 51.000000)">
                    <g id="编组-2" transform="translate(139.000000, 0.000000)">
                        <circle id="椭圆形" stroke="#F2B530" fill="#FAF2E1" cx="10" cy="10" r="9.5"></circle>
                        <path d="M10,13.5 L7.67897539,14.7202349 C7.1901308,14.9772357 6.58550365,14.7892891 6.32850284,14.3004446 C6.22616377,14.1057841 6.19084909,13.882816 6.22802594,13.6660584 L6.67130219,11.0815595 L6.67130219,11.0815595 L4.79355384,9.2512072 C4.39807026,8.86570599 4.38997795,8.23259273 4.77547916,7.83710915 C4.92898777,7.67962551 5.13013018,7.57713834 5.34776721,7.54551383 L7.94275162,7.16844052 L7.94275162,7.16844052 L9.10326392,4.81698575 C9.34768622,4.32173209 9.94731205,4.11839309 10.4425657,4.36281539 C10.6397783,4.46014562 10.7994058,4.61977315 10.8967361,4.81698575 L12.0572484,7.16844052 L12.0572484,7.16844052 L14.6522328,7.54551383 C15.1987777,7.62493144 15.5774591,8.13237429 15.4980415,8.67891916 C15.466417,8.89655619 15.3639298,9.0976986 15.2064462,9.2512072 L13.3286978,11.0815595 L13.3286978,11.0815595 L13.7719741,13.6660584 C13.8653351,14.2103948 13.4997472,14.7273507 12.9554108,14.8207118 C12.7386532,14.8578886 12.5156851,14.8225739 12.3210246,14.7202349 L10,13.5 L10,13.5 Z" id="星形备份-3" fill="#F2B530"></path>
                    </g>
                </g>
            </g>
        </g>
    </g>
</svg>
