<?xml version="1.0" standalone="no"?><!DOCTYPE svg PUBLIC "-//W3C//DTD SVG 1.1//EN" "http://www.w3.org/Graphics/SVG/1.1/DTD/svg11.dtd"><svg class="icon" width="200px" height="200.00px" viewBox="0 0 1024 1024" version="1.1" xmlns="http://www.w3.org/2000/svg"><path fill="#333333" d="M469.333333 704a42.666667 42.666667 0 0 1 42.666667-42.666667h128a42.666667 42.666667 0 1 1 0 85.333334h-128a42.666667 42.666667 0 0 1-42.666667-42.666667zM469.333333 576a42.666667 42.666667 0 0 1 42.666667-42.666667h128a42.666667 42.666667 0 1 1 0 85.333334h-128a42.666667 42.666667 0 0 1-42.666667-42.666667zM469.333333 448a42.666667 42.666667 0 0 1 42.666667-42.666667h128a42.666667 42.666667 0 1 1 0 85.333334h-128a42.666667 42.666667 0 0 1-42.666667-42.666667z"  /><path fill="#333333" d="M426.666667 448a42.666667 42.666667 0 1 1-85.333334 0 42.666667 42.666667 0 0 1 85.333334 0z"  /><path fill="#333333" d="M170.666667 213.333333a85.333333 85.333333 0 0 1 85.333333-85.333333h128a42.666667 42.666667 0 0 1 0 85.333333H256v640h512V213.333333h-128a42.666667 42.666667 0 1 1 0-85.333333h128a85.333333 85.333333 0 0 1 85.333333 85.333333v640a85.333333 85.333333 0 0 1-85.333333 85.333334H256a85.333333 85.333333 0 0 1-85.333333-85.333334V213.333333z"  /><path fill="#333333" d="M426.666667 576a42.666667 42.666667 0 1 1-85.333334 0 42.666667 42.666667 0 0 1 85.333334 0zM426.666667 704a42.666667 42.666667 0 1 1-85.333334 0 42.666667 42.666667 0 0 1 85.333334 0z"  /><path fill="#333333" d="M341.333333 128a42.666667 42.666667 0 0 1 42.666667-42.666667h256a42.666667 42.666667 0 0 1 42.666667 42.666667v128a42.666667 42.666667 0 0 1-42.666667 42.666667H384a42.666667 42.666667 0 0 1-42.666667-42.666667V128z m85.333334 42.666667v42.666666h170.666666V170.666667h-170.666666z"  /></svg>