<?xml version="1.0" standalone="no"?><!DOCTYPE svg PUBLIC "-//W3C//DTD SVG 1.1//EN" "http://www.w3.org/Graphics/SVG/1.1/DTD/svg11.dtd"><svg t="1648794565828" class="icon" viewBox="0 0 1024 1024" version="1.1" xmlns="http://www.w3.org/2000/svg" p-id="5063" xmlns:xlink="http://www.w3.org/1999/xlink" width="200" height="200"><defs><style type="text/css">@font-face { font-family: feedback-iconfont; src: url("//at.alicdn.com/t/font_1031158_u69w8yhxdu.woff2?t=1630033759944") format("woff2"), url("//at.alicdn.com/t/font_1031158_u69w8yhxdu.woff?t=1630033759944") format("woff"), url("//at.alicdn.com/t/font_1031158_u69w8yhxdu.ttf?t=1630033759944") format("truetype"); }
</style></defs><path d="M875.264 265.728l-177.664-197.632a64 64 0 0 0-47.616-21.248H221.952a89.6 89.6 0 0 0-89.6 89.6v751.104a89.6 89.6 0 0 0 89.6 89.6h580.096a89.6 89.6 0 0 0 89.6-89.6V308.48a63.744 63.744 0 0 0-16.384-42.752z m-555.264-5.376h153.6a38.4 38.4 0 0 1 0 76.8h-153.6a38.4 38.4 0 0 1 0-76.8z m-38.4 192a38.4 38.4 0 0 1 38.4-38.4h281.6a38.4 38.4 0 0 1 0 76.8h-281.6a38.4 38.4 0 0 1-38.4-38.4z m448.512 230.4l-54.272 49.152 15.36 72.192a25.6 25.6 0 0 1-37.632 27.392L588.8 795.136l-64 36.352a25.6 25.6 0 0 1-38.4-27.392l14.592-72.192-54.272-49.664a25.6 25.6 0 0 1 14.08-44.288l73.216-8.448L565.504 563.2a25.6 25.6 0 0 1 46.592 0l30.464 66.816 73.216 8.448a25.6 25.6 0 0 1 14.336 43.776z m-51.2-435.2V161.792L768 260.352h-76.8a12.8 12.8 0 0 1-12.8-12.8z" p-id="5064"></path></svg>