<?xml version="1.0" standalone="no"?><!DOCTYPE svg PUBLIC "-//W3C//DTD SVG 1.1//EN" "http://www.w3.org/Graphics/SVG/1.1/DTD/svg11.dtd"><svg t="1650447266276" class="icon" viewBox="0 0 1194 1024" version="1.1" xmlns="http://www.w3.org/2000/svg" p-id="11371" xmlns:xlink="http://www.w3.org/1999/xlink" width="233.203125" height="200"><defs><style type="text/css">@font-face { font-family: feedback-iconfont; src: url("//at.alicdn.com/t/font_1031158_u69w8yhxdu.woff2?t=1630033759944") format("woff2"), url("//at.alicdn.com/t/font_1031158_u69w8yhxdu.woff?t=1630033759944") format("woff"), url("//at.alicdn.com/t/font_1031158_u69w8yhxdu.ttf?t=1630033759944") format("truetype"); }
</style></defs><path d="M1029.632 1.706667c56.576 0 103.082667 43.178667 108.373333 98.389333l0.512 10.496v615.936c0 56.661333-43.178667 103.168-98.389333 108.373333l-10.496 0.512H640.682667v87.125334h304.981333a43.52 43.52 0 0 1 6.997333 86.528l-6.997333 0.597333H248.746667a43.52 43.52 0 0 1-7.082667-86.528l7.082667-0.597333h304.810666V835.413333H164.778667A108.885333 108.885333 0 0 1 56.32 737.024l-0.512-10.496V110.592c0-56.661333 43.178667-103.168 98.389333-108.373333L164.693333 1.706667h864.853334z m0 87.04H164.778667a21.76 21.76 0 0 0-21.248 16.810666l-0.597334 5.034667v615.936c0 10.325333 7.168 18.944 16.810667 21.248l5.034667 0.597333h864.853333c10.24 0 18.944-7.168 21.248-16.810666l0.512-5.034667V110.592a21.76 21.76 0 0 0-16.725333-21.248l-5.034667-0.597333zM821.162667 399.872a118.186667 118.186667 0 1 1 0 236.458667 118.186667 118.186667 0 0 1 0-236.373334z m7.936-184.234667a43.52 43.52 0 0 1 1.28 55.808l-5.376 5.632L426.666667 625.578667a43.52 43.52 0 0 1-62.805334-59.904l5.461334-5.632 398.250666-348.501334a43.52 43.52 0 0 1 61.44 4.096z m-7.936 271.36a31.146667 31.146667 0 1 0 0 62.293334 31.146667 31.146667 0 0 0 0-62.293334z m-448-286.208a118.186667 118.186667 0 1 1 0 236.373334 118.186667 118.186667 0 0 1 0-236.373334z m0 87.04a31.146667 31.146667 0 1 0 0 62.293334 31.146667 31.146667 0 0 0 0-62.293334z" p-id="11372"></path></svg>