<?xml version="1.0" encoding="UTF-8"?>
<svg xmlns="http://www.w3.org/2000/svg" xmlns:xlink="http://www.w3.org/1999/xlink" width="24px" height="24px" viewBox="0 0 24 24" version="1.1">
  <title>编组 84</title>
  <g id="页面-1" stroke="none" stroke-width="1" fill="none" fill-rule="evenodd">
    <g id="常规网页" transform="translate(-712.000000, -412.000000)">
      <g id="编组" transform="translate(324.000000, 236.000000)">
        <g id="编组-84" transform="translate(388.000000, 176.000000)">
          <rect id="矩形" x="0" y="0" width="24" height="24"></rect>
          <path d="M9.001,2.001 C9.40390248,2.001 9.76745251,2.24279095 9.92323072,2.61435999 C10.4402081,3.84747703 11.1018107,4.3699 12.001,4.3699 C12.9001893,4.3699 13.5617919,3.84747703 14.0787693,2.61435999 C14.2225646,2.27137318 14.5433962,2.03896653 14.9087977,2.00524116 L15.001,2.001 L21.001,2.001 C21.5242171,2.001 21.9535824,2.40282754 21.9973294,2.91471617 L22.001,3.001 L22.001,21.001 C22.001,21.5242171 21.5991725,21.9535824 21.0872838,21.9973294 L21.001,22.001 L3.001,22.001 C2.47778287,22.001 2.04841759,21.5991725 2.0046706,21.0872838 L2.001,21.001 L2.001,3.001 C2.001,2.47778287 2.40282754,2.04841759 2.91471617,2.0046706 L3.001,2.001 L9.001,2.001 Z M17.2081068,8.29389322 C16.8175825,7.90336893 16.1844175,7.90336893 15.7938932,8.29389322 L15.7938932,8.29389322 L10.5012,13.587 L8.20810678,11.2938932 L8.13677074,11.2290311 C7.74393208,10.9047202 7.16144549,10.9263409 6.79389322,11.2938932 C6.40336893,11.6844175 6.40336893,12.3175825 6.79389322,12.7081068 L6.79389322,12.7081068 L9.79389322,15.7081068 L9.86522926,15.7729689 C10.2580679,16.0972798 10.8405545,16.0756591 11.2081068,15.7081068 L11.2081068,15.7081068 L17.2081068,9.70810678 L17.2729689,9.63677074 C17.5972798,9.24393208 17.5756591,8.66144549 17.2081068,8.29389322 Z" id="形状结合" fill="#FFA940" fill-rule="nonzero"></path>
        </g>
      </g>
    </g>
  </g>
</svg>
