<svg xmlns="http://www.w3.org/2000/svg" viewBox="0 0 16 16" class="design-iconfont">
  <path d="M14,13.3333333 L2,13.3333333 C1.63333333,13.3333333 1.33333333,13.6333333 1.33333333,14 C1.33333333,14.3666667 1.63333333,14.6666667 2,14.6666667 L14,14.6666667 C14.3666667,14.6666667 14.6666667,14.3666667 14.6666667,14 C14.6666667,13.6333333 14.3666667,13.3333333 14,13.3333333 Z M3.66666667,12 L5.6,12 C5.96666667,12 6.3,11.8666667 6.53333333,11.6 L13.2,4.9 C13.7333333,4.36666667 13.7333333,3.53333333 13.2,3 L12.2666667,2.06666667 C11.7333333,1.53333334 10.9,1.53333334 10.3666667,2.06666667 L3.7,8.76666667 C3.46666667,9 3.33333333,9.36666667 3.33333333,9.7 L3.33333333,11.6666667 C3.33333333,11.8333333 3.46666666,12 3.66666667,12 Z M4.66666667,9.83333333 C4.66666667,9.73333333 4.7,9.66666666 4.76666667,9.6 L11.1,3.23333333 C11.2333333,3.1 11.4333333,3.1 11.5666667,3.23333333 L12.0333333,3.7 C12.1666667,3.83333333 12.1666667,4.03333333 12.0333333,4.16666667 L5.7,10.5333333 C5.63333333,10.6 5.56666667,10.6333333 5.46666667,10.6333333 L4.83333333,10.6333333 C4.73333333,10.6333333 4.66666667,10.5666667 4.66666667,10.4666667 L4.66666667,9.83333333 L4.66666667,9.83333333 Z" fill="#334266" fill-rule="nonzero"/>
</svg>
