<svg xmlns="http://www.w3.org/2000/svg" viewBox="0 0 16 16" class="design-iconfont">
  <path d="M8,2 C11.3137098,2 14,4.68629016 14,8 C14,11.3137098 11.3137098,14 8,14 C4.68629016,14 2,11.3137098 2,8 C2,4.68629016 4.68629016,2 8,2 Z M8,3.28571429 C5.39637055,3.28571429 3.28571429,5.39637055 3.28571429,8 C3.28571429,10.6036294 5.39637055,12.7142857 8,12.7142857 C10.6036294,12.7142857 12.7142857,10.6036294 12.7142857,8 C12.7142857,5.39637055 10.6036294,3.28571429 8,3.28571429 Z M6.0029639,5.09716368 L6.04385436,5.13471707 L10.8652829,9.95614564 C11.1163343,10.207197 11.1163343,10.6142316 10.8652829,10.8652829 C10.6274448,11.103121 10.2496106,11.1156388 9.9970361,10.9028363 L9.95614564,10.8652829 L5.13471707,6.04385436 C4.88366574,5.79280303 4.88366574,5.3857684 5.13471707,5.13471707 C5.37255517,4.89687897 5.75038937,4.88436117 6.0029639,5.09716368 Z" fill="#334266" fill-rule="nonzero"/>
</svg>
