<?xml version="1.0" encoding="UTF-8"?>
<svg xmlns="http://www.w3.org/2000/svg" xmlns:xlink="http://www.w3.org/1999/xlink" width="24px" height="24px" viewBox="0 0 24 24" version="1.1">
  <title>编组 87</title>
  <g id="页面-1" stroke="none" stroke-width="1" fill="none" fill-rule="evenodd">
    <g id="常规网页" transform="translate(-712.000000, -620.000000)">
      <g id="编组" transform="translate(324.000000, 236.000000)">
        <g id="编组-87" transform="translate(388.000000, 384.000000)">
          <rect id="矩形" x="0" y="0" width="24" height="24"></rect>
          <path d="M16.001,1.001 C17.1566802,1.001 18.2740828,1.28214715 19.2743952,1.81216991 C19.8429312,2.11341285 19.9776024,2.85859778 19.5719785,3.33908725 L19.5133072,3.40290132 L16.4148,6.5016 L17.5008,7.587 L20.5990932,4.48869322 C21.0323954,4.05539105 21.735005,4.11655294 22.0947562,4.580232 L22.1460709,4.65279125 L22.1898338,4.72762132 C22.7198456,5.72795806 23.001,6.84535402 23.001,8.001 C23.001,11.8669847 19.8669847,15.001 16.001,15.001 C15.2382737,15.001 14.492209,14.8785291 13.7854634,14.6428727 L13.5513689,14.5601412 L13.4106,14.5056 L5.20810678,22.7081068 C4.86352652,23.052687 4.33003916,23.0932259 3.94101017,22.8297233 L3.86522926,22.7729689 L3.79389322,22.7081068 L1.29389322,20.2081068 C0.926340944,19.8405545 0.904720222,19.2580679 1.22903105,18.8652293 L1.29389322,18.7938932 L9.4962,10.5912 L9.44185878,10.4506311 C9.20778994,9.82416349 9.06413578,9.16396868 9.01761725,8.48644675 L9.00473916,8.23159585 L9.001,8.001 C9.001,4.13500845 12.1350121,1.001 16.001,1.001 Z" id="路径" fill="#40A9FF" fill-rule="nonzero"></path>
        </g>
      </g>
    </g>
  </g>
</svg>
