<?xml version="1.0" standalone="no"?><!DOCTYPE svg PUBLIC "-//W3C//DTD SVG 1.1//EN" "http://www.w3.org/Graphics/SVG/1.1/DTD/svg11.dtd"><svg t="1639388036522" class="icon" viewBox="0 0 1024 1024" version="1.1" xmlns="http://www.w3.org/2000/svg" p-id="3347" xmlns:xlink="http://www.w3.org/1999/xlink" width="200" height="200"><defs><style type="text/css"></style></defs><path d="M827.733333 251.733333l-142.933333-142.933333c-14.933333-14.933333-36.266667-23.466667-59.733333-23.466667H256C209.066667 85.333333 170.666667 123.733333 170.666667 170.666667v682.666666c0 46.933333 38.4 85.333333 85.333333 85.333334h512c46.933333 0 85.333333-38.4 85.333333-85.333334V313.6c0-23.466667-8.533333-44.8-25.6-61.866667zM640 185.6l113.066667 113.066667H661.333333c-12.8 0-21.333333-8.533333-21.333333-21.333334V185.6zM768 832c0 12.8-8.533333 21.333333-21.333333 21.333333H277.333333c-12.8 0-21.333333-8.533333-21.333333-21.333333V192c0-12.8 8.533333-21.333333 21.333333-21.333333h277.333334v128c0 46.933333 38.4 85.333333 85.333333 85.333333h128v448z" p-id="3348"></path><path d="M384 426.666667h85.333333c23.466667 0 42.666667-19.2 42.666667-42.666667s-19.2-42.666667-42.666667-42.666667h-85.333333c-23.466667 0-42.666667 19.2-42.666667 42.666667s19.2 42.666667 42.666667 42.666667zM384 512c-23.466667 0-42.666667 19.2-42.666667 42.666667s19.2 42.666667 42.666667 42.666666h256c23.466667 0 42.666667-19.2 42.666667-42.666666s-19.2-42.666667-42.666667-42.666667H384zM640 682.666667H384c-23.466667 0-42.666667 19.2-42.666667 42.666666s19.2 42.666667 42.666667 42.666667h256c23.466667 0 42.666667-19.2 42.666667-42.666667s-19.2-42.666667-42.666667-42.666666z" p-id="3349"></path></svg>