<?xml version="1.0" encoding="UTF-8"?>
<svg width="24px" height="24px" viewBox="0 0 24 24" version="1.1" xmlns="http://www.w3.org/2000/svg" xmlns:xlink="http://www.w3.org/1999/xlink">
    <title>编组 54</title>
    <g id="报障。" stroke="none" stroke-width="1" fill="none" fill-rule="evenodd">
        <g id="编组-54" fill="#F56C6C">
            <circle id="椭圆形" stroke-opacity="0.5" stroke="#F56C6C" fill-opacity="0.1" cx="12" cy="12" r="11.5"></circle>
            <path d="M12,16 L9.09119013,17.5292518 C8.60234555,17.7862527 7.99771839,17.5983061 7.74071759,17.1094615 C7.63837852,16.9148011 7.60306384,16.691833 7.64024068,16.4750754 L8.19577393,13.236068 L8.19577393,13.236068 L5.84249732,10.9421902 C5.44701374,10.556689 5.43892144,9.92357573 5.82442265,9.52809216 C5.97793125,9.37060852 6.17907366,9.26812134 6.39671069,9.23649683 L9.64885899,8.76393202 L9.64885899,8.76393202 L11.1032639,5.81698575 C11.3476862,5.32173209 11.9473121,5.11839309 12.4425657,5.36281539 C12.6397783,5.46014562 12.7994058,5.61977315 12.8967361,5.81698575 L14.351141,8.76393202 L14.351141,8.76393202 L17.6032893,9.23649683 C18.1498342,9.31591445 18.5285156,9.8233573 18.449098,10.3699022 C18.4174735,10.5875392 18.3149863,10.7886816 18.1575027,10.9421902 L15.8042261,13.236068 L15.8042261,13.236068 L16.3597593,16.4750754 C16.4531203,17.0194118 16.0875325,17.5363677 15.5431961,17.6297287 C15.3264384,17.6669056 15.1034703,17.6315909 14.9088099,17.5292518 L12,16 L12,16 Z" id="星形"></path>
        </g>
    </g>
</svg>