<?xml version="1.0" standalone="no"?><!DOCTYPE svg PUBLIC "-//W3C//DTD SVG 1.1//EN" "http://www.w3.org/Graphics/SVG/1.1/DTD/svg11.dtd"><svg t="1639376178298" class="icon" viewBox="0 0 1260 1024" version="1.1" xmlns="http://www.w3.org/2000/svg" p-id="1552" xmlns:xlink="http://www.w3.org/1999/xlink" width="246.09375" height="200"><defs><style type="text/css"></style></defs><path d="M1201.073231 1001.314462H56.241231a51.830154 51.830154 0 0 1-55.296-47.576616V177.230769a51.830154 51.830154 0 0 1 55.296-47.497846h1144.832a51.830154 51.830154 0 0 1 55.296 47.497846v776.507077a51.987692 51.987692 0 0 1-55.296 47.576616z" fill="#FFE9B4" p-id="1553"></path><path d="M815.576615 437.720615H0.945231V72.073846a71.68 71.68 0 0 1 71.68-71.758769h557.607384c31.665231 0 59.628308 20.716308 68.608 51.2l116.736 386.205538z" fill="#FFB02C" p-id="1554"></path><path d="M1201.073231 1001.314462H56.241231a53.484308 53.484308 0 0 1-55.296-51.830154v-669.538462a53.484308 53.484308 0 0 1 55.296-51.830154h1144.832a53.484308 53.484308 0 0 1 55.296 51.751385v669.538461a53.720615 53.720615 0 0 1-55.296 51.908924z" fill="#FFCA28" p-id="1555"></path></svg>