<?xml version="1.0" standalone="no"?><!DOCTYPE svg PUBLIC "-//W3C//DTD SVG 1.1//EN" "http://www.w3.org/Graphics/SVG/1.1/DTD/svg11.dtd"><svg t="1648794085434" class="icon" viewBox="0 0 1024 1024" version="1.1" xmlns="http://www.w3.org/2000/svg" p-id="4393" xmlns:xlink="http://www.w3.org/1999/xlink" width="200" height="200"><defs><style type="text/css">@font-face { font-family: feedback-iconfont; src: url("//at.alicdn.com/t/font_1031158_u69w8yhxdu.woff2?t=1630033759944") format("woff2"), url("//at.alicdn.com/t/font_1031158_u69w8yhxdu.woff?t=1630033759944") format("woff"), url("//at.alicdn.com/t/font_1031158_u69w8yhxdu.ttf?t=1630033759944") format("truetype"); }
</style></defs><path d="M962.56 426.496L568.064 110.848a90.112 90.112 0 0 0-112.128 0L61.44 426.496A38.4 38.4 0 1 0 109.312 486.4L153.6 451.072V832A89.6 89.6 0 0 0 243.2 921.6h204.8a12.8 12.8 0 0 0 12.8-12.8v-256a12.8 12.8 0 0 1 12.8-12.8h102.4a12.8 12.8 0 0 1 12.8 12.8v256a12.8 12.8 0 0 0 12.8 12.8h179.2a89.6 89.6 0 0 0 89.6-89.6V451.072L914.688 486.4a38.4 38.4 0 1 0 47.872-59.904z" p-id="4394"></path></svg>