<?xml version="1.0" standalone="no"?><!DOCTYPE svg PUBLIC "-//W3C//DTD SVG 1.1//EN" "http://www.w3.org/Graphics/SVG/1.1/DTD/svg11.dtd"><svg t="1639378989954" class="icon" viewBox="0 0 1260 1024" version="1.1" xmlns="http://www.w3.org/2000/svg" p-id="1684" xmlns:xlink="http://www.w3.org/1999/xlink" width="246.09375" height="200"><defs><style type="text/css"></style></defs><path d="M1221.080615 743.896615v168.172308c0 42.141538-33.240615 76.406154-74.200615 76.406154H107.283692c-40.96 0-74.279385-34.264615-74.279384-76.406154V761.698462l165.572923-169.590154c14.887385-15.281231 36.391385-13.705846 49.782154 3.465846l199.049846 252.849231c14.572308 18.589538 38.439385 18.589538 52.854154-0.07877l373.366153-480.886153c14.493538-18.668308 38.360615-18.668308 53.090462-0.157539l294.360615 376.516923z" fill="#409EFF" fill-opacity=".5" p-id="1685"></path><path d="M1146.88 1021.873231H107.283692c-58.919385 0-106.732308-49.230769-106.732307-109.804308V747.913846l175.104-179.593846a64.039385 64.039385 0 0 1 49.624615-20.086154 65.929846 65.929846 0 0 1 48.285538 26.151385l199.128616 253.085538c0.472615 0.551385 0.866462 1.024 1.181538 1.181539 0.236308-0.315077 0.708923-0.630154 1.10277-1.181539L848.265846 346.584615a66.166154 66.166154 0 0 1 51.908923-26.624h0.078769c19.849846 0 38.754462 9.688615 51.987693 26.545231l301.607384 385.732923v179.987693c-0.315077 60.416-48.049231 109.646769-106.968615 109.646769zM65.378462 775.719385v136.349538c0 23.788308 18.747077 43.008 41.747692 43.008H1146.88c23.079385 0 41.747692-19.219692 41.747692-43.008V755.712L901.513846 388.332308c-0.630154-0.708923-1.024-1.102769-1.417846-1.260308 0 0.236308-0.551385 0.708923-1.102769 1.417846l-373.208616 480.571077a65.693538 65.693538 0 0 1-51.751384 26.624h-0.078769a66.244923 66.244923 0 0 1-51.751385-26.308923l-198.892308-252.849231a11.657846 11.657846 0 0 0-1.102769-1.260307l-0.551385 0.393846L65.378462 775.719385z" fill="#426ED7" p-id="1686"></path><path d="M473.875692 895.842462a66.244923 66.244923 0 0 1-51.751384-26.308924L223.232 616.526769a11.657846 11.657846 0 0 0-1.102769-1.260307l-0.551385 0.393846-221.026461 226.461538V109.804308C0.551385 49.152 48.364308 0 107.283692 0H1146.88c58.840615 0 106.653538 49.230769 106.653538 109.804308v728.930461l-352.098461-450.402461c-0.630154-0.708923-1.024-1.102769-1.417846-1.260308 0 0.236308-0.551385 0.708923-1.102769 1.417846l-373.208616 480.571077a65.693538 65.693538 0 0 1-51.751384 26.624l-0.07877 0.157539z m-252.061538-347.608616l3.465846 0.078769a65.929846 65.929846 0 0 1 48.285538 26.230154l199.128616 252.928c0.472615 0.551385 0.866462 1.024 1.181538 1.181539 0.236308-0.315077 0.708923-0.630154 1.10277-1.181539L848.265846 346.584615a66.166154 66.166154 0 0 1 51.908923-26.624h0.078769c19.849846 0 38.754462 9.688615 51.987693 26.545231l236.544 302.552616V109.961846a42.456615 42.456615 0 0 0-41.747693-43.086769h-1039.753846a42.456615 42.456615 0 0 0-41.826461 43.086769v571.313231l110.276923-112.955077a64.118154 64.118154 0 0 1 46.08-20.086154z" fill="#426ED7" p-id="1687"></path><path d="M190.779077 281.757538c0 63.251692 49.860923 114.530462 111.300923 114.530462S413.538462 345.009231 413.538462 281.757538c0-63.251692-49.860923-114.530462-111.379693-114.530461-61.44 0-111.300923 51.2-111.300923 114.530461z" fill="#409EFF" fill-opacity=".5" p-id="1688"></path><path d="M302.08 429.764923c-79.320615 0-143.911385-66.323692-143.911385-148.086154 0-81.683692 64.590769-147.849846 143.911385-147.849846 79.320615 0 143.911385 66.323692 143.911385 148.086154 0 81.683692-64.433231 147.849846-143.911385 147.849846z m0-229.218461c-43.480615 0-78.848 36.470154-78.848 81.132307 0 44.819692 35.367385 81.132308 78.848 81.132308 43.480615 0 78.926769-36.312615 78.926769-81.132308 0-44.662154-35.446154-81.132308-78.926769-81.132307z" fill="#426ED7" p-id="1689"></path></svg>