<?xml version="1.0" standalone="no"?><!DOCTYPE svg PUBLIC "-//W3C//DTD SVG 1.1//EN" "http://www.w3.org/Graphics/SVG/1.1/DTD/svg11.dtd"><svg t="1648794529530" class="icon" viewBox="0 0 1024 1024" version="1.1" xmlns="http://www.w3.org/2000/svg" p-id="4929" xmlns:xlink="http://www.w3.org/1999/xlink" width="200" height="200"><defs><style type="text/css">@font-face { font-family: feedback-iconfont; src: url("//at.alicdn.com/t/font_1031158_u69w8yhxdu.woff2?t=1630033759944") format("woff2"), url("//at.alicdn.com/t/font_1031158_u69w8yhxdu.woff?t=1630033759944") format("woff"), url("//at.alicdn.com/t/font_1031158_u69w8yhxdu.ttf?t=1630033759944") format("truetype"); }
</style></defs><path d="M469.248 413.952m-89.6 0a89.6 89.6 0 1 0 179.2 0 89.6 89.6 0 1 0-179.2 0Z" p-id="4930"></path><path d="M875.52 123.648L517.376 19.2a61.184 61.184 0 0 0-35.84 0L122.88 123.648A64.512 64.512 0 0 0 76.8 185.088v210.688a598.784 598.784 0 0 0 409.6 569.088 32.256 32.256 0 0 0 12.032 2.048 34.304 34.304 0 0 0 12.288-2.048A598.784 598.784 0 0 0 921.6 395.776V185.088a64.512 64.512 0 0 0-46.08-61.44z m-162.816 484.864a38.4 38.4 0 0 1-29.952 14.336 37.376 37.376 0 0 1-24.064-8.448l-87.04-69.632a164.608 164.608 0 0 1-102.4 35.584 166.4 166.4 0 1 1 166.4-166.4 164.608 164.608 0 0 1-16.128 70.912l87.04 69.632a38.4 38.4 0 0 1 6.144 54.016z" p-id="4931"></path></svg>