<?xml version="1.0" encoding="UTF-8"?>
<svg xmlns="http://www.w3.org/2000/svg" xmlns:xlink="http://www.w3.org/1999/xlink" width="16px" height="16px" viewBox="0 0 16 16" version="1.1">
  <title>icon-删除-16</title>
  <g id="首页" stroke="none" stroke-width="1" fill="none" fill-rule="evenodd">
    <g id="各卡片鼠标指向样式" transform="translate(-3143.000000, -1024.000000)" fill="#334266" fill-rule="nonzero">
      <g id="编组-9" transform="translate(3053.000000, 955.000000)">
        <g id="icon-删除-16" transform="translate(90.000000, 69.000000)">
          <rect id="矩形" opacity="0" x="0" y="0" width="16" height="16"></rect>
          <path d="M9.564,8.8 C9.49901877,8.6573764 9.35672923,8.5658433 9.2,8.5658433 C9.04327077,8.5658433 8.90098123,8.6573764 8.836,8.8 L8.36,9.836 L7.2,9.968 C7.04461219,9.98617062 6.91407982,10.0932633 6.86589947,10.2421062 C6.81771913,10.390949 6.86073517,10.5542193 6.976,10.66 L7.824,11.436 L7.6,12.564 C7.56900125,12.7173106 7.63020663,12.8746244 7.75666638,12.9666733 C7.88312613,13.0587222 8.05163668,13.0686167 8.188,12.992 L9.2,12.424 L10.2,12.992 C10.3369414,13.0762794 10.5110373,13.0703646 10.6419428,12.9769853 C10.7728484,12.883606 10.8351123,12.7209174 10.8,12.564 L10.572,11.436 L11.42,10.66 C11.5350423,10.5547594 11.5784484,10.3922627 11.5312091,10.2436734 C11.4839697,10.0950842 11.3546953,9.98748589 11.2,9.968 L10.056,9.836 L9.564,8.8 Z M13.676,4.152 L10.9,1.064 C10.7103666,0.852745801 10.4398823,0.732 10.156,0.732 L3.468,0.732 C2.69480135,0.732 2.068,1.35880135 2.068,2.132 L2.068,13.868 C2.068,14.6411986 2.69480135,15.268 3.468,15.268 L12.532,15.268 C13.3051986,15.268 13.9320009,14.6411986 13.9320009,13.868 L13.9320009,4.82 C13.9323353,4.573314 13.8411129,4.3352807 13.676,4.152 Z M10.6,2.528 L12,4.068 L10.8,4.068 C10.6895431,4.068 10.6,3.97845695 10.6,3.868 L10.6,2.528 Z M12.732,13.868 C12.732,13.9784569 12.6424569,14.068 12.532,14.068 L3.468,14.068 C3.35754305,14.068 3.268,13.9784569 3.268,13.868 L3.268,2.132 C3.268,2.02154305 3.35754305,1.932 3.468,1.932 L9.4,1.932 L9.4,4.268 C9.4,4.82028475 9.84771525,5.268 10.4,5.268 L12.732,5.268 L12.732,13.868 Z M5,5.268 L7.4,5.268 C7.73137085,5.268 8,4.99937085 8,4.668 C8,4.33662915 7.73137085,4.068 7.4,4.068 L5,4.068 C4.66862915,4.068 4.4,4.33662915 4.4,4.668 C4.4,4.99937085 4.66862915,5.268 5,5.268 Z M10,7.068 C10,6.73662915 9.73137085,6.468 9.4,6.468 L5,6.468 C4.66862915,6.468 4.4,6.73662915 4.4,7.068 C4.4,7.39937085 4.66862915,7.668 5,7.668 L9.4,7.668 C9.73137085,7.668 10,7.39937085 10,7.068 L10,7.068 Z" id="形状"></path>
        </g>
      </g>
    </g>
  </g>
</svg>
