<?xml version="1.0" standalone="no"?><!DOCTYPE svg PUBLIC "-//W3C//DTD SVG 1.1//EN" "http://www.w3.org/Graphics/SVG/1.1/DTD/svg11.dtd"><svg t="1648794662205" class="icon" viewBox="0 0 1024 1024" version="1.1" xmlns="http://www.w3.org/2000/svg" p-id="5329" xmlns:xlink="http://www.w3.org/1999/xlink" width="200" height="200"><defs><style type="text/css">@font-face { font-family: feedback-iconfont; src: url("//at.alicdn.com/t/font_1031158_u69w8yhxdu.woff2?t=1630033759944") format("woff2"), url("//at.alicdn.com/t/font_1031158_u69w8yhxdu.woff?t=1630033759944") format("woff"), url("//at.alicdn.com/t/font_1031158_u69w8yhxdu.ttf?t=1630033759944") format("truetype"); }
</style></defs><path d="M99.584 384a51.2 51.2 0 0 0 34.816 89.6h691.2a87.296 87.296 0 0 0 51.2-16.64A213.76 213.76 0 0 0 967.424 281.6a213.76 213.76 0 0 0-89.088-175.36 87.296 87.296 0 0 0-51.2-16.64h-691.2A51.2 51.2 0 0 0 99.584 179.2a135.936 135.936 0 0 1 44.8 102.4 135.936 135.936 0 0 1-44.8 102.4zM879.616 742.4a135.936 135.936 0 0 1 44.8-102.4 51.2 51.2 0 0 0-34.816-88.832h-691.2a87.296 87.296 0 0 0-51.2 16.64 217.088 217.088 0 0 0 0 350.72 87.296 87.296 0 0 0 51.2 16.64h691.2A51.2 51.2 0 0 0 924.416 844.8a135.936 135.936 0 0 1-44.8-102.4zM889.6 627.2z" p-id="5330"></path></svg>