<?xml version="1.0" encoding="UTF-8"?>
<svg width="20px" height="20px" viewBox="0 0 20 20" version="1.1" xmlns="http://www.w3.org/2000/svg" xmlns:xlink="http://www.w3.org/1999/xlink">
    <title>组长</title>
    <g id="控件" stroke="none" stroke-width="1" fill="none" fill-rule="evenodd">
        <g id="页面/页面-首页" transform="translate(-413.000000, -151.000000)">
            <g id="编组-55" transform="translate(210.000000, 100.000000)">
                <g id="编组-52" transform="translate(92.000000, 51.000000)">
                    <g id="编组-51" transform="translate(111.000000, 0.000000)">
                        <path d="M18.8894615,10.0278575 L19.9451449,6.74067341 C20.1122829,6.18352356 19.8894322,5.57065873 19.3344485,5.29208381 L16.2781094,3.73206425 L14.7224407,0.667740099 C14.4445917,0.166305239 13.8338953,-0.112269675 13.2781973,0.110590252 L9.99972187,1.11345997 L6.72124644,0.0548752658 C6.16554843,-0.112269694 5.55485202,0.110590252 5.27700302,0.612025113 L3.72133429,3.67634926 L0.665709503,5.23565454 C0.110011496,5.51422945 -0.112839129,6.12709429 0.0542988394,6.68424413 L1.1099822,9.97142823 L0.0542988394,13.2586123 C-0.112839129,13.8157622 0.110011496,14.428627 0.665709503,14.7072019 L3.72133429,16.2672215 L5.27700302,19.3315456 C5.55556628,19.8329805 6.16626269,20.1115554 6.72124644,19.9444104 L9.99972187,18.88654 L13.2781973,19.9451247 C13.8338953,20.1122697 14.4445917,19.8894097 14.7224407,19.3879749 L16.2781094,16.3236508 L19.3344485,14.7636312 C19.8344338,14.4850563 20.1115686,13.8721914 19.9451449,13.3150416 L18.8894615,10.0278575 Z" id="路径" fill="#28C6A8" fill-rule="nonzero"></path>
                        <path d="M15,5 L15,10.5555556 C13.59375,11.4324641 12.2049435,11.8127917 10.8335805,11.6965384 L10.5595405,11.6666667 C9.44925609,11.5186889 8.30455304,11.6973201 7.12543139,12.2025602 L7.125,14.5 C7.125,14.7761424 6.90114237,15 6.625,15 L6.5,15 C6.22385763,15 6,14.7761424 6,14.5 L6,6.61111111 C6,6.33496874 6.22385763,6.11111111 6.5,6.11111111 L6.625,6.11111111 C6.8830738,6.11111111 7.0954812,6.3066322 7.12217282,6.557625 C8.24716981,6.01831721 9.37358491,5.86960751 10.5,6.11111111 C12,6.43271139 13.5,6.06234102 15,5 Z" id="形状结合" fill="#FFFFFF" transform="translate(10.500000, 10.000000) rotate(-15.000000) translate(-10.500000, -10.000000) "></path>
                    </g>
                </g>
            </g>
        </g>
    </g>
</svg>
