<?xml version="1.0" standalone="no"?><!DOCTYPE svg PUBLIC "-//W3C//DTD SVG 1.1//EN" "http://www.w3.org/Graphics/SVG/1.1/DTD/svg11.dtd"><svg class="icon" width="200px" height="200.00px" viewBox="0 0 1024 1024" version="1.1" xmlns="http://www.w3.org/2000/svg"><path d="M691.2 256a42.666667 42.666667 0 0 1 42.666667-42.666667c27.178667 0 53.845333 5.461333 79.829333 15.872 28.288 11.306667 50.048 28.074667 69.802667 47.786667 19.754667 19.797333 36.522667 41.557333 47.829333 69.845333 10.410667 25.984 15.872 52.650667 15.872 79.829334s-5.461333 53.845333-15.872 79.829333c-11.136 27.946667-27.648 49.493333-47.104 69.077333l-41.984 46.208a41.258667 41.258667 0 0 1-1.408 1.450667l-136.533333 136.533333c-19.754667 19.754667-41.514667 36.522667-69.802667 47.872A213.845333 213.845333 0 0 1 554.666667 823.466667a213.845333 213.845333 0 0 1-79.829334-15.872c-28.288-11.306667-50.048-28.074667-69.802666-47.786667-19.754667-19.797333-36.522667-41.557333-47.829334-69.845333A219.52 219.52 0 0 1 341.333333 605.866667c0-27.178667 5.461333-53.845333 15.872-79.829334 11.306667-28.288 28.074667-50.048 47.786667-69.802666l46.933333-46.933334a42.666667 42.666667 0 1 1 60.373334 60.330667l-46.933334 46.933333c-14.378667 14.378667-23.210667 26.752-28.928 41.130667A128.597333 128.597333 0 0 0 426.666667 605.866667c0 20.309333 3.285333 36.266667 9.770666 52.437333 5.717333 14.378667 14.549333 26.752 28.928 41.130667 14.378667 14.378667 26.752 23.210667 41.130667 28.928 16.682667 6.698667 32.682667 9.770667 48.170667 9.770666s31.488-3.072 48.170666-9.770666c14.378667-5.717333 26.752-14.549333 41.130667-28.928l135.808-135.808 41.984-46.208a41.258667 41.258667 0 0 1 1.408-1.450667c14.378667-14.378667 23.210667-26.752 28.928-41.130667 6.698667-16.682667 9.770667-32.682667 9.770667-48.170666s-3.072-31.488-9.770667-48.170667c-5.717333-14.378667-14.549333-26.752-28.928-41.130667-14.378667-14.378667-26.752-23.210667-41.130667-28.970666A128.597333 128.597333 0 0 0 733.866667 298.666667a42.666667 42.666667 0 0 1-42.666667-42.666667z m-209.066667 64c-15.488 0-31.488 3.072-48.170666 9.728-14.378667 5.76-26.752 14.592-41.130667 29.013333L252.757333 498.773333l-41.984 46.208-1.408 1.450667c-14.378667 14.378667-23.210667 26.752-28.970666 41.130667A128.597333 128.597333 0 0 0 170.666667 635.733333c0 15.488 3.072 31.488 9.728 48.170667 5.76 14.378667 14.592 26.752 29.013333 41.130667 14.336 14.378667 26.709333 23.210667 41.088 28.970666 16.682667 6.656 32.682667 9.728 48.170667 9.728a42.666667 42.666667 0 1 1 0 85.333334 213.802667 213.802667 0 0 1-79.829334-15.829334c-28.288-11.349333-50.048-28.117333-69.802666-47.872-19.754667-19.754667-36.522667-41.514667-47.829334-69.802666A213.845333 213.845333 0 0 1 85.333333 635.733333c0-27.178667 5.461333-53.845333 15.872-79.829333 11.136-27.946667 27.648-49.493333 47.104-69.077333l41.984-46.208 1.408-1.450667 140.8-140.8c19.754667-19.754667 41.514667-36.522667 69.802667-47.829333A213.845333 213.845333 0 0 1 482.133333 234.666667c27.178667 0 53.845333 5.461333 79.829334 15.872 28.288 11.306667 50.048 28.074667 69.802666 47.786666 19.754667 19.797333 36.522667 41.557333 47.829334 69.845334 10.410667 25.984 15.872 52.650667 15.872 79.829333s-5.461333 53.845333-15.872 79.829333c-11.178667 27.946667-27.690667 49.578667-47.146667 69.12l-46.336 50.56a42.666667 42.666667 0 0 1-62.890667-57.685333l46.933334-51.2 1.28-1.322667c14.378667-14.378667 23.210667-26.752 28.928-41.130666 6.698667-16.682667 9.770667-32.682667 9.770666-48.170667s-3.072-31.488-9.770666-48.170667c-5.717333-14.378667-14.549333-26.752-28.928-41.130666-14.378667-14.378667-26.752-23.210667-41.130667-28.970667A128.597333 128.597333 0 0 0 482.133333 320z"  /></svg>
