<?xml version="1.0" standalone="no"?><!DOCTYPE svg PUBLIC "-//W3C//DTD SVG 1.1//EN" "http://www.w3.org/Graphics/SVG/1.1/DTD/svg11.dtd"><svg t="1649298050618" class="icon" viewBox="0 0 1024 1024" version="1.1" xmlns="http://www.w3.org/2000/svg" p-id="4393" xmlns:xlink="http://www.w3.org/1999/xlink" width="200" height="200"><defs><style type="text/css">@font-face { font-family: feedback-iconfont; src: url("//at.alicdn.com/t/font_1031158_u69w8yhxdu.woff2?t=1630033759944") format("woff2"), url("//at.alicdn.com/t/font_1031158_u69w8yhxdu.woff?t=1630033759944") format("woff"), url("//at.alicdn.com/t/font_1031158_u69w8yhxdu.ttf?t=1630033759944") format("truetype"); }
</style></defs><path d="M934.4 76.8h-844.8a38.4 38.4 0 0 0 0 76.8h25.6v499.2A89.6 89.6 0 0 0 204.8 742.4h218.88l-109.568 109.312a38.656 38.656 0 0 0 0 54.272 38.144 38.144 0 0 0 54.272 0l143.616-143.36 143.616 143.36a37.12 37.12 0 0 0 27.136 11.264 37.888 37.888 0 0 0 27.136-11.264 38.656 38.656 0 0 0 0-54.272L600.32 742.4H819.2a89.6 89.6 0 0 0 89.6-89.6V153.6h25.6a38.4 38.4 0 0 0 0-76.8z m-164.608 385.792a38.4 38.4 0 0 1-76.8 0V376.32l-140.8 141.056a62.72 62.72 0 0 1-45.056 18.944 63.232 63.232 0 0 1-46.336-18.688l-48.384-48.128L319.744 563.2a37.12 37.12 0 0 1-27.136 11.264 37.888 37.888 0 0 1-27.136-11.264 38.656 38.656 0 0 1 0-54.272l102.4-102.4a64 64 0 0 1 90.368 0l48.384 48.128L640 321.792h-87.808a38.4 38.4 0 0 1 0-76.8h179.2a41.472 41.472 0 0 1 13.824 2.56 37.632 37.632 0 0 1 12.288 8.448 38.144 38.144 0 0 1 8.192 12.544 36.096 36.096 0 0 1 2.816 13.824z" p-id="4394"></path></svg>