<?xml version="1.0" encoding="UTF-8"?>
<svg xmlns="http://www.w3.org/2000/svg" xmlns:xlink="http://www.w3.org/1999/xlink" width="16px" height="16px" viewBox="0 0 16 16" version="1.1">
  <title>icon-添加-16</title>
  <g id="首页" stroke="none" stroke-width="1" fill="none" fill-rule="evenodd">
    <g id="各卡片鼠标指向样式" transform="translate(-3143.000000, -994.000000)" fill="#334266" fill-rule="nonzero">
      <g id="编组-9" transform="translate(3053.000000, 955.000000)">
        <g id="会议" transform="translate(90.000000, 39.000000)">
          <rect id="矩形" opacity="0" x="0" y="0" width="16" height="16"></rect>
          <path d="M4.46666667,8.13333333 C4.6,8.03333333 4.7,7.96666666 4.83333333,7.86666667 C4.5,7.3 4.3,6.66666667 4.3,5.96666667 L4.3,5.66666667 L4.3,5.63333333 C4.3,5.53333333 4.3,5.43333333 4.33333333,5.33333333 C4.46666666,4.53333333 4.86666666,3.83333333 5.43333333,3.3 L5.3,3.3 C4,3.3 2.93333333,4.33333333 2.93333333,5.63333333 C2.93333333,6.16666666 3.13333333,6.66666666 3.43333333,7.06666667 C2.4,7.66666667 1.6,8.66666667 1.33333333,9.9 C1.26666666,10.3 1.6,10.6666667 2,10.6666667 C2.23333333,10.6666667 2.4,10.5666667 2.53333333,10.4 C2.6,10.3333333 2.63333333,10.2666667 2.66666667,10.2 L2.66666667,10.1666667 C2.86666667,9.2 3.56666667,8.43333334 4.46666667,8.13333333 L4.46666667,8.13333333 Z M14.6666667,9.9 C14.4333333,8.7 13.6333333,7.66666667 12.5333333,7.13333333 C12.8666667,6.73333333 13.0333333,6.23333333 13.0333333,5.7 C13.0333333,4.4 11.9666667,3.36666667 10.6666667,3.36666667 L10.5333333,3.36666667 C11.1,3.9 11.5,4.6 11.6333333,5.4 C11.6666667,5.5 11.6666667,5.6 11.6666667,5.7 L11.6666667,6.03333333 C11.6666667,6.7 11.4666667,7.36666667 11.1333333,7.93333333 C11.2666667,8 11.4,8.1 11.5,8.2 C12.4,8.5 13.1,9.26666667 13.3,10.2 L13.3,10.2333333 C13.3333333,10.3 13.3666667,10.4 13.4,10.4333333 C13.5333333,10.6 13.7333333,10.7 13.9333333,10.7 C14.4,10.6666667 14.7333333,10.3 14.6666667,9.9 Z M10.1333333,8.1 C10.6666667,7.56666667 11,6.8 11,6 C11,4.33333333 9.63333333,3 7.96666667,3 C6.30000002,3 4.93333334,4.33333333 4.93333333,6 C4.93333333,6.83333333 5.26666666,7.56666667 5.8,8.1 C4.13333333,8.83333333 2.9,10.3666667 2.63333333,12.2333333 C2.6,12.6333333 2.93333333,13 3.33333333,13 C3.66666666,13 3.96666666,12.7666667 4,12.4333333 C4.26666667,10.5 5.96666667,9 8,9 C10.0333333,9 11.7333333,10.5 12,12.4333333 C12.0333333,12.7666667 12.3333333,13 12.6666667,13 C13.0666667,13 13.4,12.6333333 13.3333333,12.2333333 C13.0666667,10.3666667 11.8333333,8.83333333 10.1333333,8.1 L10.1333333,8.1 Z M8,7.66666667 C7.06666667,7.66666667 6.33333333,6.93333334 6.33333333,6 C6.33333333,5.06666666 7.1,4.33333333 8,4.33333333 C8.9,4.33333333 9.66666667,5.06666666 9.66666667,6 C9.66666667,6.93333334 8.93333334,7.66666667 8,7.66666667 Z" id="形状"></path>
        </g>
      </g>
    </g>
  </g>
</svg>
