<?xml version="1.0" encoding="UTF-8"?>
<svg xmlns="http://www.w3.org/2000/svg" xmlns:xlink="http://www.w3.org/1999/xlink" width="24px" height="24px" viewBox="0 0 24 24" version="1.1">
  <title>编组 85</title>
  <g id="页面-1" stroke="none" stroke-width="1" fill="none" fill-rule="evenodd">
    <g id="常规网页" transform="translate(-348.000000, -854.000000)">
      <g id="编组" transform="translate(324.000000, 236.000000)">
        <g id="编组-85" transform="translate(24.000000, 618.000000)">
          <rect id="矩形" x="0" y="0" width="24" height="24"></rect>
          <path d="M18.001,1.001 C19.0687625,1.001 19.9410731,1.83772715 19.9980407,2.89126531 L20.001,3.001 L20.001,22.001 C20.001,22.7863252 19.1439419,23.2544628 18.4891013,22.8602907 L18.4197618,22.8147335 L15.501,20.73 L12.5822382,22.8147335 C12.2880326,23.0248803 11.908351,23.0572106 11.5878451,22.9117243 L11.5020103,22.8676376 L11.4197618,22.8147335 L8.5008,20.73 L5.58223819,22.8147335 C4.96601582,23.2548923 4.12658488,22.8751322 4.0137322,22.1642304 L4.0042313,22.0839034 L4.001,22.001 L4.001,3.001 C4.001,1.93324648 4.83771848,1.06092754 5.89126444,1.00395934 L6.001,1.001 L18.001,1.001 Z M15.001,14.001 L9.001,14.001 L8.91471617,14.0046706 C8.40282754,14.0484176 8.001,14.4777829 8.001,15.001 C8.001,15.5532847 8.44871525,16.001 9.001,16.001 L9.001,16.001 L15.001,16.001 L15.0872838,15.9973294 C15.5991725,15.9535824 16.001,15.5242171 16.001,15.001 C16.001,14.4487153 15.5532847,14.001 15.001,14.001 L15.001,14.001 Z M15.001,10.001 L9.001,10.001 L8.91471617,10.0046706 C8.40282754,10.0484176 8.001,10.4777829 8.001,11.001 C8.001,11.5532847 8.44871525,12.001 9.001,12.001 L9.001,12.001 L15.001,12.001 L15.0872838,11.9973294 C15.5991725,11.9535824 16.001,11.5242171 16.001,11.001 C16.001,10.4487153 15.5532847,10.001 15.001,10.001 L15.001,10.001 Z M15.001,6.001 L9.001,6.001 L8.91471617,6.0046706 C8.40282754,6.04841759 8.001,6.47778287 8.001,7.001 C8.001,7.55328475 8.44871525,8.001 9.001,8.001 L9.001,8.001 L15.001,8.001 L15.0872838,7.9973294 C15.5991725,7.95358241 16.001,7.52421713 16.001,7.001 C16.001,6.44871525 15.5532847,6.001 15.001,6.001 L15.001,6.001 Z" id="形状结合" fill="#F759AB" fill-rule="nonzero"></path>
        </g>
      </g>
    </g>
  </g>
</svg>
