<svg xmlns="http://www.w3.org/2000/svg" viewBox="0 0 16 16" class="design-iconfont">
  <path d="M6.23529412,2 C6.62514218,2 6.94117647,2.31603429 6.94117647,2.70588235 C6.94117647,3.07801005 6.6532196,3.38288181 6.28797495,3.40982856 L6.23529412,3.41176471 L3.58823529,3.41176471 C3.5016035,3.41176471 3.42955023,3.47419222 3.41460792,3.55651481 L3.41176471,3.58823529 L3.41176471,12.4117647 C3.41176471,12.4984034 3.47418677,12.5704513 3.556513,12.5853923 L3.58823529,12.5882353 L12.4117647,12.5882353 C12.4984096,12.5882353 12.5704527,12.5258194 12.5853926,12.4434891 L12.5882353,12.4117647 L12.5882353,9.60991176 C12.5882353,9.22006371 12.9042696,8.90402941 13.2941176,8.90402941 C13.6662453,8.90402941 13.9711171,9.19198628 13.9980639,9.55723094 L14,9.60991176 L14,12.4117647 C14,13.2638742 13.328988,13.9592322 12.4865313,13.9982713 L12.4117647,14 L3.58823529,14 C2.73613687,14 2.04076845,13.328985 2.0017287,12.4865311 L2,12.4117647 L2,3.58823529 C2,2.73614004 2.67102583,2.04076863 3.51346985,2.00172871 L3.58823529,2 L6.23529412,2 Z M13.2941176,2 C13.6662453,2 13.9711171,2.28795687 13.9980639,2.65320153 L14,2.70588235 L14,6.82352941 C14,7.21337747 13.6839657,7.52941176 13.2941176,7.52941176 C12.92199,7.52941176 12.6171182,7.2414549 12.5901714,6.87621024 L12.5882353,6.82352941 L12.588,4.409 L9.02848714,7.96969302 C8.75282293,8.24535723 8.30588295,8.24535723 8.03021874,7.96969302 C7.76906318,7.70853746 7.75531815,7.2936607 7.98898365,7.01632395 L8.03021874,6.97142463 L11.59,3.411 L9.17647059,3.41176471 C8.8043429,3.41176471 8.49947113,3.12380784 8.47252438,2.75856318 L8.47058824,2.70588235 C8.47058824,2.33375466 8.7585451,2.0288829 9.12378976,2.00193614 L9.17647059,2 L13.2941176,2 Z" fill="#334266" fill-rule="nonzero"/>
</svg>
