<?xml version="1.0" standalone="no"?><!DOCTYPE svg PUBLIC "-//W3C//DTD SVG 1.1//EN" "http://www.w3.org/Graphics/SVG/1.1/DTD/svg11.dtd"><svg class="icon" width="200px" height="200.00px" viewBox="0 0 1024 1024" version="1.1" xmlns="http://www.w3.org/2000/svg"><path fill="#333333" d="M291.5 925.2c-22.1 0-40-17.9-40-40V721.6H128.8c-16.6 0-30-13.4-30-30V384.8c0-59.5 48.3-107.8 107.8-107.8h44.9V138.8c0-22.1 17.9-40 40-40h441c22.1 0 40 17.9 40 40V277h44.9c59.5 0 107.8 48.3 107.8 107.8v306.8c0 16.6-13.4 30-30 30H772.5v163.6c0 22.1-17.9 40-40 40h-441z m418.1-62.9v-217H314.4v217h395.2z m152.7-203.6V384.8c0-24.8-20.1-44.9-44.9-44.9H206.6c-24.8 0-44.9 20.1-44.9 44.9v273.9h89.8v-70.3c0-3.3 2.7-6 6-6h509c3.3 0 6 2.7 6 6v70.3h89.8zM709.6 277V161.7H314.4V277h395.2zM283 467.1c-17.3 0-31.4-14.1-31.4-31.4s14.1-31.4 31.4-31.4h229c17.3 0 31.4 14.1 31.4 31.4s-14.1 31.4-31.4 31.4H283z" /></svg>