<?xml version="1.0" standalone="no"?><!DOCTYPE svg PUBLIC "-//W3C//DTD SVG 1.1//EN" "http://www.w3.org/Graphics/SVG/1.1/DTD/svg11.dtd"><svg t="1648794482869" class="icon" viewBox="0 0 1024 1024" version="1.1" xmlns="http://www.w3.org/2000/svg" p-id="4796" xmlns:xlink="http://www.w3.org/1999/xlink" width="200" height="200"><defs><style type="text/css">@font-face { font-family: feedback-iconfont; src: url("//at.alicdn.com/t/font_1031158_u69w8yhxdu.woff2?t=1630033759944") format("woff2"), url("//at.alicdn.com/t/font_1031158_u69w8yhxdu.woff?t=1630033759944") format("woff"), url("//at.alicdn.com/t/font_1031158_u69w8yhxdu.ttf?t=1630033759944") format("truetype"); }
</style></defs><path d="M870.4 294.4h-176.64a13.056 13.056 0 0 1-7.936-2.816L612.352 153.6a25.6 25.6 0 0 0-4.352-6.4 89.344 89.344 0 0 0-68.864-32H153.6A89.6 89.6 0 0 0 64 204.8v614.4A89.6 89.6 0 0 0 153.6 908.8h716.8a89.6 89.6 0 0 0 89.6-89.6V384a89.6 89.6 0 0 0-89.6-89.6z m-256 179.2a38.4 38.4 0 0 1 0 76.8h-153.6a38.4 38.4 0 0 1 0-76.8zM140.8 281.6V204.8a12.8 12.8 0 0 1 12.8-12.8h385.536a12.032 12.032 0 0 1 7.936 2.816l53.248 99.584H153.6a12.8 12.8 0 0 1-12.8-12.8zM307.2 729.6a38.4 38.4 0 1 1 38.4-38.4 38.4 38.4 0 0 1-38.4 38.4z m0-179.2a38.4 38.4 0 1 1 38.4-38.4 38.4 38.4 0 0 1-38.4 38.4z m409.6 179.2H460.8a38.4 38.4 0 0 1 0-76.8h256a38.4 38.4 0 0 1 0 76.8z" p-id="4797"></path></svg>