<?xml version="1.0" standalone="no"?><!DOCTYPE svg PUBLIC "-//W3C//DTD SVG 1.1//EN" "http://www.w3.org/Graphics/SVG/1.1/DTD/svg11.dtd"><svg t="1648794618787" class="icon" viewBox="0 0 1024 1024" version="1.1" xmlns="http://www.w3.org/2000/svg" p-id="5196" xmlns:xlink="http://www.w3.org/1999/xlink" width="200" height="200"><defs><style type="text/css">@font-face { font-family: feedback-iconfont; src: url("//at.alicdn.com/t/font_1031158_u69w8yhxdu.woff2?t=1630033759944") format("woff2"), url("//at.alicdn.com/t/font_1031158_u69w8yhxdu.woff?t=1630033759944") format("woff"), url("//at.alicdn.com/t/font_1031158_u69w8yhxdu.ttf?t=1630033759944") format("truetype"); }
</style></defs><path d="M883.2 102.4h-742.4A89.6 89.6 0 0 0 51.2 192v614.4A89.6 89.6 0 0 0 140.8 896h742.4a89.6 89.6 0 0 0 89.6-89.6v-614.4A89.6 89.6 0 0 0 883.2 102.4z m-230.4 486.4a38.4 38.4 0 0 1 0 76.8h-102.4v64a38.4 38.4 0 0 1-76.8 0V665.6h-102.4a38.4 38.4 0 0 1 0-76.8h102.4v-51.2h-102.4a38.4 38.4 0 0 1 0-76.8h99.84l-114.176-114.176a38.4 38.4 0 0 1 54.272-54.272L512 393.216l100.864-100.864a38.4 38.4 0 0 1 54.272 54.272L552.96 460.8h99.84a38.4 38.4 0 0 1 0 76.8h-102.4v51.2z" p-id="5197"></path></svg>