<?xml version="1.0" encoding="UTF-8"?>
<svg width="18px" height="18px" viewBox="0 0 18 18" version="1.1" xmlns="http://www.w3.org/2000/svg" xmlns:xlink="http://www.w3.org/1999/xlink">
    <title>形状</title>
    <g id="送修" stroke="none" stroke-width="1" fill="none" fill-rule="evenodd">
        <g id="1.1新增送修-科室送修" transform="translate(-372.000000, -297.000000)" fill="#426ED7" fill-rule="nonzero">
            <g id="编组-176" transform="translate(36.000000, 48.000000)">
                <g id="编组-175" transform="translate(16.000000, 50.000000)">
                    <g id="抽屉内容" transform="translate(0.000000, 7.000000)">
                        <path d="M337.300964,205.921068 L332.873372,201.49524 C334.244531,201.602886 335.608632,201.119362 336.605679,200.120551 C337.646842,199.079387 338.139189,197.644699 337.964486,196.18354 C337.915074,195.774133 337.641548,195.437079 337.253318,195.302963 C336.866852,195.168847 336.446857,195.265904 336.155684,195.555313 L334.366294,197.344702 C334.355706,197.355291 334.339824,197.360585 334.322177,197.357055 L333.007488,197.104705 C332.988076,197.101176 332.975723,197.087059 332.970429,197.067647 L332.718079,195.752957 C332.716315,195.737075 332.719844,195.721193 332.730432,195.70884 L334.576292,193.864745 C334.860406,193.580631 334.959228,193.167695 334.8357,192.786523 C334.712173,192.403587 334.387471,192.126531 333.986887,192.061238 C332.223968,191.780653 330.464578,192.502409 329.395179,193.945921 C328.590483,195.031201 328.302839,196.434125 328.590483,197.768227 L328.265781,198.092929 L324.849352,194.669441 L324.679943,193.827687 C324.619943,193.53122 324.432887,193.275341 324.169949,193.128872 L322.371736,192.128296 C321.971152,191.905946 321.464688,191.978298 321.139986,192.301235 L320.303526,193.13946 C319.978824,193.464162 319.908236,193.970626 320.130587,194.37121 L321.129398,196.171187 C321.275867,196.43589 321.531746,196.621182 321.828213,196.681181 L322.669967,196.850591 L326.093455,200.274078 L320.751755,205.615778 C319.749415,206.618118 319.749415,208.246922 320.751755,209.251027 C321.237044,209.736315 321.881153,210.001018 322.56938,210.001018 C323.257607,210.001018 323.901717,209.734551 324.387005,209.251027 L329.128712,204.50932 L333.921594,209.302203 C334.387471,209.76808 334.999816,210.001018 335.612161,210.001018 C336.224507,210.001018 336.836852,209.76808 337.302729,209.302203 C338.232718,208.368685 338.232718,206.854586 337.300964,205.921068 Z M329.855761,198.465277 C330.037524,198.283514 330.104582,198.015282 330.026936,197.769991 C329.703999,196.735886 329.885761,195.613547 330.513989,194.766499 C331.135158,193.924744 332.084558,193.428868 333.097486,193.386516 L331.756326,194.727676 C331.419272,195.062966 331.271038,195.54296 331.362802,196.010601 L331.615152,197.325291 C331.726327,197.902343 332.171027,198.348808 332.751608,198.461748 L334.066298,198.714097 C334.533939,198.804096 335.013934,198.657628 335.349224,198.320573 L336.603914,197.065882 C336.535091,197.844108 336.194507,198.574687 335.629808,199.141151 C334.740407,200.030552 333.43807,200.348195 332.231026,199.970553 C331.983971,199.894671 331.715739,199.959965 331.533976,200.141727 L331.530447,200.145256 L331.304567,199.919377 C331.246333,199.861142 331.182804,199.804672 331.119275,199.753496 C331.099864,199.737614 331.078688,199.723497 331.055747,199.707615 C331.009865,199.672321 330.965748,199.638792 330.914572,199.608792 L330.836926,199.562911 C330.791044,199.53644 330.746927,199.511735 330.699281,199.487029 C330.671046,199.471147 330.641046,199.458794 330.612811,199.446441 C330.566929,199.425265 330.522812,199.405854 330.475166,199.388207 C330.445166,199.377619 330.411637,199.367031 330.381637,199.356443 C330.335756,199.34056 330.288109,199.326443 330.243992,199.315855 C330.212228,199.307031 330.176934,199.298208 330.14517,199.292914 C330.099288,199.282326 330.051641,199.273502 330.003995,199.266444 C329.968701,199.259385 329.935172,199.255855 329.898114,199.250561 C329.850467,199.243503 329.804586,199.241738 329.756939,199.239973 C329.721645,199.238209 329.686352,199.236444 329.651058,199.236444 C329.64047,199.236444 329.629882,199.234679 329.619294,199.234679 C329.554,199.234679 329.486942,199.236444 329.421649,199.243503 L329.255769,199.077622 L329.855761,198.465277 L329.855761,198.465277 Z M323.404076,208.269863 C322.96114,208.716328 322.172326,208.716328 321.729391,208.269863 C321.267043,207.807515 321.267043,207.05576 321.729391,206.593413 L327.07109,201.248184 L327.23697,201.414064 C327.1805,202.10935 327.425791,202.802871 327.919903,203.298747 L328.145782,203.524627 L323.404076,208.269863 L323.404076,208.269863 Z M336.323329,208.321038 C335.931569,208.712798 335.292754,208.712798 334.900994,208.321038 L329.615764,203.037574 L328.899303,202.321112 C328.648717,202.070527 328.555189,201.708767 328.648717,201.354065 C328.712246,201.115833 328.641659,200.863483 328.46872,200.690544 L323.571721,195.79178 C323.427017,195.648841 323.245254,195.551783 323.045845,195.511196 L322.260561,195.352374 L321.468217,193.928274 L321.9288,193.467691 L323.3529,194.260034 L323.511722,195.045319 C323.552309,195.244728 323.649367,195.428255 323.792306,195.571195 L327.780493,199.561146 L328.687541,200.468194 C328.818127,200.59878 328.992831,200.669368 329.172829,200.671132 C329.232828,200.671132 329.294592,200.664074 329.352826,200.649956 C329.66694,200.567016 329.981054,200.639368 330.22458,200.829954 C330.256345,200.856424 330.291638,200.875836 330.321638,200.904071 L336.323329,206.900468 C336.713324,207.293992 336.713324,207.929279 336.323329,208.321038 Z" id="形状"></path>
                    </g>
                </g>
            </g>
        </g>
    </g>
</svg>