<svg xmlns="http://www.w3.org/2000/svg" viewBox="0 0 16 16" class="design-iconfont">
  <path d="M13.8,7.16666667 L9.16666667,7.16666667 C8.96666667,7.16666667 8.83333334,7.03333334 8.83333333,6.83333333 L8.83333333,2.2 C8.83333333,1.76666667 8.53333333,1.36666667 8.1,1.33333333 C7.6,1.3 7.16666667,1.66666666 7.16666667,2.16666667 L7.16666667,6.83333333 C7.16666667,7.03333333 7.03333334,7.16666666 6.83333333,7.16666667 L2.2,7.16666667 C1.76666667,7.16666667 1.36666667,7.46666667 1.33333333,7.9 C1.3,8.4 1.66666666,8.83333333 2.16666667,8.83333333 L6.83333333,8.83333333 C7.03333333,8.83333333 7.16666666,8.96666666 7.16666667,9.16666667 L7.16666667,13.8 C7.16666667,14.2333333 7.46666667,14.6333333 7.9,14.6666667 C8.4,14.7 8.83333333,14.3333333 8.83333333,13.8333333 L8.83333333,9.16666667 C8.83333333,8.96666667 8.96666666,8.83333334 9.16666667,8.83333333 L13.8333333,8.83333333 C14.3333333,8.83333333 14.7,8.4 14.6666667,7.9 C14.6333333,7.46666667 14.2333333,7.16666667 13.8,7.16666667 Z" fill="#334266" fill-rule="nonzero"/>
</svg>
