<svg xmlns="http://www.w3.org/2000/svg" viewBox="0 0 16 16" class="design-iconfont">
  <path d="M13.66875,10.034375 L10.5890625,10.034375 C10.096875,10.034375 9.6953125,9.634375 9.6953125,9.140625 C9.6953125,8.859375 9.828125,8.5953125 10.0515625,8.4265625 C10.625,8.084375 11.1078125,7.603125 11.4484375,7.028125 C11.8125,6.4140625 12.00625,5.709375 12.00625,4.9921875 C12.00625,4.453125 11.9,3.9296875 11.6921875,3.4375 C11.490625,2.9609375 11.203125,2.534375 10.8359375,2.16875 C10.46875,1.803125 10.04375,1.5140625 9.56875,1.3125 C9.075,1.103125 8.5515625,0.9984375 8.0140625,0.9984375 C7.475,0.9984375 6.9515625,1.1046875 6.459375,1.3125 C5.9828125,1.5140625 5.55625,1.8015625 5.190625,2.16875 C4.825,2.5359375 4.5359375,2.9625 4.334375,3.4375 C4.125,3.93125 4.0203125,4.4546875 4.0203125,4.9921875 C4.0203125,5.7078125 4.2125,6.409375 4.575,7.0234375 C4.915625,7.5984375 5.396875,8.08125 5.9703125,8.4234375 C6.196875,8.5921875 6.33125,8.8578125 6.33125,9.140625 C6.33125,9.6234375 5.9390625,10.0234375 5.4578125,10.0328125 C5.4484375,10.0328125 5.4390625,10.0328125 5.4296875,10.034375 L2.68125,10.034375 C1.990625,10.034375 1.43125,10.59375 1.43125,11.284375 L1.43125,13.259375 C1.43125,13.95 1.990625,14.509375 2.68125,14.509375 L13.6671875,14.509375 C14.3578125,14.509375 14.9171908,13.95 14.9171908,13.259375 L14.9171908,11.284375 C14.91875,10.59375 14.3578125,10.034375 13.66875,10.034375 Z M13.66875,13.2578125 L2.68125,13.2578125 L2.68125,11.284375 L5.48125,11.284375 L5.48125,11.2828125 C6.64375,11.259375 7.5796875,10.309375 7.5796875,9.140625 C7.5796875,8.40625 7.209375,7.759375 6.646875,7.3734375 C5.8234375,6.9 5.26875,6.0109375 5.26875,4.99375 C5.26875,3.478125 6.496875,2.25 8.0125,2.25 C9.528125,2.25 10.75625,3.478125 10.75625,4.99375 C10.75625,6.015625 10.1984375,6.9046875 9.3703125,7.378125 C8.8109375,7.7640625 8.44375,8.4109375 8.44375,9.1421875 C8.44375,10.325 9.403125,11.2859375 10.5875,11.2859375 L13.6671875,11.2859375 L13.6671875,13.2578125 L13.66875,13.2578125 Z" fill="#334266" fill-rule="nonzero"/>
</svg>
