<?xml version="1.0" standalone="no"?><!DOCTYPE svg PUBLIC "-//W3C//DTD SVG 1.1//EN" "http://www.w3.org/Graphics/SVG/1.1/DTD/svg11.dtd"><svg t="1640253240469" class="icon" viewBox="0 0 1024 1024" version="1.1" xmlns="http://www.w3.org/2000/svg" p-id="1892" xmlns:xlink="http://www.w3.org/1999/xlink" width="200" height="200"><defs><style type="text/css"></style></defs><path d="M341.357714 128c0-23.552 19.017143-42.642286 42.642286-42.642286h256c23.552 0 42.642286 19.017143 42.642286 42.642286H768c47.104 0 85.357714 38.180571 85.357714 85.357714v640a85.357714 85.357714 0 0 1-85.357714 85.284572h-512a85.357714 85.357714 0 0 1-85.357714-85.284572v-640c0-47.177143 38.253714-85.357714 85.357714-85.357714h85.357714z m61.220572 341.650286a42.642286 42.642286 0 0 1 60.342857 0l55.149714 55.149714 55.222857-55.149714a42.642286 42.642286 0 1 1 60.269715 60.342857L578.413714 585.142857l55.149715 55.149714a42.642286 42.642286 0 0 1-60.269715 60.342858l-55.222857-55.149715-55.149714 55.149715a42.642286 42.642286 0 0 1-60.342857-60.342858L457.874286 585.142857l-55.222857-55.149714a42.642286 42.642286 0 0 1 0-60.342857z m-61.220572-256.292572H256v640h512v-640H682.642286V256a42.642286 42.642286 0 0 1-42.642286 42.642286h-256a42.642286 42.642286 0 0 1-42.642286-42.642286v-42.642286z m256-42.715428H426.642286v42.715428h170.715428v-42.715428z" p-id="1893"></path></svg>