<svg xmlns="http://www.w3.org/2000/svg" viewBox="0 0 16 16" class="design-iconfont">
  <path d="M3.52866667,3.52866667 C3.78899991,3.26841206 4.21100009,3.26841206 4.47133333,3.52866667 L8,7.05733333 L11.5286667,3.52866667 C11.6960496,3.35536198 11.9439187,3.28585773 12.1770052,3.34686798 C12.4100916,3.40787824 12.5921218,3.58990836 12.653132,3.82299484 C12.7141423,4.05608132 12.644638,4.30395041 12.4713333,4.47133333 L8.94266667,8 L12.4713333,11.5286667 C12.723981,11.7902527 12.7203675,12.2060562 12.4632119,12.4632119 C12.2060562,12.7203675 11.7902527,12.723981 11.5286667,12.4713333 L8,8.94266667 L4.47133333,12.4713333 C4.20974733,12.723981 3.79394379,12.7203675 3.53678812,12.4632119 C3.27963246,12.2060562 3.27601901,11.7902527 3.52866667,11.5286667 L7.05733333,8 L3.52866667,4.47133333 C3.26841206,4.21100009 3.26841206,3.78899991 3.52866667,3.52866667 Z" fill="#334266" fill-rule="nonzero"/>
</svg>
