<?xml version="1.0" standalone="no"?><!DOCTYPE svg PUBLIC "-//W3C//DTD SVG 1.1//EN" "http://www.w3.org/Graphics/SVG/1.1/DTD/svg11.dtd"><svg class="icon" width="200px" height="200.00px" viewBox="0 0 1024 1024" version="1.1" xmlns="http://www.w3.org/2000/svg"><path fill="#333333" d="M874.8 642.2H677.7c-31.5 0-57.2-25.6-57.2-57.2 0-18 8.5-34.9 22.8-45.7 36.7-21.9 67.6-52.7 89.4-89.5 23.3-39.3 35.7-84.4 35.7-130.3 0-34.5-6.8-68-20.1-99.5-12.9-30.5-31.3-57.8-54.8-81.2S642.8 96.9 612.4 84c-31.6-13.4-65.1-20.1-99.5-20.1-34.5 0-68 6.8-99.5 20.1-30.5 12.9-57.8 31.3-81.2 54.8s-41.9 50.8-54.8 81.2c-13.4 31.6-20.1 65.1-20.1 99.5 0 45.8 12.3 90.7 35.5 130 21.8 36.8 52.6 67.7 89.3 89.6 14.5 10.8 23.1 27.8 23.1 45.9 0 30.9-25.1 56.5-55.9 57.1-0.6 0-1.2 0-1.8 0.1H171.6c-44.2 0-80 35.8-80 80v126.4c0 44.2 35.8 80 80 80h703.1c44.2 0 80-35.8 80-80V722.2c0.1-44.2-35.8-80-79.9-80z m0 206.3H171.6V722.2h179.2v-0.1c74.4-1.5 134.3-62.3 134.3-137.1 0-47-23.7-88.4-59.7-113.1-52.7-30.3-88.2-87.2-88.2-152.3 0-97 78.6-175.6 175.6-175.6s175.6 78.6 175.6 175.6c0 65.4-35.7 122.3-88.7 152.6-35.8 24.7-59.3 66.1-59.3 112.9 0 75.7 61.4 137.2 137.2 137.2h197.1v126.2z" /></svg>