<?xml version="1.0" standalone="no"?><!DOCTYPE svg PUBLIC "-//W3C//DTD SVG 1.1//EN" "http://www.w3.org/Graphics/SVG/1.1/DTD/svg11.dtd"><svg t="1661826660059" class="icon" viewBox="0 0 1024 1024" version="1.1" xmlns="http://www.w3.org/2000/svg" p-id="3700" xmlns:xlink="http://www.w3.org/1999/xlink" width="200" height="200"><path d="M896 132.323556H128c-44.714667 0-81.009778 36.181333-81.123556 80.896v597.504c0.113778 44.771556 36.408889 80.952889 81.123556 80.952888h768c44.714667 0 81.009778-36.181333 81.180444-80.896V213.219556a81.180444 81.180444 0 0 0-81.180444-80.896z m-516.323556 550.4a38.4 38.4 0 0 1-76.8 0v-256a38.4 38.4 0 1 1 76.8 0v256z m170.723556 0a38.4 38.4 0 0 1-76.8 0V341.333333a38.4 38.4 0 1 1 76.8 0v341.504z m170.780444 0a38.4 38.4 0 0 1-76.8 0V533.333333a38.4 38.4 0 0 1 76.8 0V682.666667z" p-id="3701"></path></svg>