<svg xmlns="http://www.w3.org/2000/svg" viewBox="0 0 16 16" class="design-iconfont">
  <path d="M5.44666667,3.4 C5.85083869,3.4 6.1819633,3.71275315 6.21123047,4.10944943 L6.21333333,4.16666667 L6.21333333,11.8333333 C6.21333333,12.2567516 5.87008497,12.6 5.44666667,12.6 C5.04249465,12.6 4.71137004,12.2872468 4.68210287,11.8905506 L4.68,11.8333333 L4.68,4.16666667 C4.68,3.74324836 5.02324836,3.4 5.44666667,3.4 Z M10.5577778,3.4 C10.9619498,3.4 11.2930744,3.71275315 11.3223416,4.10944943 L11.3244444,4.16666667 L11.3244444,11.8333333 C11.3244444,12.2567516 10.9811961,12.6 10.5577778,12.6 C10.1536058,12.6 9.82248115,12.2872468 9.79321398,11.8905506 L9.79111111,11.8333333 L9.79111111,4.16666667 C9.79111111,3.74324836 10.1343595,3.4 10.5577778,3.4 Z" fill="#334266" fill-rule="nonzero"/>
</svg>
