<?xml version="1.0" standalone="no"?><!DOCTYPE svg PUBLIC "-//W3C//DTD SVG 1.1//EN" "http://www.w3.org/Graphics/SVG/1.1/DTD/svg11.dtd"><svg t="1648794334110" class="icon" viewBox="0 0 1024 1024" version="1.1" xmlns="http://www.w3.org/2000/svg" p-id="4526" xmlns:xlink="http://www.w3.org/1999/xlink" width="200" height="200"><defs><style type="text/css">@font-face { font-family: feedback-iconfont; src: url("//at.alicdn.com/t/font_1031158_u69w8yhxdu.woff2?t=1630033759944") format("woff2"), url("//at.alicdn.com/t/font_1031158_u69w8yhxdu.woff?t=1630033759944") format("woff"), url("//at.alicdn.com/t/font_1031158_u69w8yhxdu.ttf?t=1630033759944") format("truetype"); }
</style></defs><path d="M102.4 76.8m89.6 0l204.8 0q89.6 0 89.6 89.6l0 204.8q0 89.6-89.6 89.6l-204.8 0q-89.6 0-89.6-89.6l0-204.8q0-89.6 89.6-89.6Z" p-id="4527"></path><path d="M102.4 563.2m89.6 0l204.8 0q89.6 0 89.6 89.6l0 204.8q0 89.6-89.6 89.6l-204.8 0q-89.6 0-89.6-89.6l0-204.8q0-89.6 89.6-89.6Z" p-id="4528"></path><path d="M755.2 468.992A187.904 187.904 0 1 0 567.552 281.6a187.904 187.904 0 0 0 187.648 187.392z" p-id="4529"></path><path d="M563.2 563.2m89.6 0l204.8 0q89.6 0 89.6 89.6l0 204.8q0 89.6-89.6 89.6l-204.8 0q-89.6 0-89.6-89.6l0-204.8q0-89.6 89.6-89.6Z" p-id="4530"></path></svg>