<?xml version="1.0" standalone="no"?><!DOCTYPE svg PUBLIC "-//W3C//DTD SVG 1.1//EN" "http://www.w3.org/Graphics/SVG/1.1/DTD/svg11.dtd"><svg t="1648800745095" class="icon" viewBox="0 0 1024 1024" version="1.1" xmlns="http://www.w3.org/2000/svg" p-id="5462" xmlns:xlink="http://www.w3.org/1999/xlink" width="200" height="200"><defs><style type="text/css">@font-face { font-family: feedback-iconfont; src: url("//at.alicdn.com/t/font_1031158_u69w8yhxdu.woff2?t=1630033759944") format("woff2"), url("//at.alicdn.com/t/font_1031158_u69w8yhxdu.woff?t=1630033759944") format("woff"), url("//at.alicdn.com/t/font_1031158_u69w8yhxdu.ttf?t=1630033759944") format("truetype"); }
</style></defs><path d="M898.048 448.768l-75.008-75.008a13.056 13.056 0 0 1-3.84-9.216V268.8A89.6 89.6 0 0 0 729.6 179.2h-95.744a12.544 12.544 0 0 1-9.216-3.84l-75.008-74.752a91.136 91.136 0 0 0-126.464 0L348.16 175.36a13.056 13.056 0 0 1-9.216 3.84H243.2A89.6 89.6 0 0 0 153.6 268.8v95.744a13.056 13.056 0 0 1-3.84 9.216l-74.752 74.752A88.576 88.576 0 0 0 48.64 512a87.552 87.552 0 0 0 25.6 63.232l75.52 75.008a12.544 12.544 0 0 1 3.84 9.216v95.744A89.6 89.6 0 0 0 243.2 844.8h95.744a13.056 13.056 0 0 1 9.216 3.84l75.008 75.008a89.6 89.6 0 0 0 126.464 0l75.008-75.008a12.544 12.544 0 0 1 9.216-3.84h95.744a89.6 89.6 0 0 0 89.6-89.6v-95.744a12.544 12.544 0 0 1 3.84-9.216l75.008-75.008a89.6 89.6 0 0 0 0-126.464z m-398.848 225.28a166.4 166.4 0 1 1 166.4-166.4 166.656 166.656 0 0 1-166.4 166.4z" p-id="5463"></path><path d="M499.2 597.248a89.6 89.6 0 1 1 89.6-89.6 89.6 89.6 0 0 1-89.6 89.6z" p-id="5464"></path></svg>