<?xml version="1.0" encoding="UTF-8"?>
<svg xmlns="http://www.w3.org/2000/svg" xmlns:xlink="http://www.w3.org/1999/xlink" width="24px" height="24px" viewBox="0 0 24 24" version="1.1">
  <title>编组 92</title>
  <g id="页面-1" stroke="none" stroke-width="1" fill="none" fill-rule="evenodd">
    <g id="常规网页" transform="translate(-1496.000000, -412.000000)">
      <g id="编组" transform="translate(324.000000, 236.000000)">
        <g id="编组-92" transform="translate(1172.000000, 176.000000)">
          <rect id="矩形" x="0" y="0" width="24" height="24"></rect>
          <path d="M15,1.001 C15.5232171,1.001 15.9525824,1.40282754 15.9963294,1.91471617 L16,2.001 L15.9998,3.0008 L18.5,3.001 C19.5677505,3.001 20.4400723,3.83773006 20.4970406,4.8912656 L20.5,5.001 L20.5,21.001 C20.5,22.0687505 19.6632699,22.9410723 18.6097344,22.9980406 L18.5,23.001 L5.5,23.001 C4.43224948,23.001 3.55992774,22.1642699 3.50295935,21.1107344 L3.5,21.001 L3.5,5.001 C3.5,3.93324948 4.33673006,3.06092774 5.3902656,3.00395935 L5.5,3.001 L8,3.0008 L8,2.001 C8,1.44871525 8.44771525,1.001 9,1.001 C9.52321713,1.001 9.95258241,1.40282754 9.9963294,1.91471617 L10,2.001 L9.9998,3.0008 L14,3.0008 L14,2.001 C14,1.44871525 14.4477153,1.001 15,1.001 Z M12,16.501 L8,16.501 L7.91371617,16.5046706 C7.40182754,16.5484176 7,16.9777829 7,17.501 C7,18.0242171 7.40182754,18.4535824 7.91371617,18.4973294 L8,18.501 L12,18.501 L12.0862838,18.4973294 C12.5981725,18.4535824 13,18.0242171 13,17.501 C13,16.9777829 12.5981725,16.5484176 12.0862838,16.5046706 L12,16.501 Z M14,12.501 L8,12.501 L7.91371617,12.5046706 C7.40182754,12.5484176 7,12.9777829 7,13.501 C7,14.0242171 7.40182754,14.4535824 7.91371617,14.4973294 L8,14.501 L14,14.501 L14.0862838,14.4973294 C14.5981725,14.4535824 15,14.0242171 15,13.501 C15,12.9777829 14.5981725,12.5484176 14.0862838,12.5046706 L14,12.501 Z M16,8.501 L8,8.501 L7.91371617,8.5046706 C7.40182754,8.54841759 7,8.97778287 7,9.501 C7,10.0242171 7.40182754,10.4535824 7.91371617,10.4973294 L8,10.501 L16,10.501 L16.0862838,10.4973294 C16.5981725,10.4535824 17,10.0242171 17,9.501 C17,8.97778287 16.5981725,8.54841759 16.0862838,8.5046706 L16,8.501 Z" id="形状" fill="#73D13D" fill-rule="nonzero"></path>
        </g>
      </g>
    </g>
  </g>
</svg>
