<?xml version="1.0" standalone="no"?><!DOCTYPE svg PUBLIC "-//W3C//DTD SVG 1.1//EN" "http://www.w3.org/Graphics/SVG/1.1/DTD/svg11.dtd"><svg t="1648794423938" class="icon" viewBox="0 0 1024 1024" version="1.1" xmlns="http://www.w3.org/2000/svg" p-id="4662" xmlns:xlink="http://www.w3.org/1999/xlink" width="200" height="200"><defs><style type="text/css">@font-face { font-family: feedback-iconfont; src: url("//at.alicdn.com/t/font_1031158_u69w8yhxdu.woff2?t=1630033759944") format("woff2"), url("//at.alicdn.com/t/font_1031158_u69w8yhxdu.woff?t=1630033759944") format("woff"), url("//at.alicdn.com/t/font_1031158_u69w8yhxdu.ttf?t=1630033759944") format("truetype"); }
</style></defs><path d="M371.2 256h256A64 64 0 0 0 691.2 192v-76.8A64 64 0 0 0 627.2 51.2h-256A64 64 0 0 0 307.2 115.2v76.8a64 64 0 0 0 64 64z m12.8-115.2a12.8 12.8 0 0 1 12.8-12.8h204.8a12.8 12.8 0 0 1 12.8 12.8v25.6a12.8 12.8 0 0 1-12.8 12.8h-204.8a12.8 12.8 0 0 1-12.8-12.8z" p-id="4663"></path><path d="M806.4 128H742.4a12.8 12.8 0 0 0-12.8 12.8v51.2a102.4 102.4 0 0 1-102.4 102.4h-256a102.4 102.4 0 0 1-102.4-102.4v-51.2A12.8 12.8 0 0 0 256 128H217.6A89.6 89.6 0 0 0 128 217.6v665.6A89.6 89.6 0 0 0 217.6 972.8h588.8a89.6 89.6 0 0 0 89.6-89.6v-665.6A89.6 89.6 0 0 0 806.4 128z m-99.584 385.536a122.88 122.88 0 0 1-95.488 95.744 124.672 124.672 0 0 1-82.432-11.776l-152.32 152.32a36.096 36.096 0 0 1-51.2-51.2l152.32-152.32a124.672 124.672 0 0 1-11.776-82.432 123.136 123.136 0 0 1 159.488-91.648 13.056 13.056 0 0 1 5.12 21.248l-51.2 51.2c-9.728 9.728-9.472 17.664-4.608 22.784l33.024 33.024a12.8 12.8 0 0 0 18.176 0l51.2-51.2c11.52-11.52 23.04-8.704 25.6 0a123.648 123.648 0 0 1 4.096 64.256z" p-id="4664"></path></svg>