<?xml version="1.0" encoding="UTF-8"?>
<svg xmlns="http://www.w3.org/2000/svg" xmlns:xlink="http://www.w3.org/1999/xlink" width="24px" height="24px" viewBox="0 0 24 24" version="1.1">
  <title>编组 88</title>
  <g id="页面-1" stroke="none" stroke-width="1" fill="none" fill-rule="evenodd">
    <g id="常规网页" transform="translate(-348.000000, -412.000000)">
      <g id="编组" transform="translate(324.000000, 236.000000)">
        <g id="编组-88" transform="translate(24.000000, 176.000000)">
          <rect id="矩形" x="0" y="0" width="24" height="24"></rect>
          <path d="M12.001,1.001 C18.0761347,1.001 23.001,5.92586525 23.001,12.001 C23.001,18.0761347 18.0761347,23.001 12.001,23.001 C5.92586525,23.001 1.001,18.0761347 1.001,12.001 C1.001,5.92586525 5.92586525,1.001 12.001,1.001 Z M10.8052999,5.60105 C10.2530152,5.60105 9.80525519,6.04866533 9.8052,6.60095007 L9.8052,6.60095007 L9.8046,12.6053501 L9.80948472,12.704201 C9.83219762,12.9331556 9.93337746,13.148441 10.0974932,13.3125568 L10.0974932,13.3125568 L14.3371932,17.5522568 L14.4085293,17.6171189 C14.8013679,17.9414298 15.3838545,17.9198091 15.7514068,17.5522568 L15.7514068,17.5522568 L15.8162689,17.4809207 C16.1405798,17.0880821 16.1189591,16.5055955 15.7514068,16.1380432 L15.7514068,16.1380432 L11.8044,12.1914 L11.8052,6.60114993 L11.801538,6.51486573 C11.7578422,6.00297273 11.3285171,5.60105 10.8052999,5.60105 Z" id="形状结合" fill="#FF7A45" fill-rule="nonzero"></path>
        </g>
      </g>
    </g>
  </g>
</svg>
