<svg xmlns="http://www.w3.org/2000/svg" viewBox="0 0 16 16" class="design-iconfont">
  <g fill="#334266" fill-rule="nonzero">
    <path d="M7.33333333,11 C7.33333333,10.6318102 7.63181016,10.3333333 8,10.3333333 L10,10.3333333 C10.3681898,10.3333333 10.6666667,10.6318102 10.6666667,11 C10.6666667,11.3681898 10.3681898,11.6666667 10,11.6666667 L8,11.6666667 C7.63181016,11.6666667 7.33333333,11.3681898 7.33333333,11 L7.33333333,11 Z M7.33333333,9 C7.33333333,8.63181016 7.63181016,8.33333333 8,8.33333333 L10,8.33333333 C10.3681898,8.33333333 10.6666667,8.63181016 10.6666667,9 C10.6666667,9.36818984 10.3681898,9.66666667 10,9.66666667 L8,9.66666667 C7.63181016,9.66666667 7.33333333,9.36818984 7.33333333,9 L7.33333333,9 Z M7.33333333,7 C7.33333333,6.82318901 7.40357122,6.65361973 7.52859548,6.52859548 C7.65361973,6.40357122 7.82318901,6.33333333 8,6.33333333 L10,6.33333333 C10.3681898,6.33333333 10.6666667,6.63181016 10.6666667,7 C10.6666667,7.36818984 10.3681898,7.66666667 10,7.66666667 L8,7.66666667 C7.63181016,7.66666667 7.33333333,7.36818984 7.33333333,7 L7.33333333,7 Z"/>
    <path d="M6.66666667,7 C6.66666667,7.36818984 6.36818984,7.66666667 6,7.66666667 C5.63181016,7.66666667 5.33333333,7.36818984 5.33333333,7 C5.33333333,6.63181017 5.63181017,6.33333335 6,6.33333335 C6.36818983,6.33333335 6.66666667,6.63181017 6.66666667,7 L6.66666667,7 Z"/>
    <path d="M2.66666667,3.33333333 C2.66666667,2.59695366 3.26362034,1.99999999 4,1.99999999 L6,1.99999999 C6.36814997,1.99999999 6.66656461,2.29851669 6.66656461,2.66666666 C6.66656461,3.03481664 6.36814997,3.33327697 6,3.33333333 L4,3.33333333 L4,13.3333333 L12,13.3333333 L12,3.33333333 L10,3.33333333 C9.76179863,3.3333698 9.54167589,3.20631182 9.42256468,3.00002946 C9.30345346,2.7937471 9.30345346,2.53958623 9.42256468,2.33330387 C9.54167589,2.12702151 9.76179863,1.99999999 10,1.99999999 L12,1.99999999 C12.7363797,1.99999999 13.3333333,2.59695366 13.3333333,3.33333333 L13.3333333,13.3333333 C13.3333333,13.6869553 13.1928575,14.0260939 12.942809,14.2761424 C12.6927605,14.5261909 12.353622,14.6666667 12,14.6666667 L4,14.6666667 C3.64637801,14.6666667 3.30723946,14.5261909 3.05719096,14.2761424 C2.80714245,14.0260939 2.66666667,13.6869553 2.66666667,13.3333333 L2.66666667,3.33333333 Z"/>
    <path d="M6.66666667,9 C6.66666667,9.36818984 6.36818984,9.66666667 6,9.66666667 C5.63181016,9.66666667 5.33333333,9.36818984 5.33333333,9 C5.33333333,8.63181017 5.63181017,8.33333335 6,8.33333335 C6.36818983,8.33333335 6.66666667,8.63181017 6.66666667,9 L6.66666667,9 Z M6.66666667,11 C6.66666667,11.3681898 6.36818984,11.6666667 6,11.6666667 C5.63181016,11.6666667 5.33333333,11.3681898 5.33333333,11 C5.33333333,10.6318102 5.63181017,10.3333333 6,10.3333333 C6.36818983,10.3333333 6.66666667,10.6318102 6.66666667,11 L6.66666667,11 Z"/>
    <path d="M5.33333333,2 C5.33333333,1.63181016 5.63181016,1.33333333 6,1.33333333 L10,1.33333333 C10.3681898,1.33333333 10.6666667,1.63181016 10.6666667,2 L10.6666667,4 C10.6666667,4.17681099 10.5964288,4.34638027 10.4714045,4.47140452 C10.3463803,4.59642878 10.176811,4.66666667 10,4.66666667 L6,4.66666667 C5.82318901,4.66666667 5.65361973,4.59642878 5.52859548,4.47140452 C5.40357122,4.34638027 5.33333333,4.17681099 5.33333333,4 L5.33333333,2 Z M6.66666667,2.66666667 L6.66666667,3.33333333 L9.33333333,3.33333333 L9.33333333,2.66666667 L6.66666667,2.66666667 Z"/>
  </g>
</svg>
