<?xml version="1.0" standalone="no"?><!DOCTYPE svg PUBLIC "-//W3C//DTD SVG 1.1//EN" "http://www.w3.org/Graphics/SVG/1.1/DTD/svg11.dtd"><svg t="1639387982920" class="icon" viewBox="0 0 1024 1024" version="1.1" xmlns="http://www.w3.org/2000/svg" p-id="1952" xmlns:xlink="http://www.w3.org/1999/xlink" width="200" height="200"><defs><style type="text/css"></style></defs><path d="M704 0l256 256v640a128 128 0 0 1-128 128H192a128 128 0 0 1-128-128V128a128 128 0 0 1 128-128h512zM608 704h-320a32 32 0 0 0-5.76 63.488L288 768h320a32 32 0 0 0 5.76-63.488L608 704z m128-192h-448a32 32 0 0 0-5.76 63.488L288 576h448a32 32 0 0 0 5.76-63.488L736 512z m0-192h-448a32 32 0 0 0-5.76 63.488L288 384h448a32 32 0 0 0 5.76-63.488L736 320z" fill="#BAC9D7" p-id="1953"></path><path d="M704 0l256 256h-128a128 128 0 0 1-128-128V0z" fill="#DBE6F0" p-id="1954"></path></svg>