<?xml version="1.0" standalone="no"?><!DOCTYPE svg PUBLIC "-//W3C//DTD SVG 1.1//EN" "http://www.w3.org/Graphics/SVG/1.1/DTD/svg11.dtd"><svg class="icon" width="200px" height="200.00px" viewBox="0 0 1024 1024" version="1.1" xmlns="http://www.w3.org/2000/svg"><path d="M512 597.333333a42.666667 42.666667 0 0 1-42.666667-42.666666v-128a42.666667 42.666667 0 1 1 85.333334 0v128a42.666667 42.666667 0 0 1-42.666667 42.666666z"  /><path d="M448 704a64 64 0 1 1 128 0 64 64 0 0 1-128 0z"  /><path d="M436.48 137.216c32-60.8 119.04-60.8 151.04 0l355.968 676.352C973.397333 870.4 932.266667 938.666667 867.968 938.666667H156.032c-64.213333 0-105.386667-68.266667-75.52-125.056L436.48 137.216zM868.010667 853.333333L512 176.938667 155.989333 853.333333h712.021334z"  /></svg>
