<?xml version="1.0" standalone="no"?><!DOCTYPE svg PUBLIC "-//W3C//DTD SVG 1.1//EN" "http://www.w3.org/Graphics/SVG/1.1/DTD/svg11.dtd"><svg t="1639381493160" class="icon" viewBox="0 0 1092 1024" version="1.1" xmlns="http://www.w3.org/2000/svg" p-id="1818" xmlns:xlink="http://www.w3.org/1999/xlink" width="213.28125" height="200"><defs><style type="text/css"></style></defs><path d="M0.8192 339.1488H1086.805333v343.790933H0.8192z" fill="#FF7676" p-id="1819"></path><path d="M1086.737067 339.1488V65.262933c0-33.928533-31.197867-64.170667-68.266667-64.170666H68.949333c-37.0688 0-68.266667 30.242133-68.266666 64.170666v273.885867h1085.986133z" fill="#23B4F0" p-id="1820"></path><path d="M0.8192 682.939733v273.885867c0 33.9968 30.993067 64.170667 67.857067 64.170667h950.272c36.864 0 67.7888-30.173867 67.7888-64.170667v-273.885867H0.8192z" fill="#35D5CA" p-id="1821"></path><path d="M425.506133 1.092267H667.648v1019.904H425.506133z" fill="#F7C859" p-id="1822"></path><path d="M667.784533 443.118933v143.496534h-253.952V443.118933h254.020267m40.686933-58.641066H373.077333c-5.7344 0-15.428267 5.666133-15.428266 15.086933v228.625067c0 5.597867 5.802667 15.018667 15.428266 15.018666h335.4624c5.802667 0 15.496533-5.597867 15.496534-15.018666V399.5648c-3.822933-11.195733-9.693867-15.018667-15.428267-15.018667h-0.068267z" fill="#FFFFFF" p-id="1823"></path></svg>