<?xml version="1.0" standalone="no"?><!DOCTYPE svg PUBLIC "-//W3C//DTD SVG 1.1//EN" "http://www.w3.org/Graphics/SVG/1.1/DTD/svg11.dtd"><svg t="1644572508409" class="icon" viewBox="0 0 1024 1024" version="1.1" xmlns="http://www.w3.org/2000/svg" p-id="3596" xmlns:xlink="http://www.w3.org/1999/xlink" width="200" height="200"><defs><style type="text/css"></style></defs><path d="M853.333333 128H170.666667c-46.933333 0-85.333333 38.4-85.333334 85.333333v426.666667c0 46.933333 38.4 85.333333 85.333334 85.333333h74.666666c6.4 0 10.666667 4.266667 10.666667 10.666667v113.066667c0 25.6 21.333333 42.666667 42.666667 42.666666 6.4 0 12.8-2.133333 19.2-4.266666l268.8-155.733334c6.4-4.266667 12.8-6.4 21.333333-6.4H853.333333c46.933333 0 85.333333-38.4 85.333334-85.333333V213.333333c0-46.933333-38.4-85.333333-85.333334-85.333333z m0 490.666667c0 12.8-8.533333 21.333333-21.333333 21.333333H597.333333c-14.933333 0-29.866667 4.266667-42.666666 10.666667l-213.333334 123.733333V661.333333c0-12.8-8.533333-21.333333-21.333333-21.333333H192c-12.8 0-21.333333-8.533333-21.333333-21.333333V234.666667c0-12.8 8.533333-21.333333 21.333333-21.333334h640c12.8 0 21.333333 8.533333 21.333333 21.333334v384z" p-id="3597" fill="#426ED7"></path><path d="M320 437.333333m-53.333333 0a53.333333 53.333333 0 1 0 106.666666 0 53.333333 53.333333 0 1 0-106.666666 0Z" p-id="3598" fill="#426ED7"></path><path d="M512 437.333333m-53.333333 0a53.333333 53.333333 0 1 0 106.666666 0 53.333333 53.333333 0 1 0-106.666666 0Z" p-id="3599" fill="#426ED7"></path><path d="M704 437.333333m-53.333333 0a53.333333 53.333333 0 1 0 106.666666 0 53.333333 53.333333 0 1 0-106.666666 0Z" p-id="3600" fill="#426ED7"></path></svg>