<?xml version="1.0" encoding="UTF-8"?>
<svg width="18px" height="18px" viewBox="0 0 18 18" version="1.1" xmlns="http://www.w3.org/2000/svg" xmlns:xlink="http://www.w3.org/1999/xlink">
    <title>编组 241</title>
    <defs>
        <filter color-interpolation-filters="auto" id="filter-1">
            <feColorMatrix in="SourceGraphic" type="matrix" values="0 0 0 0 1.000000 0 0 0 0 1.000000 0 0 0 0 1.000000 0 0 0 1.000000 0"></feColorMatrix>
        </filter>
    </defs>
    <g id="项目" stroke="none" stroke-width="1" fill="none" fill-rule="evenodd">
        <g id="项目模块-几种弹窗及模块" transform="translate(-260.000000, -494.000000)">
            <g id="编组-71" transform="translate(20.000000, 54.000000)">
                <g id="编组-67" transform="translate(16.000000, 277.000000)">
                    <g id="编组-66" transform="translate(0.000000, 162.000000)">
                        <g id="编组-56" transform="translate(224.000000, 0.000000)">
                            <g id="编组-241" transform="translate(0.000000, 1.000000)">
                                <circle id="椭圆形" fill="#F56C6C" cx="9" cy="9" r="9"></circle>
                                <g filter="url(#filter-1)" id="guanbi">
                                    <g transform="translate(5.625000, 5.625000)">
                                        <path d="M3.89758367,3.375 L6.64595195,0.625486246 C6.78468268,0.486697694 6.78468268,0.257884134 6.64595195,0.119095582 L6.63095403,0.104091414 C6.4922233,-0.0346971381 6.26350507,-0.0346971381 6.12477434,0.104091414 L3.37640605,2.85735621 L0.628037773,0.104091414 C0.489307041,-0.0346971381 0.260588807,-0.0346971381 0.121858075,0.104091414 L0.106860158,0.119095582 C-0.0356200528,0.257884134 -0.0356200528,0.486697694 0.106860158,0.625486246 L2.85522844,3.375 L0.106860158,6.12451375 C-0.0318705735,6.26330231 -0.0318705735,6.49211587 0.106860158,6.63090442 L0.121858075,6.64590859 C0.260588807,6.78469714 0.489307041,6.78469714 0.628037773,6.64590859 L3.37640605,3.89639483 L6.12477434,6.64590859 C6.26350507,6.78469714 6.4922233,6.78469714 6.63095403,6.64590859 L6.64595195,6.63090442 C6.78468268,6.49211587 6.78468268,6.26330231 6.64595195,6.12451375 L3.89758367,3.375 Z" id="路径" stroke="#979797" stroke-width="0.8" fill="#363F4D" fill-rule="nonzero"></path>
                                    </g>
                                </g>
                            </g>
                        </g>
                    </g>
                </g>
            </g>
        </g>
    </g>
</svg>