<?xml version="1.0" standalone="no"?><!DOCTYPE svg PUBLIC "-//W3C//DTD SVG 1.1//EN" "http://www.w3.org/Graphics/SVG/1.1/DTD/svg11.dtd"><svg t="1644572688570" class="icon" viewBox="0 0 1024 1024" version="1.1" xmlns="http://www.w3.org/2000/svg" p-id="6366" xmlns:xlink="http://www.w3.org/1999/xlink" width="200" height="200"><defs><style type="text/css"></style></defs><path d="M725.333333 85.333333H213.333333C166.4 85.333333 128 123.733333 128 170.666667v682.666666c0 46.933333 38.4 85.333333 85.333333 85.333334h236.8c8.533333 0 14.933333-10.666667 8.533334-17.066667-14.933333-17.066667-27.733333-36.266667-38.4-55.466667-4.266667-6.4-10.666667-10.666667-19.2-10.666666L234.666667 853.333333c-12.8 0-21.333333-8.533333-21.333334-21.333333V192c0-12.8 8.533333-21.333333 21.333334-21.333333h469.333333c10.666667 0 21.333333 8.533333 21.333333 21.333333v219.733333c0 10.666667 8.533333 19.2 17.066667 21.333334 19.2 4.266667 36.266667 8.533333 53.333333 17.066666h4.266667c6.4 0 10.666667-4.266667 10.666667-10.666666V170.666667c0-46.933333-38.4-85.333333-85.333334-85.333334z" p-id="6367" fill="#426ED7"></path><path d="M682.666667 512c-117.333333 0-213.333333 96-213.333334 213.333333s96 213.333333 213.333334 213.333334 213.333333-96 213.333333-213.333334-96-213.333333-213.333333-213.333333z m0 341.333333c-70.4 0-128-57.6-128-128s57.6-128 128-128 128 57.6 128 128-57.6 128-128 128z" p-id="6368" fill="#426ED7"></path><path d="M682.666667 640c-4.266667 0-8.533333 2.133333-10.666667 6.4l-19.2 40.533333-44.8 6.4c-10.666667 2.133333-14.933333 14.933333-6.4 21.333334l32 32-8.533333 44.8c-2.133333 8.533333 4.266667 14.933333 12.8 14.933333 2.133333 0 4.266667 0 6.4-2.133333l38.4-21.333334 38.4 21.333334c2.133333 0 4.266667 2.133333 6.4 2.133333 6.4 0 12.8-6.4 12.8-14.933333l-8.533334-44.8 32-32c6.4-8.533333 4.266667-21.333333-6.4-21.333334l-44.8-6.4-19.2-40.533333c-2.133333-4.266667-6.4-6.4-10.666666-6.4zM597.333333 256H341.333333c-23.466667 0-42.666667 19.2-42.666666 42.666667s19.2 42.666667 42.666666 42.666666h256c23.466667 0 42.666667-19.2 42.666667-42.666666s-19.2-42.666667-42.666667-42.666667zM512 426.666667h-170.666667c-23.466667 0-42.666667 19.2-42.666666 42.666666s19.2 42.666667 42.666666 42.666667h170.666667c23.466667 0 42.666667-19.2 42.666667-42.666667s-19.2-42.666667-42.666667-42.666666zM384 597.333333h-42.666667c-23.466667 0-42.666667 19.2-42.666666 42.666667s19.2 42.666667 42.666666 42.666667h42.666667c23.466667 0 42.666667-19.2 42.666667-42.666667s-19.2-42.666667-42.666667-42.666667z" p-id="6369" fill="#426ED7"></path></svg>