<?xml version="1.0" standalone="no"?><!DOCTYPE svg PUBLIC "-//W3C//DTD SVG 1.1//EN" "http://www.w3.org/Graphics/SVG/1.1/DTD/svg11.dtd"><svg t="1644572478766" class="icon" viewBox="0 0 1024 1024" version="1.1" xmlns="http://www.w3.org/2000/svg" p-id="3420" xmlns:xlink="http://www.w3.org/1999/xlink" width="200" height="200"><defs><style type="text/css"></style></defs><path d="M285.866667 520.533333c8.533333-6.4 14.933333-10.666667 23.466666-17.066666-21.333333-36.266667-34.133333-76.8-34.133333-121.6V362.666667v-2.133334c0-6.4 0-12.8 2.133333-19.2 8.533333-51.2 34.133333-96 70.4-130.133333h-8.533333c-83.2 0-151.466667 66.133333-151.466667 149.333333 0 34.133333 12.8 66.133333 32 91.733334C153.6 490.666667 102.4 554.666667 85.333333 633.6c-4.266667 25.6 17.066667 49.066667 42.666667 49.066667 14.933333 0 25.6-6.4 34.133333-17.066667 4.266667-4.266667 6.4-8.533333 8.533334-12.8v-2.133333c12.8-61.866667 57.6-110.933333 115.2-130.133334zM938.666667 633.6c-14.933333-76.8-66.133333-142.933333-136.533334-177.066667 21.333333-25.6 32-57.6 32-91.733333 0-83.2-68.266667-149.333333-151.466666-149.333333h-8.533334c36.266667 34.133333 61.866667 78.933333 70.4 130.133333 2.133333 6.4 2.133333 12.8 2.133334 19.2v21.333333c0 42.666667-12.8 85.333333-34.133334 121.6 8.533333 4.266667 17.066667 10.666667 23.466667 17.066667 57.6 19.2 102.4 68.266667 115.2 128v2.133333c2.133333 4.266667 4.266667 10.666667 6.4 12.8 8.533333 10.666667 21.333333 17.066667 34.133333 17.066667 29.866667-2.133333 51.2-25.6 46.933334-51.2z" fill="#426ED7" p-id="3421"></path><path d="M648.533333 518.4C682.666667 484.266667 704 435.2 704 384c0-106.666667-87.466667-192-194.133333-192s-194.133333 85.333333-194.133334 192c0 53.333333 21.333333 100.266667 55.466667 134.4-106.666667 46.933333-185.6 145.066667-202.666667 264.533333-2.133333 25.6 19.2 49.066667 44.8 49.066667 21.333333 0 40.533333-14.933333 42.666667-36.266667 17.066667-123.733333 125.866667-219.733333 256-219.733333s238.933333 96 256 219.733333c2.133333 21.333333 21.333333 36.266667 42.666667 36.266667 25.6 0 46.933333-23.466667 42.666666-49.066667-17.066667-119.466667-96-217.6-204.8-264.533333zM512 490.666667c-59.733333 0-106.666667-46.933333-106.666667-106.666667s49.066667-106.666667 106.666667-106.666667 106.666667 46.933333 106.666667 106.666667-46.933333 106.666667-106.666667 106.666667z" fill="#426ED7" p-id="3422"></path></svg>