<?xml version="1.0" encoding="UTF-8"?>
<svg width="18px" height="18px" viewBox="0 0 18 18" version="1.1" xmlns="http://www.w3.org/2000/svg" xmlns:xlink="http://www.w3.org/1999/xlink">
    <title>编组 242</title>
    <g id="项目" stroke="none" stroke-width="1" fill="none" fill-rule="evenodd">
        <g id="项目模块-几种弹窗及模块" transform="translate(-468.000000, -494.000000)">
            <g id="编组-71" transform="translate(20.000000, 54.000000)">
                <g id="编组-67" transform="translate(16.000000, 277.000000)">
                    <g id="编组-66" transform="translate(0.000000, 162.000000)">
                        <g id="编组-65" transform="translate(432.000000, 0.000000)">
                            <g id="编组-242" transform="translate(0.000000, 1.000000)">
                                <circle id="椭圆形" fill="#909399" cx="9" cy="9" r="9"></circle>
                                <path d="M12.21,9.65 L12.66,9.05 C12.41,8.76 12.04,8.39 11.55,7.95 C11.06,7.5 10.65,7.17 10.33,6.94 L9.89,7.41 C10.15,7.6 10.52,7.91 10.99,8.35 C9.09,8.43 7.75,8.48 6.96,8.49 C7.41,8.12 7.99,7.53 8.69,6.72 L13.14,6.72 L13.14,6.03 L9.57,6.03 C9.45,5.63 9.32,5.25 9.18,4.9 L8.44,5.04 C8.53,5.25 8.64,5.58 8.77,6.03 L4.81,6.03 L4.81,6.72 L7.73,6.72 C7.2,7.34 6.65,7.87 6.09,8.32 C5.9,8.45 5.69,8.52 5.36,8.57 L5.55,9.27 C5.89,9.23 6.19,9.21 6.44,9.2 C6.73,9.18 7.49,9.15 8.7,9.1 L11.64,8.99 C11.87,9.24 12.06,9.46 12.21,9.65 Z M5.24,14.1 C7.04,13.28 7.62,12.61 7.72,11.42 L10.29,11.42 L10.29,14.04 L11.05,14.04 L11.05,11.42 L13.41,11.42 L13.41,10.7 L11.05,10.7 L11.05,9.67 L10.29,9.64 L10.29,10.7 L7.73,10.7 L7.73,9.69 L6.98,9.66 L6.98,10.7 L4.52,10.7 L4.52,11.42 L6.96,11.42 C6.84,12.34 6.36,12.8 4.79,13.48 L5.24,14.1 Z" id="弃" fill="#FFFFFF" fill-rule="nonzero"></path>
                            </g>
                        </g>
                    </g>
                </g>
            </g>
        </g>
    </g>
</svg>