<?xml version="1.0" standalone="no"?><!DOCTYPE svg PUBLIC "-//W3C//DTD SVG 1.1//EN" "http://www.w3.org/Graphics/SVG/1.1/DTD/svg11.dtd"><svg t="1637573641918" class="icon" viewBox="0 0 1024 1024" version="1.1" xmlns="http://www.w3.org/2000/svg" p-id="2771" xmlns:xlink="http://www.w3.org/1999/xlink" width="200" height="200"><defs><style type="text/css"></style></defs><path d="M941.7365167 178.53035469L686.74989131 69.31066484a26.69948613 26.69948613 0 0 0-10.34014746-2.21072168 26.22719619 26.22719619 0 0 0-20.69034346 9.8879546l-72.85332129 90.79031162a27.8148955 27.8148955 0 0 0-5.37607266 21.98662997 21.10234131 21.10234131 0 0 0 2.69306016 6.74270068l-217.21343379 81.39474581a102.28606348 102.28606348 0 0 0-50.36425489 41.8027333l-75.5765288 125.79005214c-17.53504102 28.76952568-18.89161963 63.81950977-4.01949404 94.38775929h-66.58291143a26.56885254 26.56885254 0 0 0-26.53870605 26.51860898v337.52692618H93.57312237a26.51860898 26.51860898 0 1 0 0 53.03721884h619.26328213a26.51860898 26.51860898 0 1 0 0-53.03721884h-46.32466378V657.18170263c41.37063838-28.75947714 76.45076807-66.96476367 105.23034316-113.25928095 54.42394307-87.19286484 86.34877119-159.10160537 101.18070265-195.4579254a61.79971377 61.79971377 0 0 0 22.03687353 4.01949317 60.64410937 60.64410937 0 0 0 32.82921387-9.43576083 62.98546464 62.98546464 0 0 0 29.68395995-53.48941172v-86.80096407c0.45219287-10.34014746-5.84836347-19.7759083-15.74636571-24.26769316zM465.48681699 457.63394258a212.24935987 212.24935987 0 0 0 49.92211055 19.7759083c-9.89800312 13.06335411-29.23176709 39.54176807-40.02410742 63.36731689H407.47547568c-3.15530244-11.68667753-8.55147305-22.92116221-15.7463666-34.16569629 14.39983565-6.74270068 50.82649629-25.17207891 73.75770791-48.98757831zM355.30244844 617.18774082a93.61400625 93.61400625 0 0 0-27.43304414 130.33208056c17.08284815 26.06641612 45.8724709 41.35054042 77.37525176 41.35054044a93.82502988 93.82502988 0 0 0 47.67119472-13.06335411l124.12196279-74.61185009a233.60291982 233.60291982 0 0 0 36.42666065-13.0633541v216.70094882H192.5029083v-311.51075449h200.09039238c-12.13887041 7.63703789-25.18212744 15.72626865-37.33104726 23.82554795z m206.42109433 33.25126113a25.36300459 25.36300459 0 0 0-8.0389872 3.14525391l-127.72945811 76.37037802a42.20468262 42.20468262 0 0 1-20.68029493 5.83831495 40.19493604 40.19493604 0 0 1-39.58196308-48.53538545 39.05942871 39.05942871 0 0 1 17.99728243-25.61422325c52.11273428-33.22111465 89.88592588-56.14227685 112.40513877-67.82895439 0.45219287 0 0.45219287-0.45219287 0.90438573-0.45219287 13.4954499-1.34653008 23.3834045-11.68667753 23.83559737-24.26769316 2.2509167-9.88795459 33.28140674-60.67425586 65.20623487-92.58903458a26.33773184 26.33773184 0 0 0 5.84836347-28.75947714 25.96592901 25.96592901 0 0 0-24.28779024-16.17846153c-53.06736445 0-92.63927901-30.14620224-92.639279-30.56824863-8.54142363-6.74270068-19.34381338-8.54142363-27.88523701-4.49178486a25.45344317 25.45344317 0 0 0-14.84197998 20.67024638c-8.08923076 12.59106416-70.1502126 48.99762685-83.64566162 50.78630128a26.1267082 26.1267082 0 0 0-17.08284815 45.40018095 108.0138419 108.0138419 0 0 1 20.23815059 27.41294619h-58.94587353l-11.24453409-22.48906728c-7.20494209-14.37973857-6.75274922-31.01039297 1.79872383-44.49579346l75.54638232-125.83024805c5.3961706-8.98356797 13.94764278-15.72626865 23.3834045-19.7759083l256.79539776-96.17643281 187.08732948 93.45322617c-14.39983565 35.51222637-45.8724709 106.07443594-98.47759307 191.4585293-70.16026113 112.36494375-164.59826308 133.04523867-165.95484257 133.48738213z m343.14416895-430.08581601v69.21568037a9.77741807 9.77741807 0 0 1-4.95402627 8.54142363 11.36511826 11.36511826 0 0 1-5.39616972 1.34653008 16.33924161 16.33924161 0 0 1-4.50183253-0.89433721L644.02267432 175.82724599l40.03415595-49.89196493z m0 0" p-id="2772" fill="#F56C6C"></path><path d="M712.8364045 962H93.56307383a31.55302442 31.55302442 0 1 1 0-63.10604971H134.85332129V566.40143955a31.59321943 31.59321943 0 0 1 31.5831709-31.5530253h58.82528935a102.97942646 102.97942646 0 0 1 7.45616075-91.92581894l75.54638232-125.82019863a108.12437842 108.12437842 0 0 1 52.87643789-43.90291846l212.17901924-79.48548632a28.13645566 28.13645566 0 0 1-0.78380156-2.93423028 32.98999394 32.98999394 0 0 1 6.3507999-26.1267082l72.8935163-90.83050664a30.96014941 30.96014941 0 0 1 36.94919503-9.13429951l255.08711338 109.25988486c11.89770117 5.38612119 19.23327685 16.80148301 18.70069394 29.06093935v86.52964834a68.14046513 68.14046513 0 0 1-32.03536377 57.72997705 66.91452012 66.91452012 0 0 1-54.67516172 7.41596573c-18.32889112 44.31491719-50.10298769 112.32474873-99.79397754 191.93081923-28.98054932 46.60602803-64.12097198 84.68068183-104.50683369 113.20903741v239.06943105h41.29024746a31.55302442 31.55302442 0 1 1 0 63.10604971zM93.56307383 908.96278203a21.49424209 21.49424209 0 1 0 0 42.97843565h619.27333066a21.49424209 21.49424209 0 1 0 0-42.97843565h-51.3590792V654.5589831l2.16047724-1.49726162c40.11454599-27.90533408 75.05399443-65.5177456 103.84361807-111.78211728 50.9671793-81.65601299 82.93220156-150.98222901 100.78880186-194.75451387l1.84896738-4.531979 4.58222256 1.70828437a56.66481123 56.66481123 0 0 0 50.39440049-4.9238789 58.1419749 58.1419749 0 0 0 27.3526541-49.23879698v-86.78086699c0.35170576-8.36054648-4.64251552-15.97748731-12.76189189-19.67542119L684.75019326 73.94313184a20.72048994 20.72048994 0 0 0-25.12183535 6.11967832l-72.87341924 90.8204581a22.75033359 22.75033359 0 0 0-4.37119893 18.00733184 16.46987519 16.46987519 0 0 0 2.00974659 5.0243669l3.12515684 5.17509755-222.880921 83.46478535a97.81437656 97.81437656 0 0 0-47.76163243 39.78293731l-75.52628524 125.73980947c-16.52011875 27.07128984-17.93699033 60.5536708-3.84866456 89.61460928l3.51705674 7.21499151h-74.58170449a21.53443711 21.53443711 0 0 0-21.51433916 21.49424208v342.56134248z m524.90566933 0.90438575H187.46849287v-321.55948828h222.6096044l-20.90136621 13.15379267c-10.29995244 6.46133555-21.0018542 13.17389062-31.09078301 19.89649335h-0.07034151a86.12769903 86.12769903 0 0 0-38.69767441 56.08198477 87.77569131 87.77569131 0 0 0 85.90662685 106.32565459 88.32837217 88.32837217 0 0 0 45.08866935-12.24940693l125.40820078-75.14443301a225.63427324 225.63427324 0 0 0 35.65290849-12.75184336l7.09440557-3.17540039z m-420.93141855-10.0487338h410.86258769v-203.98930049a231.37210107 231.37210107 0 0 1-29.39254717 10.0487338l-123.52908691 74.27019287a98.47759307 98.47759307 0 0 1-50.2436707 13.75671708 98.23642383 98.23642383 0 0 1-52.67546367-180.87721171c7.34562422-4.8937333 15.07310068-9.7874666 22.62974941-14.58071368H197.53732461z m207.68723437-158.95087471a45.21930293 45.21930293 0 0 1-44.49579434-54.63496669 44.21443008 44.21443008 0 0 1 20.24819913-28.82981777c53.82101953-34.30637753 90.64962949-56.55427471 112.5458209-67.93949093l0.88428867-0.88428867 2.5523789-0.25121865c10.33009893-1.00487373 18.44947529-9.23478662 18.80118106-19.414154 2.87393818-13.06335411 35.41173838-64.73394492 66.67335-95.96540918a21.34351143 21.34351143 0 0 0 4.7630997-23.29296591 21.10234131 21.10234131 0 0 0-19.62517763-13.06335411c-44.77715859 0-85.65540908-22.026825-95.46297276-32.04541318l-0.31151074 0.40194932c-7.03411348-5.56699834-15.92724375-7.03411348-22.59960293-3.89890812a20.34868623 20.34868623 0 0 0-11.98813974 16.6306544l-0.7938501 2.22077021c-8.84288584 13.77681416-72.35088487 51.06766641-87.20291338 53.05731593-9.20464013 0-16.87182451 5.3961706-19.76585976 13.3648163a20.67024551 20.67024551 0 0 0 5.3559747 23.28291651 113.08845234 113.08845234 0 0 1 21.39375499 28.92025634l3.63764179 7.2752836h-70.15021172l-12.65135625-25.25246895c-8.10932871-16.15836445-7.31547862-34.63798623 2.05999014-49.42972265l75.46599229-125.7398086a55.37857325 55.37857325 0 0 1 25.74485683-21.81580137l259.05636299-97.04062441 1.94945449 1.00487373 191.26760273 95.57350928-1.74847939 4.26066241c-14.06822783 34.6580833-45.55091162 105.71268164-98.85944531 192.21218437-65.7187207 105.23034229-151.97705332 131.43744052-168.61775713 135.65790967l-0.80389864 0.19092568a20.30849122 20.30849122 0 0 0-6.31060488 2.50213447l-127.74955517 76.41057393a47.04817237 47.04817237 0 0 1-23.26281944 6.53167704z m92.35791475-142.18958671c-21.70526573 11.34502031-58.12187783 33.35174825-111.23948584 67.22603086a33.94462324 33.94462324 0 0 0-15.76646367 22.39862783 36.10510137 36.10510137 0 0 0 5.15500049 26.79997412c10.04873379 14.74149287 30.14620224 20.56975839 47.68124326 10.51097608l127.61892158-76.37037891a30.42756651 30.42756651 0 0 1 9.57644384-3.76827539l0.26126719-0.06029209c15.96743877-4.01949404 98.85944531-29.23176709 162.50812647-131.15607627 50.77625273-82.39961865 81.62586651-150.66066885 96.33721289-186.38391885l-180.92745616-90.38836231-254.7253582 95.41272921a45.1489623 45.1489623 0 0 0-20.86117206 17.66567461l-75.52628526 125.83024717c-7.54659932 11.88765263-8.13947432 26.67938906-1.62789433 39.66235312l9.84775868 19.68546972h47.16875742a104.89873447 104.89873447 0 0 0-14.96256415-18.63035243 31.1510751 31.1510751 0 0 1 20.44917334-54.1727253c11.11389961-1.52740722 69.21567949-35.33134922 78.81222041-47.64104824a30.67878516 30.67878516 0 0 1 17.48479746-23.34320859c10.29995244-4.86358769 23.04174727-2.90408378 33.16082255 5.09470839l1.41687159 1.12545791c6.46133555 4.64251552 41.9333669 28.35752695 88.1073 28.35752696a31.25156308 31.25156308 0 0 1 22.01677559 53.56980176c-32.21624092 32.15594883-62.04088388 82.15844942-63.84965538 90.13714365-0.41199786 13.86725273-11.58619043 25.76495391-26.67938906 27.97567558l-0.41199785 0.42204727z m-18.9519126-52.89653584h-74.98365293l-1.00487373-3.71803096c-2.87393818-10.64160967-7.80786651-21.35355996-15.12334512-32.7488247l-3.08496093-4.83344034 5.18514697-2.44184238c14.29934854-6.69245713 49.96230557-24.76008018 72.28054336-47.91236397l2.69306104-2.80359667 3.38642313 1.89921006a208.07913516 208.07913516 0 0 0 48.68611612 19.29356982l7.35567364 1.87911299-4.58222257 6.02924062c-12.62120977 16.64070381-29.73420352 40.96868818-39.44128095 62.40263818z m-67.38681006-10.04873379h60.93552305c9.04386094-19.02225323 23.11208789-39.64225606 34.75857041-55.43886533a221.66502363 221.66502363 0 0 1-40.5466418-16.43972872c-21.05209776 20.62000195-51.13800703 36.909-67.43705361 44.87764571a125.31776221 125.31776221 0 0 1 12.28960195 27.01099687z m483.27376465-231.27161309a20.36878418 20.36878418 0 0 1-6.08953272-1.16565292l-252.22322373-125.73980948L682.5093251 119.80555333l227.39280205 97.19135594v72.54181055a14.73144433 14.73144433 0 0 1-7.39586777 12.85233047 16.67084941 16.67084941 0 0 1-7.98874365 2.07003955zM651.85063789 174.10891221l240.4059126 119.91154306a7.40591719 7.40591719 0 0 0 5.40621914-0.44214433 4.58222256 4.58222256 0 0 0 2.17052665-4.01949404v-65.91969492L685.58423838 132.06500878z" p-id="2773" fill="#F56C6C"></path></svg>