<?xml version="1.0" encoding="UTF-8"?>
<svg width="24px" height="24px" viewBox="0 0 24 24" version="1.1" xmlns="http://www.w3.org/2000/svg" xmlns:xlink="http://www.w3.org/1999/xlink">
    <title>编组 230</title>
    <g id="控件" stroke="none" stroke-width="1" fill="none" fill-rule="evenodd">
        <g id="抬头/标准" transform="translate(-1506.000000, -12.000000)" fill-rule="nonzero">
            <g id="编组-230" transform="translate(1506.000000, 12.000000)">
                <rect id="矩形" opacity="0" x="0" y="0" width="24" height="24"></rect>
                <path d="M19,1.1 C20.0131686,1.1 20.8410984,1.89300121 20.8969923,2.89218263 L20.9,3 L20.9,21 C20.9,22.0131716 20.1070099,22.8410986 19.1078185,22.8969923 L19,22.9 L5,22.9 C3.98683992,22.9 3.15890216,22.107007 3.10300771,21.1078182 L3.1,21 L3.1,3 C3.1,1.98684291 3.89300409,1.15890236 4.89218292,1.10300772 L5,1.1 L19,1.1 Z M7.0996,2.9 L5,2.9 C4.95581702,2.9 4.91832681,2.92865362 4.90509804,2.96839217 L4.9,3 L4.9,21 C4.9,21.0441892 4.92864896,21.0816757 4.96838938,21.0949027 L5,21.1 L7.0996,21.0998 L7.0996,2.9 Z M19,2.9 L8.8996,2.9 L8.8996,21.0998 L19,21.1 C19.044195,21.1 19.081678,21.071356 19.0949034,21.0316136 L19.1,21 L19.1,3 C19.1,2.95581121 19.0713513,2.91832448 19.0316108,2.90509734 L19,2.9 Z M16,9.1 C16.4970563,9.1 16.9,9.50294373 16.9,10 C16.9,10.4678177 16.5430672,10.8522692 16.086676,10.8958801 L16,10.9 L12,10.9 C11.5029437,10.9 11.1,10.4970563 11.1,10 C11.1,9.53218233 11.4569328,9.14773079 11.913324,9.10411995 L12,9.1 L16,9.1 Z M16,5.1 C16.4970563,5.1 16.9,5.50294373 16.9,6 C16.9,6.46781767 16.5430672,6.85226921 16.086676,6.89588005 L16,6.9 L12,6.9 C11.5029437,6.9 11.1,6.49705627 11.1,6 C11.1,5.53218233 11.4569328,5.14773079 11.913324,5.10411995 L12,5.1 L16,5.1 Z" id="形状" fill="#334266"></path>
            </g>
        </g>
    </g>
</svg>