<?xml version="1.0" encoding="UTF-8"?>
<svg width="14px" height="14px" viewBox="0 0 14 14" version="1.1" xmlns="http://www.w3.org/2000/svg" xmlns:xlink="http://www.w3.org/1999/xlink">
    <title>疑问提示</title>
    <g id="控件" stroke="none" stroke-width="1" fill="none" fill-rule="evenodd">
        <g id="疑问提示" fill="#000000" fill-rule="nonzero">
            <rect id="矩形" opacity="0" x="0" y="0" width="14" height="14"></rect>
            <path d="M11.4765,2.4815 C9.88863016,0.74209263 7.47315581,0.016328582 5.18953935,0.592492149 C2.90592288,1.16865572 1.12387473,2.9534678 0.551250975,5.23797446 C-0.0213727842,7.52248111 0.70813386,9.93682778 2.45,11.522 C3.6486368,12.7212368 5.2746973,13.3950114 6.97025,13.3950114 C8.6658027,13.3950114 10.2918632,12.7212368 11.4905,11.522 C13.9839865,9.02430179 13.9839865,4.97919821 11.4905,2.4815 L11.4765,2.4815 Z M10.682,10.731 C8.99427383,12.4206572 6.38184294,12.7654982 4.31349298,11.5716434 C2.24514302,10.3777885 1.2370256,7.94316129 1.85593405,5.63658086 C2.47484249,3.33000043 4.56632973,1.72706823 6.9545,1.72899826 C9.08817116,1.72730555 11.012407,3.01209888 11.8286941,4.98345141 C12.6449812,6.95480395 12.192289,9.22382293 10.682,10.731 L10.682,10.731 Z M7.35,3.1255 C6.65055755,2.97165745 5.91908695,3.14339154 5.36118879,3.59243153 C4.80329063,4.04147151 4.47919567,4.71933897 4.47999851,5.4355 C4.47999851,5.77377441 4.75422559,6.048 5.0925,6.048 C5.43077441,6.048 5.705,5.77377441 5.705,5.4355 C5.70280237,5.08668335 5.8612624,4.75626409 6.13464517,4.53960825 C6.40802793,4.32295241 6.76591036,4.24417026 7.105,4.326 C7.53279341,4.41803843 7.86696157,4.75220659 7.959,5.18 C8.0393857,5.51893148 7.96004566,5.87601053 7.74369405,6.14900941 C7.52734244,6.42200828 7.19783277,6.58082791 6.8495,6.58 C6.51122559,6.58 6.237,6.85422559 6.237,7.1925 L6.237,8.2425 C6.237,8.58077441 6.51122559,8.855 6.8495,8.855 C7.18777441,8.855 7.462,8.58077441 7.462,8.2425 L7.462,7.7175 C8.51650042,7.43586882 9.24081162,6.46853416 9.21419853,5.3773976 C9.18758545,4.28626103 8.4169765,3.35538784 7.35,3.1255 Z M6.9545,9.513 C6.54857071,9.513 6.2195,9.84207071 6.2195,10.248 C6.2195,10.6539293 6.54857071,10.983 6.9545,10.983 C7.36042929,10.983 7.6895,10.6539293 7.6895,10.248 C7.6895,9.84207071 7.36042929,9.513 6.9545,9.513 L6.9545,9.513 Z" id="形状"></path>
        </g>
    </g>
</svg>