<svg xmlns="http://www.w3.org/2000/svg" xmlns:xlink="http://www.w3.org/1999/xlink" preserveAspectRatio="none" fill="none" version="1.1" width="880" height="50.5" viewBox="0 0 880 50.5"><defs><linearGradient x1="0.5" y1="0.5" x2="0" y2="0" id="master_svg0_182_20154"><stop offset="1.571393758058548%" stop-color="#FFFFFF" stop-opacity="0"/><stop offset="100%" stop-color="#39A288" stop-opacity="1"/></linearGradient><linearGradient x1="0.5" y1="0" x2="0.5" y2="1" id="master_svg1_182_20156"><stop offset="3.714250773191452%" stop-color="#39A288" stop-opacity="1"/><stop offset="46.5753436088562%" stop-color="#FFBC00" stop-opacity="1"/><stop offset="73.71429204940796%" stop-color="#39A288" stop-opacity="1"/><stop offset="100%" stop-color="#FFBC00" stop-opacity="1"/></linearGradient><filter id="master_svg2_182_23390" filterUnits="objectBoundingBox" color-interpolation-filters="sRGB" x="-16" y="-16" width="48" height="48"><feFlood flood-opacity="0" result="BackgroundImageFix"/><feColorMatrix in="SourceAlpha" type="matrix" values="0 0 0 0 0 0 0 0 0 0 0 0 0 0 0 0 0 0 127 0"/><feOffset dy="0" dx="0"/><feGaussianBlur stdDeviation="4"/><feColorMatrix type="matrix" values="0 0 0 0 0.41960784792900085 0 0 0 0 0.9411764740943909 0 0 0 0 0.8352941274642944 0 0 0 1 0"/><feBlend mode="normal" in2="BackgroundImageFix" result="effect1_dropShadow"/><feBlend mode="normal" in="SourceGraphic" in2="effect1_dropShadow" result="shape"/></filter><linearGradient x1="1" y1="0.5" x2="0" y2="0.5" id="master_svg3_182_20162"><stop offset="2.054794505238533%" stop-color="#006666" stop-opacity="0"/><stop offset="45.857107639312744%" stop-color="#39A288" stop-opacity="1"/><stop offset="100%" stop-color="#006666" stop-opacity="0"/></linearGradient></defs><g><g><path d="M0,50.5L880,50.5L880,10.5L834,10.5L785.5,10.5L747,0.5L0,0.5L0,50.5Z" fill="#F7FCFB" fill-opacity="1"/></g><g><path d="M0,20.5L11,9.5L20,0.5L0,0.5L0,20.5Z" fill="url(#master_svg0_182_20154)" fill-opacity="1"/></g><g><g><ellipse cx="28" cy="25.5" rx="11" ry="11" stroke="url(#master_svg1_182_20156)" fill-opacity="0" fill="none" stroke-width="2"/></g><g filter="url(#master_svg2_182_23390)"><ellipse cx="28" cy="25.5" rx="6.5" ry="6.5" fill-opacity="0" stroke-opacity="1" stroke="#39A288" fill="none" stroke-width="3"/></g></g><g><g><path d="M785.436,15L871,15L871,14L785.564,14L743.0637,3L667.5,3L667.5,4L742.9363,4L785.436,15Z" fill-rule="evenodd" fill="#39A288" fill-opacity="0.30000001192092896"/></g><g><path d="M785.4361,11L821,11L821,10L785.5639,10L747.0639,0L732.5,0L732.5,1L746.9361,1L785.4361,11Z" fill-rule="evenodd" fill="url(#master_svg3_182_20162)" fill-opacity="0.5"/></g><g><ellipse cx="665.5" cy="4" rx="2" ry="2" fill-opacity="0" stroke-opacity="0.30000001192092896" stroke="#39A288" fill="none" stroke-width="1"/></g><g><ellipse cx="872.5" cy="15" rx="2" ry="2" fill-opacity="0" stroke-opacity="0.30000001192092896" stroke="#39A288" fill="none" stroke-width="1"/></g></g></g></svg>