<svg xmlns="http://www.w3.org/2000/svg" xmlns:xlink="http://www.w3.org/1999/xlink" preserveAspectRatio="none" fill="none" version="1.1" width="1950" height="110" viewBox="0 0 1950 110"><defs><filter id="master_svg0_182_23039" filterUnits="objectBoundingBox" color-interpolation-filters="sRGB" x="-20" y="-16" width="1960" height="120"><feFlood flood-opacity="0" result="BackgroundImageFix"/><feColorMatrix in="SourceAlpha" type="matrix" values="0 0 0 0 0 0 0 0 0 0 0 0 0 0 0 0 0 0 127 0"/><feOffset dy="4" dx="0"/><feGaussianBlur stdDeviation="5"/><feColorMatrix type="matrix" values="0 0 0 0 0.0117647061124444 0 0 0 0 0.40784314274787903 0 0 0 0 0.40784314274787903 0 0 0 0.2199999988079071 0"/><feBlend mode="normal" in2="BackgroundImageFix" result="effect1_dropShadow"/><feBlend mode="normal" in="SourceGraphic" in2="effect1_dropShadow" result="shape"/></filter><linearGradient x1="0.5" y1="0" x2="0.5" y2="1" id="master_svg1_142_27558"><stop offset="0.8571079932153225%" stop-color="#FFFFFF" stop-opacity="1"/><stop offset="100%" stop-color="#D5F2EB" stop-opacity="1"/></linearGradient><filter id="master_svg2_182_23040" filterUnits="objectBoundingBox" color-interpolation-filters="sRGB" x="-20" y="-16" width="1960" height="112.81218719482422"><feFlood flood-opacity="0" result="BackgroundImageFix"/><feColorMatrix in="SourceAlpha" type="matrix" values="0 0 0 0 0 0 0 0 0 0 0 0 0 0 0 0 0 0 127 0"/><feOffset dy="4" dx="0"/><feGaussianBlur stdDeviation="5"/><feColorMatrix type="matrix" values="0 0 0 0 0.0117647061124444 0 0 0 0 0.40784314274787903 0 0 0 0 0.40784314274787903 0 0 0 0.2199999988079071 0"/><feBlend mode="normal" in2="BackgroundImageFix" result="effect1_dropShadow"/><feBlend mode="normal" in="SourceGraphic" in2="effect1_dropShadow" result="shape"/></filter><linearGradient x1="0.5" y1="0" x2="0.5" y2="1" id="master_svg3_142_27558"><stop offset="0.8571079932153225%" stop-color="#FFFFFF" stop-opacity="1"/><stop offset="100%" stop-color="#D5F2EB" stop-opacity="1"/></linearGradient><linearGradient x1="1" y1="0.5" x2="0" y2="0.5" id="master_svg4_182_20138"><stop offset="0%" stop-color="#FFFFFF" stop-opacity="0"/><stop offset="52.99996733665466%" stop-color="#39A288" stop-opacity="1"/><stop offset="100%" stop-color="#FFFFFF" stop-opacity="0"/></linearGradient></defs><g><g><g filter="url(#master_svg0_182_23039)"><path d="M1935,11L15,11L15,43.4873L609.16,43.4874C620.68,43.4874,631.18,65.09129999999999,636.19,73.5218C643.42,85.6964,668.59,91,685.23,91L1264.78,91C1281.42,91,1306.6,85.6964,1313.82,73.5218C1318.82,65.09129999999999,1329.32,43.4874,1340.85,43.4874L1935,43.4873L1935,11Z" fill="url(#master_svg1_142_27558)" fill-opacity="1"/></g><g filter="url(#master_svg2_182_23040)"><path d="M1935,11L15,11L15,46.736L619.16,46.7361C630.68,46.7361,641.18,52.6325,646.19,61.906C653.42,75.2981,668.59,83.8123,685.23,83.8123L1264.78,83.8123C1281.42,83.8123,1296.6,75.2981,1303.82,61.906C1308.82,52.6325,1319.32,46.7361,1330.85,46.7361L1935,46.736L1935,11Z" fill="url(#master_svg3_142_27558)" fill-opacity="1"/><path d="M1935,11L1935,46.736L1933,46.736L1330.85,46.7361C1319.32,46.7361,1308.82,52.6325,1303.82,61.906C1296.6,75.2981,1281.42,83.8123,1264.78,83.8123L685.23,83.8123C668.59,83.8123,653.42,75.2981,646.19,61.906C641.18,52.6325,630.68,46.7361,619.16,46.7361L17,46.736L15,46.736L15,11L1935,11ZM1933,13L1933,44.736L1330.85,44.7361Q1321.68,44.7361,1313.91,49.0994Q1306.09,53.4898,1302.06,60.9569Q1299.52,65.6707,1295.6,69.56Q1291.75,73.3902,1286.85,76.1369Q1281.95,78.8908,1276.38,80.337Q1270.71,81.8123,1264.78,81.8123L685.23,81.8123Q679.304,81.8123,673.63,80.337Q668.068,78.8909,663.16,76.137Q658.265,73.39,654.41,69.5599Q650.495,65.6705,647.95,60.9554Q643.917,53.4897,636.095,49.0994Q628.322,44.7361,619.16,44.7361L17,44.736L17,13L1933,13Z" fill-rule="evenodd" fill="#FFFFFF" fill-opacity="1"/></g><g><rect x="676" y="82" width="599" height="2" rx="0" fill="url(#master_svg4_182_20138)" fill-opacity="1"/></g><g><g><g><path d="M673,49L679,59L685,59L679,49L673,49Z" fill="#31C4C0" fill-opacity="1"/></g><g><path d="M685,49L691,59L697,59L691,49L685,49Z" fill="#FFBC00" fill-opacity="1"/></g><g><path d="M697,49L703,59L709,59L703,49L697,49Z" fill="#52E2CD" fill-opacity="1"/></g></g><g transform="matrix(-1,0,0,1,2556,0)"><g><path d="M1278,49L1284,59L1290,59L1284,49L1278,49Z" fill="#31C4C0" fill-opacity="1"/></g><g><path d="M1290,49L1296,59L1302,59L1296,49L1290,49Z" fill="#FFBC00" fill-opacity="1"/></g><g><path d="M1302,49L1308,59L1314,59L1308,49L1302,49Z" fill="#52E2CD" fill-opacity="1"/></g></g></g></g></g></svg>