<svg xmlns="http://www.w3.org/2000/svg" xmlns:xlink="http://www.w3.org/1999/xlink" preserveAspectRatio="none" fill="none" version="1.1" width="880" height="255" viewBox="0 0 880 255"><defs><linearGradient x1="0.5" y1="0" x2="0.5" y2="1" id="master_svg0_142_29808"><stop offset="0%" stop-color="#F7FCFB" stop-opacity="1"/><stop offset="97.99996614456177%" stop-color="#EAF7F4" stop-opacity="1"/></linearGradient><linearGradient x1="0.5" y1="0" x2="0.5" y2="1" id="master_svg1_142_30188"><stop offset="0%" stop-color="#FFFFFF" stop-opacity="1"/><stop offset="100%" stop-color="#ADD0CF" stop-opacity="1"/></linearGradient><linearGradient x1="0" y1="0.5" x2="1" y2="0.5" id="master_svg2_142_29936"><stop offset="0%" stop-color="#FF836B" stop-opacity="1"/><stop offset="100%" stop-color="#FFFFFF" stop-opacity="0"/></linearGradient><linearGradient x1="0" y1="0.5" x2="1" y2="0.5" id="master_svg3_182_20281"><stop offset="0%" stop-color="#52E2CD" stop-opacity="1"/><stop offset="95.1428234577179%" stop-color="#CCE0E0" stop-opacity="0"/></linearGradient><linearGradient x1="0" y1="0.5" x2="1" y2="0.5" id="master_svg4_142_30088"><stop offset="0%" stop-color="#FFBC00" stop-opacity="1"/><stop offset="100%" stop-color="#FFF2CC" stop-opacity="0"/></linearGradient></defs><g><g><path d="M0,251L2,253L4,255L729,255L733,251L792,251L796,255L876,255L878,253L880,251L880,4L878,2L876,0L4,0L2,2L0,4L0,251Z" fill="url(#master_svg0_142_29808)" fill-opacity="1"/><path d="M796,255L792,251L733,251L729,255L4,255L0,251L0,4L4,0L876,0L880,4L880,251L876,255L796,255ZM732.586,250L728.586,254L4.41421,254L2.70711,252.293L1,250.586L1,4.41421L2.70711,2.70711L4.41421,1L875.586,1L877.293,2.70711L879,4.4142L879,250.586L877.293,252.293L875.586,254L796.414,254L792.414,250L732.586,250Z" fill-rule="evenodd" fill="url(#master_svg1_142_30188)" fill-opacity="1"/></g><g><path d="M731,255L751,255L754,252L734,252L731,255Z" fill="url(#master_svg2_142_29936)" fill-opacity="1"/></g><g><path d="M752,255L772,255L775,252L755,252L752,255Z" fill="url(#master_svg3_182_20281)" fill-opacity="1"/></g><g><path d="M773,255L793,255L796,252L776,252L773,255Z" fill="url(#master_svg4_142_30088)" fill-opacity="1"/></g></g></svg>