<svg xmlns="http://www.w3.org/2000/svg" xmlns:xlink="http://www.w3.org/1999/xlink" preserveAspectRatio="none" fill="none" version="1.1" width="460" height="255" viewBox="0 0 460 255"><defs><linearGradient x1="0.5" y1="0" x2="0.5" y2="1" id="master_svg0_142_29808"><stop offset="0%" stop-color="#F7FCFB" stop-opacity="1"/><stop offset="97.99996614456177%" stop-color="#EAF7F4" stop-opacity="1"/></linearGradient><linearGradient x1="0.5" y1="0" x2="0.5" y2="1" id="master_svg1_142_30188"><stop offset="0%" stop-color="#FFFFFF" stop-opacity="1"/><stop offset="100%" stop-color="#ADD0CF" stop-opacity="1"/></linearGradient><linearGradient x1="0" y1="0.5" x2="1" y2="0.5" id="master_svg2_142_29936"><stop offset="0%" stop-color="#FF836B" stop-opacity="1"/><stop offset="100%" stop-color="#FFFFFF" stop-opacity="0"/></linearGradient><linearGradient x1="0" y1="0.5" x2="1" y2="0.5" id="master_svg3_182_20281"><stop offset="0%" stop-color="#52E2CD" stop-opacity="1"/><stop offset="95.1428234577179%" stop-color="#CCE0E0" stop-opacity="0"/></linearGradient><linearGradient x1="0" y1="0.5" x2="1" y2="0.5" id="master_svg4_142_30088"><stop offset="0%" stop-color="#FFBC00" stop-opacity="1"/><stop offset="100%" stop-color="#FFF2CC" stop-opacity="0"/></linearGradient></defs><g><g><path d="M0,251L2,253L4,255L309,255L313,251L372,251L376,255L456,255L458,253L460,251L460,4L458,2L456,0L4,0L2,2L0,4L0,251Z" fill="url(#master_svg0_142_29808)" fill-opacity="1"/><path d="M376,255L372,251L313,251L309,255L4,255L0,251L0,4L4,0L456,0L460,4L460,251L456,255L376,255ZM312.586,250L308.586,254L4.41421,254L2.70711,252.293L1,250.586L1,4.41421L2.70711,2.70711L4.41421,1L455.586,1L457.293,2.70711L459,4.4142L459,250.586L457.293,252.293L455.586,254L376.414,254L372.414,250L312.586,250Z" fill-rule="evenodd" fill="url(#master_svg1_142_30188)" fill-opacity="1"/></g><g><path d="M311,255L331,255L334,252L314,252L311,255Z" fill="url(#master_svg2_142_29936)" fill-opacity="1"/></g><g><path d="M332,255L352,255L355,252L335,252L332,255Z" fill="url(#master_svg3_182_20281)" fill-opacity="1"/></g><g><path d="M353,255L373,255L376,252L356,252L353,255Z" fill="url(#master_svg4_142_30088)" fill-opacity="1"/></g></g></svg>