<svg xmlns="http://www.w3.org/2000/svg" xmlns:xlink="http://www.w3.org/1999/xlink" fill="none" version="1.1" width="216.2076416015625" height="74.5" viewBox="0 0 216.2076416015625 74.5"><defs><filter id="master_svg0_199_16757" filterUnits="objectBoundingBox" color-interpolation-filters="sRGB" x="0" y="0" width="213" height="64"><feFlood flood-opacity="0" result="BackgroundImageFix"/><feBlend mode="normal" in="SourceGraphic" in2="BackgroundImageFix" result="shape"/><feColorMatrix in="SourceAlpha" type="matrix" result="hardAlpha" values="0 0 0 0 0 0 0 0 0 0 0 0 0 0 0 0 0 0 127 0"/><feOffset dy="4" dx="0"/><feGaussianBlur stdDeviation="2"/><feComposite in2="hardAlpha" operator="arithmetic" k2="-1" k3="1"/><feColorMatrix type="matrix" values="0 0 0 0 0.2235294133424759 0 0 0 0 0.6352941393852234 0 0 0 0 0.5333333611488342 0 0 0 0.10000000149011612 0"/><feBlend mode="normal" in2="shape" result="effect1_innerShadow"/></filter><linearGradient x1="0.5" y1="0" x2="0.5" y2="1" id="master_svg1_142_53170"><stop offset="0%" stop-color="#F7FCFB" stop-opacity="1"/><stop offset="97.99996614456177%" stop-color="#EAF7F4" stop-opacity="1"/></linearGradient><linearGradient x1="0.5" y1="0.5" x2="0" y2="0" id="master_svg2_182_20154"><stop offset="1.571393758058548%" stop-color="#FFFFFF" stop-opacity="0"/><stop offset="100%" stop-color="#39A288" stop-opacity="1"/></linearGradient><linearGradient x1="0.5" y1="0.5" x2="0" y2="0" id="master_svg3_182_20154"><stop offset="1.571393758058548%" stop-color="#FFFFFF" stop-opacity="0"/><stop offset="100%" stop-color="#39A288" stop-opacity="1"/></linearGradient><filter id="master_svg4_182_24195" filterUnits="objectBoundingBox" color-interpolation-filters="sRGB" x="-20" y="-14" width="78.76923370361328" height="81.3537483215332"><feFlood flood-opacity="0" result="BackgroundImageFix"/><feColorMatrix in="SourceAlpha" type="matrix" values="0 0 0 0 0 0 0 0 0 0 0 0 0 0 0 0 0 0 127 0"/><feOffset dy="6" dx="0"/><feGaussianBlur stdDeviation="5"/><feColorMatrix type="matrix" values="0 0 0 0 0.21176470816135406 0 0 0 0 0.658823549747467 0 0 0 0 0.5333333611488342 0 0 0 0.46000000834465027 0"/><feBlend mode="normal" in2="BackgroundImageFix" result="effect1_dropShadow"/><feBlend mode="normal" in="SourceGraphic" in2="effect1_dropShadow" result="shape"/></filter><linearGradient x1="0.5" y1="0" x2="0.5" y2="1" id="master_svg5_142_42999"><stop offset="0%" stop-color="#C4E5E4" stop-opacity="1"/><stop offset="96.57139182090759%" stop-color="#0C2C2B" stop-opacity="0.7300000190734863"/></linearGradient><mask id="master_svg6_182_24201"><g><path d="M30.869169116020203,43.561325007191044L35.2470791160202,45.94829500719104C36.3650891160202,46.55851500719105,37.1065891160202,47.80589500719105,37.104669116020204,49.34395500719104C37.102749116020206,49.93300500719104,36.9951791160202,50.50664500719105,36.797319116020205,51.04371500719105L32.4193991160202,48.65674500719104C32.6172591160202,48.11774500719105,32.726759116020204,47.54602500719105,32.726759116020204,46.956985007191044C32.7286791160202,45.418935007191045,31.9871791160202,44.17154300719105,30.869169116020203,43.561325007191044Z" fill="#FFFFFF" fill-opacity="1"/></g></mask><mask id="master_svg7_182_24204"><g><path d="M30.869169116020203,43.561325007191044L35.2470791160202,45.94829500719104C36.3650891160202,46.55851500719105,37.1065891160202,47.80589500719105,37.104669116020204,49.34395500719104C37.102749116020206,49.93300500719104,36.9951791160202,50.50664500719105,36.797319116020205,51.04371500719105L32.4193991160202,48.65674500719104C32.6172591160202,48.11774500719105,32.726759116020204,47.54602500719105,32.726759116020204,46.956985007191044C32.7286791160202,45.418935007191045,31.9871791160202,44.17154300719105,30.869169116020203,43.561325007191044Z" fill="#FFFFFF" fill-opacity="1"/></g></mask><linearGradient x1="0.5" y1="0" x2="0.5" y2="1" id="master_svg8_182_20609"><stop offset="0%" stop-color="#C7EEE3" stop-opacity="1"/><stop offset="96.57139182090759%" stop-color="#28856B" stop-opacity="1"/></linearGradient><linearGradient x1="0.5" y1="0" x2="0.5" y2="1" id="master_svg9_182_20609"><stop offset="0%" stop-color="#C7EEE3" stop-opacity="1"/><stop offset="96.57139182090759%" stop-color="#28856B" stop-opacity="1"/></linearGradient><linearGradient x1="0.5" y1="0" x2="0.5" y2="1" id="master_svga_182_20609"><stop offset="0%" stop-color="#C7EEE3" stop-opacity="1"/><stop offset="96.57139182090759%" stop-color="#28856B" stop-opacity="1"/></linearGradient><linearGradient x1="0" y1="0.5" x2="1" y2="0.5" id="master_svgb_182_20346"><stop offset="0%" stop-color="#AAEBD7" stop-opacity="1"/><stop offset="100%" stop-color="#36A888" stop-opacity="1"/></linearGradient><linearGradient x1="0.5" y1="0" x2="0.5" y2="1" id="master_svgc_182_20609"><stop offset="0%" stop-color="#C7EEE3" stop-opacity="1"/><stop offset="96.57139182090759%" stop-color="#28856B" stop-opacity="1"/></linearGradient><linearGradient x1="0.5" y1="0" x2="0.5" y2="1" id="master_svgd_182_20609"><stop offset="0%" stop-color="#C7EEE3" stop-opacity="1"/><stop offset="96.57139182090759%" stop-color="#28856B" stop-opacity="1"/></linearGradient><linearGradient x1="0" y1="0.5" x2="1" y2="0.5" id="master_svge_182_20346"><stop offset="0%" stop-color="#AAEBD7" stop-opacity="1"/><stop offset="100%" stop-color="#36A888" stop-opacity="1"/></linearGradient><linearGradient x1="0" y1="0.5" x2="1" y2="0.5" id="master_svgf_182_20346"><stop offset="0%" stop-color="#AAEBD7" stop-opacity="1"/><stop offset="100%" stop-color="#36A888" stop-opacity="1"/></linearGradient></defs><g><g filter="url(#master_svg0_199_16757)"><rect x="2.7076416015625" y="0.5" width="213" height="64" rx="0" fill="url(#master_svg1_142_53170)" fill-opacity="1"/></g><g><g><path d="M4.7076416015625,12.5L10.2076416015625,7L14.7076416015625,2.5L4.7076416015625,2.5L4.7076416015625,12.5Z" fill="url(#master_svg2_182_20154)" fill-opacity="1"/></g><g><path d="M2.2076416015625,0L2.2076416015625,6.5L3.2076416015625,6.5L3.2076416015625,1L8.7076416015625,1L8.7076416015625,0L2.2076416015625,0Z" fill-rule="evenodd" fill="#39A288" fill-opacity="1"/></g></g><g transform="matrix(-1,0,0,-1,431.415283203125,129)"><g><path d="M217.7076416015625,76.5L223.2076416015625,71L227.7076416015625,66.5L217.7076416015625,66.5L217.7076416015625,76.5Z" fill="url(#master_svg3_182_20154)" fill-opacity="1"/></g><g><path d="M215.2076416015625,64L215.2076416015625,70.5L216.2076416015625,70.5L216.2076416015625,65L221.7076416015625,65L221.7076416015625,64L215.2076416015625,64Z" fill-rule="evenodd" fill="#39A288" fill-opacity="1"/></g></g><g><g><rect x="13.7076416015625" y="11.5" width="42" height="42" rx="0" fill="#FFFFFF" fill-opacity="0.009999999776482582"/></g><g filter="url(#master_svg4_182_24195)"><g><g><path d="M50.98376534069061,28.854537766285283L50.88807534069061,28.802367766285283C50.92035534069061,28.819267766285282,50.95205534069061,28.836217766285284,50.983755340690614,28.85260776628528L46.605845340690614,26.46563576628528C46.553755340690614,26.43700876628528,46.500185340690614,26.40985476628528,46.446445340690616,26.38288676628528L46.42527534069061,26.371345766285284C46.12367534069061,26.22504676628528,45.806715340690616,26.105699766285284,45.476305340690615,26.020999766285282L45.477935340690614,26.021888766285283C44.83136534069061,25.854734946285284,44.131975340690616,25.812587866285284,43.40165534069061,25.91509316628528C43.005934340690615,25.970917766285282,42.617898340690616,26.069091766285283,42.24138534069061,26.199990766285282L46.619305340690616,28.586997766285283C46.99773534069061,28.456097766285282,47.385775340690614,28.357927766285282,47.77957534069061,28.302097766285282C47.88824534069062,28.286877766285283,47.996275340690616,28.27481776628528,48.10357534069061,28.26588776628528C48.14178534069061,28.262717766285284,48.179895340690614,28.259957766285282,48.21791534069061,28.257587766285283C49.23105534069062,28.19447776628528,50.173585340690614,28.41323776628528,50.98376534069061,28.854537766285283Z" fill-rule="evenodd" fill="url(#master_svg5_142_42999)" fill-opacity="1"/></g><g><g><g mask="url(#master_svg6_182_24201)"><g><path d="M36.795388919029236,51.04564250673328L32.417478919029236,48.658666426733284L32.417478919029236,48.65674250673328L36.79731891902924,51.04371250673328L36.795388919029236,51.04564250673328Z" fill="#003737" fill-opacity="1"/></g></g><g mask="url(#master_svg7_182_24204)"><g><path d="M36.797319116020205,51.04371500719105L32.4193991160202,48.65674500719104C32.6172591160202,48.11774500719105,32.724839116020206,47.54602500719105,32.726759116020204,46.956985007191044C32.7286791160202,45.41892500719104,31.9871791160202,44.17154300719105,30.869169116020203,43.561325007191044L35.2470791160202,45.94829500719104C36.3650891160202,46.55851500719105,37.1065891160202,47.80589500719105,37.104669116020204,49.34395500719104C37.102749116020206,49.93300500719104,36.993259116020205,50.504715007191045,36.797319116020205,51.04371500719105Z" fill="url(#master_svg8_182_20609)" fill-opacity="1"/></g></g></g></g><g><g><path d="M38.95072959056854,21.327824921894415L34.57281959056854,18.940854921894413L42.25673959056854,17.859014921894413L46.63661959056854,20.24598492189441L38.95072959056854,21.327824921894415Z" fill="url(#master_svg9_182_20609)" fill-opacity="1"/></g></g><g><g><path d="M19.37785933605194,53.49803191942249L14.999949336051941,51.11113191942249L15.019159136051941,40.72583191942249L19.397069336051942,43.11280191942249L19.37785933605194,53.49803191942249Z" fill="url(#master_svga_182_20609)" fill-opacity="1"/></g></g><g><g><g><path d="M19.028249141927958,35.83638526048694C19.030169141927956,34.29832526048694,18.288669141927958,33.050943260486946,17.170659141927956,32.44072526048694L21.548569141927956,34.82769526048694C22.666579141927958,35.437915260486946,23.408079141927956,36.68530526048694,23.406159141927958,38.22335526048694C23.406159141927958,38.81047526048694,23.296669141927957,39.386045260486945,23.098799141927955,39.92503526048694C23.027529141927957,40.121445260486944,22.94395914192796,40.31238526048694,22.849249141927956,40.496695260486945C22.84861914192796,40.497945260486944,22.847979141927958,40.49919526048694,22.847339141927957,40.50044526048694C22.830629141927957,40.533225260486944,22.813579141927956,40.565825260486946,22.796199141927957,40.59822526048694L22.797209141927958,40.598775260486946C22.764359141927958,40.65892526048694,22.73045914192796,40.718445260486945,22.695599141927957,40.777275260486945C22.694229141927956,40.77959526048694,22.692869141927957,40.78191526048694,22.691499141927956,40.78424526048694C22.633559141927957,40.88247526048694,22.572539141927958,40.97866526048694,22.508609141927955,41.07259526048694C22.49603914192796,41.091205260486944,22.483389141927958,41.10972526048694,22.470639141927958,41.128145260486946C22.45944914192796,41.143925260486945,22.448209141927958,41.15964526048694,22.43689914192796,41.175305260486944C22.42481914192796,41.19217526048694,22.412639141927958,41.20896526048694,22.400369141927957,41.225675260486945C22.192299141927958,41.509095260486944,21.957059141927957,41.76978526048694,21.699619141927958,42.00171526048695L21.700319141927956,42.00209526048694C21.652259141927956,42.04483526048694,21.603449141927957,42.08682526048695,21.553889141927957,42.12794526048694C21.494979141927956,42.176985260486944,21.43501914192796,42.224555260486945,21.374069141927958,42.27058526048694L21.374069141927958,42.27058526048694C21.322109141927957,42.30992526048694,21.269559141927957,42.34809526048694,21.216249141927957,42.38511526048694C21.010699141927958,42.52752526048694,20.791709141927956,42.654625260486945,20.566949141927957,42.76052526048694C20.500759141927958,42.791425260486946,20.43389914192796,42.820725260486945,20.366389141927957,42.848325260486945C20.366099141927958,42.84842526048694,20.36579914192796,42.848525260486944,20.36550914192796,42.84862526048694C20.055299141927957,42.97572526048694,19.730899141927956,43.06572526048694,19.397069141927958,43.11282526048694L15.019159141927958,40.725835260486946C15.293898141927958,40.68686526048694,15.561643141927958,40.61899526048694,15.820625141927957,40.52576526048694C16.370139141927957,40.32733526048694,16.879239141927957,40.01291526048694,17.322539141927958,39.613235260486945L17.322539141927958,39.613235260486945C17.332909141927956,39.603765260486945,17.34336914192796,39.59432526048694,17.35377914192796,39.584825260486944C17.77739914192796,39.196325260486944,18.13950914192796,38.729545260486944,18.41748914192796,38.211865260486945L18.41748914192796,38.211865260486945C18.51697914192796,38.02690526048694,18.604089141927957,37.83644526048694,18.681069141927956,37.64160526048694C18.69442914192796,37.60746526048694,18.707409141927958,37.573205260486944,18.72003914192796,37.53879526048694C18.91767914192796,37.00011526048694,19.02729914192796,36.42431526048694,19.028249141927958,35.83638526048694Z" fill-rule="evenodd" fill="url(#master_svgb_182_20346)" fill-opacity="1"/></g></g></g><g><g><g><g><path d="M31.69139239009857,12.657962416776996L31.718332390098574,12.672649416776997Q31.71239239009857,12.669670416776997,31.70643239009857,12.666707416776998L31.702372390098574,12.664690416776997L31.69138239009857,12.658698416776996C31.66604239009857,12.646403416776996,31.640582390098572,12.634297416776997,31.615022390098574,12.622387416776997C31.58219239009857,12.606896416776998,31.549182390098572,12.591761416776997,31.51597239009857,12.576984416776996C31.268542390098574,12.466878416776996,31.010572390098574,12.376694416776997,30.74361239009857,12.307820416776996L30.742402390098572,12.307162416776997C30.62166239009857,12.276194416776997,30.499042390098573,12.249538416776996,30.374712390098573,12.227332516776997C30.130172390098572,12.183507116776997,29.87907239009857,12.157047816776997,29.622482390098572,12.148928616776997C29.566642390098572,12.147161490776996,29.51054239009857,12.146263078176997,29.454182390098573,12.146243416776997C29.19749239009857,12.146043677776998,28.93575239009857,12.164025216776997,28.67017239009857,12.201217616776997L28.669642390098574,12.200930916776997L28.669482390098572,12.200954616776997C28.060632390098572,12.285657416776997,27.47291239009857,12.466574416776997,26.91784239009857,12.728313416776997L26.91777239009857,12.728274416776998C26.87376239009857,12.749071416776998,26.82998239009857,12.770357416776998,26.78643239009857,12.792128416776997C24.39439239009857,13.983233416776997,22.663516970098573,16.663953416776998,22.658898386398572,19.535093416776995C22.658829502898573,19.548273416776997,22.65879765481857,19.561453416777,22.658802390098572,19.574613416776998C22.658864801598572,19.929083416776997,22.68579039009857,20.276073416776995,22.73957919009857,20.606913416776997L27.117492390098572,22.993843416776997L27.11723239009857,22.992243416776997L27.117492390098572,22.992343416776997C27.095902390098573,22.854843416776998,27.078652390098572,22.714843416776997,27.065602390098572,22.572743416776998L27.065582390098573,22.572543416776995C27.04640239009857,22.360843416776998,27.03681239009857,22.144303416777,27.03681239009857,21.923603416777C27.038732390098573,21.042213416776995,27.203842390098572,20.178143416776997,27.499512390098573,19.369853416776998L27.499732390098572,19.369973416776997C27.626512390098572,19.021553416776996,27.77827239009857,18.682753416776997,27.95500239009857,18.357433416777L27.95357239009857,18.356653416776997C28.101362390098572,18.081693416776996,28.26449239009857,17.816343416776995,28.442952390098572,17.562513416776998L28.441892390098573,17.561933416776995L28.44203239009857,17.561723416776996L28.44296239009857,17.562233416776998C28.609972390098573,17.321783416776995,28.79040239009857,17.092873416776996,28.982342390098573,16.875483416776998L28.98276239009857,16.875713416776996C29.176782390098573,16.656273416776997,29.38040239009857,16.448373416776995,29.59555239009857,16.255873416776996L29.59424239009857,16.255153416777L29.594652390098574,16.254783416776995L29.59555239009857,16.255273416776998C29.826072390098574,16.047373416777,30.07003239009857,15.854873416776996,30.321682390098573,15.679703416776997L30.32053239009857,15.679073416776998L30.32091239009857,15.678813416776997L30.321752390098574,15.679263416776998C30.590532390098574,15.493053416776997,30.869342390098574,15.326943416776997,31.15819239009857,15.182183416776997C31.20417239009857,15.159223416776998,31.25040239009857,15.136823416776997,31.29686239009857,15.114973416776998L31.297552390098573,15.115343416776998C31.38567239009857,15.073653416776997,31.474662390098572,15.034003416776997,31.564482390098572,14.996463416776997C32.038692390098575,14.799293416776997,32.53525239009857,14.660053416776996,33.04660239009857,14.588043416776998L33.047602390098575,14.588603416776998C33.71100239009857,14.495483416776997,34.349002390098576,14.522353416776998,34.94500239009857,14.653443416776998C35.00380239009857,14.666393416776998,35.06230239009857,14.680363416776997,35.12030239009857,14.695333416776997C35.519302390098574,14.798223416776997,35.89810239009857,14.948443416776996,36.251802390098575,15.141073416776997L36.17670239009857,15.100153416776998C36.20200239009857,15.113343416776997,36.22710239009857,15.126463416776996,36.251802390098575,15.139263416776997L31.873892390098572,12.752286416776997C31.814342390098574,12.719561416776997,31.75286239009857,12.688761416776996,31.69139239009857,12.657962416776996Z" fill-rule="evenodd" fill="url(#master_svgc_182_20609)" fill-opacity="1"/></g></g></g></g><g><g><path d="M19.433576787289383,24.076694340992315L15.053736787289381,21.689724340992314L22.73957678728938,20.607884340992314L27.11753678728938,22.992934340992313L19.433576787289383,24.076694340992315Z" fill="url(#master_svgd_182_20609)" fill-opacity="1"/></g></g><g><g><path d="M33.047537342643736,14.5884769599773C36.36123734264373,14.122632659977299,39.04293734264374,16.650124659977298,39.03713734264374,20.2344346599773C39.03713734264374,20.6021046599773,39.00833734264374,20.9697846599773,38.950737342643734,21.3278246599773L46.63463734264374,20.2459846599773L46.61933734264374,28.5869546599773C46.99583734264374,28.456054659977298,47.38383734264374,28.3578546599773,47.779537342643735,28.3020546599773C51.09323734264374,27.8361546599773,53.77493734264374,30.3636546599773,53.76913734264374,33.9479546599773C53.76343734264374,37.5303546599773,51.06823734264374,40.8163546599773,47.75653734264374,41.282154659977294C47.36073734264374,41.3379546599773,46.97273734264374,41.3495546599773,46.59623734264374,41.3244546599773L46.58083734264373,49.6673546599773L36.79543734264374,51.0456546599773C36.99323734264374,50.5066546599773,37.102737342643735,49.9349546599773,37.102737342643735,49.3458546599773C37.10653734264373,46.9569546599773,35.31813734264374,45.2707546599773,33.10903734264374,45.5825546599773C30.901837342643738,45.894354659977296,29.10570734264374,48.0850546599773,29.10185734264374,50.4739546599773C29.099937342643738,51.0629546599773,29.20751734264374,51.6058546599773,29.40153734264374,52.0889546599773L19.375937342643738,53.4999546599773L19.395147242643738,43.1147546599773C21.60235734264374,42.8028546599773,23.40038734264374,40.6141546599773,23.40423734264374,38.225254659977296C23.408077342643736,35.8363546599773,21.619647342643738,34.150154659977304,19.410515042643738,34.461954659977295L19.429724942643738,24.0786246599773L27.113647342643738,22.9967846599773C27.05793734264374,22.6541346599773,27.03104734264374,22.294164659977298,27.032967342643737,21.9264946599773C27.04257734264374,18.3402646599773,29.73773734264374,15.0543216599773,33.047537342643736,14.5884769599773Z" fill="url(#master_svge_182_20346)" fill-opacity="1"/></g></g><g><g><path d="M19.414366985138656,34.46002199510608L15.034526985138655,32.07302199510608L15.053736785138655,21.689721995106083L19.433566985138654,24.07669199510608L19.414366985138656,34.46002199510608Z" fill="url(#master_svgf_182_20346)" fill-opacity="1"/></g></g></g></g></g></g></svg>