<svg xmlns="http://www.w3.org/2000/svg" xmlns:xlink="http://www.w3.org/1999/xlink" fill="none" version="1.1" width="216.8538818359375" height="73.20751953125" viewBox="0 0 216.8538818359375 73.20751953125"><defs><filter id="master_svg0_199_16743" filterUnits="objectBoundingBox" color-interpolation-filters="sRGB" x="0" y="0" width="213" height="64"><feFlood flood-opacity="0" result="BackgroundImageFix"/><feBlend mode="normal" in="SourceGraphic" in2="BackgroundImageFix" result="shape"/><feColorMatrix in="SourceAlpha" type="matrix" result="hardAlpha" values="0 0 0 0 0 0 0 0 0 0 0 0 0 0 0 0 0 0 127 0"/><feOffset dy="4" dx="0"/><feGaussianBlur stdDeviation="2"/><feComposite in2="hardAlpha" operator="arithmetic" k2="-1" k3="1"/><feColorMatrix type="matrix" values="0 0 0 0 0.2235294133424759 0 0 0 0 0.6352941393852234 0 0 0 0 0.5333333611488342 0 0 0 0.10000000149011612 0"/><feBlend mode="normal" in2="shape" result="effect1_innerShadow"/></filter><linearGradient x1="0.5" y1="0" x2="0.5" y2="1" id="master_svg1_142_53170"><stop offset="0%" stop-color="#F7FCFB" stop-opacity="1"/><stop offset="97.99996614456177%" stop-color="#EAF7F4" stop-opacity="1"/></linearGradient><linearGradient x1="0.5" y1="0.5" x2="0" y2="0" id="master_svg2_182_20154"><stop offset="1.571393758058548%" stop-color="#FFFFFF" stop-opacity="0"/><stop offset="100%" stop-color="#39A288" stop-opacity="1"/></linearGradient><linearGradient x1="0.5" y1="0.5" x2="0" y2="0" id="master_svg3_182_20154"><stop offset="1.571393758058548%" stop-color="#FFFFFF" stop-opacity="0"/><stop offset="100%" stop-color="#39A288" stop-opacity="1"/></linearGradient><filter id="master_svg4_182_24028" filterUnits="objectBoundingBox" color-interpolation-filters="sRGB" x="-20" y="-14" width="81.35385131835938" height="78.76923370361328"><feFlood flood-opacity="0" result="BackgroundImageFix"/><feColorMatrix in="SourceAlpha" type="matrix" values="0 0 0 0 0 0 0 0 0 0 0 0 0 0 0 0 0 0 127 0"/><feOffset dy="6" dx="0"/><feGaussianBlur stdDeviation="5"/><feColorMatrix type="matrix" values="0 0 0 0 0.21176470816135406 0 0 0 0 0.658823549747467 0 0 0 0 0.5333333611488342 0 0 0 0.46000000834465027 0"/><feBlend mode="normal" in2="BackgroundImageFix" result="effect1_dropShadow"/><feBlend mode="normal" in="SourceGraphic" in2="effect1_dropShadow" result="shape"/></filter><linearGradient x1="1" y1="0.5" x2="0" y2="0.5" id="master_svg5_182_20186"><stop offset="0%" stop-color="#39A288" stop-opacity="1"/><stop offset="100%" stop-color="#CCE0E0" stop-opacity="1"/></linearGradient><linearGradient x1="1" y1="0.5" x2="0" y2="0.5" id="master_svg6_182_20186"><stop offset="0%" stop-color="#39A288" stop-opacity="1"/><stop offset="100%" stop-color="#CCE0E0" stop-opacity="1"/></linearGradient><mask id="master_svg7_182_24036"><g><path d="M31.97053570318222,52.11531504554748L15.21796670318222,39.98173804554749C15.072462503182221,39.876763045547484,14.99066762318222,39.683257045547485,15.000892583182221,39.416115045547485L31.75343570318222,51.54961504554748C31.743235703182222,51.816815045547486,31.82583570318222,52.01341504554749,31.97053570318222,52.11531504554748Z" fill="#FFFFFF" fill-opacity="1"/></g></mask><linearGradient x1="1" y1="0.5" x2="0" y2="0.5" id="master_svg8_182_20186"><stop offset="0%" stop-color="#39A288" stop-opacity="1"/><stop offset="100%" stop-color="#CCE0E0" stop-opacity="1"/></linearGradient><linearGradient x1="0" y1="0.5" x2="1" y2="0.5" id="master_svg9_182_20346"><stop offset="0%" stop-color="#AAEBD7" stop-opacity="1"/><stop offset="100%" stop-color="#36A888" stop-opacity="1"/></linearGradient><linearGradient x1="0.8834813237190247" y1="0.11368902772665024" x2="0.5884039998054504" y2="0.6552233695983887" id="master_svga_182_21096"><stop offset="0%" stop-color="#39A288" stop-opacity="1"/><stop offset="40.85715115070343%" stop-color="#CBEBE3" stop-opacity="1"/><stop offset="100%" stop-color="#39A288" stop-opacity="1"/></linearGradient><linearGradient x1="0" y1="0.5" x2="1" y2="0.5" id="master_svgb_182_20346"><stop offset="0%" stop-color="#AAEBD7" stop-opacity="1"/><stop offset="100%" stop-color="#36A888" stop-opacity="1"/></linearGradient></defs><g><g filter="url(#master_svg0_199_16743)"><rect x="3.3538818359375" y="0.5" width="213" height="64" rx="0" fill="url(#master_svg1_142_53170)" fill-opacity="1"/></g><g><g><path d="M5.3538818359375,12.5L10.8538818359375,7L15.3538818359375,2.5L5.3538818359375,2.5L5.3538818359375,12.5Z" fill="url(#master_svg2_182_20154)" fill-opacity="1"/></g><g><path d="M2.8538818359375,0L2.8538818359375,6.5L3.8538818359375,6.5L3.8538818359375,1L9.3538818359375,1L9.3538818359375,0L2.8538818359375,0Z" fill-rule="evenodd" fill="#39A288" fill-opacity="1"/></g></g><g transform="matrix(-1,0,0,-1,432.707763671875,129)"><g><path d="M218.3538818359375,76.5L223.8538818359375,71L228.3538818359375,66.5L218.3538818359375,66.5L218.3538818359375,76.5Z" fill="url(#master_svg3_182_20154)" fill-opacity="1"/></g><g><path d="M215.8538818359375,64L215.8538818359375,70.5L216.8538818359375,70.5L216.8538818359375,65L222.3538818359375,65L222.3538818359375,64L215.8538818359375,64Z" fill-rule="evenodd" fill="#39A288" fill-opacity="1"/></g></g><g><g filter="url(#master_svg4_182_24028)"><g><g><path d="M39.38649412420273,13.531280542129517L56.13908912420273,25.664861542129515C55.94868912420273,25.526961542129516,55.65068912420273,25.540261542129517,55.31168912420273,25.735361542129517L38.55908912420273,13.601788542129517C38.89807312420273,13.405934842129517,39.19616112420273,13.391049742129516,39.38649412420273,13.531280542129517Z" fill="url(#master_svg5_182_20186)" fill-opacity="1"/></g></g><g><g><path d="M31.97053570318222,52.11531504554748L15.21796670318222,39.98173804554749C15.072462503182221,39.876763045547484,14.99066762318222,39.683257045547485,15.000892583182221,39.416115045547485L31.75343570318222,51.54961504554748C31.743235703182222,51.816815045547486,31.82583570318222,52.01341504554749,31.97053570318222,52.11531504554748Z" fill="url(#master_svg6_182_20186)" fill-opacity="1"/></g><g><g><g mask="url(#master_svg7_182_24036)"><g><path d="M31.97053570318222,52.11531504554748L15.21796670318222,39.98173804554749C15.072462503182221,39.876763045547484,14.99066762318222,39.683257045547485,15.000892583182221,39.416115045547485L31.75343570318222,51.54961504554748C31.74243570318222,51.816815045547486,31.82503570318222,52.010315045547486,31.97053570318222,52.11531504554748Z" fill="url(#master_svg8_182_20186)" fill-opacity="1"/></g></g></g></g></g><g><path d="M31.75422415035367,51.54963326759338L15.00482415035367,39.41613326759338L15.23291015035367,28.111433267593384L31.98232415035367,40.24423326759339L31.75422415035367,51.54963326759338Z" fill="#39A288" fill-opacity="1"/></g><g><path d="M33.115652257061,38.49720529952049L16.367052257061005,26.363605299520493L38.559052257061005,13.601805299520493L55.308552257061,25.734505299520492L33.115652257061,38.49720529952049Z" fill="url(#master_svg9_182_20346)" fill-opacity="1"/></g><g><path d="M31.982363567447663,40.24492290382385L15.229763567447662,28.111422903823854C15.254145067447663,27.494872903823854,15.764588567447662,26.708324903823854,16.36390356744766,26.363622903823853L33.11646356744767,38.49712290382385C32.51636356744766,38.841822903823854,32.00676356744766,39.628422903823854,31.982363567447663,40.24492290382385Z" fill="url(#master_svga_182_21096)" fill-opacity="1"/></g><g><path d="M32.275701948055264,52.170134082412716C32.14985794805527,52.174834082412715,32.02795094805527,52.12703408241272,31.939074948055268,52.038534082412724C31.835256048055268,51.93113408241272,31.781774248055267,51.76273408241272,31.792786478055266,51.553534082412725L32.02087294805527,40.24733408241272C32.04525394805527,39.64173408241272,32.54468594805527,38.872434082412724,33.13534794805527,38.53323408241272L55.32816794805527,25.76903308241272C55.47916794805526,25.67424008241272,55.652167948055265,25.62096608241272,55.83076794805527,25.61234966741272C55.956567948055266,25.60764937241272,56.07926794805527,25.65543658241272,56.16816794805527,25.74396308241272C56.27196794805526,25.85129008241272,56.32546794805526,26.01894208241272,56.31446794805527,26.22889708241272L56.08636794805527,37.53513408241272C56.06196794805527,38.14073408241272,55.56256794805527,38.91003408241272,54.97186794805526,39.24923408241272L32.77906294805527,52.013434082412715C32.62726794805527,52.10823408241272,32.45423594805527,52.161534082412714,32.275701948055264,52.170134082412716Z" fill="url(#master_svgb_182_20346)" fill-opacity="1"/></g><g><path d="M55.82916103277206,25.6514940992218C55.943961032772066,25.6467937992218,56.055661032772065,25.689880999221803,56.137461032772066,25.7705719992218C56.23346103277206,25.870067999221803,56.28066103277206,26.0283169992218,56.27276103277207,26.2280859992218L56.04466103277207,37.5319659992218C56.02106103277207,38.1265659992218,55.53026103277206,38.8810659992218,54.94986103277206,39.214765999221804L32.75940103277206,51.976565999221805C32.61389803277206,52.0674659992218,32.44794203277206,52.119965999221805,32.27648403277207,52.128565999221806C32.16165503277207,52.133265999221805,32.049973032772066,52.0901659992218,31.968176032772064,52.0094659992218C31.872222032772065,51.9099659992218,31.825031032772063,51.7517659992218,31.832896532772065,51.55196599922181L32.060983032772064,40.2480659992218C32.08457903277206,39.6534659992218,32.57536003277207,38.899065999221804,33.15580103277206,38.5652659992218L55.347861032772066,25.8026929992218C55.49256103277206,25.711815999221802,55.65846103277207,25.6601104992218,55.82916103277206,25.6514940992218ZM55.82916103277206,25.5731525702218C55.64356103277206,25.580987199221802,55.464261032772065,25.6373931992218,55.306961032772065,25.7353199992218L33.11569103277206,38.4971659992218C32.51637203277206,38.8418659992218,32.00671403277207,39.6283659992218,31.981547032772063,40.244965999221805L31.753461116772066,51.5503659992218C31.736942732772064,51.9703659992218,31.949300032772065,52.2076659992218,32.27570203277207,52.2076659992218C32.46131603277206,52.1998659992218,32.64063703277206,52.1434659992218,32.797941032772066,52.0455659992218L54.99076103277206,39.2821659992218C55.589261032772065,38.9381659992218,56.099761032772065,38.1508659992218,56.12486103277206,37.534365999221805L56.352961032772065,26.2288709992218C56.369461032772065,25.808960999221803,56.157161032772066,25.571586601221803,55.83076103277206,25.572368390011803L55.82916103277206,25.5731525702218Z" fill="#FFFFFF" fill-opacity="1"/></g><g><path d="M38.42538218938827,38.6311457157135L38.33494218938827,40.8881657157135L32.018512189388275,44.5208557157135L32.06491568938827,42.2630557157135L38.42538218938827,38.6311457157135Z" fill="#B3FFF3" fill-opacity="1"/></g><g><path d="M56.074583008480076,34.166446924209595L56.05648300848007,34.77829392420959L31.98704930848007,48.502946924209596L31.961883008480072,47.8910469242096L56.074583008480076,34.166446924209595Z" fill="#B3FFF3" fill-opacity="1"/></g><g><path d="M52.447202655086514,33.54678832923889C53.31236265508652,33.03677832923889,54.02021265508652,31.92276832923889,54.02021265508652,31.057875329238893C54.02021265508652,30.192984929238893,53.316292655086514,29.90547032923889,52.447202655086514,30.41469032923889C51.57811565508652,30.923910329238893,50.87419265508652,32.038708329238894,50.87419265508652,32.90359832923889C50.87419265508652,33.76848832923889,51.58204765508652,34.05678832923889,52.447202655086514,33.54678832923889Z" fill="#B3FFF3" fill-opacity="1"/></g><g><path d="M47.678621264705654,36.389001006240846C48.54378126470566,35.878991006240845,49.25163126470566,34.764981006240845,49.25163126470566,33.90008800624084C49.25163126470566,33.03519760624084,48.547711264705654,32.74768300624085,47.678621264705654,33.25690300624085C46.80953426470566,33.766123006240846,46.10561126470566,34.88092100624085,46.10561126470566,35.74581100624084C46.10561126470566,36.610701006240845,46.81032226470566,36.899001006240844,47.678621264705654,36.389001006240846Z" fill="#B3FFF3" fill-opacity="1"/></g></g><g><rect x="14.3538818359375" y="11.5" width="42" height="42" rx="0" fill="#FFFFFF" fill-opacity="0.009999999776482582"/></g></g></g></svg>