<svg xmlns="http://www.w3.org/2000/svg" xmlns:xlink="http://www.w3.org/1999/xlink" fill="none" version="1.1" width="216.8538818359375" height="72.5615234375" viewBox="0 0 216.8538818359375 72.5615234375"><defs><filter id="master_svg0_199_16749" filterUnits="objectBoundingBox" color-interpolation-filters="sRGB" x="0" y="0" width="213" height="64"><feFlood flood-opacity="0" result="BackgroundImageFix"/><feBlend mode="normal" in="SourceGraphic" in2="BackgroundImageFix" result="shape"/><feColorMatrix in="SourceAlpha" type="matrix" result="hardAlpha" values="0 0 0 0 0 0 0 0 0 0 0 0 0 0 0 0 0 0 127 0"/><feOffset dy="4" dx="0"/><feGaussianBlur stdDeviation="2"/><feComposite in2="hardAlpha" operator="arithmetic" k2="-1" k3="1"/><feColorMatrix type="matrix" values="0 0 0 0 0.2235294133424759 0 0 0 0 0.6352941393852234 0 0 0 0 0.5333333611488342 0 0 0 0.10000000149011612 0"/><feBlend mode="normal" in2="shape" result="effect1_innerShadow"/></filter><linearGradient x1="0.5" y1="0" x2="0.5" y2="1" id="master_svg1_142_53170"><stop offset="0%" stop-color="#F7FCFB" stop-opacity="1"/><stop offset="97.99996614456177%" stop-color="#EAF7F4" stop-opacity="1"/></linearGradient><linearGradient x1="0.5" y1="0.5" x2="0" y2="0" id="master_svg2_182_20154"><stop offset="1.571393758058548%" stop-color="#FFFFFF" stop-opacity="0"/><stop offset="100%" stop-color="#39A288" stop-opacity="1"/></linearGradient><linearGradient x1="0.5" y1="0.5" x2="0" y2="0" id="master_svg3_182_20154"><stop offset="1.571393758058548%" stop-color="#FFFFFF" stop-opacity="0"/><stop offset="100%" stop-color="#39A288" stop-opacity="1"/></linearGradient><filter id="master_svg4_182_24085" filterUnits="objectBoundingBox" color-interpolation-filters="sRGB" x="-20" y="-14" width="80.70769500732422" height="77.47692489624023"><feFlood flood-opacity="0" result="BackgroundImageFix"/><feColorMatrix in="SourceAlpha" type="matrix" values="0 0 0 0 0 0 0 0 0 0 0 0 0 0 0 0 0 0 127 0"/><feOffset dy="6" dx="0"/><feGaussianBlur stdDeviation="5"/><feColorMatrix type="matrix" values="0 0 0 0 0.21176470816135406 0 0 0 0 0.658823549747467 0 0 0 0 0.5333333611488342 0 0 0 0.46000000834465027 0"/><feBlend mode="normal" in2="BackgroundImageFix" result="effect1_dropShadow"/><feBlend mode="normal" in="SourceGraphic" in2="effect1_dropShadow" result="shape"/></filter><linearGradient x1="1" y1="0.5" x2="0" y2="0.5" id="master_svg5_182_20762"><stop offset="0%" stop-color="#39A288" stop-opacity="1"/><stop offset="40.85715115070343%" stop-color="#CBEBE3" stop-opacity="1"/><stop offset="100%" stop-color="#39A288" stop-opacity="1"/></linearGradient><linearGradient x1="0" y1="0.5" x2="1" y2="0.5" id="master_svg6_182_20346"><stop offset="0%" stop-color="#AAEBD7" stop-opacity="1"/><stop offset="100%" stop-color="#36A888" stop-opacity="1"/></linearGradient></defs><g><g filter="url(#master_svg0_199_16749)"><rect x="3.3538818359375" y="0.5" width="213" height="64" rx="0" fill="url(#master_svg1_142_53170)" fill-opacity="1"/></g><g><g><path d="M5.3538818359375,12.5L10.8538818359375,7L15.3538818359375,2.5L5.3538818359375,2.5L5.3538818359375,12.5Z" fill="url(#master_svg2_182_20154)" fill-opacity="1"/></g><g><path d="M2.8538818359375,0L2.8538818359375,6.5L3.8538818359375,6.5L3.8538818359375,1L9.3538818359375,1L9.3538818359375,0L2.8538818359375,0Z" fill-rule="evenodd" fill="#39A288" fill-opacity="1"/></g></g><g transform="matrix(-1,0,0,-1,432.707763671875,129)"><g><path d="M218.3538818359375,76.5L223.8538818359375,71L228.3538818359375,66.5L218.3538818359375,66.5L218.3538818359375,76.5Z" fill="url(#master_svg3_182_20154)" fill-opacity="1"/></g><g><path d="M215.8538818359375,64L215.8538818359375,70.5L216.8538818359375,70.5L216.8538818359375,65L222.3538818359375,65L222.3538818359375,64L215.8538818359375,64Z" fill-rule="evenodd" fill="#39A288" fill-opacity="1"/></g></g><g><g><rect x="14.3538818359375" y="11.5" width="42" height="42" rx="0" fill="#FFFFFF" fill-opacity="0.009999999776482582"/></g><g filter="url(#master_svg4_182_24085)"><g><path d="M33.48983570318222,22.24183609196472C34.51883570318222,21.488022091964723,36.318235703182225,21.58258309196472,37.506135703182224,22.453260091964722L51.006135703182224,32.34516809196472L51.006135703182224,31.857668091964722L55.70773570318222,28.325918091964724L55.62753570318222,36.23836809196472C55.83643570318222,36.88696809196472,55.63913570318222,37.55446809196472,55.01313570318222,38.013068091964726L37.21793570318222,51.05266809196472C36.188935703182224,51.80646809196472,34.38953570318222,51.71196809196472,33.20163570318222,50.84126809196472L15.98283770318222,38.224468091964724C15.21931470318222,37.66536809196472,14.893118703182221,36.920568091964725,15.03075370318222,36.259568091964724L15.00003570318222,36.25266809196472L15.00003570318222,27.852108091964723L20.45559570318222,29.478438091964723L20.45559570318222,31.79286809196472L33.48983570318222,22.24183609196472Z" fill-rule="evenodd" fill="url(#master_svg5_182_20762)" fill-opacity="1"/></g><g><path d="M37.509135703182224,14.750118468978881C36.32093570318222,13.946476468978881,34.521135703182225,13.859373468978882,33.49283570318222,14.555370468978882L15.69739270318222,26.591915468978883C14.66842270318222,27.287115468978882,14.79748270318222,28.50491546897888,15.98567170318222,29.308515468978882L33.203935703182225,40.95481546897888C34.39213570318222,41.75841546897888,36.191935703182224,41.84551546897888,37.22083570318222,41.14951546897888L55.01633570318222,29.11301546897888C56.04463570318222,28.41701546897888,55.91553570318222,27.200015468978883,54.72743570318222,26.396315468978884L37.509135703182224,14.750118468978881ZM37.36253570318222,15.641685468978881C36.255035703182216,14.892276468978881,34.57793570318222,14.810925468978882,33.61913570318222,15.460085468978882L17.03428570318222,26.677415468978882C16.07545570318222,27.32571546897888,16.19609570318222,28.460515468978883,17.30362570318222,29.20911546897888L33.35053570318222,40.06321546897888C34.45803570318222,40.81181546897888,36.13513570318222,40.89311546897888,37.093935703182225,40.244815468978885L53.67873570318222,29.027515468978883C54.63763570318222,28.379215468978884,54.51693570318222,27.244415468978882,53.41013570318222,26.495815468978883L37.36253570318222,15.641685468978881Z" fill="#39A288" fill-opacity="1"/></g><g><path d="M15.00003570318222,32.908764880599975L15.00003570318222,31.675824880599976L32.962235703182216,44.270424880599975C34.29193570318222,45.20242488059998,36.306235703182224,45.303824880599976,37.45843570318222,44.496424880599974L55.70773570318222,31.700552780599974L55.69153570318222,32.945434880599976L37.61003570318222,45.622724880599975C36.374335703182226,46.48902488059998,34.212635703182215,46.380824880599974,32.78603570318222,45.37972488059998L15.00003570318222,32.908764880599975Z" fill="#39A288" fill-opacity="1"/></g><g><path d="M37.36964343767166,15.477644588226319C36.25674343767166,14.718198588226318,34.571543437671664,14.635758588226318,33.60804343767166,15.293612588226319L16.94259043767166,26.66115058822632C15.979103437671661,27.318150588226317,16.10033243767166,28.46815058822632,17.21324043767166,29.226750588226317L33.33804343767166,40.22625058822632C34.45094343767166,40.98485058822632,36.136243437671666,41.06735058822632,37.09964343767166,40.41035058822632L53.76514343767166,29.04275058822632C54.728643437671664,28.38575058822632,54.60734343767166,27.235750588226317,53.495143437671665,26.47715058822632L37.36964343767166,15.477644588226319Z" fill="url(#master_svg6_182_20346)" fill-opacity="1"/></g><g><path d="M38.705997245311735,43.37418904624939C38.971397245311735,43.20492904624939,39.18699724531174,43.34254904624939,39.18699724531174,43.68184904624939C39.18699724531174,44.02192904624939,38.97149724531174,44.43562904624939,38.705997245311735,44.60562904624939C38.44049724531173,44.77492904624939,38.22499724531174,44.63722904624939,38.22499724531174,44.29792904624939C38.22499724531174,43.95787904624939,38.44049724531173,43.54422904624939,38.705997245311735,43.37418904624939ZM41.13649724531174,41.81925904624939C41.40199724531173,41.64921904624939,41.61749724531174,41.78762904624939,41.61749724531174,42.12692904624939C41.61749724531174,42.46621904624939,41.40199724531173,42.87986904624939,41.13649724531174,43.04990904624939C40.87099724531174,43.219959046249386,40.655497245311736,43.08233904624939,40.655497245311736,42.74224904624939C40.655497245311736,42.40294904624939,40.87099724531174,41.98930904624939,41.13649724531174,41.81925904624939ZM43.56699724531174,40.26433904624939C43.83169724531174,40.09429904624939,44.047197245311736,40.23190904624939,44.047197245311736,40.57199904624939C44.047197245311736,40.91129904624939,43.83169724531174,41.32494904624939,43.56699724531174,41.49498904624939C43.30149724531174,41.66503904624939,43.08599724531174,41.52662904624939,43.08599724531174,41.18732904624939C43.08599724531174,40.84723904624939,43.30149724531174,40.43359904624939,43.56699724531174,40.26433904624939ZM45.99679724531174,38.70862904624939C46.26219724531174,38.53857904624939,46.477797245311734,38.67698904624939,46.477797245311734,39.01628904624939C46.477797245311734,39.35637904624939,46.26219724531174,39.77001904624939,45.99679724531174,39.93927904624939C45.73199724531174,40.10931904624939,45.51649724531174,39.97170904624939,45.51649724531174,39.63161904624939C45.51649724531174,39.29231904624939,45.73199724531174,38.87866904624939,45.99679724531174,38.70862904624939ZM48.427297245311735,37.15370904624939C48.69279724531174,36.983659046249386,48.908297245311736,37.12127904624939,48.908297245311736,37.46136904624939C48.908297245311736,37.80066904624939,48.69279724531174,38.21430904624939,48.427297245311735,38.384359046249386C48.16179724531173,38.55439904624939,47.94629724531174,38.41598904624939,47.94629724531174,38.07668904624939C47.94629724531174,37.73739904624939,48.16179724531173,37.32374904624939,48.427297245311735,37.15370904624939ZM50.85779724531174,35.59798904624939C51.12329724531174,35.42873904624939,51.33879724531174,35.56635904624939,51.33879724531174,35.90564904624939C51.33879724531174,36.24574904624939,51.12329724531174,36.65938904624939,50.85779724531174,36.82942904624939C50.592297245311734,36.99868904624939,50.376797245311735,36.86106904624939,50.376797245311735,36.52176904624939C50.376797245311735,36.18167904624939,50.592297245311734,35.76803904624939,50.85779724531174,35.59798904624939ZM53.28829724531174,34.04306874624939C53.553797245311735,33.87302444624939,53.76929724531174,34.01143324624939,53.76929724531174,34.350731046249386C53.76929724531174,34.69082204624939,53.553797245311735,35.10446904624939,53.28829724531174,35.27371904624939C53.022797245311736,35.44375904624939,52.80729724531174,35.30614904624939,52.80729724531174,34.96605604624939C52.80729724531174,34.62675604624939,53.022797245311736,34.21311304624939,53.28829724531174,34.04306874624939ZM31.67419724531174,43.22153904624939C31.920397245311737,43.37971904624939,32.12089724531174,43.76409904624939,32.12089724531174,44.07962904624939C32.12089724531174,44.39602904624939,31.920397245311737,44.52412904624939,31.67419724531174,44.36602904624939C31.427297245311735,44.20782904624939,31.226797245311737,43.82341904624939,31.226797245311737,43.50784904624939C31.226797245311737,43.19148904624939,31.427297245311735,43.06335904624939,31.67419724531174,43.22153904624939ZM29.292297245311737,41.69746904624939C29.539197245311737,41.85564904624939,29.73969724531174,42.24002904624939,29.73969724531174,42.55638904624939C29.73969724531174,42.87195904624939,29.539197245311737,43.000089046249386,29.292297245311737,42.84190904624939C29.046097245311735,42.68451904624939,28.845497245311737,42.299339046249386,28.845497245311737,41.98376904624939C28.845497245311737,41.66819904624939,29.046097245311735,41.53927904624939,29.292297245311737,41.69746904624939ZM26.910987245311738,40.17338904624939C27.157897245311737,40.33156904624939,27.358397245311735,40.71673904624939,27.358397245311735,41.03230904624939C27.358397245311735,41.34787904624939,27.157897245311737,41.47600904624939,26.910987245311738,41.31861904624939C26.664077245311738,41.16043904624939,26.46426724531174,40.77605904624939,26.46426724531174,40.45968904624939C26.46426724531174,40.144119046249386,26.664077245311738,40.01598904624939,26.910987245311738,40.17338904624939ZM24.529717245311737,38.65009904624939C24.776617245311737,38.80748904624939,24.977137245311738,39.19265904624939,24.977137245311738,39.50822904624939C24.977137245311738,39.82459904624939,24.776617245311737,39.95271904624939,24.529717245311737,39.79453904624939C24.282817245311737,39.63635904624939,24.082297245311736,39.25197904624939,24.082297245311736,38.93640904624939C24.082297245311736,38.62004904624939,24.282817245311737,38.49191904624939,24.529717245311737,38.65009904624939ZM22.148447245311736,37.12601904624939C22.395357245311736,37.28419904624939,22.595877245311737,37.66858904624939,22.595877245311737,37.98415904624939C22.595877245311737,38.30051904624939,22.395357245311736,38.42864904624939,22.148447245311736,38.27046904624939C21.901547245311736,38.11306904624939,21.701027245311735,37.72789904624939,21.701027245311735,37.41232904624939C21.701027245311735,37.09596904624939,21.901547245311736,36.96783904624939,22.148447245311736,37.12601904624939ZM19.76718724531174,35.60194904624939C20.014087245311735,35.76012904624939,20.21389724531174,36.14450904624939,20.21389724531174,36.46086904624939C20.21389724531174,36.776439046249386,20.014087245311735,36.90456904624939,19.76718724531174,36.74717904624939C19.520287245311735,36.58899904624939,19.319767245311738,36.20460904624939,19.319767245311738,35.88824904624939C19.319767245311738,35.57267904624939,19.520287245311735,35.44454904624939,19.76718724531174,35.60194904624939ZM17.38592124531174,34.07865904624939C17.632111245311737,34.23605004624939,17.832631245311738,34.62122204624939,17.832631245311738,34.93679204624939C17.832631245311738,35.25236904624939,17.632111245311737,35.38127904624939,17.38592124531174,35.22309904624939C17.139017245311738,35.064919046249386,16.938497245311737,34.68053804624939,16.938497245311737,34.36417704624939C16.938497245311737,34.04860484624939,17.139017245311738,33.92047774624939,17.38592124531174,34.07865904624939Z" fill="#B3FFF3" fill-opacity="1"/></g><g><path d="M29.751965432796478,32.93376666145325L31.25475543279648,33.97036666145325L26.940549432796477,33.75676666145325L26.63080543279648,30.78094666145325L28.13360543279648,31.81756666145325L32.01460543279648,29.140346661453247L33.63296543279648,30.256706661453247L29.751965432796478,32.93376666145325ZM40.502705432796475,23.28548666145325L38.99990543279648,22.249063661453246L43.31410543279648,22.462665661453247L43.62380543279647,25.43844666145325L42.12100543279648,24.401856661453248L38.24000543279648,27.078886661453247L36.621665432796476,25.962686661453247L40.502705432796475,23.28548666145325ZM29.99247543279648,22.769396661453246L31.49527543279648,21.732966661453247L27.18106843279648,21.94656866145325L26.871324432796477,24.922346661453247L28.37412543279648,23.885756661453247L32.25526543279648,26.562786661453245L33.87362543279648,25.446586661453246L29.99247543279648,22.769396661453246ZM41.00550543279648,32.59856666145325L39.502705432796475,33.63506666145325L43.816905432796474,33.421466661453245L44.12670543279648,30.445726661453246L42.62390543279648,31.482316661453247L38.742905432796476,28.80528666145325L37.12450543279648,29.921486661453248L41.00550543279648,32.59856666145325Z" fill="#B3FFF3" fill-opacity="1"/></g></g></g></g></svg>