<svg xmlns="http://www.w3.org/2000/svg" xmlns:xlink="http://www.w3.org/1999/xlink" fill="none" version="1.1" width="214" height="69.97705078125" viewBox="0 0 214 69.97705078125"><defs><filter id="master_svg0_199_16753" filterUnits="objectBoundingBox" color-interpolation-filters="sRGB" x="0" y="0" width="213" height="64"><feFlood flood-opacity="0" result="BackgroundImageFix"/><feBlend mode="normal" in="SourceGraphic" in2="BackgroundImageFix" result="shape"/><feColorMatrix in="SourceAlpha" type="matrix" result="hardAlpha" values="0 0 0 0 0 0 0 0 0 0 0 0 0 0 0 0 0 0 127 0"/><feOffset dy="4" dx="0"/><feGaussianBlur stdDeviation="2"/><feComposite in2="hardAlpha" operator="arithmetic" k2="-1" k3="1"/><feColorMatrix type="matrix" values="0 0 0 0 0.2235294133424759 0 0 0 0 0.6352941393852234 0 0 0 0 0.5333333611488342 0 0 0 0.10000000149011612 0"/><feBlend mode="normal" in2="shape" result="effect1_innerShadow"/></filter><linearGradient x1="0.5" y1="0" x2="0.5" y2="1" id="master_svg1_142_53170"><stop offset="0%" stop-color="#F7FCFB" stop-opacity="1"/><stop offset="97.99996614456177%" stop-color="#EAF7F4" stop-opacity="1"/></linearGradient><linearGradient x1="0.5" y1="0.5" x2="0" y2="0" id="master_svg2_182_20154"><stop offset="1.571393758058548%" stop-color="#FFFFFF" stop-opacity="0"/><stop offset="100%" stop-color="#39A288" stop-opacity="1"/></linearGradient><linearGradient x1="0.5" y1="0.5" x2="0" y2="0" id="master_svg3_182_20154"><stop offset="1.571393758058548%" stop-color="#FFFFFF" stop-opacity="0"/><stop offset="100%" stop-color="#39A288" stop-opacity="1"/></linearGradient><filter id="master_svg4_182_24132" filterUnits="objectBoundingBox" color-interpolation-filters="sRGB" x="-20" y="-14" width="74.24615478515625" height="49.77886199951172"><feFlood flood-opacity="0" result="BackgroundImageFix"/><feColorMatrix in="SourceAlpha" type="matrix" values="0 0 0 0 0 0 0 0 0 0 0 0 0 0 0 0 0 0 127 0"/><feOffset dy="6" dx="0"/><feGaussianBlur stdDeviation="5"/><feColorMatrix type="matrix" values="0 0 0 0 0.21176470816135406 0 0 0 0 0.658823549747467 0 0 0 0 0.5333333611488342 0 0 0 0.46000000834465027 0"/><feBlend mode="normal" in2="BackgroundImageFix" result="effect1_dropShadow"/><feBlend mode="normal" in="SourceGraphic" in2="effect1_dropShadow" result="shape"/></filter><linearGradient x1="1" y1="0.5" x2="0" y2="0.5" id="master_svg5_182_20762"><stop offset="0%" stop-color="#39A288" stop-opacity="1"/><stop offset="40.85715115070343%" stop-color="#CBEBE3" stop-opacity="1"/><stop offset="100%" stop-color="#39A288" stop-opacity="1"/></linearGradient><linearGradient x1="0" y1="0.5" x2="1" y2="0.5" id="master_svg6_182_20346"><stop offset="0%" stop-color="#AAEBD7" stop-opacity="1"/><stop offset="100%" stop-color="#36A888" stop-opacity="1"/></linearGradient><linearGradient x1="1" y1="0.5" x2="0" y2="0.5" id="master_svg7_182_20762"><stop offset="0%" stop-color="#39A288" stop-opacity="1"/><stop offset="40.85715115070343%" stop-color="#CBEBE3" stop-opacity="1"/><stop offset="100%" stop-color="#39A288" stop-opacity="1"/></linearGradient><linearGradient x1="0.5" y1="0" x2="0.5" y2="1" id="master_svg8_142_34330"><stop offset="0%" stop-color="#465157" stop-opacity="1"/><stop offset="100%" stop-color="#B2C4CD" stop-opacity="1"/></linearGradient><linearGradient x1="1" y1="0.5" x2="0" y2="0.5" id="master_svg9_182_20186"><stop offset="0%" stop-color="#39A288" stop-opacity="1"/><stop offset="100%" stop-color="#CCE0E0" stop-opacity="1"/></linearGradient><linearGradient x1="1" y1="0.5" x2="0" y2="0.5" id="master_svga_182_20762"><stop offset="0%" stop-color="#39A288" stop-opacity="1"/><stop offset="40.85715115070343%" stop-color="#CBEBE3" stop-opacity="1"/><stop offset="100%" stop-color="#39A288" stop-opacity="1"/></linearGradient><linearGradient x1="1" y1="0.5" x2="0" y2="0.5" id="master_svgb_142_34332"><stop offset="0%" stop-color="#8599A4" stop-opacity="1"/><stop offset="58.5393488407135%" stop-color="#CAD6DC" stop-opacity="1"/><stop offset="100%" stop-color="#BBC9D1" stop-opacity="1"/></linearGradient><linearGradient x1="1" y1="0.5" x2="0" y2="0.5" id="master_svgc_182_20186"><stop offset="0%" stop-color="#39A288" stop-opacity="1"/><stop offset="100%" stop-color="#CCE0E0" stop-opacity="1"/></linearGradient></defs><g><g filter="url(#master_svg0_199_16753)"><rect x="0.5" y="0.5" width="213" height="64" rx="0" fill="url(#master_svg1_142_53170)" fill-opacity="1"/></g><g><g><path d="M2.5,12.5L8,7L12.5,2.5L2.5,2.5L2.5,12.5Z" fill="url(#master_svg2_182_20154)" fill-opacity="1"/></g><g><path d="M0,0L0,6.5L1,6.5L1,1L6.5,1L6.5,0L0,0Z" fill-rule="evenodd" fill="#39A288" fill-opacity="1"/></g></g><g transform="matrix(-1,0,0,-1,427,129)"><g><path d="M215.5,76.5L221,71L225.5,66.5L215.5,66.5L215.5,76.5Z" fill="url(#master_svg3_182_20154)" fill-opacity="1"/></g><g><path d="M213,64L213,70.5L214,70.5L214,65L219.5,65L219.5,64L213,64Z" fill-rule="evenodd" fill="#39A288" fill-opacity="1"/></g></g><g><g><rect x="11.5" y="11.5" width="42" height="42" rx="0" fill="#FFFFFF" fill-opacity="0.009999999776482582"/></g><g><g><g filter="url(#master_svg4_182_24132)"><path d="M32.500023084259034,48.976923373565675L34.08112308425903,48.958293373565674L35.597423084259034,48.90599337356567L37.051823084259034,48.82184337356567L38.15062308425904,48.734693373565676L39.197623084259035,48.63191337356567L40.19442308425903,48.51470337356567L41.142423084259036,48.383663373565675L42.10712308425903,48.22859337356567L43.00332308425904,48.06329337356567L43.83622308425903,47.888383373565674L44.60782308425903,47.70385337356567L45.39552308425903,47.49047337356568L46.10012308425903,47.27168337356567L46.72742308425903,47.04988337356568L47.28562308425903,46.82448337356568L47.743223084259036,46.61290337356567L48.13882308425903,46.40313337356567L48.47912308425904,46.19575337356567L48.768423084259034,45.990193373565674L49.01172308425903,45.78582337356568L49.23982308425904,45.55020337356567L49.41032308425903,45.318793373565676L49.527623084259034,45.09038337356567L49.598323084259036,44.86137337356568L49.623123084259035,44.63056337356567L49.623123084259035,39.198063373565674L47.02332308425903,39.469749373565676L44.56562308425903,39.69815637356567L42.24412308425903,39.88569137356567L40.05452308425903,40.03475637356567L37.99032308425903,40.14715637356567L36.04632308425903,40.22469337356567L34.218123084259034,40.26977337356568L32.500023084259034,40.284203373565674L30.966223084259035,40.267973373565674L29.175923084259033,40.21507337356567L27.102223084259034,40.11950937356568L24.715923084259032,39.97645437356567L21.987893084259035,39.779300373565675L18.885333084259035,39.522042373565675L15.376923084259033,39.198063373565674L15.376923084259033,44.63056337356567L15.401696584259033,44.86137337356568L15.472374984259034,45.09038337356567L15.589686084259034,45.318793373565676L15.760188084259033,45.55020337356567L15.988253084259034,45.78582337356568L16.231619084259034,45.990193373565674L16.520893084259033,46.19575337356567L16.861163084259033,46.40313337356567L17.256813084259033,46.61290337356567L17.714403084259033,46.82448337356568L18.272543084259034,47.04988337356568L18.899903084259034,47.27168337356567L19.604503084259033,47.49047337356568L20.392163084259032,47.70385337356567L21.163793084259034,47.888383373565674L21.996633084259035,48.06329337356567L22.892863084259034,48.22859337356567L23.857583084259034,48.383663373565675L24.805543084259035,48.51470337356567L25.802323084259033,48.63191337356567L26.849423084259033,48.734693373565676L27.948223084259034,48.82184337356567L29.402523084259034,48.90599337356567L30.91882308425903,48.958293373565674L32.500023084259034,48.976923373565675Z" fill-rule="evenodd" fill="url(#master_svg5_182_20762)" fill-opacity="1"/></g><g><g><g><path d="M49.623123084259035,39.19806221328735L49.598323084259036,39.42888221328735L49.527623084259034,39.65728221328735L49.41032308425903,39.886292213287355L49.23982308425904,40.11770221328735L49.01172308425903,40.35333221328735L48.768423084259034,40.557092213287355L48.47912308425904,40.762662213287356L48.13882308425903,40.97063221328735L47.743223084259036,41.18040221328735L47.28562308425903,41.39138221328735L46.72742308425903,41.61678221328735L46.10012308425903,41.83918221328735L45.39552308425903,42.05737221328735L44.60782308425903,42.27135221328735L43.83622308425903,42.455282213287354L43.00332308425904,42.63079221328735L42.10712308425903,42.79609221328735L41.142423084259036,42.950562213287355L40.19442308425903,43.08159221328735L39.197623084259035,43.19880221328735L38.15062308425904,43.30159221328735L37.051823084259034,43.388752213287354L35.597423084259034,43.473502213287354L34.08112308425903,43.52579221328735L32.500023084259034,43.544422213287355L30.91882308425903,43.52579221328735L29.402523084259034,43.473502213287354L27.948223084259034,43.388752213287354L26.849423084259033,43.30159221328735L25.802323084259033,43.19880221328735L24.805543084259035,43.08159221328735L23.857583084259034,42.950562213287355L22.892863084259034,42.79609221328735L21.996633084259035,42.63079221328735L21.163793084259034,42.455282213287354L20.392163084259032,42.27135221328735L19.604503084259033,42.05737221328735L18.899903084259034,41.83918221328735L18.272543084259034,41.61678221328735L17.714403084259033,41.39138221328735L17.256813084259033,41.18040221328735L16.861163084259033,40.97063221328735L16.520893084259033,40.762662213287356L16.231619084259034,40.557092213287355L15.988253084259034,40.35333221328735L15.760188084259033,40.11770221328735L15.589686084259034,39.886292213287355L15.472374984259034,39.65728221328735L15.401696584259033,39.42888221328735L15.376923084259033,39.19806221328735L15.401696584259033,38.96725221328735L15.472374984259034,38.73824221328735L15.589686084259034,38.50983221328735L15.760188084259033,38.27842221328736L15.988253084259034,38.04280221328735L16.231619084259034,37.838432213287355L16.520893084259033,37.63287221328736L16.861163084259033,37.42550221328735L17.256813084259033,37.21572221328735L17.714403084259033,37.00414221328735L18.272543084259034,36.77874221328735L18.899903084259034,36.55694221328736L19.604503084259033,36.33815221328735L20.392163084259032,36.12477221328735L21.163793084259034,35.940242213287355L21.996633084259035,35.76533421328735L22.892863084259034,35.60003921328735L23.857583084259034,35.44496121328736L24.805543084259035,35.31392721328735L25.802323084259033,35.19671721328735L26.849423084259033,35.09393621328736L27.948223084259034,35.00678021328736L29.402523084259034,34.922628413287356L30.91882308425903,34.870335313287356L32.500023084259034,34.85170221328735L34.08112308425903,34.870335313287356L35.597423084259034,34.922628413287356L37.051823084259034,35.00678021328736L38.15062308425904,35.09393621328736L39.197623084259035,35.19671721328735L40.19442308425903,35.31392721328735L41.142423084259036,35.44496121328736L42.10712308425903,35.60003921328735L43.00332308425904,35.76533421328735L43.83622308425903,35.940242213287355L44.60782308425903,36.12477221328735L45.39552308425903,36.33815221328735L46.10012308425903,36.55694221328736L46.72742308425903,36.77874221328735L47.28562308425903,37.00414221328735L47.743223084259036,37.21572221328735L48.13882308425903,37.42550221328735L48.47912308425904,37.63287221328736L48.768423084259034,37.838432213287355L49.01172308425903,38.04280221328735L49.23982308425904,38.27842221328736L49.41032308425903,38.50983221328735L49.527623084259034,38.73824221328735L49.598323084259036,38.96725221328735L49.623123084259035,39.19806221328735Z" fill-rule="evenodd" fill="#E7EEF1" fill-opacity="1"/></g></g><g><path d="M49.623123084259035,39.19806221328735L49.598323084259036,39.42888221328735L49.527623084259034,39.65728221328735L49.41032308425903,39.886292213287355L49.23982308425904,40.11770221328735L49.01172308425903,40.35333221328735L48.768423084259034,40.557092213287355L48.47912308425904,40.762662213287356L48.13882308425903,40.97063221328735L47.743223084259036,41.18040221328735L47.28562308425903,41.39138221328735L46.72742308425903,41.61678221328735L46.10012308425903,41.83918221328735L45.39552308425903,42.05737221328735L44.60782308425903,42.27135221328735L43.83622308425903,42.455282213287354L43.00332308425904,42.63079221328735L42.10712308425903,42.79609221328735L41.142423084259036,42.950562213287355L40.19442308425903,43.08159221328735L39.197623084259035,43.19880221328735L38.15062308425904,43.30159221328735L37.051823084259034,43.388752213287354L35.597423084259034,43.473502213287354L34.08112308425903,43.52579221328735L32.500023084259034,43.544422213287355L30.91882308425903,43.52579221328735L29.402523084259034,43.473502213287354L27.948223084259034,43.388752213287354L26.849423084259033,43.30159221328735L25.802323084259033,43.19880221328735L24.805543084259035,43.08159221328735L23.857583084259034,42.950562213287355L22.892863084259034,42.79609221328735L21.996633084259035,42.63079221328735L21.163793084259034,42.455282213287354L20.392163084259032,42.27135221328735L19.604503084259033,42.05737221328735L18.899903084259034,41.83918221328735L18.272543084259034,41.61678221328735L17.714403084259033,41.39138221328735L17.256813084259033,41.18040221328735L16.861163084259033,40.97063221328735L16.520893084259033,40.762662213287356L16.231619084259034,40.557092213287355L15.988253084259034,40.35333221328735L15.760188084259033,40.11770221328735L15.589686084259034,39.886292213287355L15.472374984259034,39.65728221328735L15.401696584259033,39.42888221328735L15.376923084259033,39.19806221328735L15.401696584259033,38.96725221328735L15.472374984259034,38.73824221328735L15.589686084259034,38.50983221328735L15.760188084259033,38.27842221328736L15.988253084259034,38.04280221328735L16.231619084259034,37.838432213287355L16.520893084259033,37.63287221328736L16.861163084259033,37.42550221328735L17.256813084259033,37.21572221328735L17.714403084259033,37.00414221328735L18.272543084259034,36.77874221328735L18.899903084259034,36.55694221328736L19.604503084259033,36.33815221328735L20.392163084259032,36.12477221328735L21.163793084259034,35.940242213287355L21.996633084259035,35.76533421328735L22.892863084259034,35.60003921328735L23.857583084259034,35.44496121328736L24.805543084259035,35.31392721328735L25.802323084259033,35.19671721328735L26.849423084259033,35.09393621328736L27.948223084259034,35.00678021328736L29.402523084259034,34.922628413287356L30.91882308425903,34.870335313287356L32.500023084259034,34.85170221328735L34.08112308425903,34.870335313287356L35.597423084259034,34.922628413287356L37.051823084259034,35.00678021328736L38.15062308425904,35.09393621328736L39.197623084259035,35.19671721328735L40.19442308425903,35.31392721328735L41.142423084259036,35.44496121328736L42.10712308425903,35.60003921328735L43.00332308425904,35.76533421328735L43.83622308425903,35.940242213287355L44.60782308425903,36.12477221328735L45.39552308425903,36.33815221328735L46.10012308425903,36.55694221328736L46.72742308425903,36.77874221328735L47.28562308425903,37.00414221328735L47.743223084259036,37.21572221328735L48.13882308425903,37.42550221328735L48.47912308425904,37.63287221328736L48.768423084259034,37.838432213287355L49.01172308425903,38.04280221328735L49.23982308425904,38.27842221328736L49.41032308425903,38.50983221328735L49.527623084259034,38.73824221328735L49.598323084259036,38.96725221328735L49.623123084259035,39.19806221328735Z" fill-rule="evenodd" fill="#39A288" fill-opacity="1"/></g></g><g><g><path d="M47.56829331550598,39.19806389915466L47.54719331550598,39.36877389915466L47.48669331550598,39.53827389915466L47.38399331550598,39.70957389915466L47.23459331550598,39.88448389915466L47.029793315505984,40.06420389915466L46.75949331550598,40.253543899154664L46.42289331550598,40.44649389915466L46.01049331550598,40.64304389915466L45.511393315505984,40.84320389915466L45.02239331550598,41.01150389915466L44.47089331550598,41.17800389915466L43.85009331550598,41.34209389915466L43.15489331550598,41.502583899154665L42.23899331550598,41.68530389915466L41.22479331550598,41.85601389915466L40.105593315505985,42.01228389915466L38.984193315505976,42.14152389915466L37.78559331550598,42.25151389915466L36.50609331550598,42.341073899154665L35.22659331550598,42.404783899154666L33.89169331550598,42.44385389915466L32.49999331550598,42.45768389915466L31.108293315505982,42.44385389915466L29.77339331550598,42.404783899154666L28.493893315505982,42.341073899154665L27.214433315505982,42.25151389915466L26.015823315505983,42.14152389915466L24.89444331550598,42.01228389915466L23.775243315505982,41.85601389915466L22.760973315505982,41.68530389915466L21.84507331550598,41.502583899154665L21.149953315505982,41.34209389915466L20.52914331550598,41.17800389915466L19.977563315505982,41.01150389915466L19.488643315505982,40.84320389915466L18.98952331550598,40.64304389915466L18.577113315505983,40.44649389915466L18.24048331550598,40.253543899154664L17.97015831550598,40.06420389915466L17.76541031550598,39.88448389915466L17.616039315505983,39.70957389915466L17.513300815505982,39.53827389915466L17.45282231550598,39.36877389915466L17.43169331550598,39.19806389915466L17.45282231550598,39.02735389915466L17.513300815505982,38.85785389915466L17.616039315505983,38.68655389915466L17.76541031550598,38.51163389915466L17.97015831550598,38.331313899154665L18.24048331550598,38.141973899154664L18.577113315505983,37.949033899154664L18.98952331550598,37.75248389915466L19.488643315505982,37.55292389915466L19.977563315505982,37.38462389915466L20.52914331550598,37.21752389915466L21.149953315505982,37.05403389915466L21.84507331550598,36.89294889915466L22.760973315505982,36.710219899154666L23.775243315505982,36.54011889915466L24.89444331550598,36.38323589915466L26.015823315505983,36.25460889915466L27.214433315505982,36.14461189915466L28.493893315505982,36.054450899154666L29.77339331550598,35.991338599154666L31.108293315505982,35.952267399154664L32.49999331550598,35.93844389915466L33.89169331550598,35.952267399154664L35.22659331550598,35.991338599154666L36.50609331550598,36.054450899154666L37.78559331550598,36.14461189915466L38.984193315505976,36.25460889915466L40.105593315505985,36.38323589915466L41.22479331550598,36.54011889915466L42.23899331550598,36.710219899154666L43.15489331550598,36.89294889915466L43.85009331550598,37.05403389915466L44.47089331550598,37.21752389915466L45.02239331550598,37.38462389915466L45.511393315505984,37.55292389915466L46.01049331550598,37.75248389915466L46.42289331550598,37.949033899154664L46.75949331550598,38.141973899154664L47.029793315505984,38.331313899154665L47.23459331550598,38.51163389915466L47.38399331550598,38.68655389915466L47.48669331550598,38.85785389915466L47.54719331550598,39.02735389915466L47.56829331550598,39.19806389915466Z" fill-rule="evenodd" fill="url(#master_svg6_182_20346)" fill-opacity="1"/></g></g></g><g><g><path d="M32.500023084259034,39.600177195892336L34.08112308425903,39.581547195892334L35.597423084259034,39.52924719589233L37.051823084259034,39.44509719589233L38.15062308425904,39.357947195892336L39.197623084259035,39.255167195892334L40.19442308425903,39.137957195892334L41.142423084259036,39.006917195892335L42.10712308425903,38.85184719589233L43.00332308425904,38.68654719589233L43.83622308425903,38.511637195892334L44.60782308425903,38.32710719589233L45.39552308425903,38.11372719589234L46.10012308425903,37.89493719589233L46.72742308425903,37.67313719589234L47.28562308425903,37.44773719589234L47.743223084259036,37.23615719589233L48.13882308425903,37.02638719589233L48.47912308425904,36.81900719589233L48.768423084259034,36.613447195892334L49.01172308425903,36.40907719589234L49.23982308425904,36.17345719589233L49.41032308425903,35.942047195892336L49.527623084259034,35.71363719589233L49.598323084259036,35.48462719589234L49.623123084259035,35.25381719589233L49.623123084259035,29.821317195892334L47.02332308425903,30.093003195892333L44.56562308425903,30.321410195892334L42.24412308425903,30.508945195892334L40.05452308425903,30.658010195892334L37.99032308425903,30.770410195892335L36.04632308425903,30.847947195892335L34.218123084259034,30.893027195892333L32.500023084259034,30.907457195892334L30.966223084259035,30.891227195892334L29.175923084259033,30.838327195892333L27.102223084259034,30.742763195892334L24.715923084259032,30.599708195892333L21.987893084259035,30.402554195892336L18.885333084259035,30.145296195892335L15.376923084259033,29.821317195892334L15.376923084259033,35.25381719589233L15.401696584259033,35.48462719589234L15.472374984259034,35.71363719589233L15.589686084259034,35.942047195892336L15.760188084259033,36.17345719589233L15.988253084259034,36.40907719589234L16.231619084259034,36.613447195892334L16.520893084259033,36.81900719589233L16.861163084259033,37.02638719589233L17.256813084259033,37.23615719589233L17.714403084259033,37.44773719589234L18.272543084259034,37.67313719589234L18.899903084259034,37.89493719589233L19.604503084259033,38.11372719589234L20.392163084259032,38.32710719589233L21.163793084259034,38.511637195892334L21.996633084259035,38.68654719589233L22.892863084259034,38.85184719589233L23.857583084259034,39.006917195892335L24.805543084259035,39.137957195892334L25.802323084259033,39.255167195892334L26.849423084259033,39.357947195892336L27.948223084259034,39.44509719589233L29.402523084259034,39.52924719589233L30.91882308425903,39.581547195892334L32.500023084259034,39.600177195892336Z" fill-rule="evenodd" fill="url(#master_svg7_182_20762)" fill-opacity="1"/></g><g><g><g><path d="M49.623123084259035,29.821316035614014L49.598323084259036,30.052126035614013L49.527623084259034,30.280536035614013L49.41032308425903,30.509546035614015L49.23982308425904,30.740956035614012L49.01172308425903,30.976576035614013L48.768423084259034,31.180346035614015L48.47912308425904,31.385906035614013L48.13882308425903,31.593886035614013L47.743223084259036,31.803656035614015L47.28562308425903,32.01463603561401L46.72742308425903,32.24003603561401L46.10012308425903,32.46243603561401L45.39552308425903,32.68062603561401L44.60782308425903,32.89460603561401L43.83622308425903,33.078536035614015L43.00332308425904,33.25404603561401L42.10712308425903,33.41934603561401L41.142423084259036,33.573816035614016L40.19442308425903,33.70484603561401L39.197623084259035,33.82205603561401L38.15062308425904,33.92484603561401L37.051823084259034,34.012006035614014L35.597423084259034,34.096756035614014L34.08112308425903,34.14904603561401L32.500023084259034,34.167676035614015L30.91882308425903,34.14904603561401L29.402523084259034,34.096756035614014L27.948223084259034,34.012006035614014L26.849423084259033,33.92484603561401L25.802323084259033,33.82205603561401L24.805543084259035,33.70484603561401L23.857583084259034,33.573816035614016L22.892863084259034,33.41934603561401L21.996633084259035,33.25404603561401L21.163793084259034,33.078536035614015L20.392163084259032,32.89460603561401L19.604503084259033,32.68062603561401L18.899903084259034,32.46243603561401L18.272543084259034,32.24003603561401L17.714403084259033,32.01463603561401L17.256813084259033,31.803656035614015L16.861163084259033,31.593886035614013L16.520893084259033,31.385906035614013L16.231619084259034,31.180346035614015L15.988253084259034,30.976576035614013L15.760188084259033,30.740956035614012L15.589686084259034,30.509546035614015L15.472374984259034,30.280536035614013L15.401696584259033,30.052126035614013L15.376923084259033,29.821316035614014L15.401696584259033,29.590506035614013L15.472374984259034,29.361496035614014L15.589686084259034,29.133086035614014L15.760188084259033,28.901676035614013L15.988253084259034,28.666056035614012L16.231619084259034,28.461686035614015L16.520893084259033,28.256126035614013L16.861163084259033,28.048756035614012L17.256813084259033,27.838976035614014L17.714403084259033,27.627396035614012L18.272543084259034,27.401996035614015L18.899903084259034,27.180196035614014L19.604503084259033,26.961416035614015L20.392163084259032,26.748026035614014L21.163793084259034,26.563496035614016L21.996633084259035,26.388588035614013L22.892863084259034,26.223293035614013L23.857583084259034,26.068215035614013L24.805543084259035,25.937181035614014L25.802323084259033,25.819971035614014L26.849423084259033,25.717188035614015L27.948223084259034,25.630032035614015L29.402523084259034,25.545882235614013L30.91882308425903,25.493589135614013L32.500023084259034,25.474956035614014L34.08112308425903,25.493589135614013L35.597423084259034,25.545882235614013L37.051823084259034,25.630032035614015L38.15062308425904,25.717188035614015L39.197623084259035,25.819971035614014L40.19442308425903,25.937181035614014L41.142423084259036,26.068215035614013L42.10712308425903,26.223293035614013L43.00332308425904,26.388588035614013L43.83622308425903,26.563496035614016L44.60782308425903,26.748026035614014L45.39552308425903,26.961416035614015L46.10012308425903,27.180196035614014L46.72742308425903,27.401996035614015L47.28562308425903,27.627396035614012L47.743223084259036,27.838976035614014L48.13882308425903,28.048756035614012L48.47912308425904,28.256126035614013L48.768423084259034,28.461686035614015L49.01172308425903,28.666056035614012L49.23982308425904,28.901676035614013L49.41032308425903,29.133086035614014L49.527623084259034,29.361496035614014L49.598323084259036,29.590506035614013L49.623123084259035,29.821316035614014Z" fill-rule="evenodd" fill="#E7EEF1" fill-opacity="1"/></g></g><g><path d="M49.623123084259035,29.821316035614014L49.598323084259036,30.052126035614013L49.527623084259034,30.280536035614013L49.41032308425903,30.509546035614015L49.23982308425904,30.740956035614012L49.01172308425903,30.976576035614013L48.768423084259034,31.180346035614015L48.47912308425904,31.385906035614013L48.13882308425903,31.593886035614013L47.743223084259036,31.803656035614015L47.28562308425903,32.01463603561401L46.72742308425903,32.24003603561401L46.10012308425903,32.46243603561401L45.39552308425903,32.68062603561401L44.60782308425903,32.89460603561401L43.83622308425903,33.078536035614015L43.00332308425904,33.25404603561401L42.10712308425903,33.41934603561401L41.142423084259036,33.573816035614016L40.19442308425903,33.70484603561401L39.197623084259035,33.82205603561401L38.15062308425904,33.92484603561401L37.051823084259034,34.012006035614014L35.597423084259034,34.096756035614014L34.08112308425903,34.14904603561401L32.500023084259034,34.167676035614015L30.91882308425903,34.14904603561401L29.402523084259034,34.096756035614014L27.948223084259034,34.012006035614014L26.849423084259033,33.92484603561401L25.802323084259033,33.82205603561401L24.805543084259035,33.70484603561401L23.857583084259034,33.573816035614016L22.892863084259034,33.41934603561401L21.996633084259035,33.25404603561401L21.163793084259034,33.078536035614015L20.392163084259032,32.89460603561401L19.604503084259033,32.68062603561401L18.899903084259034,32.46243603561401L18.272543084259034,32.24003603561401L17.714403084259033,32.01463603561401L17.256813084259033,31.803656035614015L16.861163084259033,31.593886035614013L16.520893084259033,31.385906035614013L16.231619084259034,31.180346035614015L15.988253084259034,30.976576035614013L15.760188084259033,30.740956035614012L15.589686084259034,30.509546035614015L15.472374984259034,30.280536035614013L15.401696584259033,30.052126035614013L15.376923084259033,29.821316035614014L15.401696584259033,29.590506035614013L15.472374984259034,29.361496035614014L15.589686084259034,29.133086035614014L15.760188084259033,28.901676035614013L15.988253084259034,28.666056035614012L16.231619084259034,28.461686035614015L16.520893084259033,28.256126035614013L16.861163084259033,28.048756035614012L17.256813084259033,27.838976035614014L17.714403084259033,27.627396035614012L18.272543084259034,27.401996035614015L18.899903084259034,27.180196035614014L19.604503084259033,26.961416035614015L20.392163084259032,26.748026035614014L21.163793084259034,26.563496035614016L21.996633084259035,26.388588035614013L22.892863084259034,26.223293035614013L23.857583084259034,26.068215035614013L24.805543084259035,25.937181035614014L25.802323084259033,25.819971035614014L26.849423084259033,25.717188035614015L27.948223084259034,25.630032035614015L29.402523084259034,25.545882235614013L30.91882308425903,25.493589135614013L32.500023084259034,25.474956035614014L34.08112308425903,25.493589135614013L35.597423084259034,25.545882235614013L37.051823084259034,25.630032035614015L38.15062308425904,25.717188035614015L39.197623084259035,25.819971035614014L40.19442308425903,25.937181035614014L41.142423084259036,26.068215035614013L42.10712308425903,26.223293035614013L43.00332308425904,26.388588035614013L43.83622308425903,26.563496035614016L44.60782308425903,26.748026035614014L45.39552308425903,26.961416035614015L46.10012308425903,27.180196035614014L46.72742308425903,27.401996035614015L47.28562308425903,27.627396035614012L47.743223084259036,27.838976035614014L48.13882308425903,28.048756035614012L48.47912308425904,28.256126035614013L48.768423084259034,28.461686035614015L49.01172308425903,28.666056035614012L49.23982308425904,28.901676035614013L49.41032308425903,29.133086035614014L49.527623084259034,29.361496035614014L49.598323084259036,29.590506035614013L49.623123084259035,29.821316035614014Z" fill-rule="evenodd" fill="#39A288" fill-opacity="1"/></g></g><g><g><g><path d="M47.56829331550598,29.821315933341978L47.54719331550598,29.99202593334198L47.48669331550598,30.16152593334198L47.38399331550598,30.33282593334198L47.23459331550598,30.50774593334198L47.029793315505984,30.68746593334198L46.75949331550598,30.87680593334198L46.42289331550598,31.06974593334198L46.01049331550598,31.26629593334198L45.511393315505984,31.46645593334198L45.02239331550598,31.634755933341978L44.47089331550598,31.80125593334198L43.85009331550598,31.96534593334198L43.15489331550598,32.12583593334198L42.23899331550598,32.30855593334198L41.22479331550598,32.47926593334198L40.105593315505985,32.63554593334198L38.984193315505976,32.76477593334198L37.78559331550598,32.874765933341976L36.50609331550598,32.96432593334198L35.22659331550598,33.02804593334198L33.89169331550598,33.06711593334198L32.49999331550598,33.080935933341976L31.108293315505982,33.06711593334198L29.77339331550598,33.02804593334198L28.493893315505982,32.96432593334198L27.214433315505982,32.874765933341976L26.015823315505983,32.76477593334198L24.89444331550598,32.63554593334198L23.775243315505982,32.47926593334198L22.760973315505982,32.30855593334198L21.84507331550598,32.12583593334198L21.149953315505982,31.96534593334198L20.52914331550598,31.80125593334198L19.977563315505982,31.634755933341978L19.488643315505982,31.46645593334198L18.98952331550598,31.26629593334198L18.577113315505983,31.06974593334198L18.24048331550598,30.87680593334198L17.97015831550598,30.68746593334198L17.76541031550598,30.50774593334198L17.616039315505983,30.33282593334198L17.513300815505982,30.16152593334198L17.45282231550598,29.99202593334198L17.43169331550598,29.821315933341978L17.45282231550598,29.65061593334198L17.513300815505982,29.48110593334198L17.616039315505983,29.30980593334198L17.76541031550598,29.13489593334198L17.97015831550598,28.95456593334198L18.24048331550598,28.76522593334198L18.577113315505983,28.57228593334198L18.98952331550598,28.37573593334198L19.488643315505982,28.17617593334198L19.977563315505982,28.00787593334198L20.52914331550598,27.84077593334198L21.149953315505982,27.67728593334198L21.84507331550598,27.51620093334198L22.760973315505982,27.33347593334198L23.775243315505982,27.16337093334198L24.89444331550598,27.00649193334198L26.015823315505983,26.87786093334198L27.214433315505982,26.76786593334198L28.493893315505982,26.67770493334198L29.77339331550598,26.61459063334198L31.108293315505982,26.57552123334198L32.49999331550598,26.56169593334198L33.89169331550598,26.57552123334198L35.22659331550598,26.61459063334198L36.50609331550598,26.67770493334198L37.78559331550598,26.76786593334198L38.984193315505976,26.87786093334198L40.105593315505985,27.00649193334198L41.22479331550598,27.16337093334198L42.23899331550598,27.33347593334198L43.15489331550598,27.51620093334198L43.85009331550598,27.67728593334198L44.47089331550598,27.84077593334198L45.02239331550598,28.00787593334198L45.511393315505984,28.17617593334198L46.01049331550598,28.37573593334198L46.42289331550598,28.57228593334198L46.75949331550598,28.76522593334198L47.029793315505984,28.95456593334198L47.23459331550598,29.13489593334198L47.38399331550598,29.30980593334198L47.48669331550598,29.48110593334198L47.54719331550598,29.65061593334198L47.56829331550598,29.821315933341978Z" fill-rule="evenodd" fill="url(#master_svg8_142_34330)" fill-opacity="1"/></g></g><g><path d="M47.56829331550598,29.821315933341978L47.54719331550598,29.99202593334198L47.48669331550598,30.16152593334198L47.38399331550598,30.33282593334198L47.23459331550598,30.50774593334198L47.029793315505984,30.68746593334198L46.75949331550598,30.87680593334198L46.42289331550598,31.06974593334198L46.01049331550598,31.26629593334198L45.511393315505984,31.46645593334198L45.02239331550598,31.634755933341978L44.47089331550598,31.80125593334198L43.85009331550598,31.96534593334198L43.15489331550598,32.12583593334198L42.23899331550598,32.30855593334198L41.22479331550598,32.47926593334198L40.105593315505985,32.63554593334198L38.984193315505976,32.76477593334198L37.78559331550598,32.874765933341976L36.50609331550598,32.96432593334198L35.22659331550598,33.02804593334198L33.89169331550598,33.06711593334198L32.49999331550598,33.080935933341976L31.108293315505982,33.06711593334198L29.77339331550598,33.02804593334198L28.493893315505982,32.96432593334198L27.214433315505982,32.874765933341976L26.015823315505983,32.76477593334198L24.89444331550598,32.63554593334198L23.775243315505982,32.47926593334198L22.760973315505982,32.30855593334198L21.84507331550598,32.12583593334198L21.149953315505982,31.96534593334198L20.52914331550598,31.80125593334198L19.977563315505982,31.634755933341978L19.488643315505982,31.46645593334198L18.98952331550598,31.26629593334198L18.577113315505983,31.06974593334198L18.24048331550598,30.87680593334198L17.97015831550598,30.68746593334198L17.76541031550598,30.50774593334198L17.616039315505983,30.33282593334198L17.513300815505982,30.16152593334198L17.45282231550598,29.99202593334198L17.43169331550598,29.821315933341978L17.45282231550598,29.65061593334198L17.513300815505982,29.48110593334198L17.616039315505983,29.30980593334198L17.76541031550598,29.13489593334198L17.97015831550598,28.95456593334198L18.24048331550598,28.76522593334198L18.577113315505983,28.57228593334198L18.98952331550598,28.37573593334198L19.488643315505982,28.17617593334198L19.977563315505982,28.00787593334198L20.52914331550598,27.84077593334198L21.149953315505982,27.67728593334198L21.84507331550598,27.51620093334198L22.760973315505982,27.33347593334198L23.775243315505982,27.16337093334198L24.89444331550598,27.00649193334198L26.015823315505983,26.87786093334198L27.214433315505982,26.76786593334198L28.493893315505982,26.67770493334198L29.77339331550598,26.61459063334198L31.108293315505982,26.57552123334198L32.49999331550598,26.56169593334198L33.89169331550598,26.57552123334198L35.22659331550598,26.61459063334198L36.50609331550598,26.67770493334198L37.78559331550598,26.76786593334198L38.984193315505976,26.87786093334198L40.105593315505985,27.00649193334198L41.22479331550598,27.16337093334198L42.23899331550598,27.33347593334198L43.15489331550598,27.51620093334198L43.85009331550598,27.67728593334198L44.47089331550598,27.84077593334198L45.02239331550598,28.00787593334198L45.511393315505984,28.17617593334198L46.01049331550598,28.37573593334198L46.42289331550598,28.57228593334198L46.75949331550598,28.76522593334198L47.029793315505984,28.95456593334198L47.23459331550598,29.13489593334198L47.38399331550598,29.30980593334198L47.48669331550598,29.48110593334198L47.54719331550598,29.65061593334198L47.56829331550598,29.821315933341978Z" fill-rule="evenodd" fill="url(#master_svg9_182_20186)" fill-opacity="1"/></g></g></g><g><g><path d="M32.500023084259034,29.502144244537355L34.08112308425903,29.483514244537353L35.597423084259034,29.43121424453735L37.051823084259034,29.347064244537354L38.15062308425904,29.259914244537356L39.197623084259035,29.157134244537353L40.19442308425903,29.039924244537353L41.142423084259036,28.908884244537354L42.10712308425903,28.753814244537352L43.00332308425904,28.588514244537354L43.83622308425903,28.413604244537353L44.60782308425903,28.22907424453735L45.39552308425903,28.015694244537354L46.10012308425903,27.79690424453735L46.72742308425903,27.575104244537354L47.28562308425903,27.349704244537353L47.743223084259036,27.13812424453735L48.13882308425903,26.928354244537353L48.47912308425904,26.720974244537352L48.768423084259034,26.515414244537354L49.01172308425903,26.311044244537353L49.23982308425904,26.075424244537352L49.41032308425903,25.844014244537355L49.527623084259034,25.61560424453735L49.598323084259036,25.386594244537353L49.623123084259035,25.155784244537355L49.623123084259035,19.723284244537354L47.02332308425903,19.994970244537352L44.56562308425903,20.223377244537353L42.24412308425903,20.410912244537354L40.05452308425903,20.559977244537354L37.99032308425903,20.672377244537355L36.04632308425903,20.749914244537354L34.218123084259034,20.794994244537353L32.500023084259034,20.809424244537354L30.966223084259035,20.793194244537354L29.175923084259033,20.740294244537353L27.102223084259034,20.644730244537353L24.715923084259032,20.501675244537353L21.987893084259035,20.304521244537355L18.885333084259035,20.047263244537355L15.376923084259033,19.723284244537354L15.376923084259033,25.155784244537355L15.401696584259033,25.386594244537353L15.472374984259034,25.61560424453735L15.589686084259034,25.844014244537355L15.760188084259033,26.075424244537352L15.988253084259034,26.311044244537353L16.231619084259034,26.515414244537354L16.520893084259033,26.720974244537352L16.861163084259033,26.928354244537353L17.256813084259033,27.13812424453735L17.714403084259033,27.349704244537353L18.272543084259034,27.575104244537354L18.899903084259034,27.79690424453735L19.604503084259033,28.015694244537354L20.392163084259032,28.22907424453735L21.163793084259034,28.413604244537353L21.996633084259035,28.588514244537354L22.892863084259034,28.753814244537352L23.857583084259034,28.908884244537354L24.805543084259035,29.039924244537353L25.802323084259033,29.157134244537353L26.849423084259033,29.259914244537356L27.948223084259034,29.347064244537354L29.402523084259034,29.43121424453735L30.91882308425903,29.483514244537353L32.500023084259034,29.502144244537355Z" fill-rule="evenodd" fill="url(#master_svga_182_20762)" fill-opacity="1"/></g><g><g><g><path d="M49.623123084259035,19.723283084259034L49.598323084259036,19.954093084259032L49.527623084259034,20.182503084259032L49.41032308425903,20.411513084259035L49.23982308425904,20.64292308425903L49.01172308425903,20.878543084259032L48.768423084259034,21.082313084259034L48.47912308425904,21.287873084259033L48.13882308425903,21.495853084259032L47.743223084259036,21.705623084259035L47.28562308425903,21.916603084259034L46.72742308425903,22.142003084259034L46.10012308425903,22.36440308425903L45.39552308425903,22.58259308425903L44.60782308425903,22.796573084259034L43.83622308425903,22.980503084259034L43.00332308425904,23.156013084259033L42.10712308425903,23.32131308425903L41.142423084259036,23.475783084259035L40.19442308425903,23.60681308425903L39.197623084259035,23.72402308425903L38.15062308425904,23.826813084259033L37.051823084259034,23.913973084259034L35.597423084259034,23.998723084259034L34.08112308425903,24.051013084259033L32.500023084259034,24.069643084259035L30.91882308425903,24.051013084259033L29.402523084259034,23.998723084259034L27.948223084259034,23.913973084259034L26.849423084259033,23.826813084259033L25.802323084259033,23.72402308425903L24.805543084259035,23.60681308425903L23.857583084259034,23.475783084259035L22.892863084259034,23.32131308425903L21.996633084259035,23.156013084259033L21.163793084259034,22.980503084259034L20.392163084259032,22.796573084259034L19.604503084259033,22.58259308425903L18.899903084259034,22.36440308425903L18.272543084259034,22.142003084259034L17.714403084259033,21.916603084259034L17.256813084259033,21.705623084259035L16.861163084259033,21.495853084259032L16.520893084259033,21.287873084259033L16.231619084259034,21.082313084259034L15.988253084259034,20.878543084259032L15.760188084259033,20.64292308425903L15.589686084259034,20.411513084259035L15.472374984259034,20.182503084259032L15.401696584259033,19.954093084259032L15.376923084259033,19.723283084259034L15.401696584259033,19.492473084259032L15.472374984259034,19.263463084259033L15.589686084259034,19.035053084259033L15.760188084259033,18.803643084259033L15.988253084259034,18.568023084259032L16.231619084259034,18.363653084259035L16.520893084259033,18.158093084259033L16.861163084259033,17.95072308425903L17.256813084259033,17.740943084259033L17.714403084259033,17.529363084259032L18.272543084259034,17.303963084259035L18.899903084259034,17.082163084259033L19.604503084259033,16.863383084259034L20.392163084259032,16.649993084259034L21.163793084259034,16.465463084259035L21.996633084259035,16.290555084259033L22.892863084259034,16.125260084259033L23.857583084259034,15.970182084259033L24.805543084259035,15.839148084259033L25.802323084259033,15.721938084259033L26.849423084259033,15.619155084259033L27.948223084259034,15.531999084259033L29.402523084259034,15.447849284259034L30.91882308425903,15.395556184259034L32.500023084259034,15.376923084259033L34.08112308425903,15.395556184259034L35.597423084259034,15.447849284259034L37.051823084259034,15.531999084259033L38.15062308425904,15.619155084259033L39.197623084259035,15.721938084259033L40.19442308425903,15.839148084259033L41.142423084259036,15.970182084259033L42.10712308425903,16.125260084259033L43.00332308425904,16.290555084259033L43.83622308425903,16.465463084259035L44.60782308425903,16.649993084259034L45.39552308425903,16.863383084259034L46.10012308425903,17.082163084259033L46.72742308425903,17.303963084259035L47.28562308425903,17.529363084259032L47.743223084259036,17.740943084259033L48.13882308425903,17.95072308425903L48.47912308425904,18.158093084259033L48.768423084259034,18.363653084259035L49.01172308425903,18.568023084259032L49.23982308425904,18.803643084259033L49.41032308425903,19.035053084259033L49.527623084259034,19.263463084259033L49.598323084259036,19.492473084259032L49.623123084259035,19.723283084259034Z" fill-rule="evenodd" fill="#E7EEF1" fill-opacity="1"/></g></g><g><path d="M49.623123084259035,19.723283084259034L49.598323084259036,19.954093084259032L49.527623084259034,20.182503084259032L49.41032308425903,20.411513084259035L49.23982308425904,20.64292308425903L49.01172308425903,20.878543084259032L48.768423084259034,21.082313084259034L48.47912308425904,21.287873084259033L48.13882308425903,21.495853084259032L47.743223084259036,21.705623084259035L47.28562308425903,21.916603084259034L46.72742308425903,22.142003084259034L46.10012308425903,22.36440308425903L45.39552308425903,22.58259308425903L44.60782308425903,22.796573084259034L43.83622308425903,22.980503084259034L43.00332308425904,23.156013084259033L42.10712308425903,23.32131308425903L41.142423084259036,23.475783084259035L40.19442308425903,23.60681308425903L39.197623084259035,23.72402308425903L38.15062308425904,23.826813084259033L37.051823084259034,23.913973084259034L35.597423084259034,23.998723084259034L34.08112308425903,24.051013084259033L32.500023084259034,24.069643084259035L30.91882308425903,24.051013084259033L29.402523084259034,23.998723084259034L27.948223084259034,23.913973084259034L26.849423084259033,23.826813084259033L25.802323084259033,23.72402308425903L24.805543084259035,23.60681308425903L23.857583084259034,23.475783084259035L22.892863084259034,23.32131308425903L21.996633084259035,23.156013084259033L21.163793084259034,22.980503084259034L20.392163084259032,22.796573084259034L19.604503084259033,22.58259308425903L18.899903084259034,22.36440308425903L18.272543084259034,22.142003084259034L17.714403084259033,21.916603084259034L17.256813084259033,21.705623084259035L16.861163084259033,21.495853084259032L16.520893084259033,21.287873084259033L16.231619084259034,21.082313084259034L15.988253084259034,20.878543084259032L15.760188084259033,20.64292308425903L15.589686084259034,20.411513084259035L15.472374984259034,20.182503084259032L15.401696584259033,19.954093084259032L15.376923084259033,19.723283084259034L15.401696584259033,19.492473084259032L15.472374984259034,19.263463084259033L15.589686084259034,19.035053084259033L15.760188084259033,18.803643084259033L15.988253084259034,18.568023084259032L16.231619084259034,18.363653084259035L16.520893084259033,18.158093084259033L16.861163084259033,17.95072308425903L17.256813084259033,17.740943084259033L17.714403084259033,17.529363084259032L18.272543084259034,17.303963084259035L18.899903084259034,17.082163084259033L19.604503084259033,16.863383084259034L20.392163084259032,16.649993084259034L21.163793084259034,16.465463084259035L21.996633084259035,16.290555084259033L22.892863084259034,16.125260084259033L23.857583084259034,15.970182084259033L24.805543084259035,15.839148084259033L25.802323084259033,15.721938084259033L26.849423084259033,15.619155084259033L27.948223084259034,15.531999084259033L29.402523084259034,15.447849284259034L30.91882308425903,15.395556184259034L32.500023084259034,15.376923084259033L34.08112308425903,15.395556184259034L35.597423084259034,15.447849284259034L37.051823084259034,15.531999084259033L38.15062308425904,15.619155084259033L39.197623084259035,15.721938084259033L40.19442308425903,15.839148084259033L41.142423084259036,15.970182084259033L42.10712308425903,16.125260084259033L43.00332308425904,16.290555084259033L43.83622308425903,16.465463084259035L44.60782308425903,16.649993084259034L45.39552308425903,16.863383084259034L46.10012308425903,17.082163084259033L46.72742308425903,17.303963084259035L47.28562308425903,17.529363084259032L47.743223084259036,17.740943084259033L48.13882308425903,17.95072308425903L48.47912308425904,18.158093084259033L48.768423084259034,18.363653084259035L49.01172308425903,18.568023084259032L49.23982308425904,18.803643084259033L49.41032308425903,19.035053084259033L49.527623084259034,19.263463084259033L49.598323084259036,19.492473084259032L49.623123084259035,19.723283084259034Z" fill-rule="evenodd" fill="#39A288" fill-opacity="1"/></g></g><g><g><g><path d="M47.56829331550598,19.723283816452025L47.54719331550598,19.893993816452028L47.48669331550598,20.063493816452027L47.38399331550598,20.234793816452026L47.23459331550598,20.409713816452026L47.029793315505984,20.589433816452026L46.75949331550598,20.778773816452027L46.42289331550598,20.971713816452027L46.01049331550598,21.168263816452026L45.511393315505984,21.368423816452026L45.02239331550598,21.536723816452024L44.47089331550598,21.703223816452027L43.85009331550598,21.867313816452025L43.15489331550598,22.02780381645203L42.23899331550598,22.210523816452024L41.22479331550598,22.381233816452028L40.105593315505985,22.537513816452027L38.984193315505976,22.666743816452026L37.78559331550598,22.776733816452026L36.50609331550598,22.86629381645203L35.22659331550598,22.930013816452025L33.89169331550598,22.969083816452027L32.49999331550598,22.982903816452026L31.108293315505982,22.969083816452027L29.77339331550598,22.930013816452025L28.493893315505982,22.86629381645203L27.214433315505982,22.776733816452026L26.015823315505983,22.666743816452026L24.89444331550598,22.537513816452027L23.775243315505982,22.381233816452028L22.760973315505982,22.210523816452024L21.84507331550598,22.02780381645203L21.149953315505982,21.867313816452025L20.52914331550598,21.703223816452027L19.977563315505982,21.536723816452024L19.488643315505982,21.368423816452026L18.98952331550598,21.168263816452026L18.577113315505983,20.971713816452027L18.24048331550598,20.778773816452027L17.97015831550598,20.589433816452026L17.76541031550598,20.409713816452026L17.616039315505983,20.234793816452026L17.513300815505982,20.063493816452027L17.45282231550598,19.893993816452028L17.43169331550598,19.723283816452025L17.45282231550598,19.552583816452028L17.513300815505982,19.383073816452026L17.616039315505983,19.211773816452027L17.76541031550598,19.036863816452026L17.97015831550598,18.856533816452025L18.24048331550598,18.667193816452027L18.577113315505983,18.474253816452027L18.98952331550598,18.277703816452025L19.488643315505982,18.078143816452027L19.977563315505982,17.909843816452025L20.52914331550598,17.742743816452027L21.149953315505982,17.579253816452027L21.84507331550598,17.418168816452027L22.760973315505982,17.235441816452028L23.775243315505982,17.065337816452026L24.89444331550598,16.908457816452028L26.015823315505983,16.779827816452027L27.214433315505982,16.669831816452028L28.493893315505982,16.579670816452026L29.77339331550598,16.516558616452027L31.108293315505982,16.477488216452027L32.49999331550598,16.463663816452026L33.89169331550598,16.477488216452027L35.22659331550598,16.516558616452027L36.50609331550598,16.579670816452026L37.78559331550598,16.669831816452028L38.984193315505976,16.779827816452027L40.105593315505985,16.908457816452028L41.22479331550598,17.065337816452026L42.23899331550598,17.235441816452028L43.15489331550598,17.418168816452027L43.85009331550598,17.579253816452027L44.47089331550598,17.742743816452027L45.02239331550598,17.909843816452025L45.511393315505984,18.078143816452027L46.01049331550598,18.277703816452025L46.42289331550598,18.474253816452027L46.75949331550598,18.667193816452027L47.029793315505984,18.856533816452025L47.23459331550598,19.036863816452026L47.38399331550598,19.211773816452027L47.48669331550598,19.383073816452026L47.54719331550598,19.552583816452028L47.56829331550598,19.723283816452025Z" fill-rule="evenodd" fill="url(#master_svgb_142_34332)" fill-opacity="1"/></g></g><g><path d="M47.56829331550598,19.723283816452025L47.54719331550598,19.893993816452028L47.48669331550598,20.063493816452027L47.38399331550598,20.234793816452026L47.23459331550598,20.409713816452026L47.029793315505984,20.589433816452026L46.75949331550598,20.778773816452027L46.42289331550598,20.971713816452027L46.01049331550598,21.168263816452026L45.511393315505984,21.368423816452026L45.02239331550598,21.536723816452024L44.47089331550598,21.703223816452027L43.85009331550598,21.867313816452025L43.15489331550598,22.02780381645203L42.23899331550598,22.210523816452024L41.22479331550598,22.381233816452028L40.105593315505985,22.537513816452027L38.984193315505976,22.666743816452026L37.78559331550598,22.776733816452026L36.50609331550598,22.86629381645203L35.22659331550598,22.930013816452025L33.89169331550598,22.969083816452027L32.49999331550598,22.982903816452026L31.108293315505982,22.969083816452027L29.77339331550598,22.930013816452025L28.493893315505982,22.86629381645203L27.214433315505982,22.776733816452026L26.015823315505983,22.666743816452026L24.89444331550598,22.537513816452027L23.775243315505982,22.381233816452028L22.760973315505982,22.210523816452024L21.84507331550598,22.02780381645203L21.149953315505982,21.867313816452025L20.52914331550598,21.703223816452027L19.977563315505982,21.536723816452024L19.488643315505982,21.368423816452026L18.98952331550598,21.168263816452026L18.577113315505983,20.971713816452027L18.24048331550598,20.778773816452027L17.97015831550598,20.589433816452026L17.76541031550598,20.409713816452026L17.616039315505983,20.234793816452026L17.513300815505982,20.063493816452027L17.45282231550598,19.893993816452028L17.43169331550598,19.723283816452025L17.45282231550598,19.552583816452028L17.513300815505982,19.383073816452026L17.616039315505983,19.211773816452027L17.76541031550598,19.036863816452026L17.97015831550598,18.856533816452025L18.24048331550598,18.667193816452027L18.577113315505983,18.474253816452027L18.98952331550598,18.277703816452025L19.488643315505982,18.078143816452027L19.977563315505982,17.909843816452025L20.52914331550598,17.742743816452027L21.149953315505982,17.579253816452027L21.84507331550598,17.418168816452027L22.760973315505982,17.235441816452028L23.775243315505982,17.065337816452026L24.89444331550598,16.908457816452028L26.015823315505983,16.779827816452027L27.214433315505982,16.669831816452028L28.493893315505982,16.579670816452026L29.77339331550598,16.516558616452027L31.108293315505982,16.477488216452027L32.49999331550598,16.463663816452026L33.89169331550598,16.477488216452027L35.22659331550598,16.516558616452027L36.50609331550598,16.579670816452026L37.78559331550598,16.669831816452028L38.984193315505976,16.779827816452027L40.105593315505985,16.908457816452028L41.22479331550598,17.065337816452026L42.23899331550598,17.235441816452028L43.15489331550598,17.418168816452027L43.85009331550598,17.579253816452027L44.47089331550598,17.742743816452027L45.02239331550598,17.909843816452025L45.511393315505984,18.078143816452027L46.01049331550598,18.277703816452025L46.42289331550598,18.474253816452027L46.75949331550598,18.667193816452027L47.029793315505984,18.856533816452025L47.23459331550598,19.036863816452026L47.38399331550598,19.211773816452027L47.48669331550598,19.383073816452026L47.54719331550598,19.552583816452028L47.56829331550598,19.723283816452025Z" fill-rule="evenodd" fill="url(#master_svgc_182_20186)" fill-opacity="1"/></g></g></g></g></g></g></svg>