<svg xmlns="http://www.w3.org/2000/svg" xmlns:xlink="http://www.w3.org/1999/xlink" fill="none" version="1.1" width="97" height="293" viewBox="0 0 97 293"><defs><filter id="master_svg0_199_16734" filterUnits="objectBoundingBox" color-interpolation-filters="sRGB" x="0" y="0" width="96" height="292"><feFlood flood-opacity="0" result="BackgroundImageFix"/><feBlend mode="normal" in="SourceGraphic" in2="BackgroundImageFix" result="shape"/><feColorMatrix in="SourceAlpha" type="matrix" result="hardAlpha" values="0 0 0 0 0 0 0 0 0 0 0 0 0 0 0 0 0 0 127 0"/><feOffset dy="4" dx="0"/><feGaussianBlur stdDeviation="2"/><feComposite in2="hardAlpha" operator="arithmetic" k2="-1" k3="1"/><feColorMatrix type="matrix" values="0 0 0 0 0.2235294133424759 0 0 0 0 0.6352941393852234 0 0 0 0 0.5333333611488342 0 0 0 0.10000000149011612 0"/><feBlend mode="normal" in2="shape" result="effect1_innerShadow"/></filter><linearGradient x1="0.5" y1="0" x2="0.5" y2="1" id="master_svg1_142_53170"><stop offset="0%" stop-color="#F7FCFB" stop-opacity="1"/><stop offset="97.99996614456177%" stop-color="#EAF7F4" stop-opacity="1"/></linearGradient><linearGradient x1="0.5" y1="0.5" x2="0" y2="0" id="master_svg2_182_20154"><stop offset="1.571393758058548%" stop-color="#FFFFFF" stop-opacity="0"/><stop offset="100%" stop-color="#39A288" stop-opacity="1"/></linearGradient><linearGradient x1="0.5" y1="0.5" x2="0" y2="0" id="master_svg3_182_20154"><stop offset="1.571393758058548%" stop-color="#FFFFFF" stop-opacity="0"/><stop offset="100%" stop-color="#39A288" stop-opacity="1"/></linearGradient><filter id="master_svg4_182_24287" filterUnits="objectBoundingBox" color-interpolation-filters="sRGB" x="-20" y="-14" width="76.83078002929688" height="79.4153823852539"><feFlood flood-opacity="0" result="BackgroundImageFix"/><feColorMatrix in="SourceAlpha" type="matrix" values="0 0 0 0 0 0 0 0 0 0 0 0 0 0 0 0 0 0 127 0"/><feOffset dy="6" dx="0"/><feGaussianBlur stdDeviation="5"/><feColorMatrix type="matrix" values="0 0 0 0 0.21176470816135406 0 0 0 0 0.658823549747467 0 0 0 0 0.5333333611488342 0 0 0 0.46000000834465027 0"/><feBlend mode="normal" in2="BackgroundImageFix" result="effect1_dropShadow"/><feBlend mode="normal" in="SourceGraphic" in2="effect1_dropShadow" result="shape"/></filter><linearGradient x1="0.5" y1="0" x2="0.5" y2="1" id="master_svg5_182_20609"><stop offset="0%" stop-color="#C7EEE3" stop-opacity="1"/><stop offset="96.57139182090759%" stop-color="#28856B" stop-opacity="1"/></linearGradient><linearGradient x1="0.5" y1="0" x2="0.5" y2="1" id="master_svg6_182_20609"><stop offset="0%" stop-color="#C7EEE3" stop-opacity="1"/><stop offset="96.57139182090759%" stop-color="#28856B" stop-opacity="1"/></linearGradient><linearGradient x1="0" y1="0.5" x2="1" y2="0.5" id="master_svg7_182_20346"><stop offset="0%" stop-color="#AAEBD7" stop-opacity="1"/><stop offset="100%" stop-color="#36A888" stop-opacity="1"/></linearGradient><mask id="master_svg8_182_24298"><g><path d="M57.763598429031376,49.06086414745331L52.00406542903137,45.93863814745331C51.86332542903137,45.86310114745331,51.72619342903137,45.762383147453306,51.59627842903137,45.64008414745331L57.35581842903137,48.76230414745331C57.48572842903137,48.88460414745331,57.622858429031375,48.985324147453305,57.763598429031376,49.06086414745331Z" fill="#FFFFFF" fill-opacity="1"/></g></mask><linearGradient x1="1" y1="0.2034691870212555" x2="0.59563809633255" y2="0.8223825097084045" id="master_svg9_142_45849"><stop offset="0%" stop-color="#538484" stop-opacity="1"/><stop offset="100%" stop-color="#137373" stop-opacity="1"/></linearGradient><linearGradient x1="0.5" y1="0" x2="0.5" y2="1" id="master_svga_182_20609"><stop offset="0%" stop-color="#C7EEE3" stop-opacity="1"/><stop offset="96.57139182090759%" stop-color="#28856B" stop-opacity="1"/></linearGradient><linearGradient x1="0" y1="0.5" x2="1" y2="0.5" id="master_svgb_182_20346"><stop offset="0%" stop-color="#AAEBD7" stop-opacity="1"/><stop offset="100%" stop-color="#36A888" stop-opacity="1"/></linearGradient><linearGradient x1="0.5" y1="0" x2="0.5" y2="1" id="master_svgc_182_20609"><stop offset="0%" stop-color="#C7EEE3" stop-opacity="1"/><stop offset="96.57139182090759%" stop-color="#28856B" stop-opacity="1"/></linearGradient><linearGradient x1="0.5" y1="0" x2="0.5" y2="1" id="master_svgd_182_20609"><stop offset="0%" stop-color="#C7EEE3" stop-opacity="1"/><stop offset="96.57139182090759%" stop-color="#28856B" stop-opacity="1"/></linearGradient><linearGradient x1="0" y1="0.5" x2="1" y2="0.5" id="master_svge_182_20346"><stop offset="0%" stop-color="#AAEBD7" stop-opacity="1"/><stop offset="100%" stop-color="#36A888" stop-opacity="1"/></linearGradient><linearGradient x1="0.5" y1="0" x2="0.5" y2="1" id="master_svgf_182_20609"><stop offset="0%" stop-color="#C7EEE3" stop-opacity="1"/><stop offset="96.57139182090759%" stop-color="#28856B" stop-opacity="1"/></linearGradient><linearGradient x1="0.5" y1="0" x2="0.5" y2="1" id="master_svgg_182_20609"><stop offset="0%" stop-color="#C7EEE3" stop-opacity="1"/><stop offset="96.57139182090759%" stop-color="#28856B" stop-opacity="1"/></linearGradient><linearGradient x1="0" y1="0.5" x2="1" y2="0.5" id="master_svgh_182_20346"><stop offset="0%" stop-color="#AAEBD7" stop-opacity="1"/><stop offset="100%" stop-color="#36A888" stop-opacity="1"/></linearGradient></defs><g><g><g filter="url(#master_svg0_199_16734)"><rect x="0.5" y="0.5" width="96" height="292" rx="0" fill="url(#master_svg1_142_53170)" fill-opacity="1"/></g><g><g><path d="M2.5,12.5L8,7L12.5,2.5L2.5,2.5L2.5,12.5Z" fill="url(#master_svg2_182_20154)" fill-opacity="1"/></g><g><path d="M0,0L0,6.5L1,6.5L1,1L6.5,1L6.5,0L0,0Z" fill-rule="evenodd" fill="#39A288" fill-opacity="1"/></g></g><g transform="matrix(-1,0,0,-1,193,585)"><g><path d="M98.5,304.5L104,299L108.5,294.5L98.5,294.5L98.5,304.5Z" fill="url(#master_svg3_182_20154)" fill-opacity="1"/></g><g><path d="M96,292L96,298.5L97,298.5L97,293L102.5,293L102.5,292L96,292Z" fill-rule="evenodd" fill="#39A288" fill-opacity="1"/></g></g></g><g><g><rect x="27.5" y="27.5" width="42" height="42" rx="0" fill="#FFFFFF" fill-opacity="0.009999999776482582"/></g><g filter="url(#master_svg4_182_24287)"><g><g><g><path d="M46.04603838920593,60.98141530330658L46.04962814920593,60.98336530330658C46.04726735920593,61.57427530330658,46.24215938920593,62.04724530330658,46.63788038920593,62.40583530330658C46.742532389205934,62.50293530330658,46.858011389205934,62.58563530330658,46.97710038920593,62.65043530330658L52.736638389205936,65.77263530330657C52.617548389205936,65.70793530330658,52.50206838920593,65.62873530330658,52.39741838920593,65.52803530330658C52.00406838920593,65.17193530330658,51.809188389205936,64.69353530330658,51.809188389205936,64.10003530330658L51.80558838920593,64.09803530330657L51.82000838920593,55.48155530330658L46.064081789205936,52.35933530330658L46.04603838920593,60.98141530330658Z" fill-rule="evenodd" fill="url(#master_svg5_182_20609)" fill-opacity="1"/></g></g><g><path d="M62.87358328615725,52.11833156505585C62.86828328615725,52.115501565055844,62.862983286157245,52.11269156505585,62.857683286157254,52.10992156505585C62.84368328615725,52.10316156505585,62.82878328615725,52.09727156505585,62.81578328615725,52.089541565055846C62.795183286157254,52.07929156505585,62.774683286157256,52.069551565055846,62.75398328615725,52.06033156505585L62.75348328615725,52.060121565055844C62.68398328615725,52.030081565055845,62.612383286157254,52.005191565055846,62.53858328615725,51.985491565055845C62.53158328615725,51.983611565055845,62.52458328615725,51.98179156505585,62.51748328615725,51.980001565055844L62.52708328615725,51.985221565055845C62.30698328615725,51.927671565055846,62.07238328615725,51.916881565055846,61.81978328615725,51.952831565055845L53.83729328615725,53.06790156505585L48.07775328615725,49.94568156505585L56.060273286157255,48.83060546505585C56.06198328615725,48.83035886505585,56.063783286157246,48.83011446505585,56.06548328615725,48.82987226505585L56.06026328615725,48.82705296505585C56.31418328615725,48.792220865055846,56.55158328615725,48.80386216505585,56.77048328615725,48.86100936505585L56.76758328615725,48.859409765055844C56.857683286157254,48.881868965055844,56.94498328615725,48.912913565055845,57.026783286157254,48.952544565055845L57.02708328615725,48.952671565055844C57.05648328615725,48.96621156505585,57.08538328615725,48.980693565055844,57.11398328615725,48.99611356505585L62.860683286157254,52.11135156505585C62.86508328615725,52.11354156505585,62.86938328615725,52.115841565055845,62.87358328615725,52.11833156505585ZM46.65592428615725,50.765931565055844C46.258963286157254,51.22995156505585,46.06048328615725,51.762311565055846,46.06048328615725,52.35942156505585L51.82002328615725,55.481641565055845C51.82127328615725,55.274511565055846,51.84553328615725,55.07518156505585,51.89327328615725,54.88378156505585L51.89328328615725,54.88373156505585C51.91392328615725,54.80214156505585,51.938853286157254,54.72205156505585,51.96798328615725,54.64357156505585C51.97490328615725,54.623541565055845,51.98222328615725,54.60365156505585,51.98991328615725,54.58389156505585C52.00470328615725,54.54682156505585,52.02046328615725,54.51008156505585,52.03720328615725,54.47366156505585C52.05818328615725,54.42882156505585,52.08093328615725,54.38470156505585,52.10512328615725,54.34130156505584C52.15204328615725,54.255081565055846,52.20256328615725,54.16875156505585,52.26030328615725,54.08962156505585L52.25920328615725,54.089021565055845C52.268723286157254,54.07549156505585,52.27840328615725,54.06201156505585,52.288243286157254,54.048591565055844C52.32965328615725,53.99371156505585,52.37195328615725,53.94035156505585,52.419063286157254,53.88459156505585C52.43710328615725,53.86661156505585,52.45154328615725,53.845021565055845,52.46958328615725,53.82704156505585L52.46920328615725,53.82683156505585C52.47175328615725,53.82390156505585,52.47431328615725,53.82097156505585,52.47687328615725,53.81806156505585L52.47688328615725,53.818051565055846C52.86092328615725,53.39348156505585,53.31336328615725,53.14672156505585,53.83730328615725,53.071631565055846L48.07776328615725,49.94941156505585C47.90394328615725,49.97251156505585,47.73709328615725,50.016471565055845,47.57909328615725,50.079441565055845C47.43275328615725,50.13747156505585,47.29300328615725,50.212101565055846,47.16001328615725,50.303251565055845L47.15754328615725,50.301911565055846C47.07815328615725,50.359461565055845,46.99875828615725,50.42061156505585,46.92297528615725,50.48895156505585L46.92342128615725,50.48920156505585C46.92215128615725,50.49033156505585,46.92088228615725,50.491471565055846,46.91961428615725,50.49260156505585L46.91937528615725,50.492471565055844C46.86243228615725,50.543561565055846,46.80548828615725,50.599121565055846,46.75031728615725,50.65916156505585L46.75021428615725,50.659271565055846C46.73207028615725,50.67878156505585,46.71409028615725,50.698691565055846,46.69627428615725,50.71898156505585C46.68272928615725,50.73440156505585,46.66927928615725,50.750061565055844,46.65592428615725,50.765931565055844Z" fill-rule="evenodd" fill="url(#master_svg6_182_20609)" fill-opacity="1"/></g><g><g><path d="M61.81982506446838,51.95287216022797C62.371925064468385,51.87373706022797,62.841125064468386,52.01402096022797,63.223625064468386,52.373723460227964C63.60612506446839,52.72982946022797,63.797425064468385,53.208236460227965,63.797425064468385,53.805346460227966L63.77932506446838,62.42386646022797C63.77932506446838,63.01736646022797,63.588125064468386,63.54966646022797,63.201925064468384,64.01726646022797C62.815825064468385,64.48136646022796,62.34672506446839,64.75106646022796,61.79454506446838,64.83026646022796L53.81203506446838,65.94886646022796C53.25989506446838,66.02806646022796,52.787150064468385,65.88776646022797,52.393798064468385,65.53166646022797C51.996838064468385,65.17196646022796,51.80196649446838,64.69716646022796,51.805574622868384,64.10366646022797L51.82000986446838,55.481556460227964C51.82000986446838,54.88444646022796,52.01849006446838,54.352086460227966,52.415451064468385,53.888076460227964C52.80880506446838,53.42045646022797,53.285155064468384,53.14708646022797,53.837295064468385,53.071546460227964L61.81982506446838,51.95287216022797Z" fill="url(#master_svg7_182_20346)" fill-opacity="1"/></g></g></g><g><g><g><g mask="url(#master_svg8_182_24298)"><g><path d="M57.763598429031376,49.06086414745331L52.00406542903137,45.93863814745331C51.86332542903137,45.86310114745331,51.72619342903137,45.762383147453306,51.59627842903137,45.64008414745331L57.35581842903137,48.76230414745331C57.48572842903137,48.88460414745331,57.622858429031375,48.985324147453305,57.763598429031376,49.06086414745331Z" fill="#002E2E" fill-opacity="1"/></g></g></g></g><g><g><path d="M57.35584948682785,48.76590307415009L51.59988948682785,45.64368307415008L45.67434948682785,40.086273074150085L51.43027948682785,43.208493074150084L57.35584948682785,48.76590307415009Z" fill="url(#master_svg9_142_45849)" fill-opacity="1"/></g></g><g><path d="M59.916749312973025,32.08066773448944L59.98324931297302,32.11669773448944L59.993849312973026,32.12244773448944C59.968549312973025,32.11174773448944,59.94694931297302,32.10095773448944,59.92524931297302,32.09016773448944L59.879949312973025,32.06558773448944C59.87214931297302,32.06205773448944,59.86434931297302,32.05859773448944,59.85654931297302,32.055187734489444C59.55684931297302,31.92472773448944,59.228149312973024,31.88557773448944,58.87514931297302,31.93540773448944C58.31214931297302,32.014537734489444,57.81774931297302,32.30230773448944,57.391949312973026,32.79509773448944L57.387249312973026,32.79255773448944C57.386349312973024,32.793437734489444,57.385549312973026,32.79429773448944,57.38474931297302,32.795137734489444L51.43865931297302,40.01300773448944L51.441109312973026,40.01430773448944C51.244379312973024,40.26470773448944,51.09467931297302,40.527007734489445,50.99282931297302,40.80160773448944L50.99362931297302,40.80210773448944C50.885369312973026,41.08980773448944,50.834839312973024,41.395607734489445,50.83122931297302,41.71210773448944C50.82401931297302,42.33440773448944,51.02610931297302,42.83080773448944,51.43027931297302,43.208507734489444L45.67435431297302,40.08630773448944C45.57331031297302,39.991907734489445,45.48489631297302,39.88980773448944,45.40916931297302,39.78010773448944C45.378944312973026,39.73640773448944,45.35074031297302,39.691407734489445,45.324561312973024,39.64520773448944C45.168308312973025,39.36960773448944,45.08418301297302,39.05100773448944,45.072947782973024,38.69029773448944C45.07218326897302,38.66574773448944,45.071756258973025,38.64100773448944,45.071666994373025,38.61607773448944L45.071649439243025,38.60529773448944L45.07169680647302,38.58991773448944C45.07169680647302,38.27506773448944,45.124967112973025,37.97326773448944,45.23055631297302,37.68544773448944L45.22688731297302,37.68345773448944C45.27019231297302,37.56475773448944,45.32432331297302,37.44965773448944,45.385671312973024,37.33454773448944C45.43978231297302,37.23380773448944,45.501130312973025,37.13308773448944,45.569695312973025,37.03596773448944C45.602178312973024,36.98923773448944,45.638265312973026,36.93887773448944,45.67797931297302,36.89218773448944L51.62877931297302,29.67287473448944C51.71137931297302,29.576579734489442,51.79656931297302,29.48827173448944,51.884339312973026,29.40789673448944C51.88635931297302,29.406041734489442,51.888389312973025,29.40419073448944,51.89041931297302,29.40234473448944C51.89513931297302,29.39804273448944,51.89987931297302,29.39376473448944,51.904619312973026,29.38950873448944L51.90303931297302,29.38865573448944C51.98603931297302,29.313117734489442,52.07264931297302,29.24477473448944,52.16286931297302,29.18362473448944C52.26751931297302,29.11167773448944,52.37577931297302,29.04693073448944,52.48764931297302,28.99657273448944L52.489369312973025,28.99750673448944C52.49326931297302,28.99568173448944,52.49716931297302,28.993868734489443,52.50106931297302,28.992067734489442C52.67484931297302,28.91121673448944,52.85423931297302,28.85512053448944,53.04405931297302,28.82378123448944L53.04419931297302,28.82375833448944C53.061809312973025,28.82073593448944,53.07947931297302,28.817918434489442,53.09722931297302,28.81530553448944C53.10000931297302,28.81489573448944,53.10279931297302,28.81449093448944,53.10557931297302,28.81409113448944C53.10770931297302,28.81378623448944,53.10983931297302,28.813484134489443,53.111969312973024,28.813184934489442C53.37298931297302,28.776667934489442,53.618039312973025,28.78793908448944,53.84895931297302,28.847917134489443L53.844539312973026,28.84552553448944C53.95640931297302,28.874301734489443,54.06467931297302,28.91386873448944,54.16932931297302,28.96422773448944L59.92884931297302,32.08644773448944C59.92484931297302,32.08450773448944,59.92074931297302,32.08257773448944,59.916749312973025,32.08066773448944Z" fill-rule="evenodd" fill="url(#master_svga_182_20609)" fill-opacity="1"/></g><g><g><path d="M66.28017353782654,37.935250627326965C66.70607353782654,38.33452062732697,66.91897353782653,38.841700627326965,66.91537353782654,39.460390627326966C66.91537353782654,40.07908062732697,66.69887353782654,40.63662062732696,66.27297353782654,41.12941062732696L60.32580353782654,48.34860062732697C59.89997353782654,48.86660062732696,59.401973537826535,49.16520062732697,58.83900353782654,49.244300627326965C58.27604353782654,49.32340062732696,57.78164353782654,49.16160062732696,57.355813537826535,48.765900627326964L51.43027853782654,43.20850062732696C51.02610053782654,42.830800627326965,50.824010837826535,42.330800627326965,50.82762034302654,41.712130627326964C50.82762034302654,41.09344062732696,51.03331753782654,40.52511062732697,51.437495537826535,40.01433062732696L57.38829353782654,32.79509762732697C57.81412353782654,32.29870762732696,58.30852353782654,32.01454192732697,58.871483537826535,31.935407127326965C59.43444353782654,31.856272427326964,59.93245353782654,32.003750527326964,60.35467353782654,32.381438627326965L66.28017353782654,37.935250627326965Z" fill="url(#master_svgb_182_20346)" fill-opacity="1"/></g></g></g><g><g><path d="M30.084615468978882,63.21511736820221L30.099050368978883,54.59663736820221L35.85858546897888,57.71885736820221L35.84415546897888,66.33733736820221C35.84415546897888,66.9308373682022,36.03180546897888,67.40923736820221,36.41793546897888,67.76893736820222C36.52259546897888,67.8696373682022,36.63807546897888,67.95243736820221,36.760775468978885,68.0207373682022L31.00123346897888,64.89853736820221C30.878536468978883,64.83373736820221,30.763057468978882,64.74743736820221,30.654795468978882,64.64673736820221C30.27226946897888,64.28701736820221,30.084615468978882,63.81221736820221,30.084615468978882,63.21511736820221Z" fill-rule="evenodd" fill="url(#master_svgc_182_20609)" fill-opacity="1"/></g><g><path d="M37.23643385481685,55.4884158057785C37.17283385481686,55.518245805778506,37.11064385481686,55.5513658057785,37.04987385481685,55.587795805778505C37.110393854816856,55.5518058057785,37.173093854816855,55.519635805778506,37.23715385481685,55.488805805778505L37.23643385481685,55.4884158057785L37.23643385481685,55.4884158057785ZM37.00882385481685,55.613025805778506C36.984453854816856,55.628405805778506,36.96030385481686,55.64432580577851,36.936393854816856,55.6607858057785L36.937623854816856,55.6614558057785C36.96093385481685,55.6444858057785,36.98468385481685,55.6283958057785,37.00882385481685,55.613025805778506ZM46.82498385481685,54.3270158057785L46.89418385481686,54.364565805778504C46.577483854816855,54.1933958057785,46.22138385481685,54.136485805778506,45.825983854816855,54.193815805778506L45.819983854816854,54.1905758057785L37.843423854816855,55.3089258057785C37.73544385481685,55.3250758057785,37.63106385481685,55.34749580577851,37.529823854816854,55.377055805778504L37.529713854816855,55.377085805778506L36.00657385481686,56.86280580577851C35.909143854816854,57.128985805778505,35.858623854816855,57.4131558057785,35.858623854816855,57.7189658057785L30.099083854816854,54.596745805778504C30.099083854816854,53.9996358057785,30.290346854816853,53.470875805778505,30.676480854816855,53.0032558057785C31.062615854816855,52.5356458057785,31.531753854816856,52.2658658057785,32.083883854816854,52.186695805778506L40.066403854816855,51.071619905778505L40.06888385481685,51.0712640057785L40.06279385481685,51.0679576057785C40.31898385481686,51.0319879057785,40.557183854816856,51.0427785357785,40.78088385481686,51.100330905778506C40.88558385481686,51.125603305778505,40.98298385481685,51.1651708057785,41.080483854816855,51.2119328057785L41.09238385481685,51.218407805778504C41.10758385481685,51.2259658057785,41.123983854816856,51.2322328057785,41.13818385481685,51.2407298057785L46.89778385481685,54.362955805778505C46.879683854816854,54.3557558057785,46.858083854816854,54.3449658057785,46.83998385481685,54.3341558057785C46.834983854816855,54.3317458057785,46.82998385481685,54.3293658057785,46.82498385481685,54.3270158057785Z" fill-rule="evenodd" fill="url(#master_svgd_182_20609)" fill-opacity="1"/></g><g><g><path d="M45.82229528175354,54.19022429302521C46.37443528175354,54.11108919302521,46.84713528175354,54.25137309302521,47.24053528175354,54.611075593025205C47.63753528175354,54.96718159302521,47.832335281753544,55.44198859302521,47.82873528175354,56.03909859302521L47.81433528175354,64.66121859302521C47.81433528175354,65.2547185930252,47.61583528175354,65.78701859302521,47.21883528175354,66.25461859302521C46.82553528175354,66.7187185930252,46.34913528175354,66.99201859302521,45.79703528175354,67.0676185930252L37.81452528175354,68.1862185930252C37.26238528175354,68.2654185930252,36.79324928175354,68.1251185930252,36.41072328175354,67.76901859302521C36.02819828175354,67.4093185930252,35.83693528175354,66.93091859302521,35.83693528175354,66.3374185930252L35.85858748175354,57.718908593025205C35.85858748175354,57.121798593025204,36.04985028175354,56.593038593025206,36.43598528175354,56.125428593025205C36.82211928175354,55.65780859302521,37.29125528175354,55.388028593025204,37.84338528175354,55.308898593025205L45.82229528175354,54.19022429302521Z" fill="url(#master_svge_182_20346)" fill-opacity="1"/></g></g></g><g><g><path d="M35.87302534375429,49.132704381370544L30.117097603754292,46.010504381370545L30.131532543754293,37.420804381370544L35.89106534375429,40.54302438137054L35.87302534375429,49.132704381370544ZM36.78683534375429,50.83340438137054C36.66727534375429,50.766704381370545,36.55393534375429,50.67900438137055,36.446815343754295,50.57890438137054C36.06067534375429,50.21200438137055,35.87302534375429,49.72640438137054,35.87302534375429,49.132704381370544L30.11348534375429,46.01064438137055Q30.11348534375429,46.900904381370545,30.687273343754292,47.456604381370546Q30.860493343754293,47.61850438137054,31.05536434375429,47.72640438137054L36.78685534375429,50.83340438137054L36.78683534375429,50.83340438137054Z" fill-rule="evenodd" fill="url(#master_svgf_182_20609)" fill-opacity="1"/></g><g><path d="M45.85476607188284,37.01801139278412L37.875906071882845,38.13668139278412C37.66009607188285,38.16531139278412,37.458646071882846,38.226141392784115,37.26795607188284,38.31557139278412L37.26963607188284,38.31648139278412C37.16549607188284,38.36302139278412,37.064926071882844,38.42023139278412,36.967936071882846,38.48813139278412L36.970106071882846,38.48931139278412C36.891196071882845,38.542941392784115,36.815846071882845,38.60013139278412,36.740516071882844,38.66793139278412L36.742776071882844,38.66916139278412C36.670606071882844,38.73031139278412,36.60203607188284,38.80225139278412,36.533476071882845,38.87419139278412L36.533186071882845,38.87404139278412L36.532286071882844,38.875051392784115L36.53706607188285,38.87764139278412L36.47210607188284,38.95318139278412C36.421996071882845,39.010261392784116,36.37898607188284,39.067341392784115,36.336036071882845,39.12442139278412L36.33860607188284,39.12582139278412C36.27822607188284,39.20723139278412,36.22833607188284,39.28866139278412,36.18205607188284,39.376931392784115L36.18342607188284,39.37768139278412C36.125686071882846,39.47839139278412,36.07877607188284,39.58271139278412,36.03906607188284,39.686971392784116C35.941626071882844,39.95675139278412,35.891106071882845,40.24092139278412,35.891106071882845,40.54313139278412L30.131566071882844,37.42091139278412C30.131566071882844,36.82380139278412,30.322829071882843,36.29504139278412,30.708963071882845,35.82742139278412C31.095098071882845,35.35981139278412,31.564236071882846,35.09003139278412,32.116366071882844,35.01090139278412L32.121586071882845,35.013731392784116L40.095976071882845,33.89619439278412L40.09527607188284,33.89581349278412C40.35146607188285,33.85984309278412,40.589666071882846,33.87063442278412,40.81336607188285,33.92818679278412C40.877766071882846,33.94372199278412,40.939366071882844,33.964659592784116,40.99986607188284,33.98935039278412C41.002966071882845,33.990558392784116,41.00606607188284,33.991777392784115,41.009166071882845,33.99300539278412C41.059266071882845,34.01306639278412,41.10836607188284,34.03571439278412,41.156466071882846,34.060947392784115C41.161366071882846,34.063325392784115,41.16616607188284,34.06581339278412,41.17066607188284,34.06852839278412L46.92666607188285,37.18884139278412L46.930166071882844,37.19075139278412C46.908566071882845,37.18001139278412,46.890566071882844,37.172821392784115,46.87246607188284,37.162011392784116C46.77506607188285,37.11525139278412,46.67756607188284,37.07928139278412,46.572966071882846,37.05041139278412C46.38036607188285,37.00087139278412,46.17706607188285,36.98598139278412,45.96086607188285,37.00571139278412C45.926966071882845,37.00897139278412,45.89286607188284,37.01310139278412,45.858466071882845,37.01809139278412L45.85756607188284,37.01762139278412L45.85476607188284,37.01801139278412Z" fill-rule="evenodd" fill="url(#master_svgg_182_20609)" fill-opacity="1"/></g><g><g><path d="M45.85477338330507,37.01800813129425C46.406913383305074,36.93887373129425,46.87961338330507,37.07915763129425,47.27301338330507,37.43886013129425C47.670013383305076,37.79496613129425,47.864813383305076,38.26977313129425,47.86121338330507,38.86688313129425L47.846813383305076,47.45300313129425C47.846813383305076,48.04650313129425,47.64831338330507,48.58600313129425,47.251313383305074,49.06450313129425C46.85801338330507,49.54290313129425,46.38161338330507,49.81980313129425,45.82951338330507,49.89900313129425L37.84700338330507,51.01760313129425C37.29486338330507,51.09680313129425,36.82572738330507,50.94930313129425,36.44320138330507,50.57880313129425C36.06067638330507,50.20830313129425,35.86941338330507,49.72630313129425,35.86941338330507,49.13280313129425L35.883848683305075,40.54669313129425C35.883848683305075,39.94958313129425,36.07511138330507,39.42082313129425,36.461246383305074,38.95321313129425C36.84738038330507,38.48559313129425,37.31651338330507,38.21582313129425,37.86865338330507,38.13668313129425L45.85477338330507,37.01800813129425Z" fill="url(#master_svgh_182_20346)" fill-opacity="1"/></g></g></g></g></g></g></svg>