<svg xmlns="http://www.w3.org/2000/svg" xmlns:xlink="http://www.w3.org/1999/xlink" preserveAspectRatio="none" fill="none" version="1.1" width="168" height="168" viewBox="0 0 168 168"><defs><linearGradient x1="0.5" y1="0" x2="0.5" y2="1" id="master_svg0_142_53170"><stop offset="0%" stop-color="#F7FCFB" stop-opacity="1"/><stop offset="97.99996614456177%" stop-color="#EAF7F4" stop-opacity="1"/></linearGradient><linearGradient x1="0.5" y1="0" x2="0.5" y2="1" id="master_svg1_142_53170"><stop offset="0%" stop-color="#F7FCFB" stop-opacity="1"/><stop offset="97.99996614456177%" stop-color="#EAF7F4" stop-opacity="1"/></linearGradient></defs><g><g><ellipse cx="84" cy="84" rx="84" ry="84" fill="url(#master_svg0_142_53170)" fill-opacity="1"/></g><g><ellipse cx="83.34883880615234" cy="83.34883880615234" rx="53.39535140991211" ry="53.39535140991211" fill="#E5EFED" fill-opacity="1"/></g><g><ellipse cx="83.34883499145508" cy="83.34883499145508" rx="48.1860466003418" ry="48.1860466003418" fill="url(#master_svg1_142_53170)" fill-opacity="1"/></g><g><g><path d="M35.25370362341309,125.15710513000488C35.25370362341309,125.15710513000488,38.84516462341308,122.14675413000488,38.84516462341308,122.14675413000488C38.84516462341308,122.14675413000488,38.468464623413084,121.69830513000488,38.468464623413084,121.69830513000488C38.468464623413084,121.69830513000488,34.877004623413086,124.70865513000489,34.877004623413086,124.70865513000489C34.877004623413086,124.70865513000489,35.25370362341309,125.15710513000488,35.25370362341309,125.15710513000488C35.25370362341309,125.15710513000488,35.25370362341309,125.15710513000488,35.25370362341309,125.15710513000488Z" fill="#BFCBD1" fill-opacity="1"/></g><g><path d="M22.089023058153153,99.63781000305175C22.089023058153153,99.63781000305175,26.63807705815315,98.50482100305176,26.63807705815315,98.50482100305176C26.63807705815315,98.50482100305176,26.496307058153153,97.93680000305176,26.496307058153153,97.93680000305176C26.496307058153153,97.93680000305176,21.947247058153152,99.06979000305176,21.947247058153152,99.06979000305176C21.947247058153152,99.06979000305176,22.089023058153153,99.63781000305175,22.089023058153153,99.63781000305175C22.089023058153153,99.63781000305175,22.089023058153153,99.63781000305175,22.089023058153153,99.63781000305175Z" fill="#BFCBD1" fill-opacity="1"/></g><g><path d="M21.455623626708984,70.93637317980956C21.455623626708984,70.93637317980956,26.041493626708984,71.91008617980957,26.041493626708984,71.91008617980957C26.041493626708984,71.91008617980957,26.163333626708983,71.33746417980957,26.163333626708983,71.33746417980957C26.163333626708983,71.33746417980957,21.577468626708985,70.36375617980957,21.577468626708985,70.36375617980957C21.577468626708985,70.36375617980957,21.455623626708984,70.93637317980956,21.455623626708984,70.93637317980956C21.455623626708984,70.93637317980956,21.455623626708984,70.93637317980956,21.455623626708984,70.93637317980956Z" fill="#BFCBD1" fill-opacity="1"/></g><g><path d="M33.48178672790527,44.86236338232422C33.48178672790527,44.86236338232422,37.17623672790528,47.74567438232422,37.17623672790528,47.74567438232422C37.17623672790528,47.74567438232422,37.537036727905274,47.284374382324216,37.537036727905274,47.284374382324216C37.537036727905274,47.284374382324216,33.84258872790527,44.40105438232422,33.84258872790527,44.40105438232422C33.84258872790527,44.40105438232422,33.48178672790527,44.86236338232422,33.48178672790527,44.86236338232422C33.48178672790527,44.86236338232422,33.48178672790527,44.86236338232422,33.48178672790527,44.86236338232422Z" fill="#BFCBD1" fill-opacity="1"/></g><g><path d="M55.73321533203125,26.693434155609133C55.73321533203125,26.693434155609133,57.78843533203125,30.90273715560913,57.78843533203125,30.90273715560913C57.78843533203125,30.90273715560913,58.31516533203125,30.64610715560913,58.31516533203125,30.64610715560913C58.31516533203125,30.64610715560913,56.25994433203125,26.43680715560913,56.25994433203125,26.43680715560913C56.25994433203125,26.43680715560913,55.73321533203125,26.693434155609133,55.73321533203125,26.693434155609133C55.73321533203125,26.693434155609133,55.73321533203125,26.693434155609133,55.73321533203125,26.693434155609133Z" fill="#BFCBD1" fill-opacity="1"/></g><g><path d="M83.70597457885742,20.107194900512695C83.70597457885742,20.107194900512695,83.70597457885742,24.790474900512695,83.70597457885742,24.790474900512695C83.70597457885742,24.790474900512695,84.29176957885743,24.790474900512695,84.29176957885743,24.790474900512695C84.29176957885743,24.790474900512695,84.29176957885743,20.107194900512695,84.29176957885743,20.107194900512695C84.29176957885743,20.107194900512695,83.70597457885742,20.107194900512695,83.70597457885742,20.107194900512695C83.70597457885742,20.107194900512695,83.70597457885742,20.107194900512695,83.70597457885742,20.107194900512695Z" fill="#BFCBD1" fill-opacity="1"/></g><g><path d="M111.73803936645508,26.43680715560913C111.73803936645508,26.43680715560913,109.68281936645508,30.64610715560913,109.68281936645508,30.64610715560913C109.68281936645508,30.64610715560913,110.20954836645508,30.90273715560913,110.20954836645508,30.90273715560913C110.20954836645508,30.90273715560913,112.26476936645508,26.693434155609133,112.26476936645508,26.693434155609133C112.26476936645508,26.693434155609133,111.73803936645508,26.43680715560913,111.73803936645508,26.43680715560913C111.73803936645508,26.43680715560913,111.73803936645508,26.43680715560913,111.73803936645508,26.43680715560913Z" fill="#BFCBD1" fill-opacity="1"/></g><g><path d="M134.15540657348632,44.40105438232422C134.15540657348632,44.40105438232422,130.46095657348633,47.284374382324216,130.46095657348633,47.284374382324216C130.46095657348633,47.284374382324216,130.82175857348633,47.74567438232422,130.82175857348633,47.74567438232422C130.82175857348633,47.74567438232422,134.51620657348633,44.86236338232422,134.51620657348633,44.86236338232422C134.51620657348633,44.86236338232422,134.15540657348632,44.40105438232422,134.15540657348632,44.40105438232422C134.15540657348632,44.40105438232422,134.15540657348632,44.40105438232422,134.15540657348632,44.40105438232422Z" fill="#BFCBD1" fill-opacity="1"/></g><g><path d="M146.42050668823242,70.36375617980957C146.42050668823242,70.36375617980957,141.83463668823242,71.33746417980957,141.83463668823242,71.33746417980957C141.83463668823242,71.33746417980957,141.95648168823243,71.91008617980957,141.95648168823243,71.91008617980957C141.95648168823243,71.91008617980957,146.5423466882324,70.93637317980956,146.5423466882324,70.93637317980956C146.5423466882324,70.93637317980956,146.42050668823242,70.36375617980957,146.42050668823242,70.36375617980957C146.42050668823242,70.36375617980957,146.42050668823242,70.36375617980957,146.42050668823242,70.36375617980957Z" fill="#BFCBD1" fill-opacity="1"/></g><g><path d="M146.05076576049805,99.06979000305176C146.05076576049805,99.06979000305176,141.50171176049804,97.93680000305176,141.50171176049804,97.93680000305176C141.50171176049804,97.93680000305176,141.35993576049805,98.50482100305176,141.35993576049805,98.50482100305176C141.35993576049805,98.50482100305176,145.90899576049804,99.63781000305175,145.90899576049804,99.63781000305175C145.90899576049804,99.63781000305175,146.05076576049805,99.06979000305176,146.05076576049805,99.06979000305176C146.05076576049805,99.06979000305176,146.05076576049805,99.06979000305176,146.05076576049805,99.06979000305176Z" fill="#BFCBD1" fill-opacity="1"/></g><g><path d="M133.12097295776368,124.70865513000489C133.12097295776368,124.70865513000489,129.52951195776367,121.69830513000488,129.52951195776367,121.69830513000488C129.52951195776367,121.69830513000488,129.15281295776367,122.14675413000488,129.15281295776367,122.14675413000488C129.15281295776367,122.14675413000488,132.74427295776368,125.15710513000488,132.74427295776368,125.15710513000488C132.74427295776368,125.15710513000488,133.12097295776368,124.70865513000489,133.12097295776368,124.70865513000489C133.12097295776368,124.70865513000489,133.12097295776368,124.70865513000489,133.12097295776368,124.70865513000489Z" fill="#BFCBD1" fill-opacity="1"/></g></g></g></svg>