<?xml version="1.0" encoding="UTF-8"?>
<svg width="600px" height="292px" viewBox="0 0 600 292" version="1.1" xmlns="http://www.w3.org/2000/svg" xmlns:xlink="http://www.w3.org/1999/xlink">
    <title>编组 22</title>
    <defs>
        <linearGradient x1="50%" y1="0%" x2="50%" y2="100%" id="linearGradient-1">
            <stop stop-color="#0B734D" offset="0%"></stop>
            <stop stop-color="#021A11" offset="100%"></stop>
        </linearGradient>
        <path d="M55,197.5 C59.1421356,197.5 62.5,200.857864 62.5,205 C62.5,209.142136 59.1421356,212.5 55,212.5 C50.8578644,212.5 47.5,209.142136 47.5,205 C47.5,200.857864 50.8578644,197.5 55,197.5 Z M58.6294203,202.46967 C58.3365271,202.176777 57.8616534,202.176777 57.5687602,202.46967 L57.5687602,202.46967 L54.328,205.71 L52.5303301,203.912589 L52.4462117,203.839971 C52.1526002,203.622116 51.7359365,203.646322 51.4696699,203.912589 C51.1767767,204.205482 51.1767767,204.680356 51.4696699,204.973249 L51.4696699,204.973249 L53.7977555,207.301335 L53.8818739,207.373953 C54.1754854,207.591807 54.5921491,207.567601 54.8584157,207.301335 L54.8584157,207.301335 L58.6294203,203.53033 L58.7020385,203.446212 C58.9198929,203.1526 58.8956869,202.735936 58.6294203,202.46967 Z" id="path-2"></path>
        <filter x="-46.7%" y="-33.3%" width="193.3%" height="193.3%" filterUnits="objectBoundingBox" id="filter-3">
            <feOffset dx="0" dy="2" in="SourceAlpha" result="shadowOffsetOuter1"></feOffset>
            <feGaussianBlur stdDeviation="2" in="shadowOffsetOuter1" result="shadowBlurOuter1"></feGaussianBlur>
            <feColorMatrix values="0 0 0 0 0   0 0 0 0 0.0470588235   0 0 0 0 0.101960784  0 0 0 0.5 0" type="matrix" in="shadowBlurOuter1"></feColorMatrix>
        </filter>
        <linearGradient x1="50%" y1="0%" x2="50%" y2="100%" id="linearGradient-4">
            <stop stop-color="#0C4880" offset="0%"></stop>
            <stop stop-color="#001226" offset="100%"></stop>
        </linearGradient>
        <path d="M23.2017497,18 C23.5787173,18 23.9236522,18.2119891 24.0939247,18.5483101 L24.0939247,18.5483101 L24.7632182,19.8702945 C24.9334906,20.2066156 25.2784256,20.4186047 25.6553932,20.4186047 L25.6553932,20.4186047 L32,20.4186047 C32.5522847,20.4186047 33,20.8663199 33,21.4186047 L33,21.4186047 L33,30 C33,30.5522847 32.5522847,31 32,31 L32,31 L19,31 C18.4477153,31 18,30.5522847 18,30 L18,30 L18,19 C18,18.4477153 18.4477153,18 19,18 L19,18 Z M22.25,26.5 C21.8357864,26.5 21.5,26.8357864 21.5,27.25 C21.5,27.6642136 21.8357864,28 22.25,28 C22.6642136,28 23,27.6642136 23,27.25 C23,26.8357864 22.6642136,26.5 22.25,26.5 Z M28.75,26.5 L25.25,26.5 C24.8357864,26.5 24.5,26.8357864 24.5,27.25 C24.5,27.6642136 24.8357864,28 25.25,28 L25.25,28 L28.75,28 C29.1642136,28 29.5,27.6642136 29.5,27.25 C29.5,26.8357864 29.1642136,26.5 28.75,26.5 L28.75,26.5 Z M22.25,23.5 C21.8357864,23.5 21.5,23.8357864 21.5,24.25 C21.5,24.6642136 21.8357864,25 22.25,25 C22.6642136,25 23,24.6642136 23,24.25 C23,23.8357864 22.6642136,23.5 22.25,23.5 Z M28.75,23.5 L25.25,23.5 C24.8357864,23.5 24.5,23.8357864 24.5,24.25 C24.5,24.6642136 24.8357864,25 25.25,25 L25.25,25 L28.75,25 C29.1642136,25 29.5,24.6642136 29.5,24.25 C29.5,23.8357864 29.1642136,23.5 28.75,23.5 L28.75,23.5 Z" id="path-5"></path>
        <filter x="-46.7%" y="-38.5%" width="193.3%" height="207.7%" filterUnits="objectBoundingBox" id="filter-6">
            <feOffset dx="0" dy="2" in="SourceAlpha" result="shadowOffsetOuter1"></feOffset>
            <feGaussianBlur stdDeviation="2" in="shadowOffsetOuter1" result="shadowBlurOuter1"></feGaussianBlur>
            <feColorMatrix values="0 0 0 0 0   0 0 0 0 0.0470588235   0 0 0 0 0.101960784  0 0 0 0.5 0" type="matrix" in="shadowBlurOuter1"></feColorMatrix>
        </filter>
        <linearGradient x1="50%" y1="0%" x2="50%" y2="100%" id="linearGradient-7">
            <stop stop-color="#2C6973" offset="0%"></stop>
            <stop stop-color="#0A171A" offset="100%"></stop>
        </linearGradient>
        <path d="M25,17.5 C29.1421356,17.5 32.5,20.8578644 32.5,25 C32.5,29.1421356 29.1421356,32.5 25,32.5 C20.8578644,32.5 17.5,29.1421356 17.5,25 C17.5,20.8578644 20.8578644,17.5 25,17.5 Z M25.4503874,21.1470518 C25.1567759,20.9291973 24.7401122,20.9534034 24.4738456,21.2196699 L24.4738456,21.2196699 L21.4196699,24.2738456 L21.3470518,24.3579641 C21.1291973,24.6515756 21.1534034,25.0682392 21.4196699,25.3345058 L21.4196699,25.3345058 L21.5037883,25.407124 C21.7973998,25.6249784 22.2140635,25.6007724 22.4803301,25.3345058 L22.4803301,25.3345058 L24.254,23.559 L24.2541757,28.280971 L24.2610223,28.3827415 C24.3106847,28.7488171 24.6244799,29.030971 25.0041757,29.030971 C25.4183893,29.030971 25.7541757,28.6951845 25.7541757,28.280971 L25.7541757,28.280971 L25.754,23.56 L27.5280213,25.3345058 L27.6121398,25.407124 C27.9057513,25.6249784 28.3224149,25.6007724 28.5886815,25.3345058 C28.8815747,25.0416126 28.8815747,24.5667388 28.5886815,24.2738456 L28.5886815,24.2738456 L25.5345058,21.2196699 Z" id="path-8"></path>
        <filter x="-46.7%" y="-33.3%" width="193.3%" height="193.3%" filterUnits="objectBoundingBox" id="filter-9">
            <feOffset dx="0" dy="2" in="SourceAlpha" result="shadowOffsetOuter1"></feOffset>
            <feGaussianBlur stdDeviation="2" in="shadowOffsetOuter1" result="shadowBlurOuter1"></feGaussianBlur>
            <feColorMatrix values="0 0 0 0 0   0 0 0 0 0.0470588235   0 0 0 0 0.101960784  0 0 0 0.5 0" type="matrix" in="shadowBlurOuter1"></feColorMatrix>
        </filter>
        <linearGradient x1="50%" y1="0%" x2="50%" y2="100%" id="linearGradient-10">
            <stop stop-color="#732F2E" offset="0%"></stop>
            <stop stop-color="#1A0A0A" offset="100%"></stop>
        </linearGradient>
        <path d="M25,17.5 C29.1421356,17.5 32.5,20.8578644 32.5,25 C32.5,29.1421356 29.1421356,32.5 25,32.5 C20.8578644,32.5 17.5,29.1421356 17.5,25 C17.5,20.8578644 20.8578644,17.5 25,17.5 Z M24,20.26259 C23.5857864,20.26259 23.25,20.5983764 23.25,21.01259 L23.25,21.01259 L23.25,26.01259 L23.2568466,26.1143605 C23.306509,26.4804361 23.6203042,26.76259 24,26.76259 L24,26.76259 L28.517231,26.76259 L28.6190016,26.7557434 C28.9850772,26.7060809 29.267231,26.3922857 29.267231,26.01259 L29.267231,26.01259 L29.2603844,25.9108194 C29.210722,25.5447439 28.8969268,25.26259 28.517231,25.26259 L28.517231,25.26259 L24.75,25.262 L24.75,21.01259 L24.7431534,20.9108194 C24.693491,20.5447439 24.3796958,20.26259 24,20.26259 Z" id="path-11"></path>
        <filter x="-46.7%" y="-33.3%" width="193.3%" height="193.3%" filterUnits="objectBoundingBox" id="filter-12">
            <feOffset dx="0" dy="2" in="SourceAlpha" result="shadowOffsetOuter1"></feOffset>
            <feGaussianBlur stdDeviation="2" in="shadowOffsetOuter1" result="shadowBlurOuter1"></feGaussianBlur>
            <feColorMatrix values="0 0 0 0 0   0 0 0 0 0.0470588235   0 0 0 0 0.101960784  0 0 0 0.5 0" type="matrix" in="shadowBlurOuter1"></feColorMatrix>
        </filter>
    </defs>
    <g id="页面-1" stroke="none" stroke-width="1" fill="none" fill-rule="evenodd">
        <g id="项目管理" transform="translate(-30.000000, -114.000000)">
            <g id="编组-22" transform="translate(30.000000, 114.000000)">
                <g id="编组-5">
                    <rect id="矩形" fill="#FFFFFF" x="0" y="0" width="4" height="15"></rect>
                    <rect id="矩形备份-2" fill="#062440" x="0" y="15" width="4" height="72"></rect>
                    <rect id="矩形备份-3" fill="#062440" x="0" y="117" width="4" height="15"></rect>
                    <rect id="矩形备份-4" fill="#062440" x="0" y="142" width="4" height="150"></rect>
                </g>
                <g id="编组-4" transform="translate(596.000000, 0.000000)">
                    <rect id="矩形" fill="#FFFFFF" transform="translate(2.000000, 284.500000) scale(1, -1) translate(-2.000000, -284.500000) " x="0" y="277" width="4" height="15"></rect>
                    <rect id="矩形备份-2" fill="#062440" transform="translate(2.000000, 209.500000) scale(1, -1) translate(-2.000000, -209.500000) " x="0" y="142" width="4" height="135"></rect>
                    <rect id="矩形备份-3" fill="#062440" transform="translate(2.000000, 114.500000) scale(1, -1) translate(-2.000000, -114.500000) " x="0" y="107" width="4" height="15"></rect>
                    <rect id="矩形备份-4" fill="#062440" transform="translate(2.000000, 43.500000) scale(1, -1) translate(-2.000000, -43.500000) " x="0" y="0" width="4" height="87"></rect>
                </g>
                <g id="编组-3" transform="translate(56.000000, 288.000000)" fill="#FFFFFF" opacity="0.3">
                    <rect id="矩形备份-6" x="14" y="0" width="3" height="4"></rect>
                    <rect id="矩形备份-7" x="27" y="0" width="2" height="4"></rect>
                    <rect id="矩形" x="0" y="0" width="4" height="4"></rect>
                </g>
                <g id="编组-2" transform="translate(416.000000, 0.000000)" fill="#FFFFFF">
                    <rect id="矩形" opacity="0.295542399" x="0" y="0" width="30" height="4"></rect>
                    <rect id="矩形备份-5" opacity="0.15" x="30" y="0" width="90" height="2"></rect>
                </g>
                <text id="已完成" opacity="0.65" font-family="AlibabaPuHuiTi_2_65_Medium, Alibaba PuHuiTi 2.0" font-size="14" font-weight="400" line-spacing="14" fill="#FFFFFF">
                    <tspan x="95" y="233">已完成</tspan>
                </text>
                <circle id="椭圆形" stroke="#04261A" fill="#000C1A" cx="55" cy="205" r="24.5"></circle>
                <path d="M35,205 C35,216.045695 43.954305,225 55,225 C57.6919803,225 60.2597403,224.46815 62.6039352,223.503793" id="路径" stroke="#17E69A" opacity="0.65"></path>
                <path d="M69.3189247,218.963122 C72.8341804,215.358858 75,210.432356 75,205" id="路径" stroke="#FFFFFF" opacity="0.65"></path>
                <path d="M73.9800385,198.677407 C71.3339645,190.730252 63.8361683,185 55,185" id="路径" stroke="#17E69A" opacity="0.65"></path>
                <circle id="椭圆形" fill="url(#linearGradient-1)" cx="55" cy="205" r="15"></circle>
                <g id="形状结合">
                    <use fill="black" fill-opacity="1" filter="url(#filter-3)" xlink:href="#path-2"></use>
                    <use fill="#14CC89" fill-rule="evenodd" xlink:href="#path-2"></use>
                </g>
                <text id="项目总数" opacity="0.65" font-family="AlibabaPuHuiTi_2_65_Medium, Alibaba PuHuiTi 2.0" font-size="14" font-weight="400" line-spacing="14" fill="#FFFFFF">
                    <tspan x="95" y="97">项目总数</tspan>
                </text>
                <g id="编组-21" transform="translate(30.000000, 44.000000)">
                    <circle id="椭圆形" stroke="#062440" fill="#000C1A" cx="25" cy="25" r="24.5"></circle>
                    <path d="M5,25 C5,36.045695 13.954305,45 25,45 C27.6919803,45 30.2597403,44.4681495 32.6039352,43.5037934" id="路径" stroke="#1890FF" opacity="0.65"></path>
                    <path d="M39.3189247,38.9631225 C42.8341804,35.3588583 45,30.4323563 45,25" id="路径" stroke="#FFFFFF" opacity="0.65"></path>
                    <path d="M43.9800385,18.6774072 C41.3339645,10.7302524 33.8361683,5 25,5" id="路径" stroke="#1890FF" opacity="0.65"></path>
                    <circle id="椭圆形" fill="url(#linearGradient-4)" cx="25" cy="25" r="15"></circle>
                    <g id="形状结合">
                        <use fill="black" fill-opacity="1" filter="url(#filter-6)" xlink:href="#path-5"></use>
                        <use fill="#1890FF" fill-rule="evenodd" xlink:href="#path-5"></use>
                    </g>
                </g>
                <text id="进行中" opacity="0.65" font-family="AlibabaPuHuiTi_2_65_Medium, Alibaba PuHuiTi 2.0" font-size="14" font-weight="400" line-spacing="14" fill="#FFFFFF">
                    <tspan x="394" y="233">进行中</tspan>
                </text>
                <g id="编组-21备份-3" transform="translate(329.000000, 180.000000)">
                    <circle id="椭圆形" stroke="#0F2326" fill="#000C1A" cx="25" cy="25" r="24.5"></circle>
                    <path d="M5,25 C5,36.045695 13.954305,45 25,45 C27.6919803,45 30.2597403,44.4681495 32.6039352,43.5037934" id="路径" stroke="#60E7FC" opacity="0.65"></path>
                    <path d="M39.3189247,38.9631225 C42.8341804,35.3588583 45,30.4323563 45,25" id="路径" stroke="#FFFFFF" opacity="0.65"></path>
                    <path d="M43.9800385,18.6774072 C41.3339645,10.7302524 33.8361683,5 25,5" id="路径" stroke="#60E7FC" opacity="0.65"></path>
                    <circle id="椭圆形" fill="url(#linearGradient-7)" cx="25" cy="25" r="15"></circle>
                    <g id="形状结合">
                        <use fill="black" fill-opacity="1" filter="url(#filter-9)" xlink:href="#path-8"></use>
                        <use fill="#53C7D9" fill-rule="evenodd" xlink:href="#path-8"></use>
                    </g>
                </g>
                <text id="超时" opacity="0.65" font-family="AlibabaPuHuiTi_2_65_Medium, Alibaba PuHuiTi 2.0" font-size="14" font-weight="400" line-spacing="14" fill="#FFFFFF">
                    <tspan x="394" y="97">超时</tspan>
                </text>
                <g id="编组-21备份" transform="translate(329.000000, 44.000000)">
                    <circle id="椭圆形" stroke="#2B1211" fill="#000C1A" cx="25" cy="25" r="24.5"></circle>
                    <path d="M5,25 C5,36.045695 13.954305,45 25,45 C27.6919803,45 30.2597403,44.4681495 32.6039352,43.5037934" id="路径" stroke="#CC5352" opacity="0.65"></path>
                    <path d="M39.3189247,38.9631225 C42.8341804,35.3588583 45,30.4323563 45,25" id="路径" stroke="#FFFFFF" opacity="0.65"></path>
                    <path d="M43.9800385,18.6774072 C41.3339645,10.7302524 33.8361683,5 25,5" id="路径" stroke="#CC5352" opacity="0.65"></path>
                    <circle id="椭圆形" fill="url(#linearGradient-10)" cx="25" cy="25" r="15"></circle>
                    <g id="形状结合">
                        <use fill="black" fill-opacity="1" filter="url(#filter-12)" xlink:href="#path-11"></use>
                        <use fill="#CC5352" fill-rule="evenodd" xlink:href="#path-11"></use>
                    </g>
                </g>
                <rect id="矩形" fill="#C9E5FF" opacity="0.2" x="299" y="171" width="2" height="68"></rect>
                <rect id="矩形备份-24" fill="#C9E5FF" opacity="0.2" x="299" y="35" width="2" height="68"></rect>
                <rect id="矩形" fill="#C9E5FF" opacity="0.2" x="30" y="136" width="192" height="2"></rect>
                <rect id="矩形备份-8" fill="#C9E5FF" opacity="0.2" x="378" y="136" width="192" height="2"></rect>
            </g>
        </g>
    </g>
</svg>