<svg xmlns="http://www.w3.org/2000/svg" xmlns:xlink="http://www.w3.org/1999/xlink" fill="none" version="1.1" width="65" height="65" viewBox="0 0 65 65"><defs><linearGradient x1="1" y1="0.5" x2="0" y2="0.5" id="master_svg0_295_26747"><stop offset="0.8571079932153225%" stop-color="#E8C413" stop-opacity="1"/><stop offset="43.71425211429596%" stop-color="#FFF6C9" stop-opacity="1"/><stop offset="100%" stop-color="#E8C413" stop-opacity="1"/></linearGradient><linearGradient x1="1" y1="0.5" x2="0" y2="0.5" id="master_svg1_295_26747"><stop offset="0.8571079932153225%" stop-color="#E8C413" stop-opacity="1"/><stop offset="43.71425211429596%" stop-color="#FFF6C9" stop-opacity="1"/><stop offset="100%" stop-color="#E8C413" stop-opacity="1"/></linearGradient><linearGradient x1="1" y1="0.5" x2="0" y2="0.5" id="master_svg2_295_26747"><stop offset="0.8571079932153225%" stop-color="#E8C413" stop-opacity="1"/><stop offset="43.71425211429596%" stop-color="#FFF6C9" stop-opacity="1"/><stop offset="100%" stop-color="#E8C413" stop-opacity="1"/></linearGradient></defs><g><g><rect x="0" y="0" width="65" height="65" rx="0" fill="#FFFFFF" fill-opacity="0.009999999776482582"/></g><g><g><g><ellipse cx="31.5" cy="52.916667461395264" rx="25.5" ry="7.083333492279053" fill="#CEAC00" fill-opacity="1"/></g><g><path d="M57,38.33333349227905L6,38.33333349227905L6,52.05883349227905C6,55.52413349227905,17.4167,58.33333349227905,31.5,58.33333349227905C45.5833,58.33333349227905,57,55.52413349227905,57,52.05883349227905L57,38.33333349227905Z" fill-rule="evenodd" fill="url(#master_svg0_295_26747)" fill-opacity="1"/></g><g><ellipse cx="31.5" cy="39.58333349227905" rx="25.5" ry="7.083333492279053" fill="#CEAC00" fill-opacity="1"/></g></g><g><g><path d="M57,25.000000476837158L6,25.000000476837158L6,38.725500476837155C6,42.190800476837154,17.4167,45.00000047683716,31.5,45.00000047683716C45.5833,45.00000047683716,57,42.190800476837154,57,38.725500476837155L57,25.000000476837158Z" fill-rule="evenodd" fill="url(#master_svg1_295_26747)" fill-opacity="1"/></g><g><ellipse cx="31.5" cy="26.250000476837158" rx="25.5" ry="7.083333492279053" fill="#CEAC00" fill-opacity="1"/></g></g><g><path d="M57,11.666666984558105L6,11.666666984558105L6,25.392166984558106C6,28.857466984558105,17.4167,31.666666984558105,31.5,31.666666984558105C45.5833,31.666666984558105,57,28.857466984558105,57,25.392166984558106L57,11.666666984558105Z" fill-rule="evenodd" fill="url(#master_svg2_295_26747)" fill-opacity="1"/></g><g><ellipse cx="31.5" cy="12.916666865348816" rx="25.5" ry="7.083333492279053" fill="#F9EDB4" fill-opacity="1"/></g><g><ellipse cx="31.5" cy="12.083333492279053" rx="25.5" ry="7.083333492279053" fill="#F3DF7C" fill-opacity="1"/></g><g><ellipse cx="53.60000002384186" cy="25.416667938232422" rx="0.8500000238418579" ry="1.25" fill="#FFFFFF" fill-opacity="1"/></g><g><ellipse cx="53.60000002384186" cy="38.75" rx="0.8500000238418579" ry="1.25" fill="#FFFFFF" fill-opacity="1"/></g><g><ellipse cx="53.60000002384186" cy="51.250003814697266" rx="0.8500000238418579" ry="1.25" fill="#FFFFFF" fill-opacity="1"/></g></g></g></svg>