<svg xmlns="http://www.w3.org/2000/svg" xmlns:xlink="http://www.w3.org/1999/xlink" fill="none" version="1.1" width="65.6558837890625" height="65" viewBox="0 0 65.6558837890625 65"><defs><linearGradient x1="0.5" y1="1" x2="0.5" y2="0" id="master_svg0_278_26846"><stop offset="0%" stop-color="#65B4A2" stop-opacity="1"/><stop offset="99.42853450775146%" stop-color="#A8D0C7" stop-opacity="1"/></linearGradient><filter id="master_svg1_295_29543" filterUnits="objectBoundingBox" color-interpolation-filters="sRGB" x="-6" y="-6" width="23.735260009765625" height="36.644670486450195"><feFlood flood-opacity="0" result="BackgroundImageFix"/><feColorMatrix in="SourceAlpha" type="matrix" values="0 0 0 0 0 0 0 0 0 0 0 0 0 0 0 0 0 0 127 0"/><feOffset dy="0" dx="0"/><feGaussianBlur stdDeviation="1.5"/><feColorMatrix type="matrix" values="0 0 0 0 0.1714285910129547 0 0 0 0 0.15322378277778625 0 0 0 0 0.15322378277778625 0 0 0 0.3400000035762787 0"/><feBlend mode="normal" in2="BackgroundImageFix" result="effect1_dropShadow"/><feBlend mode="normal" in="SourceGraphic" in2="effect1_dropShadow" result="shape"/></filter><filter id="master_svg2_295_29547" filterUnits="objectBoundingBox" color-interpolation-filters="sRGB" x="-6" y="-6" width="24.71943950653076" height="42.63304138183594"><feFlood flood-opacity="0" result="BackgroundImageFix"/><feColorMatrix in="SourceAlpha" type="matrix" values="0 0 0 0 0 0 0 0 0 0 0 0 0 0 0 0 0 0 127 0"/><feOffset dy="0" dx="0"/><feGaussianBlur stdDeviation="1.5"/><feColorMatrix type="matrix" values="0 0 0 0 0.1714285910129547 0 0 0 0 0.15322378277778625 0 0 0 0 0.15322378277778625 0 0 0 0.3400000035762787 0"/><feBlend mode="normal" in2="BackgroundImageFix" result="effect1_dropShadow"/><feBlend mode="normal" in="SourceGraphic" in2="effect1_dropShadow" result="shape"/></filter><filter id="master_svg3_295_29542" filterUnits="objectBoundingBox" color-interpolation-filters="sRGB" x="-6" y="-6" width="25.568995475769043" height="46.70774841308594"><feFlood flood-opacity="0" result="BackgroundImageFix"/><feColorMatrix in="SourceAlpha" type="matrix" values="0 0 0 0 0 0 0 0 0 0 0 0 0 0 0 0 0 0 127 0"/><feOffset dy="0" dx="0"/><feGaussianBlur stdDeviation="1.5"/><feColorMatrix type="matrix" values="0 0 0 0 0.1714285910129547 0 0 0 0 0.15322378277778625 0 0 0 0 0.15322378277778625 0 0 0 0.3400000035762787 0"/><feBlend mode="normal" in2="BackgroundImageFix" result="effect1_dropShadow"/><feBlend mode="normal" in="SourceGraphic" in2="effect1_dropShadow" result="shape"/></filter></defs><g><g><rect x="0.6558837890625" y="0" width="65" height="65" rx="0" fill="#FFFFFF" fill-opacity="0.009999999776482582"/></g><g transform="matrix(0.9989957213401794,0.04480542987585068,-0.03684784471988678,0.9993208646774292,0.26051956203446025,-0.11136201866065676)"><g><path d="M10.161389533605576,7.000976556097157C9.945019533605576,7.004152556097157,9.742329533605576,7.053215756097157,9.562989533605576,7.139230556097157L9.564579533605576,7.137695556097158C9.550979533605576,7.144492556097157,9.537509533605576,7.1514645560971575,9.524179533605576,7.158611556097157C9.408439533605575,7.218725556097158,9.303119533605575,7.294559556097157,9.210979533605576,7.383565556097158L3.0136494636055757,13.350766556097156C3.0123753736055754,13.352046556097157,3.0113365936055754,13.353046556097159,3.0102995336055756,13.354046556097156C3.0997406336055757,13.268716556097157,3.2016255336055757,13.195406556097158,3.3132485336055755,13.134486556097158C3.3166305336055757,13.132636556097157,3.3200215336055754,13.130796556097156,3.3234215336055755,13.128976556097157C3.5178225336055755,13.027966556097157,3.7415915336055754,12.971376556097157,3.9815415336055757,12.971376556097157L10.181989533605575,7.001177314097157C10.177849533605576,7.000976556097157,10.169619533605577,7.000976556097157,10.161389533605576,7.000976556097157ZM10.182009533605576,7.002441406097157L3.9815415336055757,12.972636556097157L54.27239953360557,12.972636556097157L60.472799533605574,7.002441406097157L10.182009533605576,7.002441406097157Z" fill-rule="evenodd" fill="#73BCAB" fill-opacity="1"/></g><g><path d="M55.84831619262695,14.45582609375L62.04875619262695,8.48974609375L64.58701619262695,47.79644609375L64.58701619262695,47.79644609375L64.58756619262695,47.80004609375L64.58756619262695,47.80004609375L64.58735619262696,47.80174609375L62.28439619262695,50.01764609375L58.387116192626955,53.77024609375L58.387116192626955,53.76764609375L55.84831619262695,14.45582609375ZM64.58762619262696,47.80594609375L64.58735619262696,47.80174609375L58.386866192626954,53.77134609375L58.38707619262695,53.77454609375L58.38717619262695,53.77604609375C58.39567619262695,53.91104609375,58.385596192626956,54.04254609375,58.35916619262695,54.16774609375L58.357816192626956,54.16904609375C58.35721619262695,54.17384609375,58.35652619262695,54.17864609375,58.35574619262695,54.18354609375C58.351926192626955,54.20064609375,58.347806192626955,54.21764609375,58.343376192626955,54.23454609375L58.34300619262695,54.23594609375C58.340216192626954,54.24654609375,58.337306192626954,54.25704609375,58.33427619262695,54.26754609375L58.33329619262695,54.26854609375C58.33241619262695,54.27244609375,58.331486192626954,54.27644609375,58.33051619262695,54.28034609375C58.32829619262695,54.28774609375,58.32601619262695,54.29524609375,58.323676192626955,54.30254609375C58.32023619262695,54.31344609375,58.316666192626954,54.32424609375,58.312976192626955,54.33494609375C58.31097619262695,54.34074609375,58.30893619262695,54.34654609375,58.30685619262695,54.35234609375C58.30353619262695,54.36024609375,58.30000619262695,54.36794609375,58.296256192626956,54.37544609375L58.29955619262695,54.37224609375L58.297576192626956,54.37744609375L58.29622619262695,54.37874609375C58.295066192626955,54.38264609375,58.29387619262695,54.38644609375,58.292646192626954,54.39024609375C58.291796192626954,54.39234609375,58.290946192626954,54.39454609375,58.290096192626955,54.39664609375C58.28928619262695,54.39874609375,58.288466192626956,54.40074609375,58.28764619262695,54.40274609375C58.284726192626955,54.41004609375,58.281746192626954,54.41724609375,58.278706192626956,54.42444609375C58.27766619262695,54.42684609375,58.276626192626956,54.42934609375,58.275566192626954,54.43184609375C58.27390619262695,54.43564609375,58.27222619262695,54.43954609375,58.270536192626956,54.44334609375C58.26875619262695,54.44744609375,58.26696619262695,54.45144609375,58.26516619262695,54.45544609375C58.262606192626954,54.46104609375,58.26000619262695,54.46674609375,58.25737619262695,54.47234609375C58.252846192626954,54.48074609375,58.247966192626954,54.48924609375,58.242726192626954,54.49804609375L58.247076192626956,54.49384609375L58.245506192626955,54.49704609375L58.244726192626956,54.49864609375C58.24157619262695,54.50494609375,58.238386192626955,54.51134609375,58.23513619262695,54.51764609375C58.167266192626954,54.64974609375,58.07898619262696,54.76894609375,57.97411619262695,54.87064609375L58.02631619262695,54.82044609375C58.008516192626956,54.83984609375,57.990176192626954,54.85904609375,57.971306192626955,54.87784609375L64.17174619262696,48.90764609375C64.24580619262696,48.83774609375,64.31163619262695,48.75554609375,64.36921619262695,48.66904609375C64.39801619262695,48.62384609375,64.42270619262695,48.57854609375,64.44738619262695,48.52924609375L64.44351619262696,48.53294609375C64.48072619262695,48.45854609375,64.51146619262695,48.38004609375,64.53503619262695,48.29824609375C64.53698619262696,48.29144609375,64.53888619262695,48.28464609375,64.54073619262695,48.27784609375L64.54205619262696,48.27304609375C64.54724619262696,48.25364609375,64.55204619262696,48.23404609375,64.55643619262695,48.21434609375C64.55715619262695,48.21104609375,64.55786619262696,48.20784609375,64.55855619262695,48.20464609375L64.55855619262695,48.20464609375L64.56267619262695,48.19994609375C64.56678619262695,48.16714609375,64.57501619262695,48.13424609375,64.57910619262695,48.10154609375C64.58163619262696,48.08134609375,64.58260619262695,48.06114609375,64.58390619262696,48.04084609375C64.58410619262695,48.03874609375,64.58429619262695,48.03664609375,64.58449619262696,48.03454609375C64.58541619262695,48.02454609375,64.58622619262695,48.01444609375,64.58694619262695,48.00434609375L64.58721619262695,48.00204609375C64.59132619262695,47.96914609375,64.59132619262695,47.93624609375,64.59155619262695,47.90304609375C64.59155619262695,47.87074609375,64.59155619262695,47.83834609375,64.58762619262696,47.80594609375Z" fill-rule="evenodd" fill="#408778" fill-opacity="1"/></g><g><path d="M55.58436660522461,13.68438171875C55.73466660522461,13.909391718750001,55.82986660522461,14.17405171875,55.84825660522461,14.45814171875L62.048696605224606,8.48795171875L62.048426605224606,8.48392171875C62.04866660522461,8.45079171875,62.04454660522461,8.41790171875,62.04042660522461,8.38510171875C62.03631660522461,8.34809171875,62.03219660522461,8.31520171875,62.02399660522461,8.27819171875C62.01600660522461,8.24229171875,62.00415660522461,8.20640171875,61.99594660522461,8.17050171875L61.99931660522461,8.16725171875C61.98697660522461,8.126131718749999,61.97462660522461,8.08502171875,61.95816660522461,8.04396171875C61.93759660522461,7.99873671875,61.917026605224606,7.94939571875,61.89644660522461,7.90416771875L61.89510660522461,7.90545471875C61.85843660522461,7.83235171875,61.81774660522461,7.75934671875,61.77303660522461,7.69436571875L61.77127660522461,7.69606271875C61.75837660522461,7.67735371875,61.74509660522461,7.65892871875,61.73144660522461,7.64079571875C61.66615660522461,7.55139071875,61.59223660522461,7.47059671875,61.50966660522461,7.39838771875C61.44795660522461,7.34082371875,61.38212660522461,7.29148271875,61.31219660522461,7.24607771875C61.26776660522461,7.21782671875,61.223346605224606,7.19353771875,61.17503660522461,7.16932171875L61.17640660522461,7.16800371875C61.13526660522461,7.14744471875,61.098236605224606,7.13099771875,61.05707660522461,7.11471171875C61.02416660522461,7.09826491875,60.987136605224606,7.08592981875,60.95010660522461,7.07346621875C60.91718660522461,7.06524271875,60.88016660522461,7.05290761875,60.84725660522461,7.04476451875C60.81433660522461,7.03654111875,60.78142660522461,7.02831771875,60.748506605224605,7.02419001875C60.71559660522461,7.01596651875,60.68267660522461,7.01185481875,60.64976660522461,7.00773511875C60.61684660522461,7.00362341875,60.58393660522461,6.99951171875,60.55103660522461,6.99951171875L60.47286660522461,6.99951171875L54.27242660522461,12.96971171875C54.77925060522461,12.96971171875,55.24193260522461,13.223361718749999,55.53360660522461,13.612661718750001C55.54571660522461,13.62969171875,55.55735660522461,13.64702171875,55.56847660522461,13.66467171875L55.56999660522461,13.66322171875C55.57484660522461,13.67023171875,55.57963660522461,13.677281718749999,55.58436660522461,13.68438171875Z" fill-rule="evenodd" fill="#95C9BF" fill-opacity="1"/></g><g><path d="M54.272152734375,12.97237390875C55.090952734375,12.97237390875,55.794452734375,13.63847071875,55.847952734375,14.46081171875L58.386652734375,53.77286171875C58.440052734375,54.59516171875,57.822952734375,55.26126171875,57.000052734375,55.26126171875L6.713322734375,55.26126171875C5.894542734374999,55.26126171875,5.186862734375,54.59516171875,5.1333727343749995,53.77286171875L2.594763004375,14.45670171875C2.541275234375,13.63435771875,3.162555734375,12.96826171875,3.981332734375,12.96826171875L54.272152734375,12.97237390875Z" fill="url(#master_svg0_278_26846)" fill-opacity="1"/></g><g transform="matrix(0.9997003674507141,-0.03498539328575134,0.034983254969120026,0.9990875124931335,-0.5733857761842955,0.2537102604364918)"><g transform="matrix(0.9957041144371033,-0.09266075491905212,0.09266075491905212,0.9956914186477661,-1.887953194750665,3.5425403683721584)" filter="url(#master_svg1_295_29543)"><g transform="matrix(-0.0899963453412056,0.9959539175033569,-0.9963874220848083,-0.08480066061019897,76.2618453781908,-23.69033297338119)"><path d="M54.593614168395995,25.613724667072297L51.405474168396,23.050974667072296L48.893874168395996,26.096184667072297L50.971714168396,25.831844667072296L50.971714168396,34.26857466707229L52.876954168396,34.26857466707229L52.876954168396,25.831844667072296L54.593614168395995,25.613724667072297Z" fill-rule="evenodd" fill="#F4F9F8" fill-opacity="1"/></g><g transform="matrix(-0.0899963453412056,0.9959539175033569,-0.9963874220848083,-0.08480066061019897,85.68119346056557,-13.510947345712651)"><path d="M54.62833172821045,35.02924503707886L51.44019172821045,32.46649503707886L48.92859172821045,35.511705037078855L51.00643172821045,35.24736503707886L51.00643172821045,43.684095037078855L52.91167172821045,43.684095037078855L52.91167172821045,35.24736503707886L54.62833172821045,35.02924503707886Z" fill-rule="evenodd" fill="#F4F9F8" fill-opacity="1"/></g><g transform="matrix(-0.0899963453412056,0.9959539175033569,-0.9963874220848083,-0.08480068296194077,94.26274378389473,-4.190788460143679)"><path d="M54.63880784057617,43.63044895553589L51.45066784057617,41.06769895553589L48.93906784057617,44.112908955535886L51.016907840576174,43.84856895553589L51.016907840576174,52.285298955535886L52.92214784057617,52.285298955535886L52.92214784057617,43.84856895553589L54.63880784057617,43.63044895553589Z" fill-rule="evenodd" fill="#F4F9F8" fill-opacity="1"/></g></g><g transform="matrix(0.9975450038909912,-0.07006710767745972,0.07006710767745972,0.9975395798683167,-1.1981749095422956,0.5207215152298588)" filter="url(#master_svg2_295_29547)"><g transform="matrix(-0.3862093687057495,0.9224110841751099,-0.9237633943557739,-0.3829638659954071,46.82219831410136,12.042464178713711)"><path d="M25.080270827331542,24.181232708625792L21.884270827331544,21.624802708625793L19.366480827331543,24.662502708625794L21.449440827331543,24.398812708625794L21.449440827331543,32.81480270862579L23.35938082733154,32.81480270862579L23.35938082733154,24.398812708625794L25.080270827331542,24.181232708625792Z" fill-rule="evenodd" fill="#F4F9F8" fill-opacity="1"/></g><g transform="matrix(0.19339405000209808,0.9811211824417114,-0.9803305268287659,0.1973627507686615,42.59573750444921,5.126899175003491)"><path d="M23.81047429016113,31.107527194404604L20.628744290161134,28.539627194404602L18.122194290161133,31.590957194404602L20.195854290161133,31.3260871944046L20.195854290161133,39.779827194404604L22.09727429016113,39.779827194404604L22.09727429016113,31.3260871944046L23.81047429016113,31.107527194404604Z" fill-rule="evenodd" fill="#F4F9F8" fill-opacity="1"/></g><g transform="matrix(0.4621312916278839,0.8868114948272705,-0.8864593505859375,0.46280649304389954,42.54187505886193,5.263297838045702)"><path d="M22.59713831542969,40.297664938545225L19.42031831542969,37.72581493854523L16.917648315429688,40.78185493854523L18.988108315429688,40.51656493854523L18.988108315429688,48.98331493854523L20.886578315429688,48.98331493854523L20.886578315429688,40.51656493854523L22.59713831542969,40.297664938545225Z" fill-rule="evenodd" fill="#F4F9F8" fill-opacity="1"/></g></g><g transform="matrix(0.998996376991272,-0.044790882617235184,0.036859821528196335,0.9993204474449158,-0.6328086061095313,0.9934755571549303)" filter="url(#master_svg3_295_29542)"><path d="M21.910789489746094,18.669641255973815L21.910789489746094,50.78606725597382C21.910789489746094,51.261767255973815,22.279025489746093,51.656267255973816,22.753577489746093,51.688967255973814L34.08408948974609,52.47016725597381C34.602389489746095,52.50586725597382,35.044389489746095,52.098867255973815,35.0512894897461,51.57926725597382L35.47968948974609,19.464977255973817C35.48608948974609,18.983877255973816,35.114989489746094,18.581852255973814,34.634889489746094,18.549874255973815L22.875973489746094,17.766609155973814C22.353622489746094,17.731815155973816,21.910789489746094,18.146132255973814,21.910789489746094,18.669641255973815Z" fill="#CAE8E1" fill-opacity="1"/></g><g transform="matrix(1,0.011027935892343521,-0.011027934029698372,1,0.2038695512622155,-0.2570467293216012)"><g transform="matrix(0.9985972046852112,-0.05457793176174164,0.04466691613197327,0.9990021586418152,-0.817629036189615,1.2911360008355608)"><path d="M23.30868911743164,21.514410902843476C23.30868911743164,21.663320902843473,23.42862511743164,21.784440902843475,23.577519117431642,21.785900902843476L26.66499911743164,21.816100902843473C26.81513911743164,21.817570902843475,26.93795911743164,21.696890902843474,26.93912911743164,21.546740902843474L26.95631911743164,19.344250902843477C26.957489117431642,19.194516902843475,26.83720911743164,19.072104902843474,26.68748911743164,19.070645902843474L23.58282011743164,19.040393072843475C23.43185611743164,19.038922032843477,23.30868911743164,19.160899902843475,23.30868911743164,19.311878902843475L23.30868911743164,21.514410902843476Z" fill="#D06858" fill-opacity="1"/></g><g transform="matrix(0.998597264289856,-0.05457793176174164,0.04466691613197327,0.9990022778511047,-0.8022274677773424,1.5376989103672507)"><path d="M27.830069065093994,19.109049514720915L27.830069065093994,21.311561514720918C27.830069065093994,21.460471514720915,27.950007065093995,21.581591514720916,28.098903065093992,21.583041514720918L33.905779065093995,21.639771514720916C34.05590906509399,21.641241514720917,34.178729065094,21.520561514720917,34.179909065093995,21.370421514720917L34.197189065093994,19.16834851472092C34.198359065093996,19.018617514720916,34.078099065093994,18.896202314720917,33.928369065093996,18.894732614720915L28.104219065093993,18.837563494720918C27.953247065093993,18.836081574720918,27.830069065093994,18.95806251472092,27.830069065093994,19.109049514720915Z" fill="#D06858" fill-opacity="1"/></g><g transform="matrix(0.9985972046852112,-0.05457793176174164,0.04466691613197327,0.9990021586418152,-0.9543566414190892,1.6965331322385069)"><path d="M30.67635202407837,24.80684613166809C30.67635202407837,24.95575613166809,30.79628802407837,25.07687613166809,30.94518202407837,25.07833613166809L34.03266202407837,25.10853613166809C34.18280202407837,25.11000613166809,34.30562202407837,24.98932613166809,34.30679202407837,24.83917613166809L34.32398202407837,22.636686131668093C34.32515202407837,22.48695213166809,34.20487202407837,22.36454013166809,34.05515202407837,22.36308113166809L30.95048302407837,22.33282830166809C30.799519024078368,22.331357261668092,30.67635202407837,22.45333513166809,30.67635202407837,22.60431413166809L30.67635202407837,24.80684613166809Z" fill="#D06858" fill-opacity="1"/></g><g transform="matrix(0.998597264289856,-0.05457793176174164,0.04466691613197327,0.9990022778511047,-0.9789954835365151,1.3020187971955473)"><path d="M23.44201199710369,22.928716198394774L23.44201199710369,25.131228198394776C23.44201199710369,25.280138198394773,23.561949997103692,25.401258198394775,23.71084599710369,25.402708198394777L29.517721997103692,25.459438198394775C29.66785199710369,25.460908198394776,29.79067199710369,25.340228198394776,29.79185199710369,25.190088198394776L29.80913199710369,22.988015198394777C29.810301997103693,22.838284198394774,29.69004199710369,22.715868998394775,29.540311997103693,22.714399298394774L23.71616199710369,22.657230178394776C23.56518999710369,22.655748258394777,23.44201199710369,22.777729198394777,23.44201199710369,22.928716198394774Z" fill="#D06858" fill-opacity="1"/></g><g transform="matrix(0.9985972046852112,-0.05457793176174164,0.04466691613197327,0.9990021586418152,-1.140358989429778,1.3129130228280559)"><path d="M23.57544532418251,28.74804567276001C23.57544532418251,28.896955672760008,23.69538132418251,29.01807567276001,23.84427532418251,29.01953567276001L26.93175532418251,29.049735672760008C27.08189532418251,29.05120567276001,27.20471532418251,28.93052567276001,27.20588532418251,28.78037567276001L27.22307532418251,26.57788567276001C27.22424532418251,26.42815167276001,27.10396532418251,26.30573967276001,26.95424532418251,26.304280672760008L23.84957632418251,26.27402784276001C23.69861232418251,26.27255680276001,23.57544532418251,26.39453467276001,23.57544532418251,26.54551367276001L23.57544532418251,28.74804567276001Z" fill="#D06858" fill-opacity="1"/></g><g transform="matrix(0.998597264289856,-0.05457793176174164,0.04466691613197327,0.9990022778511047,-1.1249574371264401,1.5594750619105398)"><path d="M28.096825122833252,26.34268428463745L28.096825122833252,28.545196284637452C28.096825122833252,28.69410628463745,28.216763122833253,28.81522628463745,28.36565912283325,28.816676284637452L34.17253512283325,28.87340628463745C34.32266512283325,28.874876284637452,34.445485122833254,28.75419628463745,34.44666512283325,28.60405628463745L34.46394512283325,26.401983284637453C34.465115122833254,26.25225228463745,34.34485512283325,26.12983708463745,34.195125122833254,26.12836738463745L28.37097512283325,26.071198264637452C28.22000312283325,26.069716344637452,28.096825122833252,26.191697284637453,28.096825122833252,26.34268428463745Z" fill="#D06858" fill-opacity="1"/></g><g transform="matrix(0.9985972046852112,-0.05457793176174164,0.04466691613197327,0.9990021586418152,-1.2908139997423405,1.7229116215458617)"><path d="M31.021754264831543,32.3502790826416C31.021754264831543,32.4991890826416,31.141690264831542,32.620309082641604,31.290584264831544,32.6217690826416L34.37806426483154,32.6519690826416C34.528204264831544,32.653439082641604,34.65102426483154,32.532759082641604,34.65219426483154,32.3826090826416L34.66938426483154,30.180119082641603C34.670554264831544,30.0303850826416,34.55027426483154,29.9079730826416,34.40055426483154,29.9065140826416L31.295885264831544,29.8762612526416C31.14492126483154,29.874790212641603,31.021754264831543,29.9967680826416,31.021754264831543,30.1477470826416L31.021754264831543,32.3502790826416Z" fill="#D06858" fill-opacity="1"/></g><g transform="matrix(0.998597264289856,-0.05457793176174164,0.04466691613197327,0.9990022778511047,-1.3010264453268086,1.32716934533007)"><path d="M23.770845621824265,30.14865113873291L23.770845621824265,32.35116313873291C23.770845621824265,32.50007313873291,23.890783621824266,32.62119313873291,24.039679621824263,32.62264313873291L29.846555621824265,32.67937313873291C29.996685621824263,32.68084313873291,30.119505621824263,32.56016313873291,30.120685621824265,32.41002313873291L30.137965621824264,30.20795013873291C30.139135621824266,30.05821913873291,30.018875621824264,29.93580393873291,29.869145621824266,29.93433423873291L24.044995621824263,29.87716511873291C23.894023621824264,29.87568319873291,23.770845621824265,29.99766413873291,23.770845621824265,30.14865113873291Z" fill="#D06858" fill-opacity="1"/></g><g transform="matrix(0.9985972046852112,-0.05457793176174164,0.04466691613197327,0.9990021586418152,-1.4628529078570978,1.3308122068771766)"><path d="M23.771287471055984,35.9741690057373C23.771287471055984,36.1230790057373,23.891223471055984,36.24419900573731,24.040117471055986,36.2456590057373L27.127597471055985,36.2758590057373C27.277737471055985,36.27732900573731,27.400557471055983,36.15664900573731,27.401727471055985,36.006499005737304L27.418917471055984,33.804009005737306C27.420087471055986,33.654275005737304,27.299807471055985,33.53186300573731,27.150087471055983,33.5304040057373L24.045418471055985,33.50015117573731C23.894454471055983,33.4986801357373,23.771287471055984,33.620658005737305,23.771287471055984,33.771637005737304L23.771287471055984,35.9741690057373Z" fill="#D06858" fill-opacity="1"/></g><g transform="matrix(0.998597264289856,-0.05457793176174164,0.04466691613197327,0.9990022778511047,-1.4565078405126428,1.577738537383155)"><path d="M28.295649528503418,33.7716570057373L28.295649528503418,35.9741690057373C28.295649528503418,36.1230790057373,28.41558752850342,36.24419900573731,28.564483528503416,36.245649005737306L34.37135952850342,36.30237900573731C34.521489528503416,36.303849005737305,34.64430952850342,36.183169005737305,34.64548952850342,36.033029005737305L34.66276952850342,33.830956005737306C34.66393952850342,33.6812250057373,34.54367952850342,33.558809805737305,34.39394952850342,33.5573401057373L28.569799528503417,33.500170985737306C28.418827528503417,33.4986890657373,28.295649528503418,33.6206700057373,28.295649528503418,33.7716570057373Z" fill="#D06858" fill-opacity="1"/></g><g transform="matrix(0.9985972046852112,-0.05457793176174164,0.04466691613197327,0.9990021586418152,-1.5998166381686758,1.7400871880049777)"><path d="M31.209864616394043,39.27411769805908C31.209864616394043,39.42302769805908,31.329800616394042,39.544147698059085,31.478694616394044,39.54560769805908L34.56617461639404,39.57580769805908C34.716314616394044,39.577277698059085,34.83913461639404,39.456597698059085,34.84030461639404,39.30644769805908L34.85749461639404,37.103957698059084C34.858664616394044,36.95422369805908,34.73838461639404,36.831811698059084,34.58866461639404,36.83035269805908L31.483995616394044,36.800099868059085C31.33303161639404,36.79862882805908,31.209864616394043,36.92060669805908,31.209864616394043,37.07158569805908L31.209864616394043,39.27411769805908Z" fill="#D06858" fill-opacity="1"/></g><g transform="matrix(0.998597264289856,-0.05457793176174164,0.04466691613197327,0.9990022778511047,-1.620517621745936,1.3343299290810435)"><path d="M23.771287471055984,37.301412598083495L23.771287471055984,39.50392459808349C23.771287471055984,39.652834598083494,23.891225471055986,39.7739545980835,24.040121471055983,39.7754045980835L29.846997471055985,39.8321345980835C29.997127471055983,39.8336045980835,30.119947471055983,39.7129245980835,30.121127471055985,39.562784598083496L30.138407471055984,37.3607115980835C30.139577471055986,37.210980598083495,30.019317471055984,37.088565398083496,29.869587471055986,37.087095698083495L24.045437471055983,37.0299265780835C23.894465471055984,37.028444658083494,23.771287471055984,37.150425598083494,23.771287471055984,37.301412598083495Z" fill="#D06858" fill-opacity="1"/></g><g transform="matrix(0.9985972046852112,-0.05457793176174164,0.04466691613197327,0.9990021586418152,-1.7700860684350062,1.3376756749823997)"><path d="M23.771287471055984,42.85248493133545C23.771287471055984,43.00139493133545,23.891223471055984,43.12251493133545,24.040117471055986,43.12397493133545L27.127597471055985,43.15417493133545C27.277737471055985,43.15564493133545,27.400557471055983,43.03496493133545,27.401727471055985,42.88481493133545L27.418917471055984,40.68232493133545C27.420087471055986,40.53259093133545,27.299807471055985,40.41017893133545,27.150087471055983,40.40871993133545L24.045418471055985,40.37846710133545C23.894454471055983,40.37699606133545,23.771287471055984,40.49897393133545,23.771287471055984,40.64995293133545L23.771287471055984,42.85248493133545Z" fill="#D06858" fill-opacity="1"/></g><g transform="matrix(0.998597264289856,-0.05457793176174164,0.04466691613197327,0.9990022778511047,-1.7637410010905512,1.5846011855292232)"><path d="M28.295649528503418,40.64997293133545L28.295649528503418,42.85248493133545C28.295649528503418,43.00139493133545,28.41558752850342,43.12251493133545,28.564483528503416,43.12396493133545L34.37135952850342,43.18069493133545C34.521489528503416,43.18216493133545,34.64430952850342,43.06148493133545,34.64548952850342,42.91134493133545L34.66276952850342,40.70927193133545C34.66393952850342,40.55954093133545,34.54367952850342,40.43712573133545,34.39394952850342,40.43565603133545L28.569799528503417,40.37848691133545C28.418827528503417,40.37700499133545,28.295649528503418,40.49898593133545,28.295649528503418,40.64997293133545Z" fill="#D06858" fill-opacity="1"/></g><g transform="matrix(0.9985972046852112,-0.05457793176174164,0.04466691613197327,0.9990021586418152,-1.9225465996049422,1.7618642020431565)"><path d="M31.4766206741333,46.50775264678955C31.4766206741333,46.65666264678955,31.5965566741333,46.777782646789554,31.745450674133302,46.77924264678955L34.8329306741333,46.80944264678955C34.9830706741333,46.81091264678955,35.1058906741333,46.69023264678955,35.1070606741333,46.54008264678955L35.1242506741333,44.33759264678955C35.1254206741333,44.18785864678955,35.0051406741333,44.06544664678955,34.8554206741333,44.06398764678955L31.7507516741333,44.033734816789554C31.5997876741333,44.03226377678955,31.4766206741333,44.15424164678955,31.4766206741333,44.30522064678955L31.4766206741333,46.50775264678955Z" fill="#D06858" fill-opacity="1"/></g><g transform="matrix(0.998597264289856,-0.05457793176174164,0.04466691613197327,0.9990022778511047,-1.9471854362376888,1.3673472764213486)"><path d="M24.24228060245514,44.62962152142334L24.24228060245514,46.83213352142334C24.24228060245514,46.98104352142334,24.36221860245514,47.10216352142334,24.511114602455137,47.10361352142334L30.31799060245514,47.16034352142334C30.468120602455137,47.16181352142334,30.590940602455138,47.04113352142334,30.59212060245514,46.89099352142334L30.60940060245514,44.68892052142334C30.61057060245514,44.53918952142334,30.49031060245514,44.41677432142334,30.34058060245514,44.41530462142334L24.516430602455138,44.35813550142334C24.36545860245514,44.35665358142334,24.24228060245514,44.47863452142334,24.24228060245514,44.62962152142334Z" fill="#D06858" fill-opacity="1"/></g><g transform="matrix(0.9985972046852112,-0.05457793176174164,0.04466691613197327,0.9990021586418152,-2.108548894410326,1.37824408981664)"><path d="M24.37571394443512,50.44895099578857C24.37571394443512,50.59786099578857,24.49564994443512,50.71898099578858,24.64454394443512,50.72044099578857L27.73202394443512,50.75064099578857C27.88216394443512,50.75211099578858,28.004983944435118,50.63143099578858,28.00615394443512,50.48128099578857L28.02334394443512,48.278790995788576C28.02451394443512,48.129056995788574,27.90423394443512,48.00664499578858,27.754513944435118,48.00518599578857L24.64984494443512,47.97493316578858C24.49888094443512,47.97346212578857,24.37571394443512,48.095439995788574,24.37571394443512,48.246418995788574L24.37571394443512,50.44895099578857Z" fill="#D06858" fill-opacity="1"/></g><g transform="matrix(0.998597264289856,-0.05457793176174164,0.04466691613197327,0.9990022778511047,-2.093147432362599,1.6248035445276656)"><path d="M28.897093772888184,48.04359056134033L28.897093772888184,50.24610256134033C28.897093772888184,50.39501256134033,29.017031772888185,50.516132561340335,29.165927772888182,50.51758256134033L34.972803772888184,50.574312561340335C35.12293377288818,50.57578256134033,35.245753772888186,50.45510256134033,35.246933772888184,50.30496256134033L35.26421377288818,48.102889561340334C35.265383772888185,47.95315856134033,35.145123772888184,47.83074336134033,34.995393772888185,47.82927366134033L29.171243772888182,47.77210454134033C29.020271772888183,47.77062262134033,28.897093772888184,47.89260356134033,28.897093772888184,48.04359056134033Z" fill="#D06858" fill-opacity="1"/></g></g></g></g></g></svg>