<svg xmlns="http://www.w3.org/2000/svg" xmlns:xlink="http://www.w3.org/1999/xlink" fill="none" version="1.1" width="65" height="65" viewBox="0 0 65 65"><defs><mask id="master_svg0_278_25095" style="mask-type:alpha" maskUnits="userSpaceOnUse"><g><path d="M27.175813674926758,48.859516158976476L33.845303674926754,52.495926158976474C35.548523674926756,53.42555615897648,36.67815367492676,55.32587615897648,36.67523367492676,57.669016158976476C36.67230367492676,58.56638615897648,36.50842367492676,59.44031615897647,36.20699367492676,60.25851615897648L29.537503674926757,56.62208615897647C29.838923674926757,55.800956158976476,30.00573367492676,54.92997615897647,30.00573367492676,54.03260615897648C30.00866367492676,51.68946615897647,28.87903367492676,49.78914615897648,27.175813674926758,48.859516158976476Z" fill="#FFFFFF" fill-opacity="1"/></g></mask><mask id="master_svg1_278_25092" style="mask-type:alpha" maskUnits="userSpaceOnUse"><g><path d="M27.175813674926758,48.859516158976476L33.845303674926754,52.495926158976474C35.548523674926756,53.42555615897648,36.67815367492676,55.32587615897648,36.67523367492676,57.669016158976476C36.67230367492676,58.56638615897648,36.50842367492676,59.44031615897647,36.20699367492676,60.25851615897648L29.537503674926757,56.62208615897647C29.838923674926757,55.800956158976476,30.00573367492676,54.92997615897647,30.00573367492676,54.03260615897648C30.00866367492676,51.68946615897647,28.87903367492676,49.78914615897648,27.175813674926758,48.859516158976476Z" fill="#FFFFFF" fill-opacity="1"/></g></mask><linearGradient x1="0" y1="0.5" x2="1" y2="0.5" id="master_svg2_278_25131"><stop offset="0%" stop-color="#95C9BF" stop-opacity="1"/><stop offset="100%" stop-color="#36A888" stop-opacity="1"/></linearGradient><linearGradient x1="0" y1="-0.004017223138362169" x2="0.5" y2="1" id="master_svg3_278_25098"><stop offset="5.479452013969421%" stop-color="#80C0B2" stop-opacity="1"/><stop offset="100%" stop-color="#5EB19E" stop-opacity="1"/></linearGradient><linearGradient x1="0" y1="-0.004017223138362169" x2="0.5" y2="1" id="master_svg4_278_25098"><stop offset="5.479452013969421%" stop-color="#80C0B2" stop-opacity="1"/><stop offset="100%" stop-color="#5EB19E" stop-opacity="1"/></linearGradient></defs><g><g><rect x="0" y="0" width="65" height="65" rx="0" fill="#FFFFFF" fill-opacity="0.009999999776482582"/></g><g><g><g><path d="M57.81920953369141,26.45459280143253L57.673409533691405,26.37511280143253C57.722609533691404,26.40087280143253,57.77090953369141,26.42668280143253,57.81920953369141,26.45166280143253L51.149699533691404,22.81524780143253C51.07033953369141,22.771636801432532,50.988749533691404,22.73026980143253,50.9068595336914,22.689184801432532L50.87461953369141,22.67160280143253C50.415149533691405,22.44872580143253,49.93227953369141,22.26690680143253,49.4289295336914,22.13787180143253L49.43140953369141,22.13922580143253C48.446399533691405,21.88457700143253,47.380919533691404,21.820368401432532,46.26830953369141,21.97652920143253C45.665459533691404,22.06157480143253,45.07430553369141,22.21113680143253,44.500709533691406,22.41055380143253L51.170209533691406,26.04702280143253C51.74672953369141,25.84760280143253,52.33787953369141,25.698042801432532,52.93780953369141,25.61299280143253C53.1033595336914,25.58979280143253,53.267939533691404,25.57143280143253,53.43140953369141,25.55782280143253C53.48961953369141,25.55300280143253,53.54767953369141,25.54879280143253,53.605599533691404,25.54518280143253C55.149009533691405,25.44903280143253,56.5849095336914,25.78230280143253,57.81920953369141,26.45459280143253Z" fill-rule="evenodd" fill="#95C9BF" fill-opacity="1"/></g><g><g><g mask="url(#master_svg0_278_25095)"><g><path d="M36.20406164764404,60.2614322486066L29.534571647644043,56.625013228606605L29.534571647644043,56.6220822486066L36.206991647644045,60.2584922486066L36.20406164764404,60.2614322486066Z" fill="#003737" fill-opacity="1"/></g></g><g mask="url(#master_svg1_278_25092)"><g><path d="M36.20699367492676,60.25851615897648L29.537503674926757,56.62208615897647C29.838923674926757,55.800956158976476,30.002813674926756,54.92997615897647,30.00573367492676,54.03260615897648C30.00866367492676,51.68946615897647,28.87903367492676,49.78914615897648,27.175813674926758,48.859516158976476L33.845303674926754,52.495926158976474C35.548523674926756,53.42555615897648,36.67815367492676,55.32587615897648,36.67523367492676,57.669016158976476C36.67230367492676,58.56638615897648,36.505493674926754,59.43731615897647,36.20699367492676,60.25851615897648Z" fill="#408778" fill-opacity="1"/></g></g></g></g><g><g><path d="M39.48759569763183,14.988103242106359L32.818105697631836,11.351693242106359L44.52410569763184,9.703573242106359L51.196505697631835,13.339983242106358L39.48759569763183,14.988103242106359Z" fill="#95C9BF" fill-opacity="1"/></g></g><g><g><path d="M9.66949,63.99751019584171L3,60.36111019584171L3.029265,44.53981019584171L9.69876,48.17622019584171L9.66949,63.99751019584171Z" fill="#95C9BF" fill-opacity="1"/></g></g><g><g><g><path d="M9.136874999553562,37.09103396964542C9.139794999553562,34.74789396964542,8.010164999553561,32.847573969645424,6.306944999553561,31.91794396964542L12.976434999553561,35.55435396964542C14.67966499955356,36.48398396964542,15.80926499955356,38.38430396964542,15.806364999553562,40.72744396964542C15.806364999553562,41.621883969645424,15.639564999553562,42.49874396964542,15.33816499955356,43.31984396964542C15.229564999553562,43.61904396964542,15.102264999553562,43.909943969645425,14.95796499955356,44.190743969645425C14.956964999553561,44.19264396964542,14.955964999553562,44.19454396964542,14.955064999553562,44.19644396964542C14.92956499955356,44.24644396964542,14.903564999553561,44.296043969645424,14.87716499955356,44.34544396964542L14.87866499955356,44.34624396964542C14.828564999553562,44.43784396964542,14.776964999553561,44.52854396964542,14.72386499955356,44.61814396964542C14.721764999553562,44.62174396964542,14.719664999553562,44.625243969645425,14.717664999553561,44.62884396964542C14.62936499955356,44.77844396964542,14.53636499955356,44.92494396964542,14.438964999553562,45.06804396964542C14.41986499955356,45.09644396964542,14.400564999553561,45.12464396964542,14.381164999553562,45.15274396964542C14.36406499955356,45.17674396964542,14.346964999553562,45.20074396964542,14.32976499955356,45.224543969645424C14.311364999553561,45.250243969645425,14.292764999553562,45.27584396964542,14.274064999553561,45.30134396964542C13.95716499955356,45.73304396964542,13.59876499955356,46.13024396964542,13.206564999553562,46.483543969645424L13.207664999553561,46.48414396964542C13.134364999553561,46.54924396964542,13.06006499955356,46.613243969645424,12.984534999553562,46.67584396964542C12.894794999553561,46.75054396964542,12.803454999553562,46.82304396964542,12.710594999553562,46.89314396964542L12.710594999553562,46.89314396964542C12.63142499955356,46.95304396964542,12.55137499955356,47.01124396964542,12.47016499955356,47.06764396964542C12.157024999553562,47.28464396964542,11.823404999553562,47.47824396964542,11.48099499955356,47.63954396964542C11.380154999553561,47.686643969645424,11.27829499955356,47.73124396964542,11.175454999553562,47.77324396964542C11.175004999553561,47.77344396964542,11.174564999553562,47.77364396964542,11.174114999553561,47.77374396964542C10.70152499955356,47.96734396964542,10.207324999553562,48.104443969645416,9.698754999553561,48.17624396964542L3.029264999553561,44.53984396964542C3.4478139995535613,44.48044396964542,3.8557079995535615,44.37704396964542,4.250254999553562,44.23504396964542C5.087404999553561,43.93274396964542,5.862994999553561,43.45374396964542,6.538324999553561,42.844843969645424L6.538324999553561,42.844843969645424C6.5541249995535615,42.83044396964542,6.570054999553561,42.81604396964542,6.585914999553561,42.80154396964542C7.231284999553561,42.20964396964542,7.782934999553561,41.49858396964542,8.206414999553562,40.70993396964542L8.206414999553562,40.70993396964542C8.357984999553562,40.428163969645425,8.490694999553561,40.138003969645425,8.607974999553562,39.84118396964542C8.628314999553561,39.78916396964542,8.64809499955356,39.73697396964542,8.66733499955356,39.68455396964542C8.968434999553562,38.86390396964542,9.13542499955356,37.98670396964542,9.136874999553562,37.09103396964542Z" fill-rule="evenodd" fill="url(#master_svg2_278_25131)" fill-opacity="1"/></g></g></g><g><g><g><g><path d="M28.47420948638916,1.8048514966315432L28.42840948638916,1.7798714966315432C28.522109486389162,1.8267924966315432,28.61570948638916,1.8737134966315432,28.706409486389163,1.9235674966315432L35.37590948638916,5.559984496631543C35.335309486389164,5.5389744966315435,35.29410948638916,5.517384496631543,35.25260948638916,5.495734496631544L35.37580948638916,5.562934496631543C33.96530948638916,4.794594496631543,32.29130948638916,4.469074496631543,30.49440948638916,4.721284496631544C29.70730948638916,4.831994496631543,28.94300948638916,5.047294496631543,28.21370948638916,5.352594496631543C28.08410948638916,5.4071244966315435,27.95560948638916,5.464554496631544,27.82830948638916,5.524784496631543L27.82730948638916,5.524244496631543C27.80310948638916,5.5356444966315435,27.77890948638916,5.547154496631543,27.75470948638916,5.558754496631543C27.26510948638916,5.794824496631543,26.79420948638916,6.070804496631543,26.34190948638916,6.384164496631543C25.95830948638916,6.650834496631544,25.58670948638916,6.944034496631543,25.23560948638916,7.260684496631543C24.90770948638916,7.554044496631543,24.597549486389163,7.870764496631543,24.30196948638916,8.205084496631542C24.009259486389162,8.536424496631543,23.73416948638916,8.885394496631543,23.47956948638916,9.251964496631544L23.478459486389163,9.251354496631544L23.47956948638916,9.251964496631544C23.20773948638916,9.638824496631543,22.959229486389162,10.043074496631544,22.73407948638916,10.461954496631543L22.73623948638916,10.463134496631543C22.46699948638916,10.958744496631542,22.235809486389158,11.474884496631542,22.042659486389162,12.005684496631543C21.59173948638916,13.236284496631542,21.34036948638916,14.552184496631543,21.33744948638916,15.894484496631543C21.33744948638916,16.360684496631542,21.36553948638916,16.814984496631546,21.42173948638916,17.253784496631543C21.422459486389158,17.259484496631543,21.42318948638916,17.265184496631544,21.42392948638916,17.270784496631542C21.433539486389158,17.344784496631544,21.443939486389162,17.418284496631543,21.45513948638916,17.491284496631543C21.45685948638916,17.502484496631542,21.45859948638916,17.513784496631544,21.46035948638916,17.524984496631543L14.79088148638916,13.888584496631543C14.70765198638916,13.376684496631544,14.66664515638916,12.839584496631543,14.66783462798916,12.290784496631543C14.667809622071161,10.844504496631544,14.66780948638916,9.860114496631542,15.30467448638916,8.383564496631543L15.37316748638916,8.369264496631544C15.56906648638916,7.838944496631544,15.80001948638916,7.323264496631543,16.06602948638916,6.828064496631543L16.06386948638916,6.826884496631543C16.28920948638916,6.407524496631543,16.53795948638916,6.002824496631543,16.810119486389162,5.615724496631543L20.19751948638916,7.462634496631543L16.810119486389162,5.615724496631543C17.06468948638916,5.248984496631543,17.339779486389162,4.900004496631543,17.63242948638916,4.568614496631543C17.92805948638916,4.234344496631543,18.23826948638916,3.920564496631543,18.56602948638916,3.624374496631543L22.289489486389158,5.654524496631543L18.56602948638916,3.624374496631543C18.91732948638916,3.307554496631543,19.28605948638916,3.014294496631543,19.672359486389162,2.747424496631543C20.146639486389162,2.419194496631543,20.64112948638916,2.131864496631543,21.15609948638916,1.8884984966315432L24.54110948638916,3.7341044966315433L21.15609948638916,1.8884984966315432C22.00165948638916,1.4895444966315432,22.89716948638916,1.213880496631543,23.82486948638916,1.0848469966315433C25.17830948638916,0.8949174966315432,26.46190948638916,1.0310249966315432,27.61580948638916,1.4393154966315431C27.618209486389162,1.4401424966315433,27.62050948638916,1.4409714966315432,27.62280948638916,1.4418004966315432C27.62760948638916,1.4434924966315432,27.63240948638916,1.445189496631543,27.63710948638916,1.4468904966315432C27.70890948638916,1.472509496631543,27.780109486389158,1.499181496631543,27.85080948638916,1.5268934966315433C27.853309486389158,1.5278744966315432,27.855809486389163,1.5288574966315431,27.85830948638916,1.5298414966315432C28.05200948638916,1.6059074966315432,28.24210948638916,1.689499496631543,28.42840948638916,1.7798714966315432L28.47420948638916,1.8048514966315432Z" fill-rule="evenodd" fill="#95C9BF" fill-opacity="1"/></g></g></g></g><g><g><path d="M9.754361992044448,19.17584166068546L3.081941992044449,15.53943166068546L14.790841992044449,13.89131166068546L21.460341992044448,17.52479166068546L9.754361992044448,19.17584166068546Z" fill="#95C9BF" fill-opacity="1"/></g></g><g><g><path d="M30.494458265686035,4.721102438840978C35.542658265686036,4.011415238840978,39.628058265686036,7.861902238840978,39.619258265686035,13.322392238840978C39.619258265686035,13.882512238840977,39.575358265686035,14.442642238840978,39.48755826568603,14.988122238840978L51.193558265686036,13.339982238840978L51.170158265686034,26.046922238840978C51.74375826568603,25.847522238840977,52.33495826568603,25.697922238840977,52.937758265686035,25.612922238840977C57.98595826568604,24.90322223884098,62.07135826568604,28.75372223884098,62.06265826568603,34.21412223884098C62.05385826568604,39.67172223884098,57.94795826568603,44.677622238840975,52.902658265686036,45.38732223884098C52.299858265686034,45.47242223884098,51.70865826568603,45.489922238840975,51.135058265686034,45.451822238840975L51.11165826568603,58.16172223884098L36.20405826568604,60.26142223884098C36.50545826568603,59.44032223884098,36.67225826568604,58.569322238840975,36.67225826568604,57.67192223884098C36.67815826568604,54.03262223884098,33.953558265686034,51.463622238840976,30.588058265686037,51.93872223884098C27.225558265686036,52.41382223884098,24.489258265686033,55.75112223884098,24.483458265686036,59.390422238840976C24.480458265686035,60.28782223884098,24.644358265686037,61.11482223884098,24.939958265686037,61.85092223884098L9.666558265686035,64.00052223884097L9.695823365686035,48.179122238840975C13.058368265686035,47.70412223884098,15.797578265686035,44.36972223884098,15.803428265686035,40.73042223884098C15.809278265686036,37.09102223884098,13.084708265686036,34.52212223884098,9.719235365686036,34.99712223884097L9.748500465686035,19.17882223884098L21.454458265686036,17.530622238840976C21.369658265686034,17.008622238840978,21.328658265686038,16.460222238840977,21.331558265686034,15.900122238840977C21.346258265686036,10.436722238840979,25.452058265686034,5.430789238840978,30.494458265686035,4.721102438840978Z" fill="url(#master_svg3_278_25098)" fill-opacity="1"/></g></g><g><g><path d="M9.725096998078822,34.994228726115146L3.052676998078823,31.357828726115148L3.081941998078823,15.539428726115148L9.754356998078823,19.17583872611515L9.725096998078822,34.994228726115146Z" fill="url(#master_svg4_278_25098)" fill-opacity="1"/></g></g></g></g></g></svg>