<svg xmlns="http://www.w3.org/2000/svg" xmlns:xlink="http://www.w3.org/1999/xlink" fill="none" version="1.1" width="65" height="65" viewBox="0 0 65 65"><defs><linearGradient x1="0.5" y1="1" x2="0.5" y2="0" id="master_svg0_278_26846"><stop offset="0%" stop-color="#65B4A2" stop-opacity="1"/><stop offset="99.42853450775146%" stop-color="#A8D0C7" stop-opacity="1"/></linearGradient><filter id="master_svg1_278_27733" filterUnits="objectBoundingBox" color-interpolation-filters="sRGB" x="-4" y="-4" width="48.25798034667969" height="43.5981330871582"><feFlood flood-opacity="0" result="BackgroundImageFix"/><feColorMatrix in="SourceAlpha" type="matrix" values="0 0 0 0 0 0 0 0 0 0 0 0 0 0 0 0 0 0 127 0"/><feOffset dy="0" dx="0"/><feGaussianBlur stdDeviation="1"/><feColorMatrix type="matrix" values="0 0 0 0 0 0 0 0 0 0.4000000059604645 0 0 0 0 0.4000000059604645 0 0 0 0.3400000035762787 0"/><feBlend mode="normal" in2="BackgroundImageFix" result="effect1_dropShadow"/><feBlend mode="normal" in="SourceGraphic" in2="effect1_dropShadow" result="shape"/></filter></defs><g><g><rect x="0" y="0" width="65" height="65" rx="0" fill="#FFFFFF" fill-opacity="0.009999999776482582"/></g><g transform="matrix(0.9989957213401794,0.04480542987585068,-0.03684784471988678,0.9993208646774292,0.25986087194178253,-0.08197486354310968)"><g><path d="M9.505505744543076,7.000976556097157C9.289135744543076,7.004152556097157,9.086445744543076,7.053215756097157,8.907105744543076,7.139230556097157L8.908695744543076,7.137695556097158C8.895095744543076,7.144492556097157,8.881625744543076,7.1514645560971575,8.868295744543076,7.158611556097157C8.752555744543075,7.218725556097158,8.647235744543075,7.294559556097157,8.555095744543076,7.383565556097158L2.3577656745430757,13.350766556097156C2.3564915845430754,13.352046556097157,2.3554528045430754,13.353046556097159,2.3544157445430756,13.354046556097156C2.4438568445430757,13.268716556097157,2.5457417445430757,13.195406556097158,2.6573647445430755,13.134486556097158C2.6607467445430757,13.132636556097157,2.6641377445430754,13.130796556097156,2.6675377445430755,13.128976556097157C2.8619387445430755,13.027966556097157,3.0857077445430754,12.971376556097157,3.3256577445430757,12.971376556097157L9.526105744543075,7.001177314097157C9.521965744543076,7.000976556097157,9.513735744543077,7.000976556097157,9.505505744543076,7.000976556097157ZM9.526125744543076,7.002441406097157L3.3256577445430757,12.972636556097157L53.61651574454307,12.972636556097157L59.816915744543074,7.002441406097157L9.526125744543076,7.002441406097157Z" fill-rule="evenodd" fill="#73BCAB" fill-opacity="1"/></g><g><path d="M55.19243240356445,14.45582609375L61.39287240356445,8.48974609375L63.931132403564455,47.79644609375L63.931132403564455,47.79644609375L63.93168240356445,47.80004609375L63.93168240356445,47.80004609375L63.931472403564456,47.80174609375L61.62851240356445,50.01764609375L57.731232403564455,53.77024609375L57.731232403564455,53.76764609375L55.19243240356445,14.45582609375ZM63.931742403564456,47.80594609375L63.931472403564456,47.80174609375L57.730982403564454,53.77134609375L57.73119240356445,53.77454609375L57.73129240356445,53.77604609375C57.73979240356445,53.91104609375,57.729712403564456,54.04254609375,57.70328240356445,54.16774609375L57.701932403564456,54.16904609375C57.70133240356445,54.17384609375,57.70064240356445,54.17864609375,57.69986240356445,54.18354609375C57.696042403564455,54.20064609375,57.691922403564455,54.21764609375,57.687492403564455,54.23454609375L57.68712240356445,54.23594609375C57.684332403564454,54.24654609375,57.681422403564454,54.25704609375,57.67839240356445,54.26754609375L57.67741240356445,54.26854609375C57.67653240356445,54.27244609375,57.675602403564454,54.27644609375,57.67463240356445,54.28034609375C57.67241240356445,54.28774609375,57.67013240356445,54.29524609375,57.667792403564455,54.30254609375C57.66435240356445,54.31344609375,57.660782403564454,54.32424609375,57.657092403564455,54.33494609375C57.65509240356445,54.34074609375,57.65305240356445,54.34654609375,57.65097240356445,54.35234609375C57.64765240356445,54.36024609375,57.64412240356445,54.36794609375,57.640372403564456,54.37544609375L57.64367240356445,54.37224609375L57.641692403564456,54.37744609375L57.64034240356445,54.37874609375C57.639182403564455,54.38264609375,57.63799240356445,54.38644609375,57.636762403564454,54.39024609375C57.635912403564454,54.39234609375,57.635062403564454,54.39454609375,57.634212403564455,54.39664609375C57.63340240356445,54.39874609375,57.632582403564456,54.40074609375,57.63176240356445,54.40274609375C57.628842403564455,54.41004609375,57.625862403564454,54.41724609375,57.622822403564456,54.42444609375C57.62178240356445,54.42684609375,57.620742403564456,54.42934609375,57.619682403564454,54.43184609375C57.61802240356445,54.43564609375,57.61634240356445,54.43954609375,57.614652403564456,54.44334609375C57.61287240356445,54.44744609375,57.61108240356445,54.45144609375,57.60928240356445,54.45544609375C57.606722403564454,54.46104609375,57.60412240356445,54.46674609375,57.60149240356445,54.47234609375C57.596962403564454,54.48074609375,57.592082403564454,54.48924609375,57.586842403564454,54.49804609375L57.591192403564456,54.49384609375L57.589622403564455,54.49704609375L57.588842403564456,54.49864609375C57.58569240356445,54.50494609375,57.582502403564455,54.51134609375,57.57925240356445,54.51764609375C57.511382403564454,54.64974609375,57.42310240356446,54.76894609375,57.31823240356445,54.87064609375L57.37043240356445,54.82044609375C57.352632403564456,54.83984609375,57.334292403564454,54.85904609375,57.315422403564455,54.87784609375L63.515862403564455,48.90764609375C63.58992240356445,48.83774609375,63.65575240356445,48.75554609375,63.71333240356445,48.66904609375C63.742132403564455,48.62384609375,63.766822403564454,48.57854609375,63.79150240356445,48.52924609375L63.78763240356445,48.53294609375C63.82484240356445,48.45854609375,63.855582403564455,48.38004609375,63.879152403564454,48.29824609375C63.881102403564455,48.29144609375,63.883002403564454,48.28464609375,63.88485240356445,48.27784609375L63.88617240356445,48.27304609375C63.89136240356446,48.25364609375,63.89616240356445,48.23404609375,63.900552403564454,48.21434609375C63.901272403564455,48.21104609375,63.90198240356445,48.20784609375,63.90267240356445,48.20464609375L63.90267240356445,48.20464609375L63.90679240356445,48.19994609375C63.91090240356445,48.16714609375,63.919132403564454,48.13424609375,63.92322240356445,48.10154609375C63.92575240356445,48.08134609375,63.926722403564455,48.06114609375,63.928022403564455,48.04084609375C63.928222403564455,48.03874609375,63.92841240356445,48.03664609375,63.92861240356445,48.03454609375C63.92953240356445,48.02454609375,63.93034240356445,48.01444609375,63.931062403564454,48.00434609375L63.931332403564454,48.00204609375C63.93544240356445,47.96914609375,63.93544240356445,47.93624609375,63.93567240356445,47.90304609375C63.93567240356445,47.87074609375,63.93567240356445,47.83834609375,63.931742403564456,47.80594609375Z" fill-rule="evenodd" fill="#408778" fill-opacity="1"/></g><g><path d="M54.92848281616211,13.68438171875C55.07878281616211,13.909391718750001,55.17398281616211,14.17405171875,55.19237281616211,14.45814171875L61.392812816162106,8.48795171875L61.392542816162106,8.48392171875C61.39278281616211,8.45079171875,61.38866281616211,8.41790171875,61.38454281616211,8.38510171875C61.38043281616211,8.34809171875,61.37631281616211,8.31520171875,61.36811281616211,8.27819171875C61.36012281616211,8.24229171875,61.34827281616211,8.20640171875,61.34006281616211,8.17050171875L61.34343281616211,8.16725171875C61.33109281616211,8.126131718749999,61.31874281616211,8.08502171875,61.30228281616211,8.04396171875C61.28171281616211,7.99873671875,61.261142816162106,7.94939571875,61.24056281616211,7.90416771875L61.23922281616211,7.90545471875C61.20255281616211,7.83235171875,61.16186281616211,7.75934671875,61.11715281616211,7.69436571875L61.11539281616211,7.69606271875C61.10249281616211,7.67735371875,61.08921281616211,7.65892871875,61.07556281616211,7.64079571875C61.01027281616211,7.55139071875,60.93635281616211,7.47059671875,60.85378281616211,7.39838771875C60.79207281616211,7.34082371875,60.72624281616211,7.29148271875,60.65631281616211,7.24607771875C60.61188281616211,7.21782671875,60.567462816162106,7.19353771875,60.51915281616211,7.16932171875L60.52052281616211,7.16800371875C60.47938281616211,7.14744471875,60.442352816162106,7.13099771875,60.40119281616211,7.11471171875C60.36828281616211,7.09826491875,60.331252816162106,7.08592981875,60.29422281616211,7.07346621875C60.26130281616211,7.06524271875,60.22428281616211,7.05290761875,60.19137281616211,7.04476451875C60.15845281616211,7.03654111875,60.12554281616211,7.02831771875,60.092622816162105,7.02419001875C60.05971281616211,7.01596651875,60.02679281616211,7.01185481875,59.99388281616211,7.00773511875C59.96096281616211,7.00362341875,59.92805281616211,6.99951171875,59.89515281616211,6.99951171875L59.81698281616211,6.99951171875L53.61654281616211,12.96971171875C54.12336681616211,12.96971171875,54.58604881616211,13.223361718749999,54.87772281616211,13.612661718750001C54.88983281616211,13.62969171875,54.90147281616211,13.64702171875,54.91259281616211,13.66467171875L54.91411281616211,13.66322171875C54.91896281616211,13.67023171875,54.92375281616211,13.677281718749999,54.92848281616211,13.68438171875Z" fill-rule="evenodd" fill="#95C9BF" fill-opacity="1"/></g><g><path d="M53.6162689453125,12.97237390875C54.4350689453125,12.97237390875,55.1385689453125,13.63847071875,55.1920689453125,14.46081171875L57.7307689453125,53.77286171875C57.7841689453125,54.59516171875,57.1670689453125,55.26126171875,56.3441689453125,55.26126171875L6.0574389453125,55.26126171875C5.238658945312499,55.26126171875,4.5309789453125,54.59516171875,4.4774889453124995,53.77286171875L1.9388792153125,14.45670171875C1.8853914453125,13.63435771875,2.5066719453125,12.96826171875,3.3254489453125,12.96826171875L53.6162689453125,12.97237390875Z" fill="url(#master_svg0_278_26846)" fill-opacity="1"/></g><g transform="matrix(0.9989964365959167,-0.046248748898506165,0.03569929674267769,0.9993205070495605,-0.5811838693662139,0.4069369098797324)" filter="url(#master_svg1_278_27733)"><path d="M23.71235234375,25.0314978125L18.95535234375,16.5205078125L16.95877234375,17.6295978125L21.02645234375,24.907477812499998L20.01275234375,26.337567812499998L12.25777234375,20.9741478125L10.94132234375,22.8310578125L18.69635234375,28.1945078125L17.243682343750002,30.2434078125L8.92844834375,28.957207812500002L8.55615234375,31.1896078125L18.28039234375,32.6939078125L23.71235234375,25.0314978125ZM35.23955234375,32.690307812499995L43.87215234375,27.895007812499998L42.77185234375,25.926527812499998L35.38995234375,30.027007812500003L33.95665234375,29.0357078125L39.44165234375,21.2985978125L37.58045234375,20.0113878125L32.09545234375,27.7485078125L30.04165234375,26.3281278125L31.41825234375,18.0741978125L29.16905234375,17.7262878125L27.55935234375,27.3787078125L35.23955234375,32.690307812499995ZM26.83345234375,35.8248078125C27.99635234375,36.6290078125,29.59905234375,36.3499078125,30.41335234375,35.201307812500005C31.22755234375,34.0527078125,30.94505234375,32.4696078125,29.78215234375,31.6653078125C28.61935234375,30.8610078125,27.01655234375,31.1402078125,26.20235234375,32.288807812499996C25.38805234375,33.4374078125,25.67065234375,35.0205078125,26.83345234375,35.8248078125ZM33.65795234375,43.6076078125L38.41495234375,52.1186078125L40.41155234375,51.0095078125L36.34385234375,43.731707812500005L37.35755234375,42.301607812499995L45.11255234375,47.6650078125L46.42895234375,45.8081078125L38.67395234375,40.4447078125L40.126652343749996,38.3957078125L48.44185234375,39.682007812500004L48.81415234375,37.4495078125L39.089852343749996,35.945307812500005L33.65795234375,43.6076078125ZM21.69205234375,36.5675078125L13.05947234375,41.3627078125L14.159732343750001,43.3312078125L21.541652343750002,39.2307078125L22.974952343749997,40.222007812499996L17.48999234375,47.9591078125L19.35115234375,49.2464078125L24.83615234375,41.5092078125L26.88995234375,42.929607812499995L25.51345234375,51.1835078125L27.76255234375,51.5315078125L29.37225234375,41.879107812499996L21.69205234375,36.5675078125Z" fill-rule="evenodd" fill="#F9FCFB" fill-opacity="0.9599999785423279"/></g></g></g></svg>