<svg xmlns="http://www.w3.org/2000/svg" xmlns:xlink="http://www.w3.org/1999/xlink" fill="none" version="1.1" width="65" height="65" viewBox="0 0 65 65"><defs><linearGradient x1="1" y1="0.5" x2="0" y2="0.5" id="master_svg0_295_24341"><stop offset="0%" stop-color="#E27965" stop-opacity="1"/><stop offset="40.85715115070343%" stop-color="#FFD1C9" stop-opacity="1"/><stop offset="97.99996614456177%" stop-color="#E27965" stop-opacity="1"/></linearGradient><filter id="master_svg1_295_23087" filterUnits="objectBoundingBox" color-interpolation-filters="sRGB" x="-4" y="-4" width="30.5" height="28"><feFlood flood-opacity="0" result="BackgroundImageFix"/><feColorMatrix in="SourceAlpha" type="matrix" values="0 0 0 0 0 0 0 0 0 0 0 0 0 0 0 0 0 0 127 0"/><feOffset dy="0" dx="0"/><feGaussianBlur stdDeviation="1"/><feColorMatrix type="matrix" values="0 0 0 0 0.7803921699523926 0 0 0 0 0.40392157435417175 0 0 0 0 0.3333333432674408 0 0 0 0.800000011920929 0"/><feBlend mode="normal" in2="BackgroundImageFix" result="effect1_dropShadow"/><feBlend mode="normal" in="SourceGraphic" in2="effect1_dropShadow" result="shape"/></filter></defs><g><g><rect x="0" y="0" width="65" height="65" rx="0" fill="#FFFFFF" fill-opacity="0.009999999776482582"/></g><g><g><path d="M63,19L3,19L3,46.7177C3,53.7157,16.4315,59.3887,33,59.3887C49.5685,59.3887,63,53.7157,63,46.7177L63,19Z" fill-rule="evenodd" fill="url(#master_svg0_295_24341)" fill-opacity="1"/></g><g><ellipse cx="33" cy="19.149797439575195" rx="30" ry="13.149797439575195" fill="#F9B5A8" fill-opacity="1"/></g><g><path d="M21.837113788757325,26.25062822341919L24.945683788757325,27.603228223419187L16.021664788757324,27.32452822341919L15.380953788757324,23.441628223419187L18.489513788757325,24.79422822341919L26.517453788757322,21.30095822341919L29.865053788757322,22.75762822341919L21.837113788757325,26.25062822341919ZM44.07515378875732,13.661398223419189L40.966553788757324,12.309044223419189L49.89055378875732,12.58775822341919L50.531253788757326,16.47062822341919L47.422753788757326,15.11805822341919L39.394853788757324,18.61111822341919L36.047253788757324,17.15466822341919L44.07515378875732,13.661398223419189ZM22.334633788757323,12.98798822341919L25.443153788757325,11.63562822341919L16.519183788757324,11.91434122341919L15.878471788757324,15.79720822341919L18.987033788757323,14.44464822341919L27.015253788757324,17.93769822341919L30.362853788757324,16.48124822341919L22.334633788757323,12.98798822341919ZM45.11525378875733,25.813228223419188L42.00675378875732,27.16582822341919L50.93075378875732,26.88712822341919L51.571453788757324,23.00422822341919L48.46285378875732,24.35682822341919L40.434953788757326,20.86376822341919L37.087353788757326,22.32022822341919L45.11525378875733,25.813228223419188Z" fill="#FFFFFF" fill-opacity="1"/></g><g filter="url(#master_svg1_295_23087)"><path d="M35.7529,47.7665Q39.2307,51.1152,44.5,55.1398L44.4473,55.447Q42.550399999999996,55.8771,40.548,56L39.9684,55.7849Q35.6475,52.0061,32.2225,48.411699999999996L26.057380000000002,48.411699999999996L26.057380000000002,49.5791L26.26815,55.7235L22,55.7235L22.263466,49.794200000000004L22,36.0307216L32.3279,36Q37.281,36,39.9947,37.45929Q42.7084,38.91859,42.7084,41.62212Q42.7084,43.649770000000004,40.8905,45.26267Q39.0726,46.8756,35.7529,47.7665ZM26.11007,46.3226L32.4333,46.414699999999996Q38.334900000000005,45.43164,38.334900000000005,41.83717Q38.334900000000005,39.96313,36.596000000000004,39.02611Q34.8571,38.08909,31.37939,38.02765L26.26815,38.11982L26.11007,46.3226Z" fill="#FFFFFF" fill-opacity="0.9599999785423279"/></g></g></g></svg>