<svg xmlns="http://www.w3.org/2000/svg" xmlns:xlink="http://www.w3.org/1999/xlink" fill="none" version="1.1" width="65" height="65" viewBox="0 0 65 65"><defs><linearGradient x1="0" y1="-0.004017223138362169" x2="0.5" y2="1" id="master_svg0_295_30233"><stop offset="9.428536891937256%" stop-color="#E6E6E6" stop-opacity="1"/><stop offset="97.99996614456177%" stop-color="#CACACA" stop-opacity="1"/></linearGradient><linearGradient x1="0" y1="0.5" x2="1" y2="0.5" id="master_svg1_295_30397"><stop offset="0%" stop-color="#E8E8E8" stop-opacity="1"/><stop offset="100%" stop-color="#BBBFC4" stop-opacity="1"/></linearGradient></defs><g><g><rect x="0" y="0" width="65" height="65" rx="0" fill="#FFFFFF" fill-opacity="0.009999999776482582"/></g><g><g><rect x="12" y="6.232876777648926" width="34.72602844238281" height="58.76712417602539" rx="0" fill="url(#master_svg0_295_30233)" fill-opacity="1"/></g><g><path d="M12,6.23288L46.726,6.23288L52.9589,0L19.56849,0L12,6.23288Z" fill="url(#master_svg1_295_30397)" fill-opacity="1"/></g><g><path d="M46.72602844238281,65L52.958908442382814,59.2123L52.958908442382814,0L46.72602844238281,6.23288L46.72602844238281,65Z" fill="#969696" fill-opacity="1"/></g><g style="opacity:0.9599999785423279;"><g><path d="M16.829733,43.9231649432373C16.384822,44.3103849432373,16.369966,44.996574943237306,16.7977,45.402684943237304L21.47685,49.845314943237305L21.47685,46.8119749432373Q22.46941,46.37444494323731,23.12791,46.6732049432373Q24.42593,47.26211494323731,24.42593,50.711944943237306L26.1111,50.711944943237306Q26.1111,46.49998494323731,24.16518,45.199314943237304Q23.10812,44.49277494323731,21.47685,44.6453149432373L21.47685,39.878644943237305L16.829733,43.9231649432373Z" fill="#FFFFFF" fill-opacity="1"/></g><g transform="matrix(0,-1,1,0,-35.361979484558105,82.5286455154419)"><path d="M24.481991015441896,62.8402925C24.009196015441894,63.2292325,23.993744015441894,63.9478925,24.449384015441893,64.3567925L29.216663015441895,68.6351225L29.216663015441895,65.6860525Q30.277743015441896,65.2439425,30.967643015441894,65.5750925Q32.25000301544189,66.1906225,32.25000301544189,69.4777125L33.98333301544189,69.4777125Q33.98333301544189,65.5282025,32.121483015441896,64.2116025Q31.004263015441893,63.421572499999996,29.216663015441895,63.5795725L29.216663015441895,58.9453125L24.481991015441896,62.8402925Z" fill="#FFFFFF" fill-opacity="1"/></g><g transform="matrix(0,1,-1,0,67.48234939575195,-1.5917243957519531)"><path d="M35.43569489575195,36.8402925C34.96289989575195,37.2292325,34.94744789575196,37.9478925,35.40308789575195,38.3567925L40.170366895751954,42.6351225L40.170366895751954,39.6860525Q41.23144689575195,39.2439425,41.92134689575195,39.5750925Q43.20370689575195,40.1906225,43.20370689575195,43.4777125L44.93703689575195,43.4777125Q44.93703689575195,39.5282025,43.075186895751955,38.2116025Q41.95796689575195,37.421572499999996,40.170366895751954,37.5795725L40.170366895751954,32.9453125L35.43569489575195,36.8402925Z" fill="#FFFFFF" fill-opacity="1"/></g><g transform="matrix(-1,0,0,-1,85.9259262084961,102.29062271118164)"><path d="M43.792696104248044,55.18983135559082C43.34778510424805,55.57705135559082,43.332929104248045,56.26324135559082,43.760663104248046,56.66935135559082L48.439813104248046,61.11198135559082L48.439813104248046,58.07864135559082Q49.43237310424804,57.64111135559082,50.09087310424805,57.93987135559082Q51.38889310424805,58.52878135559082,51.38889310424805,61.97861135559082L53.07406310424805,61.97861135559082Q53.07406310424805,57.766651355590824,51.128143104248046,56.46598135559082Q50.071083104248046,55.75944135559082,48.439813104248046,55.91198135559082L48.439813104248046,51.14531135559082L43.792696104248044,55.18983135559082Z" fill="#FFFFFF" fill-opacity="1"/></g></g><g><rect x="13.780821919441223" y="11.575343132019043" width="15.13698673248291" height="4.452054977416992" rx="0" fill="#FFFFFF" fill-opacity="1"/></g><g><rect x="12" y="25.821918487548828" width="34.72602844238281" height="1.7808219194412231" rx="0" fill="#EBEBEB" fill-opacity="1"/></g></g></g></svg>